G04 #@! TF.FileFunction,Legend,Bot*
%FSLAX46Y46*%
G04 Gerber Fmt 4.6, Leading zero omitted, Abs format (unit mm)*
G04 Created by KiCad (PCBNEW 4.0.2+dfsg1-stable) date Sun 24 Sep 2017 04:33:04 PM CDT*
%MOMM*%
G01*
G04 APERTURE LIST*
%ADD10C,0.100000*%
%ADD11C,0.010000*%
G04 APERTURE END LIST*
D10*
D11*
G36*
X57139118Y-97852229D02*
X57230827Y-97966216D01*
X57434767Y-98189433D01*
X57742011Y-98512810D01*
X58143634Y-98927279D01*
X58630710Y-99423769D01*
X59194313Y-99993210D01*
X59825518Y-100626532D01*
X60515397Y-101314667D01*
X61255027Y-102048543D01*
X61756663Y-102544243D01*
X64104002Y-104860154D01*
X63731700Y-105549910D01*
X63275263Y-106508614D01*
X62948884Y-107467313D01*
X62742918Y-108466084D01*
X62647718Y-109545005D01*
X62638498Y-110092000D01*
X62652145Y-110735755D01*
X62693310Y-111280070D01*
X62768619Y-111793543D01*
X62834824Y-112124000D01*
X62917809Y-112513403D01*
X62988933Y-112860246D01*
X63039052Y-113119196D01*
X63056847Y-113224666D01*
X63051039Y-113294469D01*
X63008116Y-113384196D01*
X62916095Y-113505706D01*
X62762990Y-113670862D01*
X62536816Y-113891525D01*
X62225589Y-114179554D01*
X61817325Y-114546813D01*
X61300038Y-115005161D01*
X60918119Y-115341333D01*
X60068864Y-116090078D01*
X59342666Y-116735840D01*
X58733069Y-117284726D01*
X58233616Y-117742842D01*
X57837850Y-118116293D01*
X57539317Y-118411185D01*
X57331559Y-118633624D01*
X57208120Y-118789716D01*
X57162543Y-118885566D01*
X57161999Y-118893547D01*
X57222352Y-118990020D01*
X57398563Y-119195503D01*
X57683365Y-119502759D01*
X58069490Y-119904553D01*
X58549670Y-120393645D01*
X59116638Y-120962800D01*
X59763125Y-121604780D01*
X60481863Y-122312349D01*
X61265586Y-123078267D01*
X62107024Y-123895300D01*
X62998910Y-124756209D01*
X63933976Y-125653758D01*
X64360007Y-126061092D01*
X65100210Y-126767324D01*
X65728321Y-127364876D01*
X66254164Y-127862588D01*
X66687565Y-128269296D01*
X67038346Y-128593839D01*
X67316333Y-128845055D01*
X67531350Y-129031781D01*
X67693221Y-129162855D01*
X67811770Y-129247116D01*
X67896822Y-129293401D01*
X67958201Y-129310548D01*
X67973001Y-129311333D01*
X68040018Y-129301562D01*
X68126726Y-129265533D01*
X68245598Y-129193171D01*
X68409110Y-129074403D01*
X68629735Y-128899154D01*
X68919949Y-128657350D01*
X69292227Y-128338917D01*
X69759042Y-127933780D01*
X70332869Y-127431867D01*
X70708666Y-127102080D01*
X71917156Y-126039249D01*
X73051795Y-125038373D01*
X74107895Y-124103677D01*
X75080768Y-123239389D01*
X75965725Y-122449735D01*
X76758078Y-121738944D01*
X77453140Y-121111241D01*
X78046221Y-120570854D01*
X78532633Y-120122010D01*
X78907688Y-119768936D01*
X79166698Y-119515860D01*
X79304975Y-119367007D01*
X79327919Y-119330797D01*
X79285130Y-119216386D01*
X79129539Y-119014888D01*
X78855904Y-118720466D01*
X78458979Y-118327279D01*
X78230298Y-118108556D01*
X77107091Y-117043350D01*
X76299712Y-117872217D01*
X75945388Y-118224604D01*
X75575231Y-118573650D01*
X75232793Y-118879355D01*
X74961624Y-119101718D01*
X74958563Y-119104032D01*
X74297137Y-119520556D01*
X73516574Y-119872991D01*
X72659824Y-120146257D01*
X71769838Y-120325273D01*
X71343666Y-120373278D01*
X71039960Y-120397031D01*
X70887815Y-120401935D01*
X70870076Y-120383606D01*
X70969590Y-120337661D01*
X71062143Y-120301337D01*
X72117043Y-119811559D01*
X73092432Y-119188020D01*
X74007114Y-118417778D01*
X74453805Y-117966945D01*
X75258814Y-116984837D01*
X75939383Y-115893738D01*
X76491271Y-114703931D01*
X76910238Y-113425697D01*
X77192045Y-112069318D01*
X77307922Y-111046304D01*
X77337976Y-109615426D01*
X77214232Y-108206720D01*
X76940941Y-106837061D01*
X76522351Y-105523320D01*
X75962712Y-104282372D01*
X75342702Y-103242812D01*
X74641561Y-102337208D01*
X73826009Y-101516816D01*
X72925007Y-100806304D01*
X71967516Y-100230339D01*
X71597666Y-100053121D01*
X70920333Y-99751291D01*
X71767000Y-99798093D01*
X72613666Y-99844895D01*
X73017989Y-99003338D01*
X73194042Y-98648558D01*
X73355837Y-98343335D01*
X73482928Y-98125080D01*
X73544956Y-98039138D01*
X73679443Y-97968411D01*
X73906948Y-97900264D01*
X74167929Y-97846363D01*
X74402842Y-97818372D01*
X74552144Y-97827955D01*
X74569905Y-97838349D01*
X74551727Y-97925742D01*
X74474544Y-98139061D01*
X74349462Y-98450093D01*
X74187583Y-98830628D01*
X74108272Y-99011207D01*
X73933300Y-99415360D01*
X73790048Y-99764522D01*
X73689765Y-100029788D01*
X73643698Y-100182257D01*
X73643328Y-100205889D01*
X73729357Y-100274392D01*
X73925744Y-100402100D01*
X74195280Y-100565163D01*
X74290040Y-100620416D01*
X75261311Y-101279073D01*
X76139112Y-102077076D01*
X76921077Y-103011034D01*
X77604840Y-104077557D01*
X78188034Y-105273252D01*
X78668294Y-106594731D01*
X78817930Y-107109379D01*
X78887767Y-107373074D01*
X78941457Y-107605944D01*
X78981154Y-107835850D01*
X79009016Y-108090652D01*
X79027196Y-108398212D01*
X79037851Y-108786391D01*
X79043137Y-109283050D01*
X79045207Y-109916051D01*
X79045409Y-110049666D01*
X79048333Y-112166333D01*
X78776670Y-113143783D01*
X78639678Y-113607893D01*
X78484897Y-114087074D01*
X78334297Y-114515247D01*
X78241792Y-114752450D01*
X78094358Y-115109299D01*
X77952586Y-115457940D01*
X77845256Y-115727547D01*
X77838465Y-115745010D01*
X77698355Y-116106353D01*
X79289568Y-117699222D01*
X80880781Y-119292090D01*
X79922224Y-120180493D01*
X79667126Y-120414781D01*
X79302341Y-120746732D01*
X78844556Y-121161302D01*
X78310460Y-121643447D01*
X77716742Y-122178124D01*
X77080089Y-122750289D01*
X76417190Y-123344898D01*
X75744733Y-123946907D01*
X75661666Y-124021186D01*
X74663789Y-124913622D01*
X73785234Y-125700065D01*
X73018899Y-126387176D01*
X72357681Y-126981616D01*
X71794479Y-127490045D01*
X71322191Y-127919123D01*
X70933714Y-128275512D01*
X70621947Y-128565871D01*
X70379787Y-128796862D01*
X70200132Y-128975145D01*
X70075880Y-129107380D01*
X69999930Y-129200228D01*
X69965178Y-129260350D01*
X69964522Y-129294406D01*
X69990862Y-129309056D01*
X70020817Y-129311333D01*
X70094992Y-129256538D01*
X70283609Y-129099041D01*
X70575028Y-128849168D01*
X70957605Y-128517249D01*
X71419698Y-128113612D01*
X71949666Y-127648585D01*
X72535864Y-127132498D01*
X73166652Y-126575678D01*
X73830387Y-125988454D01*
X74515426Y-125381155D01*
X75210127Y-124764109D01*
X75902848Y-124147644D01*
X76581946Y-123542088D01*
X77235779Y-122957772D01*
X77852705Y-122405022D01*
X78421081Y-121894167D01*
X78929265Y-121435537D01*
X79365614Y-121039458D01*
X79718487Y-120716261D01*
X79917344Y-120531663D01*
X80268498Y-120198562D01*
X80578522Y-119896553D01*
X80824889Y-119648210D01*
X80985072Y-119476101D01*
X81033970Y-119412862D01*
X81054857Y-119233815D01*
X80958999Y-119032971D01*
X80855151Y-118908034D01*
X80648346Y-118686308D01*
X80358205Y-118387832D01*
X80004349Y-118032644D01*
X79606398Y-117640781D01*
X79389589Y-117430175D01*
X77973432Y-116061000D01*
X78271802Y-115369593D01*
X78608120Y-114514811D01*
X78899599Y-113625560D01*
X79126049Y-112767381D01*
X79226628Y-112269927D01*
X79275754Y-111939156D01*
X79309405Y-111586841D01*
X79328754Y-111180667D01*
X79334978Y-110688316D01*
X79329251Y-110077472D01*
X79321196Y-109668666D01*
X79306111Y-109052667D01*
X79289444Y-108572467D01*
X79267554Y-108194542D01*
X79236802Y-107885371D01*
X79193550Y-107611432D01*
X79134158Y-107339201D01*
X79054987Y-107035156D01*
X79022480Y-106917000D01*
X78904561Y-106501088D01*
X78788252Y-106107288D01*
X78688986Y-105787022D01*
X78635025Y-105626069D01*
X78463443Y-105213018D01*
X78218651Y-104708392D01*
X77925887Y-104158392D01*
X77610386Y-103609219D01*
X77297386Y-103107075D01*
X77104128Y-102823432D01*
X76882384Y-102511238D01*
X76695087Y-102244612D01*
X76565765Y-102057216D01*
X76521412Y-101989666D01*
X76513787Y-101953407D01*
X76523675Y-101887535D01*
X76555897Y-101781354D01*
X76615274Y-101624170D01*
X76706628Y-101405289D01*
X76834779Y-101114015D01*
X77004549Y-100739655D01*
X77220758Y-100271512D01*
X77488229Y-99698893D01*
X77811782Y-99011103D01*
X78196238Y-98197448D01*
X78646419Y-97247231D01*
X78906013Y-96699975D01*
X80178465Y-94018284D01*
X80087898Y-93122808D01*
X80039356Y-92700799D01*
X79991940Y-92425742D01*
X79940381Y-92275376D01*
X79879408Y-92227440D01*
X79875880Y-92227333D01*
X79820844Y-92253155D01*
X79791384Y-92349619D01*
X79785329Y-92545226D01*
X79800508Y-92868474D01*
X79812982Y-93053237D01*
X79871536Y-93879141D01*
X79744119Y-93900299D01*
X79744119Y-94131447D01*
X79768000Y-94149735D01*
X79732892Y-94232721D01*
X79632236Y-94453741D01*
X79473028Y-94797822D01*
X79262265Y-95249990D01*
X79006945Y-95795275D01*
X78714065Y-96418702D01*
X78390621Y-97105300D01*
X78043613Y-97840096D01*
X78020815Y-97888308D01*
X77670996Y-98626922D01*
X77342213Y-99318934D01*
X77041718Y-99949238D01*
X76776762Y-100502725D01*
X76554596Y-100964288D01*
X76382471Y-101318821D01*
X76267638Y-101551216D01*
X76217348Y-101646366D01*
X76216605Y-101647309D01*
X76130090Y-101626859D01*
X75946664Y-101517883D01*
X75698962Y-101340902D01*
X75571956Y-101241935D01*
X75220994Y-100975528D01*
X74836640Y-100705579D01*
X74494786Y-100485119D01*
X74455166Y-100461533D01*
X74196744Y-100300086D01*
X74008279Y-100163841D01*
X73926834Y-100079862D01*
X73926000Y-100075110D01*
X73958536Y-99973361D01*
X74047593Y-99748316D01*
X74180345Y-99431164D01*
X74343965Y-99053089D01*
X74380165Y-98970868D01*
X74554965Y-98570914D01*
X74708188Y-98212735D01*
X74824743Y-97932142D01*
X74889541Y-97764942D01*
X74893871Y-97751833D01*
X74913889Y-97704509D01*
X74936502Y-97662047D01*
X74951756Y-97625849D01*
X74949699Y-97597317D01*
X74920379Y-97577856D01*
X74853844Y-97568867D01*
X74740141Y-97571753D01*
X74569319Y-97587918D01*
X74331424Y-97618764D01*
X74016506Y-97665694D01*
X73614610Y-97730110D01*
X73120516Y-97812626D01*
X73120516Y-98085692D01*
X73124344Y-98086303D01*
X73100543Y-98167971D01*
X73015940Y-98366578D01*
X72885659Y-98647708D01*
X72796929Y-98831333D01*
X72444333Y-99551000D01*
X71087478Y-99519456D01*
X70566472Y-99509567D01*
X70189216Y-99509025D01*
X69930295Y-99519576D01*
X69764297Y-99542967D01*
X69665808Y-99580946D01*
X69620763Y-99620287D01*
X69571100Y-99709192D01*
X69632215Y-99762647D01*
X69832977Y-99805719D01*
X69834618Y-99805989D01*
X70806458Y-100045924D01*
X71771675Y-100436314D01*
X72699857Y-100959962D01*
X73560595Y-101599669D01*
X74323478Y-102338238D01*
X74335123Y-102351212D01*
X75047126Y-103260402D01*
X75675322Y-104295022D01*
X76206346Y-105426516D01*
X76626829Y-106626326D01*
X76923408Y-107865898D01*
X76927941Y-107890666D01*
X76986814Y-108343207D01*
X77026695Y-108919139D01*
X77047643Y-109573592D01*
X77049716Y-110261698D01*
X77032971Y-110938589D01*
X76997468Y-111559397D01*
X76943265Y-112079253D01*
X76922330Y-112214913D01*
X76649805Y-113406807D01*
X76251040Y-114566708D01*
X75738914Y-115673000D01*
X75126305Y-116704063D01*
X74426092Y-117638280D01*
X73651153Y-118454033D01*
X72814368Y-119129701D01*
X72795034Y-119143053D01*
X72321805Y-119429190D01*
X71752118Y-119713793D01*
X71154177Y-119966448D01*
X70596183Y-120156744D01*
X70412333Y-120205540D01*
X70014316Y-120301492D01*
X69755854Y-120368469D01*
X69611683Y-120416346D01*
X69556543Y-120454998D01*
X69565172Y-120494301D01*
X69593697Y-120525564D01*
X69718292Y-120559907D01*
X70003212Y-120579486D01*
X70440073Y-120584036D01*
X71020488Y-120573291D01*
X71062720Y-120572065D01*
X71615537Y-120552411D01*
X72037117Y-120527639D01*
X72365556Y-120492971D01*
X72638951Y-120443630D01*
X72895398Y-120374840D01*
X73058166Y-120321838D01*
X73348497Y-120225805D01*
X73564707Y-120159950D01*
X73668194Y-120135874D01*
X73672000Y-120137339D01*
X73611323Y-120199147D01*
X73441332Y-120356502D01*
X73180085Y-120593370D01*
X72845638Y-120893718D01*
X72456049Y-121241513D01*
X72029375Y-121620721D01*
X71583674Y-122015308D01*
X71137004Y-122409242D01*
X70707421Y-122786488D01*
X70312984Y-123131014D01*
X69971750Y-123426786D01*
X69833896Y-123545243D01*
X69003456Y-124256152D01*
X68564894Y-123836430D01*
X68403169Y-123681218D01*
X68136435Y-123424706D01*
X67781564Y-123083143D01*
X67355432Y-122672780D01*
X66874913Y-122209865D01*
X66356881Y-121710650D01*
X65826287Y-121199170D01*
X63526241Y-118981633D01*
X64344620Y-118226098D01*
X64685386Y-117914881D01*
X65013860Y-117620842D01*
X65293360Y-117376457D01*
X65487201Y-117214200D01*
X65491936Y-117210444D01*
X65820873Y-116950326D01*
X66092894Y-117118444D01*
X66786492Y-117453546D01*
X67592706Y-117674935D01*
X68409910Y-117773511D01*
X68811138Y-117793347D01*
X69077669Y-117796073D01*
X69243601Y-117778048D01*
X69343033Y-117735636D01*
X69408807Y-117666926D01*
X69450032Y-117589280D01*
X69430555Y-117517890D01*
X69326906Y-117433509D01*
X69115617Y-117316888D01*
X68782514Y-117153257D01*
X68438900Y-116968034D01*
X68088850Y-116746007D01*
X67757166Y-116507497D01*
X67468645Y-116272822D01*
X67248087Y-116062301D01*
X67120292Y-115896255D01*
X67110057Y-115795001D01*
X67117130Y-115788722D01*
X67209682Y-115711729D01*
X67404408Y-115543333D01*
X67677022Y-115304742D01*
X68003238Y-115017166D01*
X68186902Y-114854500D01*
X68527533Y-114555549D01*
X68824354Y-114301113D01*
X69054232Y-114110549D01*
X69194032Y-114003213D01*
X69224130Y-113986666D01*
X69302022Y-114041953D01*
X69481404Y-114195272D01*
X69741204Y-114427814D01*
X70060350Y-114720768D01*
X70355692Y-114996772D01*
X70822840Y-115435254D01*
X71184797Y-115769715D01*
X71458741Y-116013183D01*
X71661846Y-116178687D01*
X71811289Y-116279254D01*
X71924246Y-116327912D01*
X72017892Y-116337689D01*
X72104143Y-116322947D01*
X72257123Y-116227764D01*
X72472336Y-116020570D01*
X72723530Y-115733731D01*
X72984453Y-115399611D01*
X73228853Y-115050575D01*
X73430477Y-114718989D01*
X73477958Y-114629218D01*
X73606704Y-114355278D01*
X73766332Y-113987281D01*
X73929048Y-113590008D01*
X73984460Y-113448597D01*
X74126277Y-113061535D01*
X74202745Y-112794742D01*
X74221142Y-112615519D01*
X74194761Y-112503585D01*
X74104460Y-112381332D01*
X73913787Y-112171394D01*
X73647790Y-111899860D01*
X73331516Y-111592815D01*
X73214192Y-111482362D01*
X72895301Y-111178408D01*
X72626378Y-110910325D01*
X72429565Y-110701107D01*
X72327005Y-110573751D01*
X72317333Y-110550960D01*
X72352807Y-110450182D01*
X72452083Y-110220742D01*
X72604444Y-109886033D01*
X72799173Y-109469447D01*
X73025552Y-108994376D01*
X73124522Y-108789165D01*
X73364745Y-108286769D01*
X73580806Y-107823473D01*
X73761079Y-107425137D01*
X73893939Y-107117622D01*
X73967757Y-106926790D01*
X73977656Y-106891551D01*
X73958814Y-106685829D01*
X73856341Y-106376165D01*
X73687097Y-105994906D01*
X73467942Y-105574402D01*
X73215734Y-105147000D01*
X72947335Y-104745050D01*
X72679603Y-104400900D01*
X72679500Y-104400781D01*
X72337606Y-104024452D01*
X71992613Y-103682062D01*
X71669705Y-103395367D01*
X71394063Y-103186119D01*
X71190872Y-103076072D01*
X71132774Y-103064666D01*
X71039342Y-103110012D01*
X70926822Y-103258981D01*
X70783270Y-103530973D01*
X70611449Y-103911333D01*
X70457467Y-104254010D01*
X70322716Y-104530139D01*
X70223413Y-104707917D01*
X70179706Y-104758000D01*
X70096971Y-104704789D01*
X69919679Y-104562569D01*
X69677448Y-104357458D01*
X69399896Y-104115573D01*
X69116641Y-103863033D01*
X68857300Y-103625955D01*
X68651492Y-103430458D01*
X68528835Y-103302660D01*
X68527455Y-103301000D01*
X68472231Y-103195626D01*
X68514395Y-103101951D01*
X68674657Y-103001819D01*
X68973731Y-102877074D01*
X69039264Y-102852339D01*
X69281040Y-102750725D01*
X69450394Y-102658839D01*
X69493320Y-102621397D01*
X69511113Y-102508330D01*
X69397312Y-102426963D01*
X69141796Y-102374681D01*
X68734442Y-102348871D01*
X68423318Y-102345000D01*
X67501664Y-102345000D01*
X66025168Y-100990333D01*
X65538056Y-100539691D01*
X65169278Y-100189270D01*
X64908967Y-99928661D01*
X64747257Y-99747459D01*
X64674280Y-99635256D01*
X64680172Y-99581644D01*
X64686502Y-99578315D01*
X64795149Y-99552356D01*
X65048386Y-99501665D01*
X65426981Y-99429641D01*
X65911704Y-99339685D01*
X66483322Y-99235197D01*
X67122606Y-99119579D01*
X67810323Y-98996231D01*
X68527243Y-98868552D01*
X69254135Y-98739945D01*
X69971768Y-98613808D01*
X70660909Y-98493544D01*
X71302330Y-98382551D01*
X71876797Y-98284232D01*
X72365080Y-98201986D01*
X72747949Y-98139213D01*
X73006171Y-98099315D01*
X73120516Y-98085692D01*
X73120516Y-97812626D01*
X73115786Y-97813416D01*
X72510080Y-97917015D01*
X71787541Y-98042309D01*
X70938217Y-98190701D01*
X69952154Y-98363594D01*
X68819401Y-98562391D01*
X67530006Y-98788494D01*
X67491333Y-98795270D01*
X66675309Y-98938619D01*
X65907278Y-99074264D01*
X65203932Y-99199207D01*
X64581960Y-99310450D01*
X64058052Y-99404992D01*
X63924724Y-99429380D01*
X63924724Y-99675920D01*
X64069498Y-99701062D01*
X64231224Y-99776272D01*
X64430779Y-99914187D01*
X64689042Y-100127447D01*
X65026890Y-100428690D01*
X65465202Y-100830554D01*
X65535789Y-100895580D01*
X66068626Y-101387276D01*
X66493346Y-101777368D01*
X66828003Y-102077185D01*
X67090653Y-102298058D01*
X67299348Y-102451317D01*
X67472145Y-102548293D01*
X67627098Y-102600316D01*
X67782262Y-102618717D01*
X67955690Y-102614825D01*
X68165438Y-102599972D01*
X68243348Y-102594743D01*
X68973000Y-102548885D01*
X68576656Y-102763106D01*
X68343179Y-102899173D01*
X68176036Y-103014806D01*
X68128464Y-103061217D01*
X68154240Y-103168332D01*
X68287849Y-103357278D01*
X68504943Y-103605464D01*
X68781168Y-103890297D01*
X69092175Y-104189187D01*
X69413611Y-104479541D01*
X69721126Y-104738768D01*
X69990368Y-104944277D01*
X70196986Y-105073475D01*
X70316629Y-105103772D01*
X70324913Y-105098951D01*
X70398298Y-104989863D01*
X70517848Y-104760271D01*
X70665562Y-104446376D01*
X70789430Y-104164717D01*
X70952332Y-103791564D01*
X71068538Y-103553180D01*
X71153361Y-103426763D01*
X71222112Y-103389511D01*
X71290105Y-103418622D01*
X71290335Y-103418795D01*
X71563906Y-103635848D01*
X71705677Y-103774587D01*
X71724666Y-103813185D01*
X71689025Y-103899906D01*
X71589997Y-104113492D01*
X71439427Y-104429100D01*
X71249159Y-104821890D01*
X71044643Y-105239396D01*
X70824851Y-105679336D01*
X70627859Y-106061397D01*
X70466540Y-106361593D01*
X70353765Y-106555935D01*
X70303418Y-106620666D01*
X70233973Y-106562444D01*
X70055865Y-106394866D01*
X69779913Y-106128565D01*
X69416938Y-105774174D01*
X68977760Y-105342325D01*
X68473200Y-104843651D01*
X67914077Y-104288786D01*
X67311213Y-103688361D01*
X66819456Y-103197124D01*
X66090378Y-102467211D01*
X65473216Y-101847460D01*
X64959602Y-101328844D01*
X64541173Y-100902333D01*
X64209563Y-100558900D01*
X63956406Y-100289517D01*
X63773337Y-100085155D01*
X63651991Y-99936786D01*
X63584002Y-99835382D01*
X63561004Y-99771914D01*
X63574633Y-99737355D01*
X63602515Y-99725284D01*
X63776022Y-99688207D01*
X63924724Y-99675920D01*
X63924724Y-99429380D01*
X63648900Y-99479835D01*
X63371193Y-99531981D01*
X63241622Y-99558429D01*
X63236833Y-99559730D01*
X63111297Y-99646895D01*
X63088666Y-99708951D01*
X63147085Y-99785992D01*
X63315352Y-99971410D01*
X63582980Y-100254449D01*
X63939482Y-100624349D01*
X64374373Y-101070353D01*
X64877165Y-101581702D01*
X65437373Y-102147638D01*
X66044509Y-102757403D01*
X66638902Y-103351231D01*
X67484148Y-104191027D01*
X68214626Y-104911260D01*
X68832952Y-105514410D01*
X69341742Y-106002959D01*
X69743612Y-106379387D01*
X70041177Y-106646177D01*
X70237052Y-106805808D01*
X70333853Y-106860763D01*
X70338392Y-106860559D01*
X70437416Y-106771440D01*
X70600118Y-106533969D01*
X70822362Y-106154951D01*
X71100011Y-105641194D01*
X71221359Y-105407833D01*
X71955072Y-103983851D01*
X72268943Y-104349758D01*
X72599770Y-104770500D01*
X72941958Y-105264751D01*
X73257071Y-105772892D01*
X73506673Y-106235307D01*
X73564143Y-106358705D01*
X73773954Y-106832333D01*
X72031856Y-110330677D01*
X71179761Y-109530662D01*
X70327666Y-108730648D01*
X70211823Y-108733450D01*
X70211823Y-108899911D01*
X72105910Y-110744788D01*
X72654353Y-111281463D01*
X73090009Y-111714086D01*
X73423641Y-112054409D01*
X73666012Y-112314179D01*
X73827883Y-112505147D01*
X73920016Y-112639062D01*
X73953174Y-112727672D01*
X73950904Y-112759000D01*
X73889502Y-112955534D01*
X73807030Y-113202964D01*
X73801201Y-113219901D01*
X73712879Y-113419985D01*
X73626097Y-113534106D01*
X73613957Y-113540347D01*
X73535916Y-113489893D01*
X73350119Y-113333726D01*
X73070108Y-113084284D01*
X72709429Y-112754003D01*
X72281626Y-112355323D01*
X71800243Y-111900680D01*
X71278825Y-111402513D01*
X71129773Y-111259113D01*
X68732225Y-108949000D01*
X69472024Y-108924455D01*
X70211823Y-108899911D01*
X70211823Y-108733450D01*
X68514060Y-108774526D01*
X68464095Y-108725283D01*
X68464095Y-109011224D01*
X70061759Y-110546445D01*
X70558090Y-111023194D01*
X71074748Y-111519146D01*
X71580382Y-112004227D01*
X72043637Y-112448365D01*
X72433164Y-112821486D01*
X72602211Y-112983236D01*
X73545000Y-113884805D01*
X73340683Y-114278269D01*
X73206710Y-114509409D01*
X73015218Y-114806353D01*
X72791117Y-115134263D01*
X72559316Y-115458303D01*
X72344723Y-115743637D01*
X72172248Y-115955428D01*
X72068086Y-116058062D01*
X71972493Y-116024271D01*
X71775168Y-115884055D01*
X71493515Y-115651322D01*
X71144940Y-115339982D01*
X70994703Y-115200339D01*
X70267721Y-114522284D01*
X69657974Y-113963565D01*
X69163911Y-113522833D01*
X68783983Y-113198744D01*
X68516638Y-112989950D01*
X68380333Y-112907245D01*
X68380333Y-113067825D01*
X68697833Y-113375095D01*
X68877035Y-113557025D01*
X68992163Y-113690235D01*
X69015333Y-113730758D01*
X68955067Y-113802996D01*
X68793141Y-113957411D01*
X68557863Y-114167634D01*
X68401500Y-114302566D01*
X67808144Y-114824350D01*
X67356550Y-115256861D01*
X67047036Y-115599747D01*
X66879922Y-115852656D01*
X66853065Y-116008370D01*
X66953541Y-116155316D01*
X67164199Y-116363986D01*
X67450894Y-116607535D01*
X67779483Y-116859120D01*
X68115820Y-117091897D01*
X68425763Y-117279025D01*
X68549666Y-117342193D01*
X68973000Y-117541012D01*
X68507333Y-117540588D01*
X67785297Y-117468985D01*
X67028693Y-117264172D01*
X66392478Y-116993245D01*
X66109021Y-116852904D01*
X65888598Y-116748276D01*
X65770611Y-116697943D01*
X65762175Y-116696000D01*
X65650380Y-116752727D01*
X65445109Y-116907763D01*
X65170556Y-117138385D01*
X64850915Y-117421873D01*
X64510376Y-117735505D01*
X64173134Y-118056560D01*
X63863381Y-118362316D01*
X63605310Y-118630054D01*
X63423113Y-118837050D01*
X63340984Y-118960585D01*
X63338698Y-118972067D01*
X63396638Y-119057770D01*
X63564098Y-119248921D01*
X63829032Y-119533086D01*
X64179393Y-119897833D01*
X64603135Y-120330731D01*
X65088212Y-120819348D01*
X65622577Y-121351250D01*
X66097958Y-121819694D01*
X68861186Y-124530388D01*
X68470393Y-124811034D01*
X68079601Y-125091680D01*
X67764300Y-124816540D01*
X67588439Y-124657426D01*
X67319760Y-124406917D01*
X66972415Y-124078722D01*
X66560553Y-123686549D01*
X66098326Y-123244105D01*
X65599882Y-122765099D01*
X65079372Y-122263236D01*
X64550947Y-121752226D01*
X64028756Y-121245776D01*
X63526949Y-120757594D01*
X63059677Y-120301387D01*
X62641090Y-119890863D01*
X62285338Y-119539730D01*
X62006571Y-119261696D01*
X61818939Y-119070468D01*
X61736592Y-118979753D01*
X61734000Y-118974795D01*
X61795469Y-118904377D01*
X61970686Y-118734899D01*
X62245863Y-118478694D01*
X62607212Y-118148096D01*
X63040945Y-117755438D01*
X63533274Y-117313055D01*
X64070412Y-116833280D01*
X64638571Y-116328445D01*
X65223962Y-115810886D01*
X65812800Y-115292935D01*
X66391294Y-114786926D01*
X66945659Y-114305193D01*
X67195000Y-114089770D01*
X68380333Y-113067825D01*
X68380333Y-112907245D01*
X68360326Y-112895105D01*
X68332871Y-112888583D01*
X68228662Y-112943110D01*
X68015455Y-113099882D01*
X67707603Y-113346050D01*
X67319462Y-113668767D01*
X66865386Y-114055184D01*
X66359729Y-114492453D01*
X65816846Y-114967726D01*
X65251092Y-115468154D01*
X64676821Y-115980890D01*
X64108387Y-116493085D01*
X63560146Y-116991891D01*
X63046451Y-117464460D01*
X62581658Y-117897944D01*
X62180120Y-118279494D01*
X61856192Y-118596262D01*
X61624230Y-118835400D01*
X61498587Y-118984059D01*
X61480000Y-119022333D01*
X61539257Y-119099636D01*
X61708694Y-119281197D01*
X61975805Y-119554557D01*
X62328085Y-119907259D01*
X62753031Y-120326845D01*
X63238137Y-120800856D01*
X63770898Y-121316835D01*
X64125833Y-121658280D01*
X64911050Y-122411351D01*
X65583456Y-123055242D01*
X66152121Y-123598328D01*
X66626113Y-124048984D01*
X67014501Y-124415586D01*
X67326355Y-124706507D01*
X67570742Y-124930124D01*
X67756733Y-125094811D01*
X67893396Y-125208944D01*
X67989799Y-125280897D01*
X68055012Y-125319045D01*
X68098104Y-125331764D01*
X68103919Y-125332000D01*
X68206460Y-125275756D01*
X68428163Y-125110373D01*
X68763127Y-124840872D01*
X69205450Y-124472274D01*
X69749229Y-124009602D01*
X70388565Y-123457877D01*
X71117554Y-122822121D01*
X71930295Y-122107355D01*
X72820886Y-121318600D01*
X72825333Y-121314650D01*
X73338916Y-120859718D01*
X73852816Y-120406996D01*
X74341453Y-119978836D01*
X74779248Y-119597589D01*
X75140621Y-119285607D01*
X75389600Y-119073943D01*
X75755163Y-118754406D01*
X76132030Y-118403093D01*
X76464661Y-118072702D01*
X76618897Y-117907557D01*
X77104260Y-117364568D01*
X78099844Y-118309906D01*
X78474135Y-118668854D01*
X78737659Y-118932330D01*
X78905298Y-119118384D01*
X78991930Y-119245062D01*
X79012438Y-119330413D01*
X78987214Y-119386140D01*
X78905018Y-119465957D01*
X78708311Y-119647529D01*
X78409083Y-119920045D01*
X78019325Y-120272691D01*
X77551025Y-120694655D01*
X77016173Y-121175126D01*
X76426758Y-121703290D01*
X75794771Y-122268334D01*
X75450000Y-122576082D01*
X74727964Y-123219718D01*
X73982942Y-123882928D01*
X73236123Y-124546910D01*
X72508698Y-125192859D01*
X71821854Y-125801971D01*
X71196783Y-126355442D01*
X70654674Y-126834470D01*
X70216715Y-127220250D01*
X70200666Y-127234352D01*
X69722354Y-127654622D01*
X69277535Y-128045570D01*
X68884438Y-128391167D01*
X68561288Y-128675386D01*
X68326315Y-128882198D01*
X68197744Y-128995575D01*
X68189147Y-129003191D01*
X67997961Y-129172805D01*
X67130814Y-128328828D01*
X66923994Y-128128177D01*
X66607433Y-127821929D01*
X66193392Y-127421914D01*
X65694136Y-126939961D01*
X65121926Y-126387899D01*
X64489026Y-125777557D01*
X63807698Y-125120764D01*
X63090204Y-124429349D01*
X62348809Y-123715141D01*
X61839833Y-123224970D01*
X61116792Y-122527873D01*
X60430510Y-121864557D01*
X59790597Y-121244414D01*
X59206663Y-120676836D01*
X58688317Y-120171215D01*
X58245171Y-119736942D01*
X57886833Y-119383409D01*
X57622914Y-119120008D01*
X57463023Y-118956131D01*
X57416000Y-118901617D01*
X57476217Y-118826575D01*
X57642436Y-118660835D01*
X57893003Y-118424958D01*
X58206268Y-118139504D01*
X58410138Y-117957572D01*
X58701978Y-117698140D01*
X59098485Y-117344280D01*
X59578530Y-116914919D01*
X60120984Y-116428986D01*
X60704719Y-115905408D01*
X61308606Y-115363113D01*
X61911518Y-114821028D01*
X61944971Y-114790928D01*
X62559990Y-114238522D01*
X63188484Y-113675793D01*
X63807190Y-113123447D01*
X64392846Y-112602189D01*
X64922189Y-112132724D01*
X65371957Y-111735759D01*
X65713333Y-111436827D01*
X66164934Y-111043020D01*
X66636040Y-110630600D01*
X67087069Y-110234329D01*
X67478434Y-109888967D01*
X67702547Y-109690011D01*
X68464095Y-109011224D01*
X68464095Y-108725283D01*
X66711530Y-106998029D01*
X66310349Y-106602950D01*
X65806257Y-106107025D01*
X65634125Y-105937791D01*
X65634125Y-106359041D01*
X66902293Y-107566660D01*
X67281289Y-107931784D01*
X67612854Y-108259315D01*
X67879164Y-108530971D01*
X68062394Y-108728467D01*
X68144718Y-108833518D01*
X68147307Y-108843744D01*
X68080070Y-108917278D01*
X67903650Y-109086567D01*
X67635772Y-109335265D01*
X67294165Y-109647022D01*
X66896555Y-110005490D01*
X66606589Y-110264605D01*
X66180164Y-110642157D01*
X65794966Y-110979056D01*
X65469107Y-111259797D01*
X65220697Y-111468878D01*
X65067851Y-111590795D01*
X65027780Y-111616000D01*
X64993895Y-111537883D01*
X64955236Y-111328996D01*
X64918183Y-111027534D01*
X64904014Y-110875166D01*
X64882625Y-110170251D01*
X64923344Y-109390040D01*
X65018890Y-108585779D01*
X65161978Y-107808711D01*
X65345328Y-107110082D01*
X65500261Y-106679422D01*
X65634125Y-106359041D01*
X65634125Y-105937791D01*
X65217264Y-105527945D01*
X64561382Y-104883406D01*
X64387325Y-104712426D01*
X64387325Y-105154297D01*
X64496533Y-105235616D01*
X64692770Y-105395582D01*
X64935708Y-105601240D01*
X64962375Y-105624222D01*
X65439084Y-106035782D01*
X65146789Y-106937184D01*
X65002427Y-107436719D01*
X64864263Y-108008116D01*
X64754266Y-108557062D01*
X64720353Y-108767866D01*
X64661400Y-109229833D01*
X64631719Y-109632843D01*
X64629903Y-110041711D01*
X64654543Y-110521253D01*
X64676096Y-110804740D01*
X64765981Y-111912333D01*
X64371823Y-112278176D01*
X64099654Y-112524210D01*
X63820523Y-112766362D01*
X63666731Y-112893924D01*
X63355795Y-113143830D01*
X63227953Y-112697415D01*
X62999318Y-111642247D01*
X62892921Y-110530733D01*
X62907141Y-109402794D01*
X63040353Y-108298349D01*
X63290936Y-107257320D01*
X63469854Y-106747273D01*
X63657056Y-106304461D01*
X63850778Y-105900048D01*
X64036538Y-105559181D01*
X64199851Y-105307007D01*
X64326235Y-105168673D01*
X64387325Y-105154297D01*
X64387325Y-104712426D01*
X63856620Y-104191099D01*
X63120990Y-103468720D01*
X62372500Y-102733959D01*
X61629163Y-102004512D01*
X61155246Y-101539599D01*
X60389280Y-100788015D01*
X59736087Y-100146032D01*
X59187401Y-99604831D01*
X58734952Y-99155597D01*
X58370472Y-98789512D01*
X58085694Y-98497760D01*
X57872350Y-98271524D01*
X57722171Y-98101987D01*
X57626889Y-97980331D01*
X57578236Y-97897740D01*
X57567943Y-97845398D01*
X57587744Y-97814487D01*
X57629369Y-97796190D01*
X57641580Y-97792726D01*
X57753510Y-97771167D01*
X58022404Y-97723886D01*
X58438130Y-97652575D01*
X58990551Y-97558923D01*
X59669533Y-97444623D01*
X60464942Y-97311365D01*
X61366643Y-97160842D01*
X62364501Y-96994745D01*
X63448383Y-96814764D01*
X64608152Y-96622592D01*
X65833675Y-96419919D01*
X67114818Y-96208437D01*
X68441445Y-95989837D01*
X68676666Y-95951118D01*
X70008206Y-95731894D01*
X71294781Y-95519926D01*
X72526369Y-95316872D01*
X73692951Y-95124391D01*
X74784505Y-94944140D01*
X75791010Y-94777778D01*
X76702447Y-94626963D01*
X77508793Y-94493354D01*
X78200028Y-94378609D01*
X78766132Y-94284386D01*
X79197083Y-94212344D01*
X79482861Y-94164140D01*
X79613444Y-94141434D01*
X79619833Y-94140151D01*
X79744119Y-94131447D01*
X79744119Y-93900299D01*
X68791934Y-95719004D01*
X67439300Y-95943899D01*
X66129273Y-96162251D01*
X64871942Y-96372354D01*
X63677391Y-96572499D01*
X62555710Y-96760979D01*
X61516985Y-96936084D01*
X60571303Y-97096107D01*
X59728750Y-97239339D01*
X58999415Y-97364074D01*
X58393384Y-97468602D01*
X57920744Y-97551215D01*
X57591582Y-97610206D01*
X57415985Y-97643867D01*
X57393118Y-97649220D01*
X57183811Y-97729958D01*
X57126139Y-97816792D01*
X57139118Y-97852229D01*
X57139118Y-97852229D01*
G37*
X57139118Y-97852229D02*
X57230827Y-97966216D01*
X57434767Y-98189433D01*
X57742011Y-98512810D01*
X58143634Y-98927279D01*
X58630710Y-99423769D01*
X59194313Y-99993210D01*
X59825518Y-100626532D01*
X60515397Y-101314667D01*
X61255027Y-102048543D01*
X61756663Y-102544243D01*
X64104002Y-104860154D01*
X63731700Y-105549910D01*
X63275263Y-106508614D01*
X62948884Y-107467313D01*
X62742918Y-108466084D01*
X62647718Y-109545005D01*
X62638498Y-110092000D01*
X62652145Y-110735755D01*
X62693310Y-111280070D01*
X62768619Y-111793543D01*
X62834824Y-112124000D01*
X62917809Y-112513403D01*
X62988933Y-112860246D01*
X63039052Y-113119196D01*
X63056847Y-113224666D01*
X63051039Y-113294469D01*
X63008116Y-113384196D01*
X62916095Y-113505706D01*
X62762990Y-113670862D01*
X62536816Y-113891525D01*
X62225589Y-114179554D01*
X61817325Y-114546813D01*
X61300038Y-115005161D01*
X60918119Y-115341333D01*
X60068864Y-116090078D01*
X59342666Y-116735840D01*
X58733069Y-117284726D01*
X58233616Y-117742842D01*
X57837850Y-118116293D01*
X57539317Y-118411185D01*
X57331559Y-118633624D01*
X57208120Y-118789716D01*
X57162543Y-118885566D01*
X57161999Y-118893547D01*
X57222352Y-118990020D01*
X57398563Y-119195503D01*
X57683365Y-119502759D01*
X58069490Y-119904553D01*
X58549670Y-120393645D01*
X59116638Y-120962800D01*
X59763125Y-121604780D01*
X60481863Y-122312349D01*
X61265586Y-123078267D01*
X62107024Y-123895300D01*
X62998910Y-124756209D01*
X63933976Y-125653758D01*
X64360007Y-126061092D01*
X65100210Y-126767324D01*
X65728321Y-127364876D01*
X66254164Y-127862588D01*
X66687565Y-128269296D01*
X67038346Y-128593839D01*
X67316333Y-128845055D01*
X67531350Y-129031781D01*
X67693221Y-129162855D01*
X67811770Y-129247116D01*
X67896822Y-129293401D01*
X67958201Y-129310548D01*
X67973001Y-129311333D01*
X68040018Y-129301562D01*
X68126726Y-129265533D01*
X68245598Y-129193171D01*
X68409110Y-129074403D01*
X68629735Y-128899154D01*
X68919949Y-128657350D01*
X69292227Y-128338917D01*
X69759042Y-127933780D01*
X70332869Y-127431867D01*
X70708666Y-127102080D01*
X71917156Y-126039249D01*
X73051795Y-125038373D01*
X74107895Y-124103677D01*
X75080768Y-123239389D01*
X75965725Y-122449735D01*
X76758078Y-121738944D01*
X77453140Y-121111241D01*
X78046221Y-120570854D01*
X78532633Y-120122010D01*
X78907688Y-119768936D01*
X79166698Y-119515860D01*
X79304975Y-119367007D01*
X79327919Y-119330797D01*
X79285130Y-119216386D01*
X79129539Y-119014888D01*
X78855904Y-118720466D01*
X78458979Y-118327279D01*
X78230298Y-118108556D01*
X77107091Y-117043350D01*
X76299712Y-117872217D01*
X75945388Y-118224604D01*
X75575231Y-118573650D01*
X75232793Y-118879355D01*
X74961624Y-119101718D01*
X74958563Y-119104032D01*
X74297137Y-119520556D01*
X73516574Y-119872991D01*
X72659824Y-120146257D01*
X71769838Y-120325273D01*
X71343666Y-120373278D01*
X71039960Y-120397031D01*
X70887815Y-120401935D01*
X70870076Y-120383606D01*
X70969590Y-120337661D01*
X71062143Y-120301337D01*
X72117043Y-119811559D01*
X73092432Y-119188020D01*
X74007114Y-118417778D01*
X74453805Y-117966945D01*
X75258814Y-116984837D01*
X75939383Y-115893738D01*
X76491271Y-114703931D01*
X76910238Y-113425697D01*
X77192045Y-112069318D01*
X77307922Y-111046304D01*
X77337976Y-109615426D01*
X77214232Y-108206720D01*
X76940941Y-106837061D01*
X76522351Y-105523320D01*
X75962712Y-104282372D01*
X75342702Y-103242812D01*
X74641561Y-102337208D01*
X73826009Y-101516816D01*
X72925007Y-100806304D01*
X71967516Y-100230339D01*
X71597666Y-100053121D01*
X70920333Y-99751291D01*
X71767000Y-99798093D01*
X72613666Y-99844895D01*
X73017989Y-99003338D01*
X73194042Y-98648558D01*
X73355837Y-98343335D01*
X73482928Y-98125080D01*
X73544956Y-98039138D01*
X73679443Y-97968411D01*
X73906948Y-97900264D01*
X74167929Y-97846363D01*
X74402842Y-97818372D01*
X74552144Y-97827955D01*
X74569905Y-97838349D01*
X74551727Y-97925742D01*
X74474544Y-98139061D01*
X74349462Y-98450093D01*
X74187583Y-98830628D01*
X74108272Y-99011207D01*
X73933300Y-99415360D01*
X73790048Y-99764522D01*
X73689765Y-100029788D01*
X73643698Y-100182257D01*
X73643328Y-100205889D01*
X73729357Y-100274392D01*
X73925744Y-100402100D01*
X74195280Y-100565163D01*
X74290040Y-100620416D01*
X75261311Y-101279073D01*
X76139112Y-102077076D01*
X76921077Y-103011034D01*
X77604840Y-104077557D01*
X78188034Y-105273252D01*
X78668294Y-106594731D01*
X78817930Y-107109379D01*
X78887767Y-107373074D01*
X78941457Y-107605944D01*
X78981154Y-107835850D01*
X79009016Y-108090652D01*
X79027196Y-108398212D01*
X79037851Y-108786391D01*
X79043137Y-109283050D01*
X79045207Y-109916051D01*
X79045409Y-110049666D01*
X79048333Y-112166333D01*
X78776670Y-113143783D01*
X78639678Y-113607893D01*
X78484897Y-114087074D01*
X78334297Y-114515247D01*
X78241792Y-114752450D01*
X78094358Y-115109299D01*
X77952586Y-115457940D01*
X77845256Y-115727547D01*
X77838465Y-115745010D01*
X77698355Y-116106353D01*
X79289568Y-117699222D01*
X80880781Y-119292090D01*
X79922224Y-120180493D01*
X79667126Y-120414781D01*
X79302341Y-120746732D01*
X78844556Y-121161302D01*
X78310460Y-121643447D01*
X77716742Y-122178124D01*
X77080089Y-122750289D01*
X76417190Y-123344898D01*
X75744733Y-123946907D01*
X75661666Y-124021186D01*
X74663789Y-124913622D01*
X73785234Y-125700065D01*
X73018899Y-126387176D01*
X72357681Y-126981616D01*
X71794479Y-127490045D01*
X71322191Y-127919123D01*
X70933714Y-128275512D01*
X70621947Y-128565871D01*
X70379787Y-128796862D01*
X70200132Y-128975145D01*
X70075880Y-129107380D01*
X69999930Y-129200228D01*
X69965178Y-129260350D01*
X69964522Y-129294406D01*
X69990862Y-129309056D01*
X70020817Y-129311333D01*
X70094992Y-129256538D01*
X70283609Y-129099041D01*
X70575028Y-128849168D01*
X70957605Y-128517249D01*
X71419698Y-128113612D01*
X71949666Y-127648585D01*
X72535864Y-127132498D01*
X73166652Y-126575678D01*
X73830387Y-125988454D01*
X74515426Y-125381155D01*
X75210127Y-124764109D01*
X75902848Y-124147644D01*
X76581946Y-123542088D01*
X77235779Y-122957772D01*
X77852705Y-122405022D01*
X78421081Y-121894167D01*
X78929265Y-121435537D01*
X79365614Y-121039458D01*
X79718487Y-120716261D01*
X79917344Y-120531663D01*
X80268498Y-120198562D01*
X80578522Y-119896553D01*
X80824889Y-119648210D01*
X80985072Y-119476101D01*
X81033970Y-119412862D01*
X81054857Y-119233815D01*
X80958999Y-119032971D01*
X80855151Y-118908034D01*
X80648346Y-118686308D01*
X80358205Y-118387832D01*
X80004349Y-118032644D01*
X79606398Y-117640781D01*
X79389589Y-117430175D01*
X77973432Y-116061000D01*
X78271802Y-115369593D01*
X78608120Y-114514811D01*
X78899599Y-113625560D01*
X79126049Y-112767381D01*
X79226628Y-112269927D01*
X79275754Y-111939156D01*
X79309405Y-111586841D01*
X79328754Y-111180667D01*
X79334978Y-110688316D01*
X79329251Y-110077472D01*
X79321196Y-109668666D01*
X79306111Y-109052667D01*
X79289444Y-108572467D01*
X79267554Y-108194542D01*
X79236802Y-107885371D01*
X79193550Y-107611432D01*
X79134158Y-107339201D01*
X79054987Y-107035156D01*
X79022480Y-106917000D01*
X78904561Y-106501088D01*
X78788252Y-106107288D01*
X78688986Y-105787022D01*
X78635025Y-105626069D01*
X78463443Y-105213018D01*
X78218651Y-104708392D01*
X77925887Y-104158392D01*
X77610386Y-103609219D01*
X77297386Y-103107075D01*
X77104128Y-102823432D01*
X76882384Y-102511238D01*
X76695087Y-102244612D01*
X76565765Y-102057216D01*
X76521412Y-101989666D01*
X76513787Y-101953407D01*
X76523675Y-101887535D01*
X76555897Y-101781354D01*
X76615274Y-101624170D01*
X76706628Y-101405289D01*
X76834779Y-101114015D01*
X77004549Y-100739655D01*
X77220758Y-100271512D01*
X77488229Y-99698893D01*
X77811782Y-99011103D01*
X78196238Y-98197448D01*
X78646419Y-97247231D01*
X78906013Y-96699975D01*
X80178465Y-94018284D01*
X80087898Y-93122808D01*
X80039356Y-92700799D01*
X79991940Y-92425742D01*
X79940381Y-92275376D01*
X79879408Y-92227440D01*
X79875880Y-92227333D01*
X79820844Y-92253155D01*
X79791384Y-92349619D01*
X79785329Y-92545226D01*
X79800508Y-92868474D01*
X79812982Y-93053237D01*
X79871536Y-93879141D01*
X79744119Y-93900299D01*
X79744119Y-94131447D01*
X79768000Y-94149735D01*
X79732892Y-94232721D01*
X79632236Y-94453741D01*
X79473028Y-94797822D01*
X79262265Y-95249990D01*
X79006945Y-95795275D01*
X78714065Y-96418702D01*
X78390621Y-97105300D01*
X78043613Y-97840096D01*
X78020815Y-97888308D01*
X77670996Y-98626922D01*
X77342213Y-99318934D01*
X77041718Y-99949238D01*
X76776762Y-100502725D01*
X76554596Y-100964288D01*
X76382471Y-101318821D01*
X76267638Y-101551216D01*
X76217348Y-101646366D01*
X76216605Y-101647309D01*
X76130090Y-101626859D01*
X75946664Y-101517883D01*
X75698962Y-101340902D01*
X75571956Y-101241935D01*
X75220994Y-100975528D01*
X74836640Y-100705579D01*
X74494786Y-100485119D01*
X74455166Y-100461533D01*
X74196744Y-100300086D01*
X74008279Y-100163841D01*
X73926834Y-100079862D01*
X73926000Y-100075110D01*
X73958536Y-99973361D01*
X74047593Y-99748316D01*
X74180345Y-99431164D01*
X74343965Y-99053089D01*
X74380165Y-98970868D01*
X74554965Y-98570914D01*
X74708188Y-98212735D01*
X74824743Y-97932142D01*
X74889541Y-97764942D01*
X74893871Y-97751833D01*
X74913889Y-97704509D01*
X74936502Y-97662047D01*
X74951756Y-97625849D01*
X74949699Y-97597317D01*
X74920379Y-97577856D01*
X74853844Y-97568867D01*
X74740141Y-97571753D01*
X74569319Y-97587918D01*
X74331424Y-97618764D01*
X74016506Y-97665694D01*
X73614610Y-97730110D01*
X73120516Y-97812626D01*
X73120516Y-98085692D01*
X73124344Y-98086303D01*
X73100543Y-98167971D01*
X73015940Y-98366578D01*
X72885659Y-98647708D01*
X72796929Y-98831333D01*
X72444333Y-99551000D01*
X71087478Y-99519456D01*
X70566472Y-99509567D01*
X70189216Y-99509025D01*
X69930295Y-99519576D01*
X69764297Y-99542967D01*
X69665808Y-99580946D01*
X69620763Y-99620287D01*
X69571100Y-99709192D01*
X69632215Y-99762647D01*
X69832977Y-99805719D01*
X69834618Y-99805989D01*
X70806458Y-100045924D01*
X71771675Y-100436314D01*
X72699857Y-100959962D01*
X73560595Y-101599669D01*
X74323478Y-102338238D01*
X74335123Y-102351212D01*
X75047126Y-103260402D01*
X75675322Y-104295022D01*
X76206346Y-105426516D01*
X76626829Y-106626326D01*
X76923408Y-107865898D01*
X76927941Y-107890666D01*
X76986814Y-108343207D01*
X77026695Y-108919139D01*
X77047643Y-109573592D01*
X77049716Y-110261698D01*
X77032971Y-110938589D01*
X76997468Y-111559397D01*
X76943265Y-112079253D01*
X76922330Y-112214913D01*
X76649805Y-113406807D01*
X76251040Y-114566708D01*
X75738914Y-115673000D01*
X75126305Y-116704063D01*
X74426092Y-117638280D01*
X73651153Y-118454033D01*
X72814368Y-119129701D01*
X72795034Y-119143053D01*
X72321805Y-119429190D01*
X71752118Y-119713793D01*
X71154177Y-119966448D01*
X70596183Y-120156744D01*
X70412333Y-120205540D01*
X70014316Y-120301492D01*
X69755854Y-120368469D01*
X69611683Y-120416346D01*
X69556543Y-120454998D01*
X69565172Y-120494301D01*
X69593697Y-120525564D01*
X69718292Y-120559907D01*
X70003212Y-120579486D01*
X70440073Y-120584036D01*
X71020488Y-120573291D01*
X71062720Y-120572065D01*
X71615537Y-120552411D01*
X72037117Y-120527639D01*
X72365556Y-120492971D01*
X72638951Y-120443630D01*
X72895398Y-120374840D01*
X73058166Y-120321838D01*
X73348497Y-120225805D01*
X73564707Y-120159950D01*
X73668194Y-120135874D01*
X73672000Y-120137339D01*
X73611323Y-120199147D01*
X73441332Y-120356502D01*
X73180085Y-120593370D01*
X72845638Y-120893718D01*
X72456049Y-121241513D01*
X72029375Y-121620721D01*
X71583674Y-122015308D01*
X71137004Y-122409242D01*
X70707421Y-122786488D01*
X70312984Y-123131014D01*
X69971750Y-123426786D01*
X69833896Y-123545243D01*
X69003456Y-124256152D01*
X68564894Y-123836430D01*
X68403169Y-123681218D01*
X68136435Y-123424706D01*
X67781564Y-123083143D01*
X67355432Y-122672780D01*
X66874913Y-122209865D01*
X66356881Y-121710650D01*
X65826287Y-121199170D01*
X63526241Y-118981633D01*
X64344620Y-118226098D01*
X64685386Y-117914881D01*
X65013860Y-117620842D01*
X65293360Y-117376457D01*
X65487201Y-117214200D01*
X65491936Y-117210444D01*
X65820873Y-116950326D01*
X66092894Y-117118444D01*
X66786492Y-117453546D01*
X67592706Y-117674935D01*
X68409910Y-117773511D01*
X68811138Y-117793347D01*
X69077669Y-117796073D01*
X69243601Y-117778048D01*
X69343033Y-117735636D01*
X69408807Y-117666926D01*
X69450032Y-117589280D01*
X69430555Y-117517890D01*
X69326906Y-117433509D01*
X69115617Y-117316888D01*
X68782514Y-117153257D01*
X68438900Y-116968034D01*
X68088850Y-116746007D01*
X67757166Y-116507497D01*
X67468645Y-116272822D01*
X67248087Y-116062301D01*
X67120292Y-115896255D01*
X67110057Y-115795001D01*
X67117130Y-115788722D01*
X67209682Y-115711729D01*
X67404408Y-115543333D01*
X67677022Y-115304742D01*
X68003238Y-115017166D01*
X68186902Y-114854500D01*
X68527533Y-114555549D01*
X68824354Y-114301113D01*
X69054232Y-114110549D01*
X69194032Y-114003213D01*
X69224130Y-113986666D01*
X69302022Y-114041953D01*
X69481404Y-114195272D01*
X69741204Y-114427814D01*
X70060350Y-114720768D01*
X70355692Y-114996772D01*
X70822840Y-115435254D01*
X71184797Y-115769715D01*
X71458741Y-116013183D01*
X71661846Y-116178687D01*
X71811289Y-116279254D01*
X71924246Y-116327912D01*
X72017892Y-116337689D01*
X72104143Y-116322947D01*
X72257123Y-116227764D01*
X72472336Y-116020570D01*
X72723530Y-115733731D01*
X72984453Y-115399611D01*
X73228853Y-115050575D01*
X73430477Y-114718989D01*
X73477958Y-114629218D01*
X73606704Y-114355278D01*
X73766332Y-113987281D01*
X73929048Y-113590008D01*
X73984460Y-113448597D01*
X74126277Y-113061535D01*
X74202745Y-112794742D01*
X74221142Y-112615519D01*
X74194761Y-112503585D01*
X74104460Y-112381332D01*
X73913787Y-112171394D01*
X73647790Y-111899860D01*
X73331516Y-111592815D01*
X73214192Y-111482362D01*
X72895301Y-111178408D01*
X72626378Y-110910325D01*
X72429565Y-110701107D01*
X72327005Y-110573751D01*
X72317333Y-110550960D01*
X72352807Y-110450182D01*
X72452083Y-110220742D01*
X72604444Y-109886033D01*
X72799173Y-109469447D01*
X73025552Y-108994376D01*
X73124522Y-108789165D01*
X73364745Y-108286769D01*
X73580806Y-107823473D01*
X73761079Y-107425137D01*
X73893939Y-107117622D01*
X73967757Y-106926790D01*
X73977656Y-106891551D01*
X73958814Y-106685829D01*
X73856341Y-106376165D01*
X73687097Y-105994906D01*
X73467942Y-105574402D01*
X73215734Y-105147000D01*
X72947335Y-104745050D01*
X72679603Y-104400900D01*
X72679500Y-104400781D01*
X72337606Y-104024452D01*
X71992613Y-103682062D01*
X71669705Y-103395367D01*
X71394063Y-103186119D01*
X71190872Y-103076072D01*
X71132774Y-103064666D01*
X71039342Y-103110012D01*
X70926822Y-103258981D01*
X70783270Y-103530973D01*
X70611449Y-103911333D01*
X70457467Y-104254010D01*
X70322716Y-104530139D01*
X70223413Y-104707917D01*
X70179706Y-104758000D01*
X70096971Y-104704789D01*
X69919679Y-104562569D01*
X69677448Y-104357458D01*
X69399896Y-104115573D01*
X69116641Y-103863033D01*
X68857300Y-103625955D01*
X68651492Y-103430458D01*
X68528835Y-103302660D01*
X68527455Y-103301000D01*
X68472231Y-103195626D01*
X68514395Y-103101951D01*
X68674657Y-103001819D01*
X68973731Y-102877074D01*
X69039264Y-102852339D01*
X69281040Y-102750725D01*
X69450394Y-102658839D01*
X69493320Y-102621397D01*
X69511113Y-102508330D01*
X69397312Y-102426963D01*
X69141796Y-102374681D01*
X68734442Y-102348871D01*
X68423318Y-102345000D01*
X67501664Y-102345000D01*
X66025168Y-100990333D01*
X65538056Y-100539691D01*
X65169278Y-100189270D01*
X64908967Y-99928661D01*
X64747257Y-99747459D01*
X64674280Y-99635256D01*
X64680172Y-99581644D01*
X64686502Y-99578315D01*
X64795149Y-99552356D01*
X65048386Y-99501665D01*
X65426981Y-99429641D01*
X65911704Y-99339685D01*
X66483322Y-99235197D01*
X67122606Y-99119579D01*
X67810323Y-98996231D01*
X68527243Y-98868552D01*
X69254135Y-98739945D01*
X69971768Y-98613808D01*
X70660909Y-98493544D01*
X71302330Y-98382551D01*
X71876797Y-98284232D01*
X72365080Y-98201986D01*
X72747949Y-98139213D01*
X73006171Y-98099315D01*
X73120516Y-98085692D01*
X73120516Y-97812626D01*
X73115786Y-97813416D01*
X72510080Y-97917015D01*
X71787541Y-98042309D01*
X70938217Y-98190701D01*
X69952154Y-98363594D01*
X68819401Y-98562391D01*
X67530006Y-98788494D01*
X67491333Y-98795270D01*
X66675309Y-98938619D01*
X65907278Y-99074264D01*
X65203932Y-99199207D01*
X64581960Y-99310450D01*
X64058052Y-99404992D01*
X63924724Y-99429380D01*
X63924724Y-99675920D01*
X64069498Y-99701062D01*
X64231224Y-99776272D01*
X64430779Y-99914187D01*
X64689042Y-100127447D01*
X65026890Y-100428690D01*
X65465202Y-100830554D01*
X65535789Y-100895580D01*
X66068626Y-101387276D01*
X66493346Y-101777368D01*
X66828003Y-102077185D01*
X67090653Y-102298058D01*
X67299348Y-102451317D01*
X67472145Y-102548293D01*
X67627098Y-102600316D01*
X67782262Y-102618717D01*
X67955690Y-102614825D01*
X68165438Y-102599972D01*
X68243348Y-102594743D01*
X68973000Y-102548885D01*
X68576656Y-102763106D01*
X68343179Y-102899173D01*
X68176036Y-103014806D01*
X68128464Y-103061217D01*
X68154240Y-103168332D01*
X68287849Y-103357278D01*
X68504943Y-103605464D01*
X68781168Y-103890297D01*
X69092175Y-104189187D01*
X69413611Y-104479541D01*
X69721126Y-104738768D01*
X69990368Y-104944277D01*
X70196986Y-105073475D01*
X70316629Y-105103772D01*
X70324913Y-105098951D01*
X70398298Y-104989863D01*
X70517848Y-104760271D01*
X70665562Y-104446376D01*
X70789430Y-104164717D01*
X70952332Y-103791564D01*
X71068538Y-103553180D01*
X71153361Y-103426763D01*
X71222112Y-103389511D01*
X71290105Y-103418622D01*
X71290335Y-103418795D01*
X71563906Y-103635848D01*
X71705677Y-103774587D01*
X71724666Y-103813185D01*
X71689025Y-103899906D01*
X71589997Y-104113492D01*
X71439427Y-104429100D01*
X71249159Y-104821890D01*
X71044643Y-105239396D01*
X70824851Y-105679336D01*
X70627859Y-106061397D01*
X70466540Y-106361593D01*
X70353765Y-106555935D01*
X70303418Y-106620666D01*
X70233973Y-106562444D01*
X70055865Y-106394866D01*
X69779913Y-106128565D01*
X69416938Y-105774174D01*
X68977760Y-105342325D01*
X68473200Y-104843651D01*
X67914077Y-104288786D01*
X67311213Y-103688361D01*
X66819456Y-103197124D01*
X66090378Y-102467211D01*
X65473216Y-101847460D01*
X64959602Y-101328844D01*
X64541173Y-100902333D01*
X64209563Y-100558900D01*
X63956406Y-100289517D01*
X63773337Y-100085155D01*
X63651991Y-99936786D01*
X63584002Y-99835382D01*
X63561004Y-99771914D01*
X63574633Y-99737355D01*
X63602515Y-99725284D01*
X63776022Y-99688207D01*
X63924724Y-99675920D01*
X63924724Y-99429380D01*
X63648900Y-99479835D01*
X63371193Y-99531981D01*
X63241622Y-99558429D01*
X63236833Y-99559730D01*
X63111297Y-99646895D01*
X63088666Y-99708951D01*
X63147085Y-99785992D01*
X63315352Y-99971410D01*
X63582980Y-100254449D01*
X63939482Y-100624349D01*
X64374373Y-101070353D01*
X64877165Y-101581702D01*
X65437373Y-102147638D01*
X66044509Y-102757403D01*
X66638902Y-103351231D01*
X67484148Y-104191027D01*
X68214626Y-104911260D01*
X68832952Y-105514410D01*
X69341742Y-106002959D01*
X69743612Y-106379387D01*
X70041177Y-106646177D01*
X70237052Y-106805808D01*
X70333853Y-106860763D01*
X70338392Y-106860559D01*
X70437416Y-106771440D01*
X70600118Y-106533969D01*
X70822362Y-106154951D01*
X71100011Y-105641194D01*
X71221359Y-105407833D01*
X71955072Y-103983851D01*
X72268943Y-104349758D01*
X72599770Y-104770500D01*
X72941958Y-105264751D01*
X73257071Y-105772892D01*
X73506673Y-106235307D01*
X73564143Y-106358705D01*
X73773954Y-106832333D01*
X72031856Y-110330677D01*
X71179761Y-109530662D01*
X70327666Y-108730648D01*
X70211823Y-108733450D01*
X70211823Y-108899911D01*
X72105910Y-110744788D01*
X72654353Y-111281463D01*
X73090009Y-111714086D01*
X73423641Y-112054409D01*
X73666012Y-112314179D01*
X73827883Y-112505147D01*
X73920016Y-112639062D01*
X73953174Y-112727672D01*
X73950904Y-112759000D01*
X73889502Y-112955534D01*
X73807030Y-113202964D01*
X73801201Y-113219901D01*
X73712879Y-113419985D01*
X73626097Y-113534106D01*
X73613957Y-113540347D01*
X73535916Y-113489893D01*
X73350119Y-113333726D01*
X73070108Y-113084284D01*
X72709429Y-112754003D01*
X72281626Y-112355323D01*
X71800243Y-111900680D01*
X71278825Y-111402513D01*
X71129773Y-111259113D01*
X68732225Y-108949000D01*
X69472024Y-108924455D01*
X70211823Y-108899911D01*
X70211823Y-108733450D01*
X68514060Y-108774526D01*
X68464095Y-108725283D01*
X68464095Y-109011224D01*
X70061759Y-110546445D01*
X70558090Y-111023194D01*
X71074748Y-111519146D01*
X71580382Y-112004227D01*
X72043637Y-112448365D01*
X72433164Y-112821486D01*
X72602211Y-112983236D01*
X73545000Y-113884805D01*
X73340683Y-114278269D01*
X73206710Y-114509409D01*
X73015218Y-114806353D01*
X72791117Y-115134263D01*
X72559316Y-115458303D01*
X72344723Y-115743637D01*
X72172248Y-115955428D01*
X72068086Y-116058062D01*
X71972493Y-116024271D01*
X71775168Y-115884055D01*
X71493515Y-115651322D01*
X71144940Y-115339982D01*
X70994703Y-115200339D01*
X70267721Y-114522284D01*
X69657974Y-113963565D01*
X69163911Y-113522833D01*
X68783983Y-113198744D01*
X68516638Y-112989950D01*
X68380333Y-112907245D01*
X68380333Y-113067825D01*
X68697833Y-113375095D01*
X68877035Y-113557025D01*
X68992163Y-113690235D01*
X69015333Y-113730758D01*
X68955067Y-113802996D01*
X68793141Y-113957411D01*
X68557863Y-114167634D01*
X68401500Y-114302566D01*
X67808144Y-114824350D01*
X67356550Y-115256861D01*
X67047036Y-115599747D01*
X66879922Y-115852656D01*
X66853065Y-116008370D01*
X66953541Y-116155316D01*
X67164199Y-116363986D01*
X67450894Y-116607535D01*
X67779483Y-116859120D01*
X68115820Y-117091897D01*
X68425763Y-117279025D01*
X68549666Y-117342193D01*
X68973000Y-117541012D01*
X68507333Y-117540588D01*
X67785297Y-117468985D01*
X67028693Y-117264172D01*
X66392478Y-116993245D01*
X66109021Y-116852904D01*
X65888598Y-116748276D01*
X65770611Y-116697943D01*
X65762175Y-116696000D01*
X65650380Y-116752727D01*
X65445109Y-116907763D01*
X65170556Y-117138385D01*
X64850915Y-117421873D01*
X64510376Y-117735505D01*
X64173134Y-118056560D01*
X63863381Y-118362316D01*
X63605310Y-118630054D01*
X63423113Y-118837050D01*
X63340984Y-118960585D01*
X63338698Y-118972067D01*
X63396638Y-119057770D01*
X63564098Y-119248921D01*
X63829032Y-119533086D01*
X64179393Y-119897833D01*
X64603135Y-120330731D01*
X65088212Y-120819348D01*
X65622577Y-121351250D01*
X66097958Y-121819694D01*
X68861186Y-124530388D01*
X68470393Y-124811034D01*
X68079601Y-125091680D01*
X67764300Y-124816540D01*
X67588439Y-124657426D01*
X67319760Y-124406917D01*
X66972415Y-124078722D01*
X66560553Y-123686549D01*
X66098326Y-123244105D01*
X65599882Y-122765099D01*
X65079372Y-122263236D01*
X64550947Y-121752226D01*
X64028756Y-121245776D01*
X63526949Y-120757594D01*
X63059677Y-120301387D01*
X62641090Y-119890863D01*
X62285338Y-119539730D01*
X62006571Y-119261696D01*
X61818939Y-119070468D01*
X61736592Y-118979753D01*
X61734000Y-118974795D01*
X61795469Y-118904377D01*
X61970686Y-118734899D01*
X62245863Y-118478694D01*
X62607212Y-118148096D01*
X63040945Y-117755438D01*
X63533274Y-117313055D01*
X64070412Y-116833280D01*
X64638571Y-116328445D01*
X65223962Y-115810886D01*
X65812800Y-115292935D01*
X66391294Y-114786926D01*
X66945659Y-114305193D01*
X67195000Y-114089770D01*
X68380333Y-113067825D01*
X68380333Y-112907245D01*
X68360326Y-112895105D01*
X68332871Y-112888583D01*
X68228662Y-112943110D01*
X68015455Y-113099882D01*
X67707603Y-113346050D01*
X67319462Y-113668767D01*
X66865386Y-114055184D01*
X66359729Y-114492453D01*
X65816846Y-114967726D01*
X65251092Y-115468154D01*
X64676821Y-115980890D01*
X64108387Y-116493085D01*
X63560146Y-116991891D01*
X63046451Y-117464460D01*
X62581658Y-117897944D01*
X62180120Y-118279494D01*
X61856192Y-118596262D01*
X61624230Y-118835400D01*
X61498587Y-118984059D01*
X61480000Y-119022333D01*
X61539257Y-119099636D01*
X61708694Y-119281197D01*
X61975805Y-119554557D01*
X62328085Y-119907259D01*
X62753031Y-120326845D01*
X63238137Y-120800856D01*
X63770898Y-121316835D01*
X64125833Y-121658280D01*
X64911050Y-122411351D01*
X65583456Y-123055242D01*
X66152121Y-123598328D01*
X66626113Y-124048984D01*
X67014501Y-124415586D01*
X67326355Y-124706507D01*
X67570742Y-124930124D01*
X67756733Y-125094811D01*
X67893396Y-125208944D01*
X67989799Y-125280897D01*
X68055012Y-125319045D01*
X68098104Y-125331764D01*
X68103919Y-125332000D01*
X68206460Y-125275756D01*
X68428163Y-125110373D01*
X68763127Y-124840872D01*
X69205450Y-124472274D01*
X69749229Y-124009602D01*
X70388565Y-123457877D01*
X71117554Y-122822121D01*
X71930295Y-122107355D01*
X72820886Y-121318600D01*
X72825333Y-121314650D01*
X73338916Y-120859718D01*
X73852816Y-120406996D01*
X74341453Y-119978836D01*
X74779248Y-119597589D01*
X75140621Y-119285607D01*
X75389600Y-119073943D01*
X75755163Y-118754406D01*
X76132030Y-118403093D01*
X76464661Y-118072702D01*
X76618897Y-117907557D01*
X77104260Y-117364568D01*
X78099844Y-118309906D01*
X78474135Y-118668854D01*
X78737659Y-118932330D01*
X78905298Y-119118384D01*
X78991930Y-119245062D01*
X79012438Y-119330413D01*
X78987214Y-119386140D01*
X78905018Y-119465957D01*
X78708311Y-119647529D01*
X78409083Y-119920045D01*
X78019325Y-120272691D01*
X77551025Y-120694655D01*
X77016173Y-121175126D01*
X76426758Y-121703290D01*
X75794771Y-122268334D01*
X75450000Y-122576082D01*
X74727964Y-123219718D01*
X73982942Y-123882928D01*
X73236123Y-124546910D01*
X72508698Y-125192859D01*
X71821854Y-125801971D01*
X71196783Y-126355442D01*
X70654674Y-126834470D01*
X70216715Y-127220250D01*
X70200666Y-127234352D01*
X69722354Y-127654622D01*
X69277535Y-128045570D01*
X68884438Y-128391167D01*
X68561288Y-128675386D01*
X68326315Y-128882198D01*
X68197744Y-128995575D01*
X68189147Y-129003191D01*
X67997961Y-129172805D01*
X67130814Y-128328828D01*
X66923994Y-128128177D01*
X66607433Y-127821929D01*
X66193392Y-127421914D01*
X65694136Y-126939961D01*
X65121926Y-126387899D01*
X64489026Y-125777557D01*
X63807698Y-125120764D01*
X63090204Y-124429349D01*
X62348809Y-123715141D01*
X61839833Y-123224970D01*
X61116792Y-122527873D01*
X60430510Y-121864557D01*
X59790597Y-121244414D01*
X59206663Y-120676836D01*
X58688317Y-120171215D01*
X58245171Y-119736942D01*
X57886833Y-119383409D01*
X57622914Y-119120008D01*
X57463023Y-118956131D01*
X57416000Y-118901617D01*
X57476217Y-118826575D01*
X57642436Y-118660835D01*
X57893003Y-118424958D01*
X58206268Y-118139504D01*
X58410138Y-117957572D01*
X58701978Y-117698140D01*
X59098485Y-117344280D01*
X59578530Y-116914919D01*
X60120984Y-116428986D01*
X60704719Y-115905408D01*
X61308606Y-115363113D01*
X61911518Y-114821028D01*
X61944971Y-114790928D01*
X62559990Y-114238522D01*
X63188484Y-113675793D01*
X63807190Y-113123447D01*
X64392846Y-112602189D01*
X64922189Y-112132724D01*
X65371957Y-111735759D01*
X65713333Y-111436827D01*
X66164934Y-111043020D01*
X66636040Y-110630600D01*
X67087069Y-110234329D01*
X67478434Y-109888967D01*
X67702547Y-109690011D01*
X68464095Y-109011224D01*
X68464095Y-108725283D01*
X66711530Y-106998029D01*
X66310349Y-106602950D01*
X65806257Y-106107025D01*
X65634125Y-105937791D01*
X65634125Y-106359041D01*
X66902293Y-107566660D01*
X67281289Y-107931784D01*
X67612854Y-108259315D01*
X67879164Y-108530971D01*
X68062394Y-108728467D01*
X68144718Y-108833518D01*
X68147307Y-108843744D01*
X68080070Y-108917278D01*
X67903650Y-109086567D01*
X67635772Y-109335265D01*
X67294165Y-109647022D01*
X66896555Y-110005490D01*
X66606589Y-110264605D01*
X66180164Y-110642157D01*
X65794966Y-110979056D01*
X65469107Y-111259797D01*
X65220697Y-111468878D01*
X65067851Y-111590795D01*
X65027780Y-111616000D01*
X64993895Y-111537883D01*
X64955236Y-111328996D01*
X64918183Y-111027534D01*
X64904014Y-110875166D01*
X64882625Y-110170251D01*
X64923344Y-109390040D01*
X65018890Y-108585779D01*
X65161978Y-107808711D01*
X65345328Y-107110082D01*
X65500261Y-106679422D01*
X65634125Y-106359041D01*
X65634125Y-105937791D01*
X65217264Y-105527945D01*
X64561382Y-104883406D01*
X64387325Y-104712426D01*
X64387325Y-105154297D01*
X64496533Y-105235616D01*
X64692770Y-105395582D01*
X64935708Y-105601240D01*
X64962375Y-105624222D01*
X65439084Y-106035782D01*
X65146789Y-106937184D01*
X65002427Y-107436719D01*
X64864263Y-108008116D01*
X64754266Y-108557062D01*
X64720353Y-108767866D01*
X64661400Y-109229833D01*
X64631719Y-109632843D01*
X64629903Y-110041711D01*
X64654543Y-110521253D01*
X64676096Y-110804740D01*
X64765981Y-111912333D01*
X64371823Y-112278176D01*
X64099654Y-112524210D01*
X63820523Y-112766362D01*
X63666731Y-112893924D01*
X63355795Y-113143830D01*
X63227953Y-112697415D01*
X62999318Y-111642247D01*
X62892921Y-110530733D01*
X62907141Y-109402794D01*
X63040353Y-108298349D01*
X63290936Y-107257320D01*
X63469854Y-106747273D01*
X63657056Y-106304461D01*
X63850778Y-105900048D01*
X64036538Y-105559181D01*
X64199851Y-105307007D01*
X64326235Y-105168673D01*
X64387325Y-105154297D01*
X64387325Y-104712426D01*
X63856620Y-104191099D01*
X63120990Y-103468720D01*
X62372500Y-102733959D01*
X61629163Y-102004512D01*
X61155246Y-101539599D01*
X60389280Y-100788015D01*
X59736087Y-100146032D01*
X59187401Y-99604831D01*
X58734952Y-99155597D01*
X58370472Y-98789512D01*
X58085694Y-98497760D01*
X57872350Y-98271524D01*
X57722171Y-98101987D01*
X57626889Y-97980331D01*
X57578236Y-97897740D01*
X57567943Y-97845398D01*
X57587744Y-97814487D01*
X57629369Y-97796190D01*
X57641580Y-97792726D01*
X57753510Y-97771167D01*
X58022404Y-97723886D01*
X58438130Y-97652575D01*
X58990551Y-97558923D01*
X59669533Y-97444623D01*
X60464942Y-97311365D01*
X61366643Y-97160842D01*
X62364501Y-96994745D01*
X63448383Y-96814764D01*
X64608152Y-96622592D01*
X65833675Y-96419919D01*
X67114818Y-96208437D01*
X68441445Y-95989837D01*
X68676666Y-95951118D01*
X70008206Y-95731894D01*
X71294781Y-95519926D01*
X72526369Y-95316872D01*
X73692951Y-95124391D01*
X74784505Y-94944140D01*
X75791010Y-94777778D01*
X76702447Y-94626963D01*
X77508793Y-94493354D01*
X78200028Y-94378609D01*
X78766132Y-94284386D01*
X79197083Y-94212344D01*
X79482861Y-94164140D01*
X79613444Y-94141434D01*
X79619833Y-94140151D01*
X79744119Y-94131447D01*
X79744119Y-93900299D01*
X68791934Y-95719004D01*
X67439300Y-95943899D01*
X66129273Y-96162251D01*
X64871942Y-96372354D01*
X63677391Y-96572499D01*
X62555710Y-96760979D01*
X61516985Y-96936084D01*
X60571303Y-97096107D01*
X59728750Y-97239339D01*
X58999415Y-97364074D01*
X58393384Y-97468602D01*
X57920744Y-97551215D01*
X57591582Y-97610206D01*
X57415985Y-97643867D01*
X57393118Y-97649220D01*
X57183811Y-97729958D01*
X57126139Y-97816792D01*
X57139118Y-97852229D01*
G36*
X80349865Y-121449727D02*
X80537250Y-121511687D01*
X80695271Y-121522000D01*
X80958047Y-121476099D01*
X81099054Y-121350026D01*
X81107874Y-121197575D01*
X81090797Y-121084012D01*
X81066592Y-120871397D01*
X81059571Y-120802333D01*
X81013142Y-120563983D01*
X80901332Y-120420282D01*
X80826333Y-120377860D01*
X80826333Y-120929333D01*
X80868666Y-120971666D01*
X80826333Y-121014000D01*
X80784000Y-120971666D01*
X80826333Y-120929333D01*
X80826333Y-120377860D01*
X80741666Y-120329968D01*
X80741666Y-121268000D01*
X80784000Y-121310333D01*
X80741666Y-121352666D01*
X80699333Y-121310333D01*
X80741666Y-121268000D01*
X80741666Y-120329968D01*
X80730501Y-120323652D01*
X80536849Y-120238839D01*
X80438704Y-120238151D01*
X80379063Y-120332129D01*
X80355333Y-120393027D01*
X80315228Y-120629069D01*
X80344893Y-120871243D01*
X80432505Y-121043448D01*
X80459779Y-121065261D01*
X80467453Y-121144725D01*
X80395131Y-121220950D01*
X80296646Y-121346952D01*
X80349865Y-121449727D01*
X80349865Y-121449727D01*
G37*
X80349865Y-121449727D02*
X80537250Y-121511687D01*
X80695271Y-121522000D01*
X80958047Y-121476099D01*
X81099054Y-121350026D01*
X81107874Y-121197575D01*
X81090797Y-121084012D01*
X81066592Y-120871397D01*
X81059571Y-120802333D01*
X81013142Y-120563983D01*
X80901332Y-120420282D01*
X80826333Y-120377860D01*
X80826333Y-120929333D01*
X80868666Y-120971666D01*
X80826333Y-121014000D01*
X80784000Y-120971666D01*
X80826333Y-120929333D01*
X80826333Y-120377860D01*
X80741666Y-120329968D01*
X80741666Y-121268000D01*
X80784000Y-121310333D01*
X80741666Y-121352666D01*
X80699333Y-121310333D01*
X80741666Y-121268000D01*
X80741666Y-120329968D01*
X80730501Y-120323652D01*
X80536849Y-120238839D01*
X80438704Y-120238151D01*
X80379063Y-120332129D01*
X80355333Y-120393027D01*
X80315228Y-120629069D01*
X80344893Y-120871243D01*
X80432505Y-121043448D01*
X80459779Y-121065261D01*
X80467453Y-121144725D01*
X80395131Y-121220950D01*
X80296646Y-121346952D01*
X80349865Y-121449727D01*
G36*
X57202785Y-97156839D02*
X57231919Y-97170215D01*
X57244733Y-97138000D01*
X57296963Y-96900632D01*
X57324190Y-96630000D01*
X57351249Y-96394523D01*
X57403796Y-96223843D01*
X57408282Y-96216255D01*
X57425441Y-96199880D01*
X57461626Y-96181390D01*
X57523775Y-96159556D01*
X57618826Y-96133151D01*
X57753715Y-96100947D01*
X57935382Y-96061716D01*
X58170763Y-96014232D01*
X58466798Y-95957265D01*
X58830422Y-95889588D01*
X59268576Y-95809974D01*
X59788195Y-95717194D01*
X60396219Y-95610021D01*
X61099585Y-95487228D01*
X61905230Y-95347586D01*
X62820093Y-95189868D01*
X63851111Y-95012846D01*
X65005222Y-94815293D01*
X66289365Y-94595980D01*
X67710477Y-94353680D01*
X69275495Y-94087165D01*
X70991358Y-93795207D01*
X72865003Y-93476579D01*
X73502666Y-93368166D01*
X74736264Y-93157606D01*
X75809392Y-92972519D01*
X76728776Y-92811563D01*
X77501142Y-92673396D01*
X78133217Y-92556676D01*
X78631728Y-92460061D01*
X79003401Y-92382210D01*
X79254962Y-92321779D01*
X79393137Y-92277427D01*
X79424654Y-92247812D01*
X79356238Y-92231592D01*
X79220817Y-92227333D01*
X79062829Y-92240479D01*
X78768553Y-92277057D01*
X78368748Y-92332776D01*
X77894174Y-92403345D01*
X77375591Y-92484472D01*
X77362383Y-92486589D01*
X77045171Y-92538241D01*
X76589077Y-92613619D01*
X76007042Y-92710529D01*
X75312008Y-92826778D01*
X74516918Y-92960171D01*
X73634713Y-93108513D01*
X72678334Y-93269611D01*
X71660724Y-93441271D01*
X70594824Y-93621298D01*
X69493576Y-93807498D01*
X68369922Y-93997677D01*
X67236803Y-94189641D01*
X66107162Y-94381195D01*
X64993940Y-94570146D01*
X63910079Y-94754300D01*
X62868521Y-94931461D01*
X61882207Y-95099436D01*
X60964079Y-95256031D01*
X60127080Y-95399052D01*
X59384150Y-95526304D01*
X58748232Y-95635593D01*
X58232267Y-95724726D01*
X57849197Y-95791507D01*
X57611965Y-95833743D01*
X57543000Y-95846806D01*
X57204333Y-95917462D01*
X57189673Y-96633564D01*
X57188633Y-96977317D01*
X57202785Y-97156839D01*
X57202785Y-97156839D01*
G37*
X57202785Y-97156839D02*
X57231919Y-97170215D01*
X57244733Y-97138000D01*
X57296963Y-96900632D01*
X57324190Y-96630000D01*
X57351249Y-96394523D01*
X57403796Y-96223843D01*
X57408282Y-96216255D01*
X57425441Y-96199880D01*
X57461626Y-96181390D01*
X57523775Y-96159556D01*
X57618826Y-96133151D01*
X57753715Y-96100947D01*
X57935382Y-96061716D01*
X58170763Y-96014232D01*
X58466798Y-95957265D01*
X58830422Y-95889588D01*
X59268576Y-95809974D01*
X59788195Y-95717194D01*
X60396219Y-95610021D01*
X61099585Y-95487228D01*
X61905230Y-95347586D01*
X62820093Y-95189868D01*
X63851111Y-95012846D01*
X65005222Y-94815293D01*
X66289365Y-94595980D01*
X67710477Y-94353680D01*
X69275495Y-94087165D01*
X70991358Y-93795207D01*
X72865003Y-93476579D01*
X73502666Y-93368166D01*
X74736264Y-93157606D01*
X75809392Y-92972519D01*
X76728776Y-92811563D01*
X77501142Y-92673396D01*
X78133217Y-92556676D01*
X78631728Y-92460061D01*
X79003401Y-92382210D01*
X79254962Y-92321779D01*
X79393137Y-92277427D01*
X79424654Y-92247812D01*
X79356238Y-92231592D01*
X79220817Y-92227333D01*
X79062829Y-92240479D01*
X78768553Y-92277057D01*
X78368748Y-92332776D01*
X77894174Y-92403345D01*
X77375591Y-92484472D01*
X77362383Y-92486589D01*
X77045171Y-92538241D01*
X76589077Y-92613619D01*
X76007042Y-92710529D01*
X75312008Y-92826778D01*
X74516918Y-92960171D01*
X73634713Y-93108513D01*
X72678334Y-93269611D01*
X71660724Y-93441271D01*
X70594824Y-93621298D01*
X69493576Y-93807498D01*
X68369922Y-93997677D01*
X67236803Y-94189641D01*
X66107162Y-94381195D01*
X64993940Y-94570146D01*
X63910079Y-94754300D01*
X62868521Y-94931461D01*
X61882207Y-95099436D01*
X60964079Y-95256031D01*
X60127080Y-95399052D01*
X59384150Y-95526304D01*
X58748232Y-95635593D01*
X58232267Y-95724726D01*
X57849197Y-95791507D01*
X57611965Y-95833743D01*
X57543000Y-95846806D01*
X57204333Y-95917462D01*
X57189673Y-96633564D01*
X57188633Y-96977317D01*
X57202785Y-97156839D01*
M02*
