M48
;DRILL file {KiCad 4.0.2+dfsg1-stable} date Sun 24 Sep 2017 04:32:59 PM CDT
;FORMAT={-:-/ absolute / inch / decimal}
FMAT,2
INCH,TZ
T1C0.016
T2C0.030
T3C0.035
T4C0.045
T5C0.197
%
G90
G05
M72
T1
X2.0079Y-3.0315
X2.0079Y-5.8661
X2.0472Y-2.9921
X2.0669Y-5.2835
X2.0866Y-3.2087
X2.1161Y-3.0315
X2.1614Y-3.4646
X2.1654Y-3.5827
X2.1654Y-5.8661
X2.1654Y-3.3858
X2.2441Y-3.6614
X2.313Y-5.187
X2.3228Y-5.8661
X2.3386Y-2.9921
X2.3386Y-3.0709
X2.3386Y-3.1496
X2.3386Y-3.2283
X2.3425Y-4.1043
X2.3622Y-3.5827
X2.4409Y-4.0945
X2.4882Y-4.0551
X2.5197Y-3.2795
X2.5197Y-3.3858
X2.5197Y-3.4646
X2.5197Y-3.5433
X2.5197Y-3.7008
X2.5197Y-3.8189
X2.5197Y-4.1732
X2.5906Y-4.9331
X2.5984Y-4.0551
X2.6378Y-3.2795
X2.6378Y-3.8189
X2.6378Y-4.9843
X2.6378Y-5.0787
X2.6772Y-4.1732
X2.6969Y-4.5571
X2.7165Y-3.7008
X2.7165Y-4.0551
X2.7559Y-3.2795
X2.7559Y-3.8189
X2.7559Y-5.0787
X2.8346Y-4.1732
X2.874Y-3.2795
X2.874Y-3.3858
X2.874Y-3.4646
X2.874Y-3.5433
X2.874Y-3.7008
X2.874Y-3.8189
X2.9528Y-3.2795
X2.9921Y-3.622
X3.0709Y-3.9016
X3.0709Y-4.0157
X3.1417Y-3.8583
X3.1496Y-2.9921
X3.1496Y-3.0709
X3.1496Y-3.1496
X3.1496Y-3.2283
X3.189Y-4.0157
X3.189Y-5.8661
X3.2717Y-3.7008
X3.3071Y-2.9921
X3.3071Y-3.8976
X3.3465Y-5.8661
X3.5039Y-2.9921
X3.5039Y-3.1496
X3.5039Y-3.3858
X3.5039Y-3.6772
X3.5039Y-3.874
X3.5039Y-4.0945
X3.5039Y-5.8661
T2
X2.789Y-5.781
X3.117Y-5.781
T3
X2.0472Y-3.372
X2.0472Y-3.472
X2.0472Y-3.572
X2.0472Y-3.672
X2.0472Y-3.772
X2.0472Y-3.872
X2.4591Y-5.8179
X2.5591Y-5.8179
X2.873Y-5.781
X2.953Y-5.781
X3.033Y-5.781
T4
X2.1188Y-4.7378
X2.1188Y-4.9078
X2.4088Y-4.7378
X2.4088Y-4.9078
X2.6109Y-4.2457
X2.6109Y-4.4157
X2.6109Y-5.23
X2.6109Y-5.4
X2.9009Y-4.2457
X2.9009Y-4.4157
X2.9009Y-5.23
X2.9009Y-5.4
X3.103Y-4.7378
X3.103Y-4.9078
X3.393Y-4.7378
X3.393Y-4.9078
T5
X2.1654Y-4.4094
X2.1654Y-5.5906
X3.3465Y-4.4094
X3.3465Y-5.5906
T0
M30
