G04 #@! TF.FileFunction,Copper,L1,Top,Signal*
%FSLAX46Y46*%
G04 Gerber Fmt 4.6, Leading zero omitted, Abs format (unit mm)*
G04 Created by KiCad (PCBNEW 4.0.2+dfsg1-stable) date Sun 24 Sep 2017 04:33:04 PM CDT*
%MOMM*%
G01*
G04 APERTURE LIST*
%ADD10C,0.100000*%
%ADD11R,1.100000X2.600000*%
%ADD12R,2.600000X1.100000*%
%ADD13C,1.651000*%
%ADD14R,1.651000X1.651000*%
%ADD15O,1.397000X2.794000*%
%ADD16R,0.889000X0.889000*%
%ADD17R,1.016000X1.397000*%
%ADD18R,1.905000X1.905000*%
%ADD19C,1.905000*%
%ADD20R,1.397000X1.016000*%
%ADD21R,1.450000X0.450000*%
%ADD22R,1.143000X1.016000*%
%ADD23C,8.000000*%
%ADD24R,0.700000X0.600000*%
%ADD25R,1.397000X1.397000*%
%ADD26R,0.762000X0.889000*%
%ADD27C,0.600000*%
%ADD28C,0.200000*%
%ADD29C,0.600000*%
%ADD30C,0.400000*%
%ADD31C,0.250000*%
%ADD32C,0.300000*%
%ADD33C,0.254000*%
G04 APERTURE END LIST*
D10*
D11*
X65000000Y-99500000D03*
D12*
X78000000Y-98000000D03*
X62000000Y-84000000D03*
X62000000Y-86000000D03*
X62000000Y-88000000D03*
X62000000Y-90000000D03*
X62000000Y-92000000D03*
X62000000Y-94000000D03*
X62000000Y-96000000D03*
X62000000Y-98000000D03*
X78000000Y-96000000D03*
X78000000Y-94000000D03*
X78000000Y-92000000D03*
X78000000Y-90000000D03*
X78000000Y-88000000D03*
X78000000Y-86000000D03*
X78000000Y-84000000D03*
D11*
X67000000Y-99500000D03*
X69000000Y-99500000D03*
X71000000Y-99500000D03*
X73000000Y-99500000D03*
X75000000Y-99500000D03*
D13*
X77038300Y-146837700D03*
X72974300Y-146837700D03*
D14*
X75006300Y-146837700D03*
D15*
X79171900Y-146837700D03*
X70840700Y-146837700D03*
D16*
X68521200Y-125326200D03*
X66997200Y-125326200D03*
D17*
X73220200Y-118976200D03*
X74998200Y-118976200D03*
D16*
X53000000Y-78738000D03*
X53000000Y-80262000D03*
D14*
X52000000Y-98350000D03*
D13*
X52000000Y-95810000D03*
X52000000Y-93270000D03*
X52000000Y-90730000D03*
X52000000Y-88190000D03*
X52000000Y-85650000D03*
D18*
X66317000Y-107841000D03*
D19*
X66317000Y-112159000D03*
X73683000Y-112159000D03*
X73683000Y-107841000D03*
D18*
X78817000Y-120341000D03*
D19*
X78817000Y-124659000D03*
X86183000Y-124659000D03*
X86183000Y-120341000D03*
D18*
X66317000Y-132841000D03*
D19*
X66317000Y-137159000D03*
X73683000Y-137159000D03*
X73683000Y-132841000D03*
D18*
X53817000Y-120341000D03*
D19*
X53817000Y-124659000D03*
X61183000Y-124659000D03*
X61183000Y-120341000D03*
D20*
X64711200Y-122913200D03*
X64711200Y-121135200D03*
D16*
X57700000Y-84250000D03*
X59224000Y-84250000D03*
X82262000Y-84000000D03*
X80738000Y-84000000D03*
X57675600Y-87998600D03*
X59199600Y-87998600D03*
X82346800Y-86000000D03*
X80822800Y-86000000D03*
X73093200Y-121643200D03*
X74617200Y-121643200D03*
X87762000Y-102000000D03*
X86238000Y-102000000D03*
X87762000Y-92000000D03*
X86238000Y-92000000D03*
X87762000Y-97000000D03*
X86238000Y-97000000D03*
X71696200Y-125326200D03*
X70172200Y-125326200D03*
X59212000Y-86000000D03*
X57688000Y-86000000D03*
X66870200Y-119230200D03*
X68394200Y-119230200D03*
X71442200Y-119230200D03*
X69918200Y-119230200D03*
X76416000Y-138551000D03*
X76416000Y-140075000D03*
X69918200Y-115801200D03*
X71442200Y-115801200D03*
X59500000Y-101488000D03*
X59500000Y-103012000D03*
X82262000Y-92000000D03*
X80738000Y-92000000D03*
X87762000Y-88000000D03*
X86238000Y-88000000D03*
X57750000Y-78738000D03*
X57750000Y-80262000D03*
X80738000Y-94000000D03*
X82262000Y-94000000D03*
X80726000Y-96000000D03*
X82250000Y-96000000D03*
X64750000Y-129012000D03*
X64750000Y-127488000D03*
X81250000Y-132738000D03*
X81250000Y-134262000D03*
X81250000Y-130762000D03*
X81250000Y-129238000D03*
X58750000Y-132738000D03*
X58750000Y-134262000D03*
X58750000Y-130762000D03*
X58750000Y-129238000D03*
D21*
X71277200Y-122960200D03*
X71277200Y-122310200D03*
X71277200Y-121660200D03*
X71277200Y-121010200D03*
X66877200Y-121010200D03*
X66877200Y-121660200D03*
X66877200Y-122310200D03*
X66877200Y-122960200D03*
D17*
X73220200Y-115801200D03*
X74998200Y-115801200D03*
D16*
X62000000Y-101488000D03*
X62000000Y-103012000D03*
X62750000Y-132262000D03*
X62750000Y-130738000D03*
X84750000Y-134262000D03*
X84750000Y-132738000D03*
X84750000Y-129238000D03*
X84750000Y-130762000D03*
X55250000Y-134262000D03*
X55250000Y-132738000D03*
X55250000Y-129238000D03*
X55250000Y-130762000D03*
D22*
X74638000Y-141853000D03*
X74638000Y-140075000D03*
X72606000Y-140964000D03*
D16*
X83000000Y-132738000D03*
X83000000Y-134262000D03*
X83000000Y-130762000D03*
X83000000Y-129238000D03*
X57000000Y-132738000D03*
X57000000Y-134262000D03*
X57000000Y-130762000D03*
X57000000Y-129238000D03*
D23*
X55000000Y-112000000D03*
X85000000Y-112000000D03*
X55000000Y-142000000D03*
X85000000Y-142000000D03*
D24*
X78000000Y-141664000D03*
X78000000Y-140264000D03*
X86500000Y-134200000D03*
X86500000Y-132800000D03*
X86500000Y-129300000D03*
X86500000Y-130700000D03*
X53500000Y-134200000D03*
X53500000Y-132800000D03*
X53500000Y-129300000D03*
X53500000Y-130700000D03*
D14*
X65001240Y-147774960D03*
D13*
X62461240Y-147774960D03*
D25*
X80849000Y-88000000D03*
X84151000Y-88000000D03*
X55750000Y-80401000D03*
X55750000Y-77099000D03*
X79250000Y-132599000D03*
X79250000Y-135901000D03*
X79250000Y-130901000D03*
X79250000Y-127599000D03*
X60750000Y-132349000D03*
X60750000Y-135651000D03*
X60750000Y-130901000D03*
X60750000Y-127599000D03*
D26*
X86238000Y-95000000D03*
X87762000Y-95000000D03*
X86238000Y-100000000D03*
X87762000Y-100000000D03*
X86238000Y-90000000D03*
X87762000Y-90000000D03*
D27*
X53000000Y-81500000D03*
X76000000Y-92000000D03*
X73000000Y-97000000D03*
X70000000Y-97000000D03*
X67000000Y-97000000D03*
X64000000Y-97000000D03*
X81000000Y-149000000D03*
X85000000Y-149000000D03*
X89000000Y-149000000D03*
X59000000Y-149000000D03*
X55000000Y-149000006D03*
X51000000Y-149000000D03*
X89000000Y-104000000D03*
X60000000Y-91000000D03*
X57000000Y-93000000D03*
X51000000Y-77000000D03*
X52000000Y-76000000D03*
X59400000Y-82000000D03*
X64000000Y-83299994D03*
X59400000Y-80000000D03*
X59400000Y-77999994D03*
X64000000Y-106000000D03*
X68000000Y-106000000D03*
X72000000Y-106000000D03*
X69000000Y-103000000D03*
X66000000Y-103000000D03*
X63200002Y-103000000D03*
X62000000Y-104000000D03*
X84000000Y-99000000D03*
X81000000Y-102000000D03*
X78000000Y-102000000D03*
X89000000Y-98400000D03*
X89000000Y-93400000D03*
X89000000Y-80000001D03*
X89000000Y-86000000D03*
X89000000Y-76000000D03*
X84000000Y-76000000D03*
X65800000Y-125300000D03*
X67000000Y-129000000D03*
X70000000Y-129000000D03*
X67000000Y-126600000D03*
X55000000Y-91000000D03*
X69000000Y-94000000D03*
X64000000Y-94000000D03*
X73000000Y-94000000D03*
X73000000Y-90000000D03*
X64000000Y-90000000D03*
X64000000Y-88000000D03*
X73000000Y-88000000D03*
X73000000Y-86000000D03*
X64000000Y-86000000D03*
X80000000Y-76000000D03*
X80000000Y-78000000D03*
X80000000Y-80000000D03*
X80000000Y-82000000D03*
X67000000Y-83299994D03*
X75000000Y-83300000D03*
X73000000Y-83300000D03*
X70000000Y-83300000D03*
X59400000Y-76000000D03*
X55000010Y-86000000D03*
X52500000Y-134200000D03*
X78000000Y-99100000D03*
X79800000Y-98000000D03*
X83099990Y-94000000D03*
X53750000Y-77000000D03*
X54900000Y-88000000D03*
X68500000Y-115750000D03*
X59500000Y-104250000D03*
X58750000Y-131750000D03*
D28*
X57750000Y-80262000D02*
X57750000Y-81950000D01*
X57750000Y-81950000D02*
X58600000Y-82800000D01*
X58600000Y-82800000D02*
X59800000Y-82800000D01*
X59800000Y-82800000D02*
X61000000Y-84000000D01*
X61000000Y-84000000D02*
X62000000Y-84000000D01*
X55750000Y-80401000D02*
X55750000Y-79502500D01*
X55750000Y-79502500D02*
X54985500Y-78738000D01*
X54985500Y-78738000D02*
X53644500Y-78738000D01*
X53644500Y-78738000D02*
X53000000Y-78738000D01*
X57750000Y-80262000D02*
X55889000Y-80262000D01*
X55889000Y-80262000D02*
X55750000Y-80401000D01*
X53000000Y-80262000D02*
X53000000Y-81500000D01*
X78000000Y-92000000D02*
X76000000Y-92000000D01*
X80738000Y-92000000D02*
X78000000Y-92000000D01*
X80849000Y-88000000D02*
X80849000Y-91889000D01*
X80849000Y-91889000D02*
X80738000Y-92000000D01*
D29*
X70172200Y-125326200D02*
X70172200Y-126422200D01*
X70172200Y-126422200D02*
X76416000Y-132666000D01*
X76416000Y-132666000D02*
X76416000Y-138551000D01*
D30*
X74617200Y-121643200D02*
X74617200Y-122487700D01*
X74617200Y-122487700D02*
X73250000Y-123854900D01*
X73250000Y-123854900D02*
X73250000Y-125381402D01*
X73250000Y-125381402D02*
X72000000Y-126631402D01*
X70631402Y-126631402D02*
X70172200Y-126172200D01*
X72000000Y-126631402D02*
X70631402Y-126631402D01*
X70172200Y-126172200D02*
X70172200Y-125326200D01*
D29*
X64711200Y-122913200D02*
X64833201Y-123035201D01*
X64833201Y-123035201D02*
X67274701Y-123035201D01*
X68521200Y-124281700D02*
X68521200Y-125326200D01*
X67274701Y-123035201D02*
X68521200Y-124281700D01*
X70172200Y-125326200D02*
X68521200Y-125326200D01*
D28*
X64000000Y-97000000D02*
X67000000Y-97000000D01*
D31*
X85000000Y-149000000D02*
X81000000Y-149000000D01*
D28*
X89000000Y-148575736D02*
X89000000Y-149000000D01*
X85000000Y-140000000D02*
X89000000Y-144000000D01*
X89000000Y-144000000D02*
X89000000Y-148575736D01*
D31*
X55000000Y-149000006D02*
X58999994Y-149000006D01*
X58999994Y-149000006D02*
X59000000Y-149000000D01*
D28*
X51000000Y-148575736D02*
X51000000Y-149000000D01*
X51000000Y-144000000D02*
X51000000Y-148575736D01*
X55000000Y-140000000D02*
X51000000Y-144000000D01*
D30*
X78000000Y-141664000D02*
X78000000Y-145665800D01*
X78000000Y-145665800D02*
X79171900Y-146837700D01*
X78000000Y-141664000D02*
X83336000Y-141664000D01*
X83336000Y-141664000D02*
X85000000Y-140000000D01*
X78000000Y-141664000D02*
X74827000Y-141664000D01*
X74827000Y-141664000D02*
X74638000Y-141853000D01*
D28*
X89000000Y-98400000D02*
X89000000Y-104000000D01*
X63424264Y-91000000D02*
X60000000Y-91000000D01*
X55000000Y-91000000D02*
X60000000Y-91000000D01*
X52000000Y-76000000D02*
X51000000Y-77000000D01*
X59400000Y-80000000D02*
X59400000Y-82000000D01*
X59400000Y-77999994D02*
X59400000Y-80000000D01*
X72000000Y-106000000D02*
X68000000Y-106000000D01*
X66000000Y-103000000D02*
X69000000Y-103000000D01*
X63188002Y-103012000D02*
X63200002Y-103000000D01*
X62000000Y-103012000D02*
X63188002Y-103012000D01*
X62000000Y-103012000D02*
X62000000Y-104000000D01*
X81000000Y-102000000D02*
X84000000Y-99000000D01*
X78000000Y-99100000D02*
X78000000Y-102000000D01*
X89000000Y-93400000D02*
X89000000Y-98400000D01*
X89000000Y-86000000D02*
X89000000Y-93400000D01*
X89000000Y-82000000D02*
X89000000Y-80000001D01*
X89000000Y-76000000D02*
X89000000Y-82000000D01*
X80000000Y-76000000D02*
X84000000Y-76000000D01*
X66997200Y-125326200D02*
X65826200Y-125326200D01*
X65826200Y-125326200D02*
X65800000Y-125300000D01*
X70000000Y-129000000D02*
X67000000Y-129000000D01*
X66997200Y-125326200D02*
X66997200Y-126597200D01*
X66997200Y-126597200D02*
X67000000Y-126600000D01*
X64000000Y-90000000D02*
X64000000Y-90424264D01*
X64000000Y-90424264D02*
X63424264Y-91000000D01*
X64000000Y-90000000D02*
X64000000Y-94000000D01*
X69000000Y-94000000D02*
X73000000Y-94000000D01*
X64000000Y-94000000D02*
X69000000Y-94000000D01*
X73000000Y-90424264D02*
X73000000Y-94000000D01*
X73000000Y-90000000D02*
X73000000Y-90424264D01*
X64000000Y-90000000D02*
X73000000Y-90000000D01*
X73000000Y-88000000D02*
X64000000Y-88000000D01*
X64424264Y-86000000D02*
X73000000Y-86000000D01*
X64000000Y-86000000D02*
X64424264Y-86000000D01*
X80000000Y-78000000D02*
X80000000Y-76000000D01*
X80000000Y-82000000D02*
X80000000Y-80000000D01*
X67000006Y-83300000D02*
X67000000Y-83299994D01*
X70000000Y-83300000D02*
X67000006Y-83300000D01*
X67924258Y-83299994D02*
X67424264Y-83299994D01*
X67924264Y-83300000D02*
X67924258Y-83299994D01*
X67424264Y-83299994D02*
X67000000Y-83299994D01*
X73000000Y-83300000D02*
X75000000Y-83300000D01*
X53200000Y-76000000D02*
X59400000Y-76000000D01*
X50474489Y-78725511D02*
X53200000Y-76000000D01*
X52000000Y-98350000D02*
X50974500Y-98350000D01*
X50474489Y-97849989D02*
X50474489Y-78725511D01*
X50974500Y-98350000D02*
X50474489Y-97849989D01*
D29*
X57688000Y-86000000D02*
X55000010Y-86000000D01*
X52000000Y-98350000D02*
X52000000Y-107000000D01*
X52000000Y-107000000D02*
X55000000Y-110000000D01*
D28*
X86238000Y-102000000D02*
X86238000Y-108762000D01*
X86238000Y-108762000D02*
X85000000Y-110000000D01*
X53817000Y-124659000D02*
X61183000Y-124659000D01*
X53500000Y-129300000D02*
X53500000Y-124976000D01*
X53500000Y-124976000D02*
X53817000Y-124659000D01*
X55250000Y-129238000D02*
X53562000Y-129238000D01*
X53562000Y-129238000D02*
X53500000Y-129300000D01*
X53500000Y-134200000D02*
X52500000Y-134200000D01*
X55250000Y-134262000D02*
X53562000Y-134262000D01*
X53562000Y-134262000D02*
X53500000Y-134200000D01*
X78000000Y-98000000D02*
X78000000Y-99100000D01*
X80894500Y-98000000D02*
X79800000Y-98000000D01*
X78000000Y-98000000D02*
X79800000Y-98000000D01*
X82250000Y-96000000D02*
X82250000Y-96644500D01*
X82250000Y-96644500D02*
X80894500Y-98000000D01*
D30*
X73220200Y-115801200D02*
X71442200Y-115801200D01*
X73220200Y-118976200D02*
X73220200Y-115801200D01*
X71442200Y-119230200D02*
X72966200Y-119230200D01*
X72966200Y-119230200D02*
X73220200Y-118976200D01*
X71277200Y-121010200D02*
X71277200Y-119395200D01*
X71277200Y-119395200D02*
X71442200Y-119230200D01*
D29*
X62000000Y-101488000D02*
X62000000Y-98000000D01*
X59500000Y-101488000D02*
X62000000Y-101488000D01*
D28*
X87889000Y-90000000D02*
X87889000Y-91873000D01*
X87889000Y-91873000D02*
X87762000Y-92000000D01*
X86111000Y-95000000D02*
X86111000Y-94911000D01*
X86111000Y-94911000D02*
X85200000Y-94000000D01*
X85200000Y-94000000D02*
X83524254Y-94000000D01*
X83524254Y-94000000D02*
X83099990Y-94000000D01*
X86111000Y-100000000D02*
X86111000Y-99809500D01*
X86111000Y-99809500D02*
X87000000Y-98920500D01*
X87000000Y-98920500D02*
X87000000Y-95900000D01*
X87000000Y-95900000D02*
X86111000Y-95011000D01*
X86111000Y-95011000D02*
X86111000Y-95000000D01*
X82262000Y-94000000D02*
X83099990Y-94000000D01*
X57675600Y-87998600D02*
X54901400Y-87998600D01*
X54901400Y-87998600D02*
X54900000Y-88000000D01*
X53849000Y-77099000D02*
X53750000Y-77000000D01*
X55750000Y-77099000D02*
X53849000Y-77099000D01*
X86111000Y-99811000D02*
X86111000Y-100000000D01*
X64750000Y-127488000D02*
X64738000Y-127488000D01*
X64738000Y-127488000D02*
X63400010Y-126150010D01*
X63400010Y-126150010D02*
X63400010Y-117849990D01*
X65500000Y-115750000D02*
X68500000Y-115750000D01*
X63400010Y-117849990D02*
X65500000Y-115750000D01*
D30*
X69918200Y-115801200D02*
X68551200Y-115801200D01*
X68551200Y-115801200D02*
X68500000Y-115750000D01*
D29*
X59500000Y-103012000D02*
X59500000Y-104250000D01*
D28*
X57750000Y-78738000D02*
X57750000Y-78093500D01*
X57750000Y-78093500D02*
X56755500Y-77099000D01*
X56755500Y-77099000D02*
X56648500Y-77099000D01*
X56648500Y-77099000D02*
X55750000Y-77099000D01*
X83250000Y-90000000D02*
X82262000Y-90988000D01*
X82262000Y-90988000D02*
X82262000Y-92000000D01*
X86111000Y-90000000D02*
X83250000Y-90000000D01*
X82262000Y-94000000D02*
X82262000Y-93355500D01*
X82262000Y-93355500D02*
X82262000Y-92000000D01*
X87889000Y-100000000D02*
X87889000Y-101873000D01*
X87889000Y-101873000D02*
X87762000Y-102000000D01*
D32*
X78000000Y-90000000D02*
X76400000Y-90000000D01*
X76400000Y-90000000D02*
X75300000Y-91100000D01*
X81707111Y-117999989D02*
X86749989Y-117999989D01*
X86700000Y-132800000D02*
X85800000Y-132800000D01*
X75300000Y-91100000D02*
X75300000Y-97050000D01*
X75300000Y-97050000D02*
X76250000Y-98000000D01*
X76250000Y-98000000D02*
X76250000Y-102000000D01*
X76250000Y-102000000D02*
X79227030Y-104977030D01*
X79227030Y-104977030D02*
X79227031Y-115519909D01*
X86749989Y-117999989D02*
X88250000Y-119500000D01*
X79227031Y-115519909D02*
X81707111Y-117999989D01*
X88250000Y-119500000D02*
X88250000Y-131250000D01*
X88250000Y-131250000D02*
X86700000Y-132800000D01*
X85800000Y-132800000D02*
X85750000Y-132750000D01*
X85750000Y-132750000D02*
X84812000Y-132750000D01*
X86750000Y-132750000D02*
X85750000Y-132750000D01*
X84812000Y-132800000D02*
X84750000Y-132738000D01*
X83000000Y-132738000D02*
X84750000Y-132738000D01*
X86550000Y-130700000D02*
X87749989Y-129500011D01*
X86542878Y-118500000D02*
X81500000Y-118500000D01*
X86500000Y-130700000D02*
X86550000Y-130700000D01*
X77250000Y-88000000D02*
X78000000Y-88000000D01*
X87749989Y-129500011D02*
X87749989Y-119707111D01*
X87749989Y-119707111D02*
X86542878Y-118500000D01*
X81500000Y-118500000D02*
X78727020Y-115727020D01*
X78727020Y-115727020D02*
X78727020Y-105977020D01*
X78727020Y-105977020D02*
X74099999Y-101349999D01*
X74099999Y-101349999D02*
X74099999Y-91150001D01*
X74099999Y-91150001D02*
X77250000Y-88000000D01*
X84750000Y-130762000D02*
X86438000Y-130762000D01*
X84750000Y-130762000D02*
X85494500Y-130762000D01*
X83000000Y-130762000D02*
X84750000Y-130762000D01*
D33*
X53450000Y-130700000D02*
X53500000Y-130700000D01*
X57427012Y-97018988D02*
X57427012Y-104573126D01*
X53142069Y-118500001D02*
X52204011Y-119438058D01*
X60446000Y-94000000D02*
X57427012Y-97018988D01*
X52204011Y-129454011D02*
X53450000Y-130700000D01*
X59245951Y-118500001D02*
X53142069Y-118500001D01*
X62177012Y-115568940D02*
X59245951Y-118500001D01*
X62177012Y-109323126D02*
X62177012Y-115568940D01*
X62000000Y-94000000D02*
X60446000Y-94000000D01*
X57427012Y-104573126D02*
X62177012Y-109323126D01*
X52204011Y-119438058D02*
X52204011Y-129454011D01*
X55250000Y-130762000D02*
X53562000Y-130762000D01*
X53562000Y-130762000D02*
X53500000Y-130700000D01*
X57000000Y-130762000D02*
X55250000Y-130762000D01*
D28*
X62750000Y-130738000D02*
X62750000Y-130093500D01*
X62750000Y-130093500D02*
X63000000Y-129843500D01*
X63000000Y-129843500D02*
X63000000Y-109542232D01*
X63000000Y-109542232D02*
X57854022Y-104396254D01*
X57854022Y-104396254D02*
X57854022Y-97395978D01*
X57854022Y-97395978D02*
X59250000Y-96000000D01*
D32*
X72750000Y-102500000D02*
X72099999Y-101849999D01*
X73750000Y-103500000D02*
X72750000Y-102500000D01*
X74000000Y-103750000D02*
X73750000Y-103500000D01*
X72099999Y-101849999D02*
X72099999Y-97349999D01*
X72099999Y-97349999D02*
X70750000Y-96000000D01*
X70750000Y-96000000D02*
X69000000Y-96000000D01*
X69000000Y-96000000D02*
X62000000Y-96000000D01*
D28*
X59250000Y-96000000D02*
X62000000Y-96000000D01*
X60000000Y-96000000D02*
X59250000Y-96000000D01*
D32*
X73750000Y-103500000D02*
X78227010Y-107977010D01*
X78227010Y-107977010D02*
X78227010Y-118522990D01*
X79250000Y-131750000D02*
X79250000Y-132726000D01*
X78227010Y-118522990D02*
X77750000Y-119000000D01*
X76310211Y-120439789D02*
X77750000Y-119000000D01*
X77750000Y-119000000D02*
X78000000Y-118750000D01*
X76310211Y-127135617D02*
X76310211Y-120439789D01*
X79250000Y-131750000D02*
X79250000Y-130075406D01*
X79250000Y-130075406D02*
X76310211Y-127135617D01*
X79250000Y-130774000D02*
X79250000Y-131750000D01*
D28*
X61012000Y-130512000D02*
X60750000Y-130774000D01*
D33*
X60750000Y-132476000D02*
X60750000Y-130774000D01*
D28*
X62738000Y-130750000D02*
X61000000Y-130750000D01*
D33*
X53500000Y-132800000D02*
X53400000Y-132800000D01*
X56973001Y-104761184D02*
X56973001Y-96276999D01*
X53400000Y-132800000D02*
X51750000Y-131150000D01*
X53072991Y-117927011D02*
X59176873Y-117927011D01*
X61723002Y-115380882D02*
X61723001Y-109511183D01*
X51750000Y-131150000D02*
X51750000Y-119250001D01*
X51750000Y-119250001D02*
X53072991Y-117927011D01*
X59176873Y-117927011D02*
X61723002Y-115380882D01*
X61723001Y-109511183D02*
X56973001Y-104761184D01*
X56973001Y-96276999D02*
X61250000Y-92000000D01*
X61250000Y-92000000D02*
X62000000Y-92000000D01*
D28*
X55250000Y-132738000D02*
X53562000Y-132738000D01*
X53562000Y-132738000D02*
X53500000Y-132800000D01*
D32*
X57000000Y-132738000D02*
X55250000Y-132738000D01*
D28*
X65001240Y-143301240D02*
X65001240Y-147774960D01*
X51300000Y-134000000D02*
X52600000Y-135300000D01*
X52600000Y-135300000D02*
X57000000Y-135300000D01*
X57000000Y-135300000D02*
X65001240Y-143301240D01*
D29*
X67541240Y-147774960D02*
X68856960Y-147774960D01*
X68856960Y-147774960D02*
X70320000Y-149238000D01*
X65001240Y-147774960D02*
X67541240Y-147774960D01*
D28*
X57700000Y-84250000D02*
X55374301Y-84250000D01*
X51300000Y-119096118D02*
X51300000Y-134000000D01*
X55374301Y-84250000D02*
X52824301Y-86800000D01*
X52824301Y-86800000D02*
X51724258Y-86800000D01*
X50874499Y-87649759D02*
X50874499Y-91270241D01*
X52395742Y-92000000D02*
X56500000Y-96104258D01*
X50874499Y-91270241D02*
X51604258Y-92000000D01*
X51724258Y-86800000D02*
X50874499Y-87649759D01*
X52896118Y-117500000D02*
X51300000Y-119096118D01*
X51604258Y-92000000D02*
X52395742Y-92000000D01*
X56500000Y-96104258D02*
X56500000Y-105000000D01*
X56500000Y-105000000D02*
X61295991Y-109795991D01*
X61295991Y-109795991D02*
X61295991Y-115204009D01*
X61295991Y-115204009D02*
X59000000Y-117500000D01*
X59000000Y-117500000D02*
X52896118Y-117500000D01*
D29*
X72974300Y-148742700D02*
X72974300Y-146837700D01*
X72479000Y-149238000D02*
X72974300Y-148742700D01*
X70320000Y-149238000D02*
X72479000Y-149238000D01*
D28*
X82346800Y-86000000D02*
X82346800Y-86644500D01*
X82346800Y-86644500D02*
X81989801Y-87001499D01*
X81989801Y-87001499D02*
X76548501Y-87001499D01*
X76548501Y-87001499D02*
X74550000Y-89000000D01*
X74550000Y-89000000D02*
X53443200Y-89000000D01*
X53443200Y-89000000D02*
X52489099Y-89954101D01*
X52489099Y-89954101D02*
X51663600Y-90779600D01*
X86238000Y-92000000D02*
X87000000Y-91238000D01*
X87000000Y-91238000D02*
X87000000Y-87332998D01*
X82906500Y-84000000D02*
X82262000Y-84000000D01*
X87000000Y-87332998D02*
X83667002Y-84000000D01*
X83667002Y-84000000D02*
X82906500Y-84000000D01*
X53165000Y-87025000D02*
X52825499Y-87364501D01*
X81906500Y-85000000D02*
X75165700Y-85000000D01*
X73140700Y-87025000D02*
X53165000Y-87025000D01*
X82262000Y-84000000D02*
X82262000Y-84644500D01*
X52825499Y-87364501D02*
X52000000Y-88190000D01*
X75165700Y-85000000D02*
X73140700Y-87025000D01*
X82262000Y-84644500D02*
X81906500Y-85000000D01*
X87762000Y-88000000D02*
X87762000Y-87355500D01*
X83506500Y-83100000D02*
X76500000Y-83100000D01*
X87762000Y-87355500D02*
X83506500Y-83100000D01*
X52825499Y-84824501D02*
X52000000Y-85650000D01*
X76500000Y-83100000D02*
X74575000Y-85025000D01*
X74575000Y-85025000D02*
X60634998Y-85025000D01*
X60634998Y-85025000D02*
X60200000Y-84590002D01*
X60200000Y-83853704D02*
X59646296Y-83300000D01*
X60200000Y-84590002D02*
X60200000Y-83853704D01*
X59646296Y-83300000D02*
X54350000Y-83300000D01*
X54350000Y-83300000D02*
X52825499Y-84824501D01*
D29*
X64711200Y-121135200D02*
X64911201Y-120935199D01*
X64911201Y-120935199D02*
X65752199Y-120935199D01*
X65752199Y-120935199D02*
X66877200Y-120935199D01*
D28*
X59224000Y-84250000D02*
X59224000Y-85988000D01*
X59224000Y-85988000D02*
X59212000Y-86000000D01*
X59512000Y-86000000D02*
X62000000Y-86000000D01*
X59512000Y-88000000D02*
X62000000Y-88000000D01*
D30*
X73093200Y-121643200D02*
X71294200Y-121643200D01*
X71294200Y-121643200D02*
X71277200Y-121660200D01*
D29*
X76416000Y-140075000D02*
X77811000Y-140075000D01*
X77811000Y-140075000D02*
X78000000Y-140264000D01*
D31*
X74574500Y-140075000D02*
X74638000Y-140075000D01*
D29*
X74638000Y-140075000D02*
X76416000Y-140075000D01*
D28*
X80738000Y-94000000D02*
X80738000Y-94644500D01*
X80738000Y-94644500D02*
X81093500Y-95000000D01*
X84100000Y-95000000D02*
X86100000Y-97000000D01*
X81093500Y-95000000D02*
X84100000Y-95000000D01*
X86100000Y-97000000D02*
X86238000Y-97000000D01*
X78000000Y-94000000D02*
X77250000Y-94000000D01*
X78000000Y-94000000D02*
X80738000Y-94000000D01*
X78000000Y-96000000D02*
X80726000Y-96000000D01*
X75000000Y-138564002D02*
X75000000Y-132304298D01*
X78700000Y-139295501D02*
X75731499Y-139295501D01*
X79054499Y-139295501D02*
X78700000Y-139295501D01*
X84000000Y-134750000D02*
X79900000Y-138850000D01*
X78700000Y-139295501D02*
X79454499Y-139295501D01*
X79454499Y-139295501D02*
X79900000Y-138850000D01*
X81467499Y-133467499D02*
X81517499Y-133517499D01*
X73945702Y-131250000D02*
X63750000Y-131250000D01*
X81517499Y-133517499D02*
X83684501Y-133517499D01*
X83684501Y-133517499D02*
X84000000Y-133832998D01*
X84000000Y-133832998D02*
X84000000Y-134750000D01*
X75731499Y-139295501D02*
X75000000Y-138564002D01*
X75000000Y-132304298D02*
X73945702Y-131250000D01*
X64750000Y-129012000D02*
X64750000Y-130906500D01*
X64750000Y-130906500D02*
X64406500Y-131250000D01*
X64406500Y-131250000D02*
X63750000Y-131250000D01*
X62750000Y-132262000D02*
X62750000Y-132750000D01*
X62750000Y-132750000D02*
X61750000Y-133750000D01*
X61750000Y-133750000D02*
X59883798Y-133750000D01*
X59883798Y-133750000D02*
X58871798Y-132738000D01*
X58871798Y-132738000D02*
X58750000Y-132738000D01*
X63750000Y-131250000D02*
X62750000Y-132250000D01*
X62750000Y-132250000D02*
X62750000Y-132262000D01*
D32*
X81250000Y-132738000D02*
X81250000Y-133250000D01*
X81250000Y-133250000D02*
X81467499Y-133467499D01*
D28*
X81250000Y-130633798D02*
X81250000Y-130762000D01*
X58750000Y-132750000D02*
X58750000Y-132738000D01*
D32*
X81250000Y-131750000D02*
X81250000Y-132738000D01*
X81250000Y-130762000D02*
X81250000Y-131750000D01*
D33*
X58750000Y-131750000D02*
X58750000Y-132738000D01*
X58750000Y-131005200D02*
X58750000Y-131750000D01*
D28*
X87889000Y-95000000D02*
X87889000Y-96873000D01*
X87889000Y-96873000D02*
X87762000Y-97000000D01*
X84151000Y-88000000D02*
X85049500Y-88000000D01*
X85049500Y-88000000D02*
X86488000Y-88000000D01*
D33*
X78000000Y-134524000D02*
X79250000Y-135774000D01*
X78000000Y-129500000D02*
X78000000Y-134524000D01*
X79250000Y-135774000D02*
X79488000Y-135774000D01*
X79488000Y-135774000D02*
X81000000Y-134262000D01*
X75750000Y-127250000D02*
X78000000Y-129500000D01*
X73683000Y-107841000D02*
X77750000Y-111908000D01*
X75767801Y-120001701D02*
X75750000Y-120001701D01*
X77750000Y-111908000D02*
X77750000Y-118019502D01*
X77750000Y-118019502D02*
X75767801Y-120001701D01*
X75750000Y-120001701D02*
X75750000Y-127250000D01*
D28*
X83000000Y-134262000D02*
X81250000Y-134262000D01*
D33*
X73683000Y-107841000D02*
X72335962Y-107841000D01*
X72335962Y-107841000D02*
X66317000Y-107841000D01*
D32*
X79250000Y-127726000D02*
X79738000Y-127726000D01*
X79738000Y-127726000D02*
X81250000Y-129238000D01*
X79250000Y-127726000D02*
X78111800Y-127726000D01*
X78111800Y-127726000D02*
X77477010Y-127091210D01*
X77477010Y-127091210D02*
X77477010Y-121522990D01*
X83000000Y-129238000D02*
X81250000Y-129238000D01*
X77477010Y-121522990D02*
X78659000Y-120341000D01*
X81250000Y-129238000D02*
X81012000Y-129238000D01*
D33*
X78659000Y-120341000D02*
X78817000Y-120341000D01*
X78817000Y-120341000D02*
X86183000Y-120341000D01*
D32*
X59488000Y-134262000D02*
X60750000Y-135524000D01*
D33*
X60750000Y-135524000D02*
X64840500Y-135524000D01*
X64840500Y-135524000D02*
X66317000Y-134047500D01*
X60750000Y-135500000D02*
X60750000Y-135524000D01*
D32*
X58750000Y-134262000D02*
X59488000Y-134262000D01*
D33*
X73683000Y-132841000D02*
X72335962Y-132841000D01*
X72335962Y-132841000D02*
X66317000Y-132841000D01*
X66317000Y-134047500D02*
X66317000Y-132841000D01*
X58750000Y-134262000D02*
X59012000Y-134262000D01*
X57000000Y-134262000D02*
X58750000Y-134262000D01*
X60750000Y-127726000D02*
X60826200Y-127726000D01*
X60826200Y-127726000D02*
X62572989Y-125979211D01*
X60673800Y-127726000D02*
X60750000Y-127726000D01*
X62572989Y-121730989D02*
X62135499Y-121293499D01*
X62572989Y-125979211D02*
X62572989Y-121730989D01*
X62135499Y-121293499D02*
X61183000Y-120341000D01*
X58750000Y-129238000D02*
X59161800Y-129238000D01*
X59161800Y-129238000D02*
X60673800Y-127726000D01*
D28*
X61183000Y-120341000D02*
X53817000Y-120341000D01*
D33*
X57000000Y-129238000D02*
X58750000Y-129238000D01*
D28*
X80738000Y-84000000D02*
X78000000Y-84000000D01*
X80822800Y-86000000D02*
X78000000Y-86000000D01*
D30*
X71696200Y-125326200D02*
X71696200Y-123379200D01*
X71696200Y-123379200D02*
X71277200Y-122960200D01*
X69918200Y-122168200D02*
X70060200Y-122310200D01*
X70060200Y-122310200D02*
X71277200Y-122310200D01*
X69918200Y-119230200D02*
X69918200Y-122168200D01*
X68394200Y-119230200D02*
X69918200Y-119230200D01*
D29*
X72606000Y-142600000D02*
X72606000Y-141364000D01*
X72606000Y-143523000D02*
X72606000Y-142600000D01*
D30*
X72606000Y-142600000D02*
X72606000Y-140964000D01*
D29*
X75006300Y-146837700D02*
X75006300Y-145923300D01*
X75006300Y-145923300D02*
X72606000Y-143523000D01*
D31*
X76502360Y-146896120D02*
X76502360Y-146530360D01*
D28*
G36*
X60150000Y-82584314D02*
X60082843Y-82517157D01*
X59953074Y-82430448D01*
X59800000Y-82400000D01*
X58765685Y-82400000D01*
X58150000Y-81784314D01*
X58150000Y-81012377D01*
X58194500Y-81012377D01*
X58305673Y-80991458D01*
X58407779Y-80925755D01*
X58476278Y-80825503D01*
X58500377Y-80706500D01*
X58500377Y-79817500D01*
X58479458Y-79706327D01*
X58413755Y-79604221D01*
X58313503Y-79535722D01*
X58194500Y-79511623D01*
X57305500Y-79511623D01*
X57194327Y-79532542D01*
X57092221Y-79598245D01*
X57023722Y-79698497D01*
X56999623Y-79817500D01*
X56999623Y-79862000D01*
X56754377Y-79862000D01*
X56754377Y-79702500D01*
X56733458Y-79591327D01*
X56667755Y-79489221D01*
X56567503Y-79420722D01*
X56448500Y-79396623D01*
X56128940Y-79396623D01*
X56119552Y-79349427D01*
X56032843Y-79219657D01*
X55268343Y-78455157D01*
X55138574Y-78368448D01*
X54985500Y-78338000D01*
X53750377Y-78338000D01*
X53750377Y-78293500D01*
X53729458Y-78182327D01*
X53663755Y-78080221D01*
X53563503Y-78011722D01*
X53444500Y-77987623D01*
X52555500Y-77987623D01*
X52444327Y-78008542D01*
X52342221Y-78074245D01*
X52273722Y-78174497D01*
X52249623Y-78293500D01*
X52249623Y-79182500D01*
X52270542Y-79293673D01*
X52336245Y-79395779D01*
X52436497Y-79464278D01*
X52555500Y-79488377D01*
X53444500Y-79488377D01*
X53555673Y-79467458D01*
X53657779Y-79401755D01*
X53726278Y-79301503D01*
X53750377Y-79182500D01*
X53750377Y-79138000D01*
X54819814Y-79138000D01*
X55078437Y-79396623D01*
X55051500Y-79396623D01*
X54940327Y-79417542D01*
X54838221Y-79483245D01*
X54769722Y-79583497D01*
X54745623Y-79702500D01*
X54745623Y-81099500D01*
X54766542Y-81210673D01*
X54832245Y-81312779D01*
X54932497Y-81381278D01*
X55051500Y-81405377D01*
X56448500Y-81405377D01*
X56559673Y-81384458D01*
X56661779Y-81318755D01*
X56730278Y-81218503D01*
X56754377Y-81099500D01*
X56754377Y-80662000D01*
X56999623Y-80662000D01*
X56999623Y-80706500D01*
X57020542Y-80817673D01*
X57086245Y-80919779D01*
X57186497Y-80988278D01*
X57305500Y-81012377D01*
X57350000Y-81012377D01*
X57350000Y-81950000D01*
X57380448Y-82103074D01*
X57467157Y-82232843D01*
X58134315Y-82900000D01*
X54350000Y-82900000D01*
X54196926Y-82930448D01*
X54067157Y-83017157D01*
X52461398Y-84622916D01*
X52224858Y-84524696D01*
X51777106Y-84524305D01*
X51363288Y-84695291D01*
X51046404Y-85011623D01*
X50874696Y-85425142D01*
X50874305Y-85872894D01*
X51045291Y-86286712D01*
X51358302Y-86600270D01*
X50591656Y-87366916D01*
X50504947Y-87496685D01*
X50504947Y-87496686D01*
X50474499Y-87649759D01*
X50474499Y-91270241D01*
X50504947Y-91423315D01*
X50591656Y-91553084D01*
X51321415Y-92282843D01*
X51367421Y-92313583D01*
X51363288Y-92315291D01*
X51046404Y-92631623D01*
X50874696Y-93045142D01*
X50874305Y-93492894D01*
X51045291Y-93906712D01*
X51361623Y-94223596D01*
X51775142Y-94395304D01*
X52222894Y-94395695D01*
X52636712Y-94224709D01*
X52953596Y-93908377D01*
X53125304Y-93494858D01*
X53125478Y-93295422D01*
X56100000Y-96269943D01*
X56100000Y-105000000D01*
X56130448Y-105153074D01*
X56217157Y-105282843D01*
X60895991Y-109961676D01*
X60895991Y-115038324D01*
X58834314Y-117100000D01*
X52896123Y-117100000D01*
X52896118Y-117099999D01*
X52743044Y-117130448D01*
X52613275Y-117217157D01*
X51017157Y-118813275D01*
X50930448Y-118943044D01*
X50919119Y-119000000D01*
X50900000Y-119096118D01*
X50900000Y-134000000D01*
X50930448Y-134153074D01*
X51017157Y-134282843D01*
X52317155Y-135582840D01*
X52317157Y-135582843D01*
X52358690Y-135610594D01*
X52446926Y-135669552D01*
X52600000Y-135700001D01*
X52600005Y-135700000D01*
X56834314Y-135700000D01*
X64601240Y-143466926D01*
X64601240Y-146643583D01*
X64175740Y-146643583D01*
X64064567Y-146664502D01*
X63962461Y-146730205D01*
X63893962Y-146830457D01*
X63869863Y-146949460D01*
X63869863Y-148600460D01*
X63890782Y-148711633D01*
X63956485Y-148813739D01*
X64056737Y-148882238D01*
X64175740Y-148906337D01*
X65826740Y-148906337D01*
X65937913Y-148885418D01*
X66040019Y-148819715D01*
X66108518Y-148719463D01*
X66132617Y-148600460D01*
X66132617Y-148374960D01*
X68608432Y-148374960D01*
X69883472Y-149650000D01*
X50350000Y-149650000D01*
X50350000Y-148664085D01*
X61789904Y-148664085D01*
X61884773Y-148830399D01*
X62332553Y-148970663D01*
X62799924Y-148928892D01*
X63037707Y-148830399D01*
X63132576Y-148664085D01*
X62461240Y-147992749D01*
X61789904Y-148664085D01*
X50350000Y-148664085D01*
X50350000Y-147646273D01*
X61265537Y-147646273D01*
X61307308Y-148113644D01*
X61405801Y-148351427D01*
X61572115Y-148446296D01*
X62243451Y-147774960D01*
X62679029Y-147774960D01*
X63350365Y-148446296D01*
X63516679Y-148351427D01*
X63656943Y-147903647D01*
X63615172Y-147436276D01*
X63516679Y-147198493D01*
X63350365Y-147103624D01*
X62679029Y-147774960D01*
X62243451Y-147774960D01*
X61572115Y-147103624D01*
X61405801Y-147198493D01*
X61265537Y-147646273D01*
X50350000Y-147646273D01*
X50350000Y-146885835D01*
X61789904Y-146885835D01*
X62461240Y-147557171D01*
X63132576Y-146885835D01*
X63037707Y-146719521D01*
X62589927Y-146579257D01*
X62122556Y-146621028D01*
X61884773Y-146719521D01*
X61789904Y-146885835D01*
X50350000Y-146885835D01*
X50350000Y-98592500D01*
X50820500Y-98592500D01*
X50820500Y-99245915D01*
X50874393Y-99376025D01*
X50973975Y-99475607D01*
X51104085Y-99529500D01*
X51757500Y-99529500D01*
X51846000Y-99441000D01*
X51846000Y-98504000D01*
X52154000Y-98504000D01*
X52154000Y-99441000D01*
X52242500Y-99529500D01*
X52895915Y-99529500D01*
X53026025Y-99475607D01*
X53125607Y-99376025D01*
X53179500Y-99245915D01*
X53179500Y-98592500D01*
X53091000Y-98504000D01*
X52154000Y-98504000D01*
X51846000Y-98504000D01*
X50909000Y-98504000D01*
X50820500Y-98592500D01*
X50350000Y-98592500D01*
X50350000Y-97454085D01*
X50820500Y-97454085D01*
X50820500Y-98107500D01*
X50909000Y-98196000D01*
X51846000Y-98196000D01*
X51846000Y-97259000D01*
X52154000Y-97259000D01*
X52154000Y-98196000D01*
X53091000Y-98196000D01*
X53179500Y-98107500D01*
X53179500Y-97454085D01*
X53125607Y-97323975D01*
X53026025Y-97224393D01*
X52895915Y-97170500D01*
X52242500Y-97170500D01*
X52154000Y-97259000D01*
X51846000Y-97259000D01*
X51757500Y-97170500D01*
X51104085Y-97170500D01*
X50973975Y-97224393D01*
X50874393Y-97323975D01*
X50820500Y-97454085D01*
X50350000Y-97454085D01*
X50350000Y-96032894D01*
X50874305Y-96032894D01*
X51045291Y-96446712D01*
X51361623Y-96763596D01*
X51775142Y-96935304D01*
X52222894Y-96935695D01*
X52636712Y-96764709D01*
X52953596Y-96448377D01*
X53125304Y-96034858D01*
X53125695Y-95587106D01*
X52954709Y-95173288D01*
X52638377Y-94856404D01*
X52224858Y-94684696D01*
X51777106Y-94684305D01*
X51363288Y-94855291D01*
X51046404Y-95171623D01*
X50874696Y-95585142D01*
X50874305Y-96032894D01*
X50350000Y-96032894D01*
X50350000Y-79817500D01*
X52249623Y-79817500D01*
X52249623Y-80706500D01*
X52270542Y-80817673D01*
X52336245Y-80919779D01*
X52436497Y-80988278D01*
X52555500Y-81012377D01*
X52600000Y-81012377D01*
X52600000Y-81051513D01*
X52491641Y-81159683D01*
X52400104Y-81380129D01*
X52399896Y-81618824D01*
X52491048Y-81839429D01*
X52659683Y-82008359D01*
X52880129Y-82099896D01*
X53118824Y-82100104D01*
X53339429Y-82008952D01*
X53508359Y-81840317D01*
X53599896Y-81619871D01*
X53600104Y-81381176D01*
X53508952Y-81160571D01*
X53400000Y-81051428D01*
X53400000Y-81012377D01*
X53444500Y-81012377D01*
X53555673Y-80991458D01*
X53657779Y-80925755D01*
X53726278Y-80825503D01*
X53750377Y-80706500D01*
X53750377Y-79817500D01*
X53729458Y-79706327D01*
X53663755Y-79604221D01*
X53563503Y-79535722D01*
X53444500Y-79511623D01*
X52555500Y-79511623D01*
X52444327Y-79532542D01*
X52342221Y-79598245D01*
X52273722Y-79698497D01*
X52249623Y-79817500D01*
X50350000Y-79817500D01*
X50350000Y-77118824D01*
X53149896Y-77118824D01*
X53241048Y-77339429D01*
X53409683Y-77508359D01*
X53630129Y-77599896D01*
X53868824Y-77600104D01*
X54089429Y-77508952D01*
X54099398Y-77499000D01*
X54745623Y-77499000D01*
X54745623Y-77797500D01*
X54766542Y-77908673D01*
X54832245Y-78010779D01*
X54932497Y-78079278D01*
X55051500Y-78103377D01*
X56448500Y-78103377D01*
X56559673Y-78082458D01*
X56661779Y-78016755D01*
X56730278Y-77916503D01*
X56754377Y-77797500D01*
X56754377Y-77663563D01*
X57136541Y-78045726D01*
X57092221Y-78074245D01*
X57023722Y-78174497D01*
X56999623Y-78293500D01*
X56999623Y-79182500D01*
X57020542Y-79293673D01*
X57086245Y-79395779D01*
X57186497Y-79464278D01*
X57305500Y-79488377D01*
X58194500Y-79488377D01*
X58305673Y-79467458D01*
X58407779Y-79401755D01*
X58476278Y-79301503D01*
X58500377Y-79182500D01*
X58500377Y-78293500D01*
X58479458Y-78182327D01*
X58413755Y-78080221D01*
X58313503Y-78011722D01*
X58194500Y-77987623D01*
X58128940Y-77987623D01*
X58119552Y-77940427D01*
X58032843Y-77810657D01*
X58032840Y-77810655D01*
X57038343Y-76816157D01*
X56908574Y-76729448D01*
X56755500Y-76699000D01*
X56754377Y-76699000D01*
X56754377Y-76400500D01*
X56733458Y-76289327D01*
X56667755Y-76187221D01*
X56567503Y-76118722D01*
X56448500Y-76094623D01*
X55051500Y-76094623D01*
X54940327Y-76115542D01*
X54838221Y-76181245D01*
X54769722Y-76281497D01*
X54745623Y-76400500D01*
X54745623Y-76699000D01*
X54274831Y-76699000D01*
X54258952Y-76660571D01*
X54090317Y-76491641D01*
X53869871Y-76400104D01*
X53631176Y-76399896D01*
X53410571Y-76491048D01*
X53241641Y-76659683D01*
X53150104Y-76880129D01*
X53149896Y-77118824D01*
X50350000Y-77118824D01*
X50350000Y-75350000D01*
X60150000Y-75350000D01*
X60150000Y-82584314D01*
X60150000Y-82584314D01*
G37*
X60150000Y-82584314D02*
X60082843Y-82517157D01*
X59953074Y-82430448D01*
X59800000Y-82400000D01*
X58765685Y-82400000D01*
X58150000Y-81784314D01*
X58150000Y-81012377D01*
X58194500Y-81012377D01*
X58305673Y-80991458D01*
X58407779Y-80925755D01*
X58476278Y-80825503D01*
X58500377Y-80706500D01*
X58500377Y-79817500D01*
X58479458Y-79706327D01*
X58413755Y-79604221D01*
X58313503Y-79535722D01*
X58194500Y-79511623D01*
X57305500Y-79511623D01*
X57194327Y-79532542D01*
X57092221Y-79598245D01*
X57023722Y-79698497D01*
X56999623Y-79817500D01*
X56999623Y-79862000D01*
X56754377Y-79862000D01*
X56754377Y-79702500D01*
X56733458Y-79591327D01*
X56667755Y-79489221D01*
X56567503Y-79420722D01*
X56448500Y-79396623D01*
X56128940Y-79396623D01*
X56119552Y-79349427D01*
X56032843Y-79219657D01*
X55268343Y-78455157D01*
X55138574Y-78368448D01*
X54985500Y-78338000D01*
X53750377Y-78338000D01*
X53750377Y-78293500D01*
X53729458Y-78182327D01*
X53663755Y-78080221D01*
X53563503Y-78011722D01*
X53444500Y-77987623D01*
X52555500Y-77987623D01*
X52444327Y-78008542D01*
X52342221Y-78074245D01*
X52273722Y-78174497D01*
X52249623Y-78293500D01*
X52249623Y-79182500D01*
X52270542Y-79293673D01*
X52336245Y-79395779D01*
X52436497Y-79464278D01*
X52555500Y-79488377D01*
X53444500Y-79488377D01*
X53555673Y-79467458D01*
X53657779Y-79401755D01*
X53726278Y-79301503D01*
X53750377Y-79182500D01*
X53750377Y-79138000D01*
X54819814Y-79138000D01*
X55078437Y-79396623D01*
X55051500Y-79396623D01*
X54940327Y-79417542D01*
X54838221Y-79483245D01*
X54769722Y-79583497D01*
X54745623Y-79702500D01*
X54745623Y-81099500D01*
X54766542Y-81210673D01*
X54832245Y-81312779D01*
X54932497Y-81381278D01*
X55051500Y-81405377D01*
X56448500Y-81405377D01*
X56559673Y-81384458D01*
X56661779Y-81318755D01*
X56730278Y-81218503D01*
X56754377Y-81099500D01*
X56754377Y-80662000D01*
X56999623Y-80662000D01*
X56999623Y-80706500D01*
X57020542Y-80817673D01*
X57086245Y-80919779D01*
X57186497Y-80988278D01*
X57305500Y-81012377D01*
X57350000Y-81012377D01*
X57350000Y-81950000D01*
X57380448Y-82103074D01*
X57467157Y-82232843D01*
X58134315Y-82900000D01*
X54350000Y-82900000D01*
X54196926Y-82930448D01*
X54067157Y-83017157D01*
X52461398Y-84622916D01*
X52224858Y-84524696D01*
X51777106Y-84524305D01*
X51363288Y-84695291D01*
X51046404Y-85011623D01*
X50874696Y-85425142D01*
X50874305Y-85872894D01*
X51045291Y-86286712D01*
X51358302Y-86600270D01*
X50591656Y-87366916D01*
X50504947Y-87496685D01*
X50504947Y-87496686D01*
X50474499Y-87649759D01*
X50474499Y-91270241D01*
X50504947Y-91423315D01*
X50591656Y-91553084D01*
X51321415Y-92282843D01*
X51367421Y-92313583D01*
X51363288Y-92315291D01*
X51046404Y-92631623D01*
X50874696Y-93045142D01*
X50874305Y-93492894D01*
X51045291Y-93906712D01*
X51361623Y-94223596D01*
X51775142Y-94395304D01*
X52222894Y-94395695D01*
X52636712Y-94224709D01*
X52953596Y-93908377D01*
X53125304Y-93494858D01*
X53125478Y-93295422D01*
X56100000Y-96269943D01*
X56100000Y-105000000D01*
X56130448Y-105153074D01*
X56217157Y-105282843D01*
X60895991Y-109961676D01*
X60895991Y-115038324D01*
X58834314Y-117100000D01*
X52896123Y-117100000D01*
X52896118Y-117099999D01*
X52743044Y-117130448D01*
X52613275Y-117217157D01*
X51017157Y-118813275D01*
X50930448Y-118943044D01*
X50919119Y-119000000D01*
X50900000Y-119096118D01*
X50900000Y-134000000D01*
X50930448Y-134153074D01*
X51017157Y-134282843D01*
X52317155Y-135582840D01*
X52317157Y-135582843D01*
X52358690Y-135610594D01*
X52446926Y-135669552D01*
X52600000Y-135700001D01*
X52600005Y-135700000D01*
X56834314Y-135700000D01*
X64601240Y-143466926D01*
X64601240Y-146643583D01*
X64175740Y-146643583D01*
X64064567Y-146664502D01*
X63962461Y-146730205D01*
X63893962Y-146830457D01*
X63869863Y-146949460D01*
X63869863Y-148600460D01*
X63890782Y-148711633D01*
X63956485Y-148813739D01*
X64056737Y-148882238D01*
X64175740Y-148906337D01*
X65826740Y-148906337D01*
X65937913Y-148885418D01*
X66040019Y-148819715D01*
X66108518Y-148719463D01*
X66132617Y-148600460D01*
X66132617Y-148374960D01*
X68608432Y-148374960D01*
X69883472Y-149650000D01*
X50350000Y-149650000D01*
X50350000Y-148664085D01*
X61789904Y-148664085D01*
X61884773Y-148830399D01*
X62332553Y-148970663D01*
X62799924Y-148928892D01*
X63037707Y-148830399D01*
X63132576Y-148664085D01*
X62461240Y-147992749D01*
X61789904Y-148664085D01*
X50350000Y-148664085D01*
X50350000Y-147646273D01*
X61265537Y-147646273D01*
X61307308Y-148113644D01*
X61405801Y-148351427D01*
X61572115Y-148446296D01*
X62243451Y-147774960D01*
X62679029Y-147774960D01*
X63350365Y-148446296D01*
X63516679Y-148351427D01*
X63656943Y-147903647D01*
X63615172Y-147436276D01*
X63516679Y-147198493D01*
X63350365Y-147103624D01*
X62679029Y-147774960D01*
X62243451Y-147774960D01*
X61572115Y-147103624D01*
X61405801Y-147198493D01*
X61265537Y-147646273D01*
X50350000Y-147646273D01*
X50350000Y-146885835D01*
X61789904Y-146885835D01*
X62461240Y-147557171D01*
X63132576Y-146885835D01*
X63037707Y-146719521D01*
X62589927Y-146579257D01*
X62122556Y-146621028D01*
X61884773Y-146719521D01*
X61789904Y-146885835D01*
X50350000Y-146885835D01*
X50350000Y-98592500D01*
X50820500Y-98592500D01*
X50820500Y-99245915D01*
X50874393Y-99376025D01*
X50973975Y-99475607D01*
X51104085Y-99529500D01*
X51757500Y-99529500D01*
X51846000Y-99441000D01*
X51846000Y-98504000D01*
X52154000Y-98504000D01*
X52154000Y-99441000D01*
X52242500Y-99529500D01*
X52895915Y-99529500D01*
X53026025Y-99475607D01*
X53125607Y-99376025D01*
X53179500Y-99245915D01*
X53179500Y-98592500D01*
X53091000Y-98504000D01*
X52154000Y-98504000D01*
X51846000Y-98504000D01*
X50909000Y-98504000D01*
X50820500Y-98592500D01*
X50350000Y-98592500D01*
X50350000Y-97454085D01*
X50820500Y-97454085D01*
X50820500Y-98107500D01*
X50909000Y-98196000D01*
X51846000Y-98196000D01*
X51846000Y-97259000D01*
X52154000Y-97259000D01*
X52154000Y-98196000D01*
X53091000Y-98196000D01*
X53179500Y-98107500D01*
X53179500Y-97454085D01*
X53125607Y-97323975D01*
X53026025Y-97224393D01*
X52895915Y-97170500D01*
X52242500Y-97170500D01*
X52154000Y-97259000D01*
X51846000Y-97259000D01*
X51757500Y-97170500D01*
X51104085Y-97170500D01*
X50973975Y-97224393D01*
X50874393Y-97323975D01*
X50820500Y-97454085D01*
X50350000Y-97454085D01*
X50350000Y-96032894D01*
X50874305Y-96032894D01*
X51045291Y-96446712D01*
X51361623Y-96763596D01*
X51775142Y-96935304D01*
X52222894Y-96935695D01*
X52636712Y-96764709D01*
X52953596Y-96448377D01*
X53125304Y-96034858D01*
X53125695Y-95587106D01*
X52954709Y-95173288D01*
X52638377Y-94856404D01*
X52224858Y-94684696D01*
X51777106Y-94684305D01*
X51363288Y-94855291D01*
X51046404Y-95171623D01*
X50874696Y-95585142D01*
X50874305Y-96032894D01*
X50350000Y-96032894D01*
X50350000Y-79817500D01*
X52249623Y-79817500D01*
X52249623Y-80706500D01*
X52270542Y-80817673D01*
X52336245Y-80919779D01*
X52436497Y-80988278D01*
X52555500Y-81012377D01*
X52600000Y-81012377D01*
X52600000Y-81051513D01*
X52491641Y-81159683D01*
X52400104Y-81380129D01*
X52399896Y-81618824D01*
X52491048Y-81839429D01*
X52659683Y-82008359D01*
X52880129Y-82099896D01*
X53118824Y-82100104D01*
X53339429Y-82008952D01*
X53508359Y-81840317D01*
X53599896Y-81619871D01*
X53600104Y-81381176D01*
X53508952Y-81160571D01*
X53400000Y-81051428D01*
X53400000Y-81012377D01*
X53444500Y-81012377D01*
X53555673Y-80991458D01*
X53657779Y-80925755D01*
X53726278Y-80825503D01*
X53750377Y-80706500D01*
X53750377Y-79817500D01*
X53729458Y-79706327D01*
X53663755Y-79604221D01*
X53563503Y-79535722D01*
X53444500Y-79511623D01*
X52555500Y-79511623D01*
X52444327Y-79532542D01*
X52342221Y-79598245D01*
X52273722Y-79698497D01*
X52249623Y-79817500D01*
X50350000Y-79817500D01*
X50350000Y-77118824D01*
X53149896Y-77118824D01*
X53241048Y-77339429D01*
X53409683Y-77508359D01*
X53630129Y-77599896D01*
X53868824Y-77600104D01*
X54089429Y-77508952D01*
X54099398Y-77499000D01*
X54745623Y-77499000D01*
X54745623Y-77797500D01*
X54766542Y-77908673D01*
X54832245Y-78010779D01*
X54932497Y-78079278D01*
X55051500Y-78103377D01*
X56448500Y-78103377D01*
X56559673Y-78082458D01*
X56661779Y-78016755D01*
X56730278Y-77916503D01*
X56754377Y-77797500D01*
X56754377Y-77663563D01*
X57136541Y-78045726D01*
X57092221Y-78074245D01*
X57023722Y-78174497D01*
X56999623Y-78293500D01*
X56999623Y-79182500D01*
X57020542Y-79293673D01*
X57086245Y-79395779D01*
X57186497Y-79464278D01*
X57305500Y-79488377D01*
X58194500Y-79488377D01*
X58305673Y-79467458D01*
X58407779Y-79401755D01*
X58476278Y-79301503D01*
X58500377Y-79182500D01*
X58500377Y-78293500D01*
X58479458Y-78182327D01*
X58413755Y-78080221D01*
X58313503Y-78011722D01*
X58194500Y-77987623D01*
X58128940Y-77987623D01*
X58119552Y-77940427D01*
X58032843Y-77810657D01*
X58032840Y-77810655D01*
X57038343Y-76816157D01*
X56908574Y-76729448D01*
X56755500Y-76699000D01*
X56754377Y-76699000D01*
X56754377Y-76400500D01*
X56733458Y-76289327D01*
X56667755Y-76187221D01*
X56567503Y-76118722D01*
X56448500Y-76094623D01*
X55051500Y-76094623D01*
X54940327Y-76115542D01*
X54838221Y-76181245D01*
X54769722Y-76281497D01*
X54745623Y-76400500D01*
X54745623Y-76699000D01*
X54274831Y-76699000D01*
X54258952Y-76660571D01*
X54090317Y-76491641D01*
X53869871Y-76400104D01*
X53631176Y-76399896D01*
X53410571Y-76491048D01*
X53241641Y-76659683D01*
X53150104Y-76880129D01*
X53149896Y-77118824D01*
X50350000Y-77118824D01*
X50350000Y-75350000D01*
X60150000Y-75350000D01*
X60150000Y-82584314D01*
G36*
X89650000Y-149650000D02*
X72915528Y-149650000D01*
X73398564Y-149166964D01*
X73528628Y-148972310D01*
X73574300Y-148742700D01*
X73574300Y-147807578D01*
X73611012Y-147792409D01*
X73874923Y-147528958D01*
X73874923Y-147663200D01*
X73895842Y-147774373D01*
X73961545Y-147876479D01*
X74061797Y-147944978D01*
X74180800Y-147969077D01*
X75831800Y-147969077D01*
X75942973Y-147948158D01*
X76045079Y-147882455D01*
X76113578Y-147782203D01*
X76137677Y-147663200D01*
X76137677Y-147528592D01*
X76399923Y-147791296D01*
X76813442Y-147963004D01*
X77261194Y-147963395D01*
X77675012Y-147792409D01*
X77991896Y-147476077D01*
X78119400Y-147169013D01*
X78119400Y-147690200D01*
X78258450Y-148081252D01*
X78536565Y-148389325D01*
X78856921Y-148540464D01*
X79017900Y-148487820D01*
X79017900Y-146991700D01*
X79325900Y-146991700D01*
X79325900Y-148487820D01*
X79486879Y-148540464D01*
X79807235Y-148389325D01*
X80085350Y-148081252D01*
X80224400Y-147690200D01*
X80224400Y-146991700D01*
X79325900Y-146991700D01*
X79017900Y-146991700D01*
X78997900Y-146991700D01*
X78997900Y-146683700D01*
X79017900Y-146683700D01*
X79017900Y-145187580D01*
X79325900Y-145187580D01*
X79325900Y-146683700D01*
X80224400Y-146683700D01*
X80224400Y-145985200D01*
X80085350Y-145594148D01*
X79807235Y-145286075D01*
X79486879Y-145134936D01*
X79325900Y-145187580D01*
X79017900Y-145187580D01*
X78856921Y-145134936D01*
X78536565Y-145286075D01*
X78258450Y-145594148D01*
X78119400Y-145985200D01*
X78119400Y-146506878D01*
X77993009Y-146200988D01*
X77676677Y-145884104D01*
X77263158Y-145712396D01*
X76815406Y-145712005D01*
X76401588Y-145882991D01*
X76137677Y-146146442D01*
X76137677Y-146012200D01*
X76116758Y-145901027D01*
X76051055Y-145798921D01*
X75950803Y-145730422D01*
X75831800Y-145706323D01*
X75563141Y-145706323D01*
X75560628Y-145693690D01*
X75430564Y-145499036D01*
X73206000Y-143274472D01*
X73206000Y-142095500D01*
X73712500Y-142095500D01*
X73712500Y-142431415D01*
X73766393Y-142561525D01*
X73865975Y-142661107D01*
X73996085Y-142715000D01*
X74395500Y-142715000D01*
X74484000Y-142626500D01*
X74484000Y-142007000D01*
X74792000Y-142007000D01*
X74792000Y-142626500D01*
X74880500Y-142715000D01*
X75279915Y-142715000D01*
X75410025Y-142661107D01*
X75509607Y-142561525D01*
X75563500Y-142431415D01*
X75563500Y-142095500D01*
X75475000Y-142007000D01*
X74792000Y-142007000D01*
X74484000Y-142007000D01*
X73801000Y-142007000D01*
X73712500Y-142095500D01*
X73206000Y-142095500D01*
X73206000Y-141902500D01*
X77296000Y-141902500D01*
X77296000Y-142034415D01*
X77349893Y-142164525D01*
X77449475Y-142264107D01*
X77579585Y-142318000D01*
X77757500Y-142318000D01*
X77846000Y-142229500D01*
X77846000Y-141814000D01*
X78154000Y-141814000D01*
X78154000Y-142229500D01*
X78242500Y-142318000D01*
X78420415Y-142318000D01*
X78550525Y-142264107D01*
X78650107Y-142164525D01*
X78704000Y-142034415D01*
X78704000Y-141902500D01*
X78615500Y-141814000D01*
X78154000Y-141814000D01*
X77846000Y-141814000D01*
X77384500Y-141814000D01*
X77296000Y-141902500D01*
X73206000Y-141902500D01*
X73206000Y-141772514D01*
X73288673Y-141756958D01*
X73390779Y-141691255D01*
X73459278Y-141591003D01*
X73483377Y-141472000D01*
X73483377Y-141274585D01*
X73712500Y-141274585D01*
X73712500Y-141610500D01*
X73801000Y-141699000D01*
X74484000Y-141699000D01*
X74484000Y-141079500D01*
X74792000Y-141079500D01*
X74792000Y-141699000D01*
X75475000Y-141699000D01*
X75563500Y-141610500D01*
X75563500Y-141293585D01*
X77296000Y-141293585D01*
X77296000Y-141425500D01*
X77384500Y-141514000D01*
X77846000Y-141514000D01*
X77846000Y-141098500D01*
X78154000Y-141098500D01*
X78154000Y-141514000D01*
X78615500Y-141514000D01*
X78704000Y-141425500D01*
X78704000Y-141293585D01*
X78650107Y-141163475D01*
X78550525Y-141063893D01*
X78420415Y-141010000D01*
X78242500Y-141010000D01*
X78154000Y-141098500D01*
X77846000Y-141098500D01*
X77757500Y-141010000D01*
X77579585Y-141010000D01*
X77449475Y-141063893D01*
X77349893Y-141163475D01*
X77296000Y-141293585D01*
X75563500Y-141293585D01*
X75563500Y-141274585D01*
X75509607Y-141144475D01*
X75410025Y-141044893D01*
X75279915Y-140991000D01*
X74880500Y-140991000D01*
X74792000Y-141079500D01*
X74484000Y-141079500D01*
X74395500Y-140991000D01*
X73996085Y-140991000D01*
X73865975Y-141044893D01*
X73766393Y-141144475D01*
X73712500Y-141274585D01*
X73483377Y-141274585D01*
X73483377Y-140456000D01*
X73462458Y-140344827D01*
X73396755Y-140242721D01*
X73296503Y-140174222D01*
X73177500Y-140150123D01*
X72034500Y-140150123D01*
X71923327Y-140171042D01*
X71821221Y-140236745D01*
X71752722Y-140336997D01*
X71728623Y-140456000D01*
X71728623Y-141472000D01*
X71749542Y-141583173D01*
X71815245Y-141685279D01*
X71915497Y-141753778D01*
X72006000Y-141772106D01*
X72006000Y-143523000D01*
X72051672Y-143752610D01*
X72181736Y-143947264D01*
X74003966Y-145769494D01*
X73967521Y-145792945D01*
X73899022Y-145893197D01*
X73874923Y-146012200D01*
X73874923Y-146146808D01*
X73612677Y-145884104D01*
X73199158Y-145712396D01*
X72751406Y-145712005D01*
X72337588Y-145882991D01*
X72020704Y-146199323D01*
X71893200Y-146506387D01*
X71893200Y-145985200D01*
X71754150Y-145594148D01*
X71476035Y-145286075D01*
X71155679Y-145134936D01*
X70994700Y-145187580D01*
X70994700Y-146683700D01*
X71014700Y-146683700D01*
X71014700Y-146991700D01*
X70994700Y-146991700D01*
X70994700Y-148487820D01*
X71155679Y-148540464D01*
X71476035Y-148389325D01*
X71754150Y-148081252D01*
X71893200Y-147690200D01*
X71893200Y-147168522D01*
X72019591Y-147474412D01*
X72335923Y-147791296D01*
X72374300Y-147807232D01*
X72374300Y-148494172D01*
X72230472Y-148638000D01*
X70568528Y-148638000D01*
X70422110Y-148491582D01*
X70525721Y-148540464D01*
X70686700Y-148487820D01*
X70686700Y-146991700D01*
X69788200Y-146991700D01*
X69788200Y-147690200D01*
X69880608Y-147950080D01*
X69281224Y-147350696D01*
X69086570Y-147220632D01*
X68856960Y-147174960D01*
X66132617Y-147174960D01*
X66132617Y-146949460D01*
X66111698Y-146838287D01*
X66045995Y-146736181D01*
X65945743Y-146667682D01*
X65826740Y-146643583D01*
X65401240Y-146643583D01*
X65401240Y-145985200D01*
X69788200Y-145985200D01*
X69788200Y-146683700D01*
X70686700Y-146683700D01*
X70686700Y-145187580D01*
X70525721Y-145134936D01*
X70205365Y-145286075D01*
X69927250Y-145594148D01*
X69788200Y-145985200D01*
X65401240Y-145985200D01*
X65401240Y-143301240D01*
X65381102Y-143200000D01*
X65370792Y-143148166D01*
X65284083Y-143018397D01*
X60406167Y-138140481D01*
X65553308Y-138140481D01*
X65663852Y-138319981D01*
X66157859Y-138481556D01*
X66676092Y-138441783D01*
X66970148Y-138319981D01*
X67080692Y-138140481D01*
X66317000Y-137376789D01*
X65553308Y-138140481D01*
X60406167Y-138140481D01*
X59265545Y-136999859D01*
X64994444Y-136999859D01*
X65034217Y-137518092D01*
X65156019Y-137812148D01*
X65335519Y-137922692D01*
X66099211Y-137159000D01*
X66534789Y-137159000D01*
X67298481Y-137922692D01*
X67477981Y-137812148D01*
X67639556Y-137318141D01*
X67615129Y-136999859D01*
X72360444Y-136999859D01*
X72400217Y-137518092D01*
X72522019Y-137812148D01*
X72701519Y-137922692D01*
X73465211Y-137159000D01*
X72701519Y-136395308D01*
X72522019Y-136505852D01*
X72360444Y-136999859D01*
X67615129Y-136999859D01*
X67599783Y-136799908D01*
X67477981Y-136505852D01*
X67298481Y-136395308D01*
X66534789Y-137159000D01*
X66099211Y-137159000D01*
X65335519Y-136395308D01*
X65156019Y-136505852D01*
X64994444Y-136999859D01*
X59265545Y-136999859D01*
X57282843Y-135017157D01*
X57275689Y-135012377D01*
X57444500Y-135012377D01*
X57555673Y-134991458D01*
X57657779Y-134925755D01*
X57726278Y-134825503D01*
X57750377Y-134706500D01*
X57750377Y-134689000D01*
X57999623Y-134689000D01*
X57999623Y-134706500D01*
X58020542Y-134817673D01*
X58086245Y-134919779D01*
X58186497Y-134988278D01*
X58305500Y-135012377D01*
X59194500Y-135012377D01*
X59305673Y-134991458D01*
X59407779Y-134925755D01*
X59451448Y-134861844D01*
X59745623Y-135156019D01*
X59745623Y-136349500D01*
X59766542Y-136460673D01*
X59832245Y-136562779D01*
X59932497Y-136631278D01*
X60051500Y-136655377D01*
X61448500Y-136655377D01*
X61559673Y-136634458D01*
X61661779Y-136568755D01*
X61730278Y-136468503D01*
X61754377Y-136349500D01*
X61754377Y-136177519D01*
X65553308Y-136177519D01*
X66317000Y-136941211D01*
X67080692Y-136177519D01*
X66970148Y-135998019D01*
X66476141Y-135836444D01*
X65957908Y-135876217D01*
X65663852Y-135998019D01*
X65553308Y-136177519D01*
X61754377Y-136177519D01*
X61754377Y-135951000D01*
X64840495Y-135951000D01*
X64840500Y-135951001D01*
X65003906Y-135918497D01*
X65142435Y-135825935D01*
X66618932Y-134349437D01*
X66618935Y-134349435D01*
X66711497Y-134210906D01*
X66733681Y-134099377D01*
X67269500Y-134099377D01*
X67380673Y-134078458D01*
X67482779Y-134012755D01*
X67551278Y-133912503D01*
X67575377Y-133793500D01*
X67575377Y-133268000D01*
X72504226Y-133268000D01*
X72620563Y-133549557D01*
X72972589Y-133902199D01*
X73432769Y-134093282D01*
X73931045Y-134093717D01*
X74391557Y-133903437D01*
X74600000Y-133695358D01*
X74600000Y-136194902D01*
X74514653Y-136109555D01*
X74446691Y-136177517D01*
X74336148Y-135998019D01*
X73842141Y-135836444D01*
X73323908Y-135876217D01*
X73029852Y-135998019D01*
X72919308Y-136177519D01*
X73683000Y-136941211D01*
X73697142Y-136927069D01*
X73914931Y-137144858D01*
X73900789Y-137159000D01*
X73914931Y-137173142D01*
X73697142Y-137390931D01*
X73683000Y-137376789D01*
X72919308Y-138140481D01*
X73029852Y-138319981D01*
X73523859Y-138481556D01*
X74042092Y-138441783D01*
X74336148Y-138319981D01*
X74446691Y-138140483D01*
X74514653Y-138208445D01*
X74600000Y-138123098D01*
X74600000Y-138564002D01*
X74630448Y-138717076D01*
X74717157Y-138846845D01*
X75131435Y-139261123D01*
X74066500Y-139261123D01*
X73955327Y-139282042D01*
X73853221Y-139347745D01*
X73784722Y-139447997D01*
X73760623Y-139567000D01*
X73760623Y-140583000D01*
X73781542Y-140694173D01*
X73847245Y-140796279D01*
X73947497Y-140864778D01*
X74066500Y-140888877D01*
X75209500Y-140888877D01*
X75320673Y-140867958D01*
X75422779Y-140802255D01*
X75491278Y-140702003D01*
X75496746Y-140675000D01*
X75715065Y-140675000D01*
X75752245Y-140732779D01*
X75852497Y-140801278D01*
X75971500Y-140825377D01*
X76860500Y-140825377D01*
X76971673Y-140804458D01*
X77073779Y-140738755D01*
X77117341Y-140675000D01*
X77365009Y-140675000D01*
X77365042Y-140675173D01*
X77430745Y-140777279D01*
X77530997Y-140845778D01*
X77650000Y-140869877D01*
X78350000Y-140869877D01*
X78461173Y-140848958D01*
X78563279Y-140783255D01*
X78631778Y-140683003D01*
X78655877Y-140564000D01*
X78655877Y-139964000D01*
X78634958Y-139852827D01*
X78569255Y-139750721D01*
X78488438Y-139695501D01*
X79454499Y-139695501D01*
X79607573Y-139665053D01*
X79737342Y-139578344D01*
X80182840Y-139132845D01*
X80182843Y-139132843D01*
X84255185Y-135060500D01*
X84507500Y-135060500D01*
X84596000Y-134972000D01*
X84596000Y-134416000D01*
X84904000Y-134416000D01*
X84904000Y-134972000D01*
X84992500Y-135060500D01*
X85264915Y-135060500D01*
X85395025Y-135006607D01*
X85494607Y-134907025D01*
X85548500Y-134776915D01*
X85548500Y-134504500D01*
X85482500Y-134438500D01*
X85796000Y-134438500D01*
X85796000Y-134570415D01*
X85849893Y-134700525D01*
X85949475Y-134800107D01*
X86079585Y-134854000D01*
X86257500Y-134854000D01*
X86346000Y-134765500D01*
X86346000Y-134350000D01*
X86654000Y-134350000D01*
X86654000Y-134765500D01*
X86742500Y-134854000D01*
X86920415Y-134854000D01*
X87050525Y-134800107D01*
X87150107Y-134700525D01*
X87204000Y-134570415D01*
X87204000Y-134438500D01*
X87115500Y-134350000D01*
X86654000Y-134350000D01*
X86346000Y-134350000D01*
X85884500Y-134350000D01*
X85796000Y-134438500D01*
X85482500Y-134438500D01*
X85460000Y-134416000D01*
X84904000Y-134416000D01*
X84596000Y-134416000D01*
X84576000Y-134416000D01*
X84576000Y-134108000D01*
X84596000Y-134108000D01*
X84596000Y-134088000D01*
X84904000Y-134088000D01*
X84904000Y-134108000D01*
X85460000Y-134108000D01*
X85548500Y-134019500D01*
X85548500Y-133829585D01*
X85796000Y-133829585D01*
X85796000Y-133961500D01*
X85884500Y-134050000D01*
X86346000Y-134050000D01*
X86346000Y-133634500D01*
X86654000Y-133634500D01*
X86654000Y-134050000D01*
X87115500Y-134050000D01*
X87204000Y-133961500D01*
X87204000Y-133829585D01*
X87150107Y-133699475D01*
X87050525Y-133599893D01*
X86920415Y-133546000D01*
X86742500Y-133546000D01*
X86654000Y-133634500D01*
X86346000Y-133634500D01*
X86257500Y-133546000D01*
X86079585Y-133546000D01*
X85949475Y-133599893D01*
X85849893Y-133699475D01*
X85796000Y-133829585D01*
X85548500Y-133829585D01*
X85548500Y-133747085D01*
X85494607Y-133616975D01*
X85395025Y-133517393D01*
X85284217Y-133471495D01*
X85305673Y-133467458D01*
X85407779Y-133401755D01*
X85476278Y-133301503D01*
X85496833Y-133200000D01*
X85604227Y-133200000D01*
X85627792Y-133215746D01*
X85800000Y-133250000D01*
X85890026Y-133250000D01*
X85930745Y-133313279D01*
X86030997Y-133381778D01*
X86150000Y-133405877D01*
X86850000Y-133405877D01*
X86961173Y-133384958D01*
X87063279Y-133319255D01*
X87131778Y-133219003D01*
X87155877Y-133100000D01*
X87155877Y-132980519D01*
X88568198Y-131568198D01*
X88665746Y-131422208D01*
X88700000Y-131250000D01*
X88700000Y-119500000D01*
X88665746Y-119327792D01*
X88568198Y-119181802D01*
X87068187Y-117681791D01*
X87025209Y-117653074D01*
X86922197Y-117584243D01*
X86749989Y-117549989D01*
X81893507Y-117549989D01*
X79677031Y-115333513D01*
X79677030Y-104977030D01*
X79642776Y-104804822D01*
X79545228Y-104658832D01*
X77128896Y-102242500D01*
X85439500Y-102242500D01*
X85439500Y-102514915D01*
X85493393Y-102645025D01*
X85592975Y-102744607D01*
X85723085Y-102798500D01*
X85995500Y-102798500D01*
X86084000Y-102710000D01*
X86084000Y-102154000D01*
X85528000Y-102154000D01*
X85439500Y-102242500D01*
X77128896Y-102242500D01*
X76700000Y-101813604D01*
X76700000Y-101485085D01*
X85439500Y-101485085D01*
X85439500Y-101757500D01*
X85528000Y-101846000D01*
X86084000Y-101846000D01*
X86084000Y-101290000D01*
X86392000Y-101290000D01*
X86392000Y-101846000D01*
X86412000Y-101846000D01*
X86412000Y-102154000D01*
X86392000Y-102154000D01*
X86392000Y-102710000D01*
X86480500Y-102798500D01*
X86752915Y-102798500D01*
X86883025Y-102744607D01*
X86982607Y-102645025D01*
X87028505Y-102534217D01*
X87032542Y-102555673D01*
X87098245Y-102657779D01*
X87198497Y-102726278D01*
X87317500Y-102750377D01*
X88206500Y-102750377D01*
X88317673Y-102729458D01*
X88419779Y-102663755D01*
X88488278Y-102563503D01*
X88512377Y-102444500D01*
X88512377Y-101555500D01*
X88491458Y-101444327D01*
X88425755Y-101342221D01*
X88325503Y-101273722D01*
X88289000Y-101266330D01*
X88289000Y-100707048D01*
X88356279Y-100663755D01*
X88424778Y-100563503D01*
X88448877Y-100444500D01*
X88448877Y-99555500D01*
X88427958Y-99444327D01*
X88362255Y-99342221D01*
X88262003Y-99273722D01*
X88143000Y-99249623D01*
X87381000Y-99249623D01*
X87269827Y-99270542D01*
X87167721Y-99336245D01*
X87099222Y-99436497D01*
X87075123Y-99555500D01*
X87075123Y-100444500D01*
X87096042Y-100555673D01*
X87161745Y-100657779D01*
X87261997Y-100726278D01*
X87381000Y-100750377D01*
X87489000Y-100750377D01*
X87489000Y-101249623D01*
X87317500Y-101249623D01*
X87206327Y-101270542D01*
X87104221Y-101336245D01*
X87035722Y-101436497D01*
X87029369Y-101467869D01*
X86982607Y-101354975D01*
X86883025Y-101255393D01*
X86752915Y-101201500D01*
X86480500Y-101201500D01*
X86392000Y-101290000D01*
X86084000Y-101290000D01*
X85995500Y-101201500D01*
X85723085Y-101201500D01*
X85592975Y-101255393D01*
X85493393Y-101354975D01*
X85439500Y-101485085D01*
X76700000Y-101485085D01*
X76700000Y-98904000D01*
X77757500Y-98904000D01*
X77846000Y-98815500D01*
X77846000Y-98154000D01*
X78154000Y-98154000D01*
X78154000Y-98815500D01*
X78242500Y-98904000D01*
X79370415Y-98904000D01*
X79500525Y-98850107D01*
X79600107Y-98750525D01*
X79654000Y-98620415D01*
X79654000Y-98242500D01*
X79565500Y-98154000D01*
X78154000Y-98154000D01*
X77846000Y-98154000D01*
X77826000Y-98154000D01*
X77826000Y-97846000D01*
X77846000Y-97846000D01*
X77846000Y-97184500D01*
X78154000Y-97184500D01*
X78154000Y-97846000D01*
X79565500Y-97846000D01*
X79654000Y-97757500D01*
X79654000Y-97379585D01*
X79600107Y-97249475D01*
X79500525Y-97149893D01*
X79370415Y-97096000D01*
X78242500Y-97096000D01*
X78154000Y-97184500D01*
X77846000Y-97184500D01*
X77757500Y-97096000D01*
X76629585Y-97096000D01*
X76499475Y-97149893D01*
X76399893Y-97249475D01*
X76346000Y-97379585D01*
X76346000Y-97459604D01*
X75750000Y-96863604D01*
X75750000Y-92545862D01*
X75880129Y-92599896D01*
X76118824Y-92600104D01*
X76339429Y-92508952D01*
X76394123Y-92454354D01*
X76394123Y-92550000D01*
X76415042Y-92661173D01*
X76480745Y-92763279D01*
X76580997Y-92831778D01*
X76700000Y-92855877D01*
X79300000Y-92855877D01*
X79411173Y-92834958D01*
X79513279Y-92769255D01*
X79581778Y-92669003D01*
X79605877Y-92550000D01*
X79605877Y-92400000D01*
X79987623Y-92400000D01*
X79987623Y-92444500D01*
X80008542Y-92555673D01*
X80074245Y-92657779D01*
X80174497Y-92726278D01*
X80293500Y-92750377D01*
X81182500Y-92750377D01*
X81293673Y-92729458D01*
X81395779Y-92663755D01*
X81464278Y-92563503D01*
X81488377Y-92444500D01*
X81488377Y-91555500D01*
X81467458Y-91444327D01*
X81401755Y-91342221D01*
X81301503Y-91273722D01*
X81249000Y-91263090D01*
X81249000Y-89004377D01*
X81547500Y-89004377D01*
X81658673Y-88983458D01*
X81760779Y-88917755D01*
X81829278Y-88817503D01*
X81853377Y-88698500D01*
X81853377Y-87401499D01*
X81989801Y-87401499D01*
X82142875Y-87371051D01*
X82272644Y-87284342D01*
X82629643Y-86927343D01*
X82716352Y-86797574D01*
X82725740Y-86750377D01*
X82791300Y-86750377D01*
X82902473Y-86729458D01*
X83004579Y-86663755D01*
X83073078Y-86563503D01*
X83097177Y-86444500D01*
X83097177Y-85555500D01*
X83076258Y-85444327D01*
X83010555Y-85342221D01*
X82910303Y-85273722D01*
X82791300Y-85249623D01*
X82222563Y-85249623D01*
X82544843Y-84927343D01*
X82631552Y-84797574D01*
X82640940Y-84750377D01*
X82706500Y-84750377D01*
X82817673Y-84729458D01*
X82919779Y-84663755D01*
X82988278Y-84563503D01*
X83012377Y-84444500D01*
X83012377Y-84400000D01*
X83501316Y-84400000D01*
X86350939Y-87249623D01*
X85793500Y-87249623D01*
X85682327Y-87270542D01*
X85580221Y-87336245D01*
X85511722Y-87436497D01*
X85487623Y-87555500D01*
X85487623Y-87600000D01*
X85155377Y-87600000D01*
X85155377Y-87301500D01*
X85134458Y-87190327D01*
X85068755Y-87088221D01*
X84968503Y-87019722D01*
X84849500Y-86995623D01*
X83452500Y-86995623D01*
X83341327Y-87016542D01*
X83239221Y-87082245D01*
X83170722Y-87182497D01*
X83146623Y-87301500D01*
X83146623Y-88698500D01*
X83167542Y-88809673D01*
X83233245Y-88911779D01*
X83333497Y-88980278D01*
X83452500Y-89004377D01*
X84849500Y-89004377D01*
X84960673Y-88983458D01*
X85062779Y-88917755D01*
X85131278Y-88817503D01*
X85155377Y-88698500D01*
X85155377Y-88400000D01*
X85487623Y-88400000D01*
X85487623Y-88444500D01*
X85508542Y-88555673D01*
X85574245Y-88657779D01*
X85674497Y-88726278D01*
X85793500Y-88750377D01*
X86600000Y-88750377D01*
X86600000Y-89249623D01*
X85857000Y-89249623D01*
X85745827Y-89270542D01*
X85643721Y-89336245D01*
X85575222Y-89436497D01*
X85551123Y-89555500D01*
X85551123Y-89600000D01*
X83250000Y-89600000D01*
X83096926Y-89630448D01*
X82967157Y-89717157D01*
X81979157Y-90705157D01*
X81892448Y-90834926D01*
X81879367Y-90900689D01*
X81862000Y-90988000D01*
X81862000Y-91249623D01*
X81817500Y-91249623D01*
X81706327Y-91270542D01*
X81604221Y-91336245D01*
X81535722Y-91436497D01*
X81511623Y-91555500D01*
X81511623Y-92444500D01*
X81532542Y-92555673D01*
X81598245Y-92657779D01*
X81698497Y-92726278D01*
X81817500Y-92750377D01*
X81862000Y-92750377D01*
X81862000Y-93249623D01*
X81817500Y-93249623D01*
X81706327Y-93270542D01*
X81604221Y-93336245D01*
X81535722Y-93436497D01*
X81511623Y-93555500D01*
X81511623Y-94444500D01*
X81532542Y-94555673D01*
X81561065Y-94600000D01*
X81439341Y-94600000D01*
X81464278Y-94563503D01*
X81488377Y-94444500D01*
X81488377Y-93555500D01*
X81467458Y-93444327D01*
X81401755Y-93342221D01*
X81301503Y-93273722D01*
X81182500Y-93249623D01*
X80293500Y-93249623D01*
X80182327Y-93270542D01*
X80080221Y-93336245D01*
X80011722Y-93436497D01*
X79987623Y-93555500D01*
X79987623Y-93600000D01*
X79605877Y-93600000D01*
X79605877Y-93450000D01*
X79584958Y-93338827D01*
X79519255Y-93236721D01*
X79419003Y-93168222D01*
X79300000Y-93144123D01*
X76700000Y-93144123D01*
X76588827Y-93165042D01*
X76486721Y-93230745D01*
X76418222Y-93330997D01*
X76394123Y-93450000D01*
X76394123Y-94550000D01*
X76415042Y-94661173D01*
X76480745Y-94763279D01*
X76580997Y-94831778D01*
X76700000Y-94855877D01*
X79300000Y-94855877D01*
X79411173Y-94834958D01*
X79513279Y-94769255D01*
X79581778Y-94669003D01*
X79605877Y-94550000D01*
X79605877Y-94400000D01*
X79987623Y-94400000D01*
X79987623Y-94444500D01*
X80008542Y-94555673D01*
X80074245Y-94657779D01*
X80174497Y-94726278D01*
X80293500Y-94750377D01*
X80359060Y-94750377D01*
X80368448Y-94797574D01*
X80455157Y-94927343D01*
X80777437Y-95249623D01*
X80281500Y-95249623D01*
X80170327Y-95270542D01*
X80068221Y-95336245D01*
X79999722Y-95436497D01*
X79975623Y-95555500D01*
X79975623Y-95600000D01*
X79605877Y-95600000D01*
X79605877Y-95450000D01*
X79584958Y-95338827D01*
X79519255Y-95236721D01*
X79419003Y-95168222D01*
X79300000Y-95144123D01*
X76700000Y-95144123D01*
X76588827Y-95165042D01*
X76486721Y-95230745D01*
X76418222Y-95330997D01*
X76394123Y-95450000D01*
X76394123Y-96550000D01*
X76415042Y-96661173D01*
X76480745Y-96763279D01*
X76580997Y-96831778D01*
X76700000Y-96855877D01*
X79300000Y-96855877D01*
X79411173Y-96834958D01*
X79513279Y-96769255D01*
X79581778Y-96669003D01*
X79605877Y-96550000D01*
X79605877Y-96400000D01*
X79975623Y-96400000D01*
X79975623Y-96444500D01*
X79996542Y-96555673D01*
X80062245Y-96657779D01*
X80162497Y-96726278D01*
X80281500Y-96750377D01*
X81170500Y-96750377D01*
X81281673Y-96729458D01*
X81383779Y-96663755D01*
X81452278Y-96563503D01*
X81458631Y-96532131D01*
X81505393Y-96645025D01*
X81604975Y-96744607D01*
X81735085Y-96798500D01*
X82007500Y-96798500D01*
X82096000Y-96710000D01*
X82096000Y-96154000D01*
X82404000Y-96154000D01*
X82404000Y-96710000D01*
X82492500Y-96798500D01*
X82764915Y-96798500D01*
X82895025Y-96744607D01*
X82994607Y-96645025D01*
X83048500Y-96514915D01*
X83048500Y-96242500D01*
X82960000Y-96154000D01*
X82404000Y-96154000D01*
X82096000Y-96154000D01*
X82076000Y-96154000D01*
X82076000Y-95846000D01*
X82096000Y-95846000D01*
X82096000Y-95826000D01*
X82404000Y-95826000D01*
X82404000Y-95846000D01*
X82960000Y-95846000D01*
X83048500Y-95757500D01*
X83048500Y-95485085D01*
X83013257Y-95400000D01*
X83934314Y-95400000D01*
X85487623Y-96953309D01*
X85487623Y-97444500D01*
X85508542Y-97555673D01*
X85574245Y-97657779D01*
X85674497Y-97726278D01*
X85793500Y-97750377D01*
X86600000Y-97750377D01*
X86600000Y-98754814D01*
X86105191Y-99249623D01*
X85857000Y-99249623D01*
X85745827Y-99270542D01*
X85643721Y-99336245D01*
X85575222Y-99436497D01*
X85551123Y-99555500D01*
X85551123Y-100444500D01*
X85572042Y-100555673D01*
X85637745Y-100657779D01*
X85737997Y-100726278D01*
X85857000Y-100750377D01*
X86619000Y-100750377D01*
X86730173Y-100729458D01*
X86832279Y-100663755D01*
X86900778Y-100563503D01*
X86924877Y-100444500D01*
X86924877Y-99561309D01*
X87282843Y-99203343D01*
X87369552Y-99073574D01*
X87400001Y-98920500D01*
X87400000Y-98920495D01*
X87400000Y-97750377D01*
X88206500Y-97750377D01*
X88317673Y-97729458D01*
X88419779Y-97663755D01*
X88488278Y-97563503D01*
X88512377Y-97444500D01*
X88512377Y-96555500D01*
X88491458Y-96444327D01*
X88425755Y-96342221D01*
X88325503Y-96273722D01*
X88289000Y-96266330D01*
X88289000Y-95707048D01*
X88356279Y-95663755D01*
X88424778Y-95563503D01*
X88448877Y-95444500D01*
X88448877Y-94555500D01*
X88427958Y-94444327D01*
X88362255Y-94342221D01*
X88262003Y-94273722D01*
X88143000Y-94249623D01*
X87381000Y-94249623D01*
X87269827Y-94270542D01*
X87167721Y-94336245D01*
X87099222Y-94436497D01*
X87075123Y-94555500D01*
X87075123Y-95409437D01*
X86924877Y-95259191D01*
X86924877Y-94555500D01*
X86903958Y-94444327D01*
X86838255Y-94342221D01*
X86738003Y-94273722D01*
X86619000Y-94249623D01*
X86015308Y-94249623D01*
X85482843Y-93717157D01*
X85353074Y-93630448D01*
X85200000Y-93600000D01*
X83548477Y-93600000D01*
X83440307Y-93491641D01*
X83219861Y-93400104D01*
X82981166Y-93399896D01*
X82966711Y-93405869D01*
X82925755Y-93342221D01*
X82825503Y-93273722D01*
X82706500Y-93249623D01*
X82662000Y-93249623D01*
X82662000Y-92750377D01*
X82706500Y-92750377D01*
X82817673Y-92729458D01*
X82919779Y-92663755D01*
X82988278Y-92563503D01*
X83012377Y-92444500D01*
X83012377Y-91555500D01*
X82991458Y-91444327D01*
X82925755Y-91342221D01*
X82825503Y-91273722D01*
X82706500Y-91249623D01*
X82662000Y-91249623D01*
X82662000Y-91153686D01*
X83415686Y-90400000D01*
X85551123Y-90400000D01*
X85551123Y-90444500D01*
X85572042Y-90555673D01*
X85637745Y-90657779D01*
X85737997Y-90726278D01*
X85857000Y-90750377D01*
X86600000Y-90750377D01*
X86600000Y-91072314D01*
X86422691Y-91249623D01*
X85793500Y-91249623D01*
X85682327Y-91270542D01*
X85580221Y-91336245D01*
X85511722Y-91436497D01*
X85487623Y-91555500D01*
X85487623Y-92444500D01*
X85508542Y-92555673D01*
X85574245Y-92657779D01*
X85674497Y-92726278D01*
X85793500Y-92750377D01*
X86682500Y-92750377D01*
X86793673Y-92729458D01*
X86895779Y-92663755D01*
X86964278Y-92563503D01*
X86988377Y-92444500D01*
X86988377Y-91815309D01*
X87011623Y-91792063D01*
X87011623Y-92444500D01*
X87032542Y-92555673D01*
X87098245Y-92657779D01*
X87198497Y-92726278D01*
X87317500Y-92750377D01*
X88206500Y-92750377D01*
X88317673Y-92729458D01*
X88419779Y-92663755D01*
X88488278Y-92563503D01*
X88512377Y-92444500D01*
X88512377Y-91555500D01*
X88491458Y-91444327D01*
X88425755Y-91342221D01*
X88325503Y-91273722D01*
X88289000Y-91266330D01*
X88289000Y-90707048D01*
X88356279Y-90663755D01*
X88424778Y-90563503D01*
X88448877Y-90444500D01*
X88448877Y-89555500D01*
X88427958Y-89444327D01*
X88362255Y-89342221D01*
X88262003Y-89273722D01*
X88143000Y-89249623D01*
X87400000Y-89249623D01*
X87400000Y-88750377D01*
X88206500Y-88750377D01*
X88317673Y-88729458D01*
X88419779Y-88663755D01*
X88488278Y-88563503D01*
X88512377Y-88444500D01*
X88512377Y-87555500D01*
X88491458Y-87444327D01*
X88425755Y-87342221D01*
X88325503Y-87273722D01*
X88206500Y-87249623D01*
X88140940Y-87249623D01*
X88131552Y-87202426D01*
X88044843Y-87072657D01*
X83789343Y-82817157D01*
X83659574Y-82730448D01*
X83506500Y-82700000D01*
X79600000Y-82700000D01*
X79600000Y-75350000D01*
X89650000Y-75350000D01*
X89650000Y-149650000D01*
X89650000Y-149650000D01*
G37*
X89650000Y-149650000D02*
X72915528Y-149650000D01*
X73398564Y-149166964D01*
X73528628Y-148972310D01*
X73574300Y-148742700D01*
X73574300Y-147807578D01*
X73611012Y-147792409D01*
X73874923Y-147528958D01*
X73874923Y-147663200D01*
X73895842Y-147774373D01*
X73961545Y-147876479D01*
X74061797Y-147944978D01*
X74180800Y-147969077D01*
X75831800Y-147969077D01*
X75942973Y-147948158D01*
X76045079Y-147882455D01*
X76113578Y-147782203D01*
X76137677Y-147663200D01*
X76137677Y-147528592D01*
X76399923Y-147791296D01*
X76813442Y-147963004D01*
X77261194Y-147963395D01*
X77675012Y-147792409D01*
X77991896Y-147476077D01*
X78119400Y-147169013D01*
X78119400Y-147690200D01*
X78258450Y-148081252D01*
X78536565Y-148389325D01*
X78856921Y-148540464D01*
X79017900Y-148487820D01*
X79017900Y-146991700D01*
X79325900Y-146991700D01*
X79325900Y-148487820D01*
X79486879Y-148540464D01*
X79807235Y-148389325D01*
X80085350Y-148081252D01*
X80224400Y-147690200D01*
X80224400Y-146991700D01*
X79325900Y-146991700D01*
X79017900Y-146991700D01*
X78997900Y-146991700D01*
X78997900Y-146683700D01*
X79017900Y-146683700D01*
X79017900Y-145187580D01*
X79325900Y-145187580D01*
X79325900Y-146683700D01*
X80224400Y-146683700D01*
X80224400Y-145985200D01*
X80085350Y-145594148D01*
X79807235Y-145286075D01*
X79486879Y-145134936D01*
X79325900Y-145187580D01*
X79017900Y-145187580D01*
X78856921Y-145134936D01*
X78536565Y-145286075D01*
X78258450Y-145594148D01*
X78119400Y-145985200D01*
X78119400Y-146506878D01*
X77993009Y-146200988D01*
X77676677Y-145884104D01*
X77263158Y-145712396D01*
X76815406Y-145712005D01*
X76401588Y-145882991D01*
X76137677Y-146146442D01*
X76137677Y-146012200D01*
X76116758Y-145901027D01*
X76051055Y-145798921D01*
X75950803Y-145730422D01*
X75831800Y-145706323D01*
X75563141Y-145706323D01*
X75560628Y-145693690D01*
X75430564Y-145499036D01*
X73206000Y-143274472D01*
X73206000Y-142095500D01*
X73712500Y-142095500D01*
X73712500Y-142431415D01*
X73766393Y-142561525D01*
X73865975Y-142661107D01*
X73996085Y-142715000D01*
X74395500Y-142715000D01*
X74484000Y-142626500D01*
X74484000Y-142007000D01*
X74792000Y-142007000D01*
X74792000Y-142626500D01*
X74880500Y-142715000D01*
X75279915Y-142715000D01*
X75410025Y-142661107D01*
X75509607Y-142561525D01*
X75563500Y-142431415D01*
X75563500Y-142095500D01*
X75475000Y-142007000D01*
X74792000Y-142007000D01*
X74484000Y-142007000D01*
X73801000Y-142007000D01*
X73712500Y-142095500D01*
X73206000Y-142095500D01*
X73206000Y-141902500D01*
X77296000Y-141902500D01*
X77296000Y-142034415D01*
X77349893Y-142164525D01*
X77449475Y-142264107D01*
X77579585Y-142318000D01*
X77757500Y-142318000D01*
X77846000Y-142229500D01*
X77846000Y-141814000D01*
X78154000Y-141814000D01*
X78154000Y-142229500D01*
X78242500Y-142318000D01*
X78420415Y-142318000D01*
X78550525Y-142264107D01*
X78650107Y-142164525D01*
X78704000Y-142034415D01*
X78704000Y-141902500D01*
X78615500Y-141814000D01*
X78154000Y-141814000D01*
X77846000Y-141814000D01*
X77384500Y-141814000D01*
X77296000Y-141902500D01*
X73206000Y-141902500D01*
X73206000Y-141772514D01*
X73288673Y-141756958D01*
X73390779Y-141691255D01*
X73459278Y-141591003D01*
X73483377Y-141472000D01*
X73483377Y-141274585D01*
X73712500Y-141274585D01*
X73712500Y-141610500D01*
X73801000Y-141699000D01*
X74484000Y-141699000D01*
X74484000Y-141079500D01*
X74792000Y-141079500D01*
X74792000Y-141699000D01*
X75475000Y-141699000D01*
X75563500Y-141610500D01*
X75563500Y-141293585D01*
X77296000Y-141293585D01*
X77296000Y-141425500D01*
X77384500Y-141514000D01*
X77846000Y-141514000D01*
X77846000Y-141098500D01*
X78154000Y-141098500D01*
X78154000Y-141514000D01*
X78615500Y-141514000D01*
X78704000Y-141425500D01*
X78704000Y-141293585D01*
X78650107Y-141163475D01*
X78550525Y-141063893D01*
X78420415Y-141010000D01*
X78242500Y-141010000D01*
X78154000Y-141098500D01*
X77846000Y-141098500D01*
X77757500Y-141010000D01*
X77579585Y-141010000D01*
X77449475Y-141063893D01*
X77349893Y-141163475D01*
X77296000Y-141293585D01*
X75563500Y-141293585D01*
X75563500Y-141274585D01*
X75509607Y-141144475D01*
X75410025Y-141044893D01*
X75279915Y-140991000D01*
X74880500Y-140991000D01*
X74792000Y-141079500D01*
X74484000Y-141079500D01*
X74395500Y-140991000D01*
X73996085Y-140991000D01*
X73865975Y-141044893D01*
X73766393Y-141144475D01*
X73712500Y-141274585D01*
X73483377Y-141274585D01*
X73483377Y-140456000D01*
X73462458Y-140344827D01*
X73396755Y-140242721D01*
X73296503Y-140174222D01*
X73177500Y-140150123D01*
X72034500Y-140150123D01*
X71923327Y-140171042D01*
X71821221Y-140236745D01*
X71752722Y-140336997D01*
X71728623Y-140456000D01*
X71728623Y-141472000D01*
X71749542Y-141583173D01*
X71815245Y-141685279D01*
X71915497Y-141753778D01*
X72006000Y-141772106D01*
X72006000Y-143523000D01*
X72051672Y-143752610D01*
X72181736Y-143947264D01*
X74003966Y-145769494D01*
X73967521Y-145792945D01*
X73899022Y-145893197D01*
X73874923Y-146012200D01*
X73874923Y-146146808D01*
X73612677Y-145884104D01*
X73199158Y-145712396D01*
X72751406Y-145712005D01*
X72337588Y-145882991D01*
X72020704Y-146199323D01*
X71893200Y-146506387D01*
X71893200Y-145985200D01*
X71754150Y-145594148D01*
X71476035Y-145286075D01*
X71155679Y-145134936D01*
X70994700Y-145187580D01*
X70994700Y-146683700D01*
X71014700Y-146683700D01*
X71014700Y-146991700D01*
X70994700Y-146991700D01*
X70994700Y-148487820D01*
X71155679Y-148540464D01*
X71476035Y-148389325D01*
X71754150Y-148081252D01*
X71893200Y-147690200D01*
X71893200Y-147168522D01*
X72019591Y-147474412D01*
X72335923Y-147791296D01*
X72374300Y-147807232D01*
X72374300Y-148494172D01*
X72230472Y-148638000D01*
X70568528Y-148638000D01*
X70422110Y-148491582D01*
X70525721Y-148540464D01*
X70686700Y-148487820D01*
X70686700Y-146991700D01*
X69788200Y-146991700D01*
X69788200Y-147690200D01*
X69880608Y-147950080D01*
X69281224Y-147350696D01*
X69086570Y-147220632D01*
X68856960Y-147174960D01*
X66132617Y-147174960D01*
X66132617Y-146949460D01*
X66111698Y-146838287D01*
X66045995Y-146736181D01*
X65945743Y-146667682D01*
X65826740Y-146643583D01*
X65401240Y-146643583D01*
X65401240Y-145985200D01*
X69788200Y-145985200D01*
X69788200Y-146683700D01*
X70686700Y-146683700D01*
X70686700Y-145187580D01*
X70525721Y-145134936D01*
X70205365Y-145286075D01*
X69927250Y-145594148D01*
X69788200Y-145985200D01*
X65401240Y-145985200D01*
X65401240Y-143301240D01*
X65381102Y-143200000D01*
X65370792Y-143148166D01*
X65284083Y-143018397D01*
X60406167Y-138140481D01*
X65553308Y-138140481D01*
X65663852Y-138319981D01*
X66157859Y-138481556D01*
X66676092Y-138441783D01*
X66970148Y-138319981D01*
X67080692Y-138140481D01*
X66317000Y-137376789D01*
X65553308Y-138140481D01*
X60406167Y-138140481D01*
X59265545Y-136999859D01*
X64994444Y-136999859D01*
X65034217Y-137518092D01*
X65156019Y-137812148D01*
X65335519Y-137922692D01*
X66099211Y-137159000D01*
X66534789Y-137159000D01*
X67298481Y-137922692D01*
X67477981Y-137812148D01*
X67639556Y-137318141D01*
X67615129Y-136999859D01*
X72360444Y-136999859D01*
X72400217Y-137518092D01*
X72522019Y-137812148D01*
X72701519Y-137922692D01*
X73465211Y-137159000D01*
X72701519Y-136395308D01*
X72522019Y-136505852D01*
X72360444Y-136999859D01*
X67615129Y-136999859D01*
X67599783Y-136799908D01*
X67477981Y-136505852D01*
X67298481Y-136395308D01*
X66534789Y-137159000D01*
X66099211Y-137159000D01*
X65335519Y-136395308D01*
X65156019Y-136505852D01*
X64994444Y-136999859D01*
X59265545Y-136999859D01*
X57282843Y-135017157D01*
X57275689Y-135012377D01*
X57444500Y-135012377D01*
X57555673Y-134991458D01*
X57657779Y-134925755D01*
X57726278Y-134825503D01*
X57750377Y-134706500D01*
X57750377Y-134689000D01*
X57999623Y-134689000D01*
X57999623Y-134706500D01*
X58020542Y-134817673D01*
X58086245Y-134919779D01*
X58186497Y-134988278D01*
X58305500Y-135012377D01*
X59194500Y-135012377D01*
X59305673Y-134991458D01*
X59407779Y-134925755D01*
X59451448Y-134861844D01*
X59745623Y-135156019D01*
X59745623Y-136349500D01*
X59766542Y-136460673D01*
X59832245Y-136562779D01*
X59932497Y-136631278D01*
X60051500Y-136655377D01*
X61448500Y-136655377D01*
X61559673Y-136634458D01*
X61661779Y-136568755D01*
X61730278Y-136468503D01*
X61754377Y-136349500D01*
X61754377Y-136177519D01*
X65553308Y-136177519D01*
X66317000Y-136941211D01*
X67080692Y-136177519D01*
X66970148Y-135998019D01*
X66476141Y-135836444D01*
X65957908Y-135876217D01*
X65663852Y-135998019D01*
X65553308Y-136177519D01*
X61754377Y-136177519D01*
X61754377Y-135951000D01*
X64840495Y-135951000D01*
X64840500Y-135951001D01*
X65003906Y-135918497D01*
X65142435Y-135825935D01*
X66618932Y-134349437D01*
X66618935Y-134349435D01*
X66711497Y-134210906D01*
X66733681Y-134099377D01*
X67269500Y-134099377D01*
X67380673Y-134078458D01*
X67482779Y-134012755D01*
X67551278Y-133912503D01*
X67575377Y-133793500D01*
X67575377Y-133268000D01*
X72504226Y-133268000D01*
X72620563Y-133549557D01*
X72972589Y-133902199D01*
X73432769Y-134093282D01*
X73931045Y-134093717D01*
X74391557Y-133903437D01*
X74600000Y-133695358D01*
X74600000Y-136194902D01*
X74514653Y-136109555D01*
X74446691Y-136177517D01*
X74336148Y-135998019D01*
X73842141Y-135836444D01*
X73323908Y-135876217D01*
X73029852Y-135998019D01*
X72919308Y-136177519D01*
X73683000Y-136941211D01*
X73697142Y-136927069D01*
X73914931Y-137144858D01*
X73900789Y-137159000D01*
X73914931Y-137173142D01*
X73697142Y-137390931D01*
X73683000Y-137376789D01*
X72919308Y-138140481D01*
X73029852Y-138319981D01*
X73523859Y-138481556D01*
X74042092Y-138441783D01*
X74336148Y-138319981D01*
X74446691Y-138140483D01*
X74514653Y-138208445D01*
X74600000Y-138123098D01*
X74600000Y-138564002D01*
X74630448Y-138717076D01*
X74717157Y-138846845D01*
X75131435Y-139261123D01*
X74066500Y-139261123D01*
X73955327Y-139282042D01*
X73853221Y-139347745D01*
X73784722Y-139447997D01*
X73760623Y-139567000D01*
X73760623Y-140583000D01*
X73781542Y-140694173D01*
X73847245Y-140796279D01*
X73947497Y-140864778D01*
X74066500Y-140888877D01*
X75209500Y-140888877D01*
X75320673Y-140867958D01*
X75422779Y-140802255D01*
X75491278Y-140702003D01*
X75496746Y-140675000D01*
X75715065Y-140675000D01*
X75752245Y-140732779D01*
X75852497Y-140801278D01*
X75971500Y-140825377D01*
X76860500Y-140825377D01*
X76971673Y-140804458D01*
X77073779Y-140738755D01*
X77117341Y-140675000D01*
X77365009Y-140675000D01*
X77365042Y-140675173D01*
X77430745Y-140777279D01*
X77530997Y-140845778D01*
X77650000Y-140869877D01*
X78350000Y-140869877D01*
X78461173Y-140848958D01*
X78563279Y-140783255D01*
X78631778Y-140683003D01*
X78655877Y-140564000D01*
X78655877Y-139964000D01*
X78634958Y-139852827D01*
X78569255Y-139750721D01*
X78488438Y-139695501D01*
X79454499Y-139695501D01*
X79607573Y-139665053D01*
X79737342Y-139578344D01*
X80182840Y-139132845D01*
X80182843Y-139132843D01*
X84255185Y-135060500D01*
X84507500Y-135060500D01*
X84596000Y-134972000D01*
X84596000Y-134416000D01*
X84904000Y-134416000D01*
X84904000Y-134972000D01*
X84992500Y-135060500D01*
X85264915Y-135060500D01*
X85395025Y-135006607D01*
X85494607Y-134907025D01*
X85548500Y-134776915D01*
X85548500Y-134504500D01*
X85482500Y-134438500D01*
X85796000Y-134438500D01*
X85796000Y-134570415D01*
X85849893Y-134700525D01*
X85949475Y-134800107D01*
X86079585Y-134854000D01*
X86257500Y-134854000D01*
X86346000Y-134765500D01*
X86346000Y-134350000D01*
X86654000Y-134350000D01*
X86654000Y-134765500D01*
X86742500Y-134854000D01*
X86920415Y-134854000D01*
X87050525Y-134800107D01*
X87150107Y-134700525D01*
X87204000Y-134570415D01*
X87204000Y-134438500D01*
X87115500Y-134350000D01*
X86654000Y-134350000D01*
X86346000Y-134350000D01*
X85884500Y-134350000D01*
X85796000Y-134438500D01*
X85482500Y-134438500D01*
X85460000Y-134416000D01*
X84904000Y-134416000D01*
X84596000Y-134416000D01*
X84576000Y-134416000D01*
X84576000Y-134108000D01*
X84596000Y-134108000D01*
X84596000Y-134088000D01*
X84904000Y-134088000D01*
X84904000Y-134108000D01*
X85460000Y-134108000D01*
X85548500Y-134019500D01*
X85548500Y-133829585D01*
X85796000Y-133829585D01*
X85796000Y-133961500D01*
X85884500Y-134050000D01*
X86346000Y-134050000D01*
X86346000Y-133634500D01*
X86654000Y-133634500D01*
X86654000Y-134050000D01*
X87115500Y-134050000D01*
X87204000Y-133961500D01*
X87204000Y-133829585D01*
X87150107Y-133699475D01*
X87050525Y-133599893D01*
X86920415Y-133546000D01*
X86742500Y-133546000D01*
X86654000Y-133634500D01*
X86346000Y-133634500D01*
X86257500Y-133546000D01*
X86079585Y-133546000D01*
X85949475Y-133599893D01*
X85849893Y-133699475D01*
X85796000Y-133829585D01*
X85548500Y-133829585D01*
X85548500Y-133747085D01*
X85494607Y-133616975D01*
X85395025Y-133517393D01*
X85284217Y-133471495D01*
X85305673Y-133467458D01*
X85407779Y-133401755D01*
X85476278Y-133301503D01*
X85496833Y-133200000D01*
X85604227Y-133200000D01*
X85627792Y-133215746D01*
X85800000Y-133250000D01*
X85890026Y-133250000D01*
X85930745Y-133313279D01*
X86030997Y-133381778D01*
X86150000Y-133405877D01*
X86850000Y-133405877D01*
X86961173Y-133384958D01*
X87063279Y-133319255D01*
X87131778Y-133219003D01*
X87155877Y-133100000D01*
X87155877Y-132980519D01*
X88568198Y-131568198D01*
X88665746Y-131422208D01*
X88700000Y-131250000D01*
X88700000Y-119500000D01*
X88665746Y-119327792D01*
X88568198Y-119181802D01*
X87068187Y-117681791D01*
X87025209Y-117653074D01*
X86922197Y-117584243D01*
X86749989Y-117549989D01*
X81893507Y-117549989D01*
X79677031Y-115333513D01*
X79677030Y-104977030D01*
X79642776Y-104804822D01*
X79545228Y-104658832D01*
X77128896Y-102242500D01*
X85439500Y-102242500D01*
X85439500Y-102514915D01*
X85493393Y-102645025D01*
X85592975Y-102744607D01*
X85723085Y-102798500D01*
X85995500Y-102798500D01*
X86084000Y-102710000D01*
X86084000Y-102154000D01*
X85528000Y-102154000D01*
X85439500Y-102242500D01*
X77128896Y-102242500D01*
X76700000Y-101813604D01*
X76700000Y-101485085D01*
X85439500Y-101485085D01*
X85439500Y-101757500D01*
X85528000Y-101846000D01*
X86084000Y-101846000D01*
X86084000Y-101290000D01*
X86392000Y-101290000D01*
X86392000Y-101846000D01*
X86412000Y-101846000D01*
X86412000Y-102154000D01*
X86392000Y-102154000D01*
X86392000Y-102710000D01*
X86480500Y-102798500D01*
X86752915Y-102798500D01*
X86883025Y-102744607D01*
X86982607Y-102645025D01*
X87028505Y-102534217D01*
X87032542Y-102555673D01*
X87098245Y-102657779D01*
X87198497Y-102726278D01*
X87317500Y-102750377D01*
X88206500Y-102750377D01*
X88317673Y-102729458D01*
X88419779Y-102663755D01*
X88488278Y-102563503D01*
X88512377Y-102444500D01*
X88512377Y-101555500D01*
X88491458Y-101444327D01*
X88425755Y-101342221D01*
X88325503Y-101273722D01*
X88289000Y-101266330D01*
X88289000Y-100707048D01*
X88356279Y-100663755D01*
X88424778Y-100563503D01*
X88448877Y-100444500D01*
X88448877Y-99555500D01*
X88427958Y-99444327D01*
X88362255Y-99342221D01*
X88262003Y-99273722D01*
X88143000Y-99249623D01*
X87381000Y-99249623D01*
X87269827Y-99270542D01*
X87167721Y-99336245D01*
X87099222Y-99436497D01*
X87075123Y-99555500D01*
X87075123Y-100444500D01*
X87096042Y-100555673D01*
X87161745Y-100657779D01*
X87261997Y-100726278D01*
X87381000Y-100750377D01*
X87489000Y-100750377D01*
X87489000Y-101249623D01*
X87317500Y-101249623D01*
X87206327Y-101270542D01*
X87104221Y-101336245D01*
X87035722Y-101436497D01*
X87029369Y-101467869D01*
X86982607Y-101354975D01*
X86883025Y-101255393D01*
X86752915Y-101201500D01*
X86480500Y-101201500D01*
X86392000Y-101290000D01*
X86084000Y-101290000D01*
X85995500Y-101201500D01*
X85723085Y-101201500D01*
X85592975Y-101255393D01*
X85493393Y-101354975D01*
X85439500Y-101485085D01*
X76700000Y-101485085D01*
X76700000Y-98904000D01*
X77757500Y-98904000D01*
X77846000Y-98815500D01*
X77846000Y-98154000D01*
X78154000Y-98154000D01*
X78154000Y-98815500D01*
X78242500Y-98904000D01*
X79370415Y-98904000D01*
X79500525Y-98850107D01*
X79600107Y-98750525D01*
X79654000Y-98620415D01*
X79654000Y-98242500D01*
X79565500Y-98154000D01*
X78154000Y-98154000D01*
X77846000Y-98154000D01*
X77826000Y-98154000D01*
X77826000Y-97846000D01*
X77846000Y-97846000D01*
X77846000Y-97184500D01*
X78154000Y-97184500D01*
X78154000Y-97846000D01*
X79565500Y-97846000D01*
X79654000Y-97757500D01*
X79654000Y-97379585D01*
X79600107Y-97249475D01*
X79500525Y-97149893D01*
X79370415Y-97096000D01*
X78242500Y-97096000D01*
X78154000Y-97184500D01*
X77846000Y-97184500D01*
X77757500Y-97096000D01*
X76629585Y-97096000D01*
X76499475Y-97149893D01*
X76399893Y-97249475D01*
X76346000Y-97379585D01*
X76346000Y-97459604D01*
X75750000Y-96863604D01*
X75750000Y-92545862D01*
X75880129Y-92599896D01*
X76118824Y-92600104D01*
X76339429Y-92508952D01*
X76394123Y-92454354D01*
X76394123Y-92550000D01*
X76415042Y-92661173D01*
X76480745Y-92763279D01*
X76580997Y-92831778D01*
X76700000Y-92855877D01*
X79300000Y-92855877D01*
X79411173Y-92834958D01*
X79513279Y-92769255D01*
X79581778Y-92669003D01*
X79605877Y-92550000D01*
X79605877Y-92400000D01*
X79987623Y-92400000D01*
X79987623Y-92444500D01*
X80008542Y-92555673D01*
X80074245Y-92657779D01*
X80174497Y-92726278D01*
X80293500Y-92750377D01*
X81182500Y-92750377D01*
X81293673Y-92729458D01*
X81395779Y-92663755D01*
X81464278Y-92563503D01*
X81488377Y-92444500D01*
X81488377Y-91555500D01*
X81467458Y-91444327D01*
X81401755Y-91342221D01*
X81301503Y-91273722D01*
X81249000Y-91263090D01*
X81249000Y-89004377D01*
X81547500Y-89004377D01*
X81658673Y-88983458D01*
X81760779Y-88917755D01*
X81829278Y-88817503D01*
X81853377Y-88698500D01*
X81853377Y-87401499D01*
X81989801Y-87401499D01*
X82142875Y-87371051D01*
X82272644Y-87284342D01*
X82629643Y-86927343D01*
X82716352Y-86797574D01*
X82725740Y-86750377D01*
X82791300Y-86750377D01*
X82902473Y-86729458D01*
X83004579Y-86663755D01*
X83073078Y-86563503D01*
X83097177Y-86444500D01*
X83097177Y-85555500D01*
X83076258Y-85444327D01*
X83010555Y-85342221D01*
X82910303Y-85273722D01*
X82791300Y-85249623D01*
X82222563Y-85249623D01*
X82544843Y-84927343D01*
X82631552Y-84797574D01*
X82640940Y-84750377D01*
X82706500Y-84750377D01*
X82817673Y-84729458D01*
X82919779Y-84663755D01*
X82988278Y-84563503D01*
X83012377Y-84444500D01*
X83012377Y-84400000D01*
X83501316Y-84400000D01*
X86350939Y-87249623D01*
X85793500Y-87249623D01*
X85682327Y-87270542D01*
X85580221Y-87336245D01*
X85511722Y-87436497D01*
X85487623Y-87555500D01*
X85487623Y-87600000D01*
X85155377Y-87600000D01*
X85155377Y-87301500D01*
X85134458Y-87190327D01*
X85068755Y-87088221D01*
X84968503Y-87019722D01*
X84849500Y-86995623D01*
X83452500Y-86995623D01*
X83341327Y-87016542D01*
X83239221Y-87082245D01*
X83170722Y-87182497D01*
X83146623Y-87301500D01*
X83146623Y-88698500D01*
X83167542Y-88809673D01*
X83233245Y-88911779D01*
X83333497Y-88980278D01*
X83452500Y-89004377D01*
X84849500Y-89004377D01*
X84960673Y-88983458D01*
X85062779Y-88917755D01*
X85131278Y-88817503D01*
X85155377Y-88698500D01*
X85155377Y-88400000D01*
X85487623Y-88400000D01*
X85487623Y-88444500D01*
X85508542Y-88555673D01*
X85574245Y-88657779D01*
X85674497Y-88726278D01*
X85793500Y-88750377D01*
X86600000Y-88750377D01*
X86600000Y-89249623D01*
X85857000Y-89249623D01*
X85745827Y-89270542D01*
X85643721Y-89336245D01*
X85575222Y-89436497D01*
X85551123Y-89555500D01*
X85551123Y-89600000D01*
X83250000Y-89600000D01*
X83096926Y-89630448D01*
X82967157Y-89717157D01*
X81979157Y-90705157D01*
X81892448Y-90834926D01*
X81879367Y-90900689D01*
X81862000Y-90988000D01*
X81862000Y-91249623D01*
X81817500Y-91249623D01*
X81706327Y-91270542D01*
X81604221Y-91336245D01*
X81535722Y-91436497D01*
X81511623Y-91555500D01*
X81511623Y-92444500D01*
X81532542Y-92555673D01*
X81598245Y-92657779D01*
X81698497Y-92726278D01*
X81817500Y-92750377D01*
X81862000Y-92750377D01*
X81862000Y-93249623D01*
X81817500Y-93249623D01*
X81706327Y-93270542D01*
X81604221Y-93336245D01*
X81535722Y-93436497D01*
X81511623Y-93555500D01*
X81511623Y-94444500D01*
X81532542Y-94555673D01*
X81561065Y-94600000D01*
X81439341Y-94600000D01*
X81464278Y-94563503D01*
X81488377Y-94444500D01*
X81488377Y-93555500D01*
X81467458Y-93444327D01*
X81401755Y-93342221D01*
X81301503Y-93273722D01*
X81182500Y-93249623D01*
X80293500Y-93249623D01*
X80182327Y-93270542D01*
X80080221Y-93336245D01*
X80011722Y-93436497D01*
X79987623Y-93555500D01*
X79987623Y-93600000D01*
X79605877Y-93600000D01*
X79605877Y-93450000D01*
X79584958Y-93338827D01*
X79519255Y-93236721D01*
X79419003Y-93168222D01*
X79300000Y-93144123D01*
X76700000Y-93144123D01*
X76588827Y-93165042D01*
X76486721Y-93230745D01*
X76418222Y-93330997D01*
X76394123Y-93450000D01*
X76394123Y-94550000D01*
X76415042Y-94661173D01*
X76480745Y-94763279D01*
X76580997Y-94831778D01*
X76700000Y-94855877D01*
X79300000Y-94855877D01*
X79411173Y-94834958D01*
X79513279Y-94769255D01*
X79581778Y-94669003D01*
X79605877Y-94550000D01*
X79605877Y-94400000D01*
X79987623Y-94400000D01*
X79987623Y-94444500D01*
X80008542Y-94555673D01*
X80074245Y-94657779D01*
X80174497Y-94726278D01*
X80293500Y-94750377D01*
X80359060Y-94750377D01*
X80368448Y-94797574D01*
X80455157Y-94927343D01*
X80777437Y-95249623D01*
X80281500Y-95249623D01*
X80170327Y-95270542D01*
X80068221Y-95336245D01*
X79999722Y-95436497D01*
X79975623Y-95555500D01*
X79975623Y-95600000D01*
X79605877Y-95600000D01*
X79605877Y-95450000D01*
X79584958Y-95338827D01*
X79519255Y-95236721D01*
X79419003Y-95168222D01*
X79300000Y-95144123D01*
X76700000Y-95144123D01*
X76588827Y-95165042D01*
X76486721Y-95230745D01*
X76418222Y-95330997D01*
X76394123Y-95450000D01*
X76394123Y-96550000D01*
X76415042Y-96661173D01*
X76480745Y-96763279D01*
X76580997Y-96831778D01*
X76700000Y-96855877D01*
X79300000Y-96855877D01*
X79411173Y-96834958D01*
X79513279Y-96769255D01*
X79581778Y-96669003D01*
X79605877Y-96550000D01*
X79605877Y-96400000D01*
X79975623Y-96400000D01*
X79975623Y-96444500D01*
X79996542Y-96555673D01*
X80062245Y-96657779D01*
X80162497Y-96726278D01*
X80281500Y-96750377D01*
X81170500Y-96750377D01*
X81281673Y-96729458D01*
X81383779Y-96663755D01*
X81452278Y-96563503D01*
X81458631Y-96532131D01*
X81505393Y-96645025D01*
X81604975Y-96744607D01*
X81735085Y-96798500D01*
X82007500Y-96798500D01*
X82096000Y-96710000D01*
X82096000Y-96154000D01*
X82404000Y-96154000D01*
X82404000Y-96710000D01*
X82492500Y-96798500D01*
X82764915Y-96798500D01*
X82895025Y-96744607D01*
X82994607Y-96645025D01*
X83048500Y-96514915D01*
X83048500Y-96242500D01*
X82960000Y-96154000D01*
X82404000Y-96154000D01*
X82096000Y-96154000D01*
X82076000Y-96154000D01*
X82076000Y-95846000D01*
X82096000Y-95846000D01*
X82096000Y-95826000D01*
X82404000Y-95826000D01*
X82404000Y-95846000D01*
X82960000Y-95846000D01*
X83048500Y-95757500D01*
X83048500Y-95485085D01*
X83013257Y-95400000D01*
X83934314Y-95400000D01*
X85487623Y-96953309D01*
X85487623Y-97444500D01*
X85508542Y-97555673D01*
X85574245Y-97657779D01*
X85674497Y-97726278D01*
X85793500Y-97750377D01*
X86600000Y-97750377D01*
X86600000Y-98754814D01*
X86105191Y-99249623D01*
X85857000Y-99249623D01*
X85745827Y-99270542D01*
X85643721Y-99336245D01*
X85575222Y-99436497D01*
X85551123Y-99555500D01*
X85551123Y-100444500D01*
X85572042Y-100555673D01*
X85637745Y-100657779D01*
X85737997Y-100726278D01*
X85857000Y-100750377D01*
X86619000Y-100750377D01*
X86730173Y-100729458D01*
X86832279Y-100663755D01*
X86900778Y-100563503D01*
X86924877Y-100444500D01*
X86924877Y-99561309D01*
X87282843Y-99203343D01*
X87369552Y-99073574D01*
X87400001Y-98920500D01*
X87400000Y-98920495D01*
X87400000Y-97750377D01*
X88206500Y-97750377D01*
X88317673Y-97729458D01*
X88419779Y-97663755D01*
X88488278Y-97563503D01*
X88512377Y-97444500D01*
X88512377Y-96555500D01*
X88491458Y-96444327D01*
X88425755Y-96342221D01*
X88325503Y-96273722D01*
X88289000Y-96266330D01*
X88289000Y-95707048D01*
X88356279Y-95663755D01*
X88424778Y-95563503D01*
X88448877Y-95444500D01*
X88448877Y-94555500D01*
X88427958Y-94444327D01*
X88362255Y-94342221D01*
X88262003Y-94273722D01*
X88143000Y-94249623D01*
X87381000Y-94249623D01*
X87269827Y-94270542D01*
X87167721Y-94336245D01*
X87099222Y-94436497D01*
X87075123Y-94555500D01*
X87075123Y-95409437D01*
X86924877Y-95259191D01*
X86924877Y-94555500D01*
X86903958Y-94444327D01*
X86838255Y-94342221D01*
X86738003Y-94273722D01*
X86619000Y-94249623D01*
X86015308Y-94249623D01*
X85482843Y-93717157D01*
X85353074Y-93630448D01*
X85200000Y-93600000D01*
X83548477Y-93600000D01*
X83440307Y-93491641D01*
X83219861Y-93400104D01*
X82981166Y-93399896D01*
X82966711Y-93405869D01*
X82925755Y-93342221D01*
X82825503Y-93273722D01*
X82706500Y-93249623D01*
X82662000Y-93249623D01*
X82662000Y-92750377D01*
X82706500Y-92750377D01*
X82817673Y-92729458D01*
X82919779Y-92663755D01*
X82988278Y-92563503D01*
X83012377Y-92444500D01*
X83012377Y-91555500D01*
X82991458Y-91444327D01*
X82925755Y-91342221D01*
X82825503Y-91273722D01*
X82706500Y-91249623D01*
X82662000Y-91249623D01*
X82662000Y-91153686D01*
X83415686Y-90400000D01*
X85551123Y-90400000D01*
X85551123Y-90444500D01*
X85572042Y-90555673D01*
X85637745Y-90657779D01*
X85737997Y-90726278D01*
X85857000Y-90750377D01*
X86600000Y-90750377D01*
X86600000Y-91072314D01*
X86422691Y-91249623D01*
X85793500Y-91249623D01*
X85682327Y-91270542D01*
X85580221Y-91336245D01*
X85511722Y-91436497D01*
X85487623Y-91555500D01*
X85487623Y-92444500D01*
X85508542Y-92555673D01*
X85574245Y-92657779D01*
X85674497Y-92726278D01*
X85793500Y-92750377D01*
X86682500Y-92750377D01*
X86793673Y-92729458D01*
X86895779Y-92663755D01*
X86964278Y-92563503D01*
X86988377Y-92444500D01*
X86988377Y-91815309D01*
X87011623Y-91792063D01*
X87011623Y-92444500D01*
X87032542Y-92555673D01*
X87098245Y-92657779D01*
X87198497Y-92726278D01*
X87317500Y-92750377D01*
X88206500Y-92750377D01*
X88317673Y-92729458D01*
X88419779Y-92663755D01*
X88488278Y-92563503D01*
X88512377Y-92444500D01*
X88512377Y-91555500D01*
X88491458Y-91444327D01*
X88425755Y-91342221D01*
X88325503Y-91273722D01*
X88289000Y-91266330D01*
X88289000Y-90707048D01*
X88356279Y-90663755D01*
X88424778Y-90563503D01*
X88448877Y-90444500D01*
X88448877Y-89555500D01*
X88427958Y-89444327D01*
X88362255Y-89342221D01*
X88262003Y-89273722D01*
X88143000Y-89249623D01*
X87400000Y-89249623D01*
X87400000Y-88750377D01*
X88206500Y-88750377D01*
X88317673Y-88729458D01*
X88419779Y-88663755D01*
X88488278Y-88563503D01*
X88512377Y-88444500D01*
X88512377Y-87555500D01*
X88491458Y-87444327D01*
X88425755Y-87342221D01*
X88325503Y-87273722D01*
X88206500Y-87249623D01*
X88140940Y-87249623D01*
X88131552Y-87202426D01*
X88044843Y-87072657D01*
X83789343Y-82817157D01*
X83659574Y-82730448D01*
X83506500Y-82700000D01*
X79600000Y-82700000D01*
X79600000Y-75350000D01*
X89650000Y-75350000D01*
X89650000Y-149650000D01*
G36*
X60120563Y-121049557D02*
X60472589Y-121402199D01*
X60932769Y-121593282D01*
X61431045Y-121593717D01*
X61714660Y-121476530D01*
X61833564Y-121595434D01*
X62145989Y-121907858D01*
X62145989Y-123913800D01*
X61400789Y-124659000D01*
X62145989Y-125404200D01*
X62145989Y-125802342D01*
X61353707Y-126594623D01*
X60051500Y-126594623D01*
X59940327Y-126615542D01*
X59838221Y-126681245D01*
X59769722Y-126781497D01*
X59745623Y-126900500D01*
X59745623Y-128050307D01*
X59289141Y-128506789D01*
X59194500Y-128487623D01*
X58305500Y-128487623D01*
X58194327Y-128508542D01*
X58092221Y-128574245D01*
X58023722Y-128674497D01*
X57999623Y-128793500D01*
X57999623Y-128811000D01*
X57750377Y-128811000D01*
X57750377Y-128793500D01*
X57729458Y-128682327D01*
X57663755Y-128580221D01*
X57563503Y-128511722D01*
X57444500Y-128487623D01*
X56555500Y-128487623D01*
X56444327Y-128508542D01*
X56342221Y-128574245D01*
X56273722Y-128674497D01*
X56249623Y-128793500D01*
X56249623Y-129682500D01*
X56270542Y-129793673D01*
X56336245Y-129895779D01*
X56436497Y-129964278D01*
X56555500Y-129988377D01*
X57444500Y-129988377D01*
X57555673Y-129967458D01*
X57657779Y-129901755D01*
X57726278Y-129801503D01*
X57750377Y-129682500D01*
X57750377Y-129665000D01*
X57999623Y-129665000D01*
X57999623Y-129682500D01*
X58020542Y-129793673D01*
X58086245Y-129895779D01*
X58186497Y-129964278D01*
X58305500Y-129988377D01*
X59194500Y-129988377D01*
X59305673Y-129967458D01*
X59407779Y-129901755D01*
X59476278Y-129801503D01*
X59500377Y-129682500D01*
X59500377Y-129503293D01*
X60400293Y-128603377D01*
X61448500Y-128603377D01*
X61559673Y-128582458D01*
X61661779Y-128516755D01*
X61730278Y-128416503D01*
X61754377Y-128297500D01*
X61754377Y-127401693D01*
X62600000Y-126556069D01*
X62600000Y-129677815D01*
X62467157Y-129810657D01*
X62380448Y-129940426D01*
X62371060Y-129987623D01*
X62305500Y-129987623D01*
X62194327Y-130008542D01*
X62092221Y-130074245D01*
X62023722Y-130174497D01*
X61999623Y-130293500D01*
X61999623Y-130350000D01*
X61754377Y-130350000D01*
X61754377Y-130202500D01*
X61733458Y-130091327D01*
X61667755Y-129989221D01*
X61567503Y-129920722D01*
X61448500Y-129896623D01*
X60051500Y-129896623D01*
X59940327Y-129917542D01*
X59838221Y-129983245D01*
X59769722Y-130083497D01*
X59745623Y-130202500D01*
X59745623Y-131599500D01*
X59750597Y-131625936D01*
X59745623Y-131650500D01*
X59745623Y-133046139D01*
X59500377Y-132800893D01*
X59500377Y-132293500D01*
X59479458Y-132182327D01*
X59413755Y-132080221D01*
X59313503Y-132011722D01*
X59292740Y-132007517D01*
X59349896Y-131869871D01*
X59350104Y-131631176D01*
X59293333Y-131493780D01*
X59305673Y-131491458D01*
X59407779Y-131425755D01*
X59476278Y-131325503D01*
X59500377Y-131206500D01*
X59500377Y-130317500D01*
X59479458Y-130206327D01*
X59413755Y-130104221D01*
X59313503Y-130035722D01*
X59194500Y-130011623D01*
X58305500Y-130011623D01*
X58194327Y-130032542D01*
X58092221Y-130098245D01*
X58023722Y-130198497D01*
X57999623Y-130317500D01*
X57999623Y-131206500D01*
X58020542Y-131317673D01*
X58086245Y-131419779D01*
X58186497Y-131488278D01*
X58207260Y-131492483D01*
X58150104Y-131630129D01*
X58149896Y-131868824D01*
X58206667Y-132006220D01*
X58194327Y-132008542D01*
X58092221Y-132074245D01*
X58023722Y-132174497D01*
X57999623Y-132293500D01*
X57999623Y-133182500D01*
X58020542Y-133293673D01*
X58086245Y-133395779D01*
X58186497Y-133464278D01*
X58305500Y-133488377D01*
X59056489Y-133488377D01*
X59079735Y-133511623D01*
X58305500Y-133511623D01*
X58194327Y-133532542D01*
X58092221Y-133598245D01*
X58023722Y-133698497D01*
X57999623Y-133817500D01*
X57999623Y-133835000D01*
X57750377Y-133835000D01*
X57750377Y-133817500D01*
X57729458Y-133706327D01*
X57663755Y-133604221D01*
X57563503Y-133535722D01*
X57444500Y-133511623D01*
X56555500Y-133511623D01*
X56444327Y-133532542D01*
X56342221Y-133598245D01*
X56273722Y-133698497D01*
X56249623Y-133817500D01*
X56249623Y-134706500D01*
X56270542Y-134817673D01*
X56323518Y-134900000D01*
X55997517Y-134900000D01*
X56048500Y-134776915D01*
X56048500Y-134504500D01*
X55960000Y-134416000D01*
X55404000Y-134416000D01*
X55404000Y-134436000D01*
X55096000Y-134436000D01*
X55096000Y-134416000D01*
X54540000Y-134416000D01*
X54451500Y-134504500D01*
X54451500Y-134776915D01*
X54502483Y-134900000D01*
X52765685Y-134900000D01*
X52304186Y-134438500D01*
X52796000Y-134438500D01*
X52796000Y-134570415D01*
X52849893Y-134700525D01*
X52949475Y-134800107D01*
X53079585Y-134854000D01*
X53257500Y-134854000D01*
X53346000Y-134765500D01*
X53346000Y-134350000D01*
X53654000Y-134350000D01*
X53654000Y-134765500D01*
X53742500Y-134854000D01*
X53920415Y-134854000D01*
X54050525Y-134800107D01*
X54150107Y-134700525D01*
X54204000Y-134570415D01*
X54204000Y-134438500D01*
X54115500Y-134350000D01*
X53654000Y-134350000D01*
X53346000Y-134350000D01*
X52884500Y-134350000D01*
X52796000Y-134438500D01*
X52304186Y-134438500D01*
X51700000Y-133834314D01*
X51700000Y-133829585D01*
X52796000Y-133829585D01*
X52796000Y-133961500D01*
X52884500Y-134050000D01*
X53346000Y-134050000D01*
X53346000Y-133634500D01*
X53654000Y-133634500D01*
X53654000Y-134050000D01*
X54115500Y-134050000D01*
X54204000Y-133961500D01*
X54204000Y-133829585D01*
X54150107Y-133699475D01*
X54050525Y-133599893D01*
X53920415Y-133546000D01*
X53742500Y-133546000D01*
X53654000Y-133634500D01*
X53346000Y-133634500D01*
X53257500Y-133546000D01*
X53079585Y-133546000D01*
X52949475Y-133599893D01*
X52849893Y-133699475D01*
X52796000Y-133829585D01*
X51700000Y-133829585D01*
X51700000Y-131703870D01*
X52844123Y-132847992D01*
X52844123Y-133100000D01*
X52865042Y-133211173D01*
X52930745Y-133313279D01*
X53030997Y-133381778D01*
X53150000Y-133405877D01*
X53850000Y-133405877D01*
X53961173Y-133384958D01*
X54063279Y-133319255D01*
X54131778Y-133219003D01*
X54148182Y-133138000D01*
X54499623Y-133138000D01*
X54499623Y-133182500D01*
X54520542Y-133293673D01*
X54586245Y-133395779D01*
X54686497Y-133464278D01*
X54717869Y-133470631D01*
X54604975Y-133517393D01*
X54505393Y-133616975D01*
X54451500Y-133747085D01*
X54451500Y-134019500D01*
X54540000Y-134108000D01*
X55096000Y-134108000D01*
X55096000Y-134088000D01*
X55404000Y-134088000D01*
X55404000Y-134108000D01*
X55960000Y-134108000D01*
X56048500Y-134019500D01*
X56048500Y-133747085D01*
X55994607Y-133616975D01*
X55895025Y-133517393D01*
X55784217Y-133471495D01*
X55805673Y-133467458D01*
X55907779Y-133401755D01*
X55976278Y-133301503D01*
X55999263Y-133188000D01*
X56250658Y-133188000D01*
X56270542Y-133293673D01*
X56336245Y-133395779D01*
X56436497Y-133464278D01*
X56555500Y-133488377D01*
X57444500Y-133488377D01*
X57555673Y-133467458D01*
X57657779Y-133401755D01*
X57726278Y-133301503D01*
X57750377Y-133182500D01*
X57750377Y-132293500D01*
X57729458Y-132182327D01*
X57663755Y-132080221D01*
X57563503Y-132011722D01*
X57444500Y-131987623D01*
X56555500Y-131987623D01*
X56444327Y-132008542D01*
X56342221Y-132074245D01*
X56273722Y-132174497D01*
X56250737Y-132288000D01*
X55999342Y-132288000D01*
X55979458Y-132182327D01*
X55913755Y-132080221D01*
X55813503Y-132011722D01*
X55694500Y-131987623D01*
X54805500Y-131987623D01*
X54694327Y-132008542D01*
X54592221Y-132074245D01*
X54523722Y-132174497D01*
X54499623Y-132293500D01*
X54499623Y-132338000D01*
X54102252Y-132338000D01*
X54069255Y-132286721D01*
X53969003Y-132218222D01*
X53850000Y-132194123D01*
X53397992Y-132194123D01*
X52177000Y-130973130D01*
X52177000Y-130030870D01*
X52844123Y-130697992D01*
X52844123Y-131000000D01*
X52865042Y-131111173D01*
X52930745Y-131213279D01*
X53030997Y-131281778D01*
X53150000Y-131305877D01*
X53850000Y-131305877D01*
X53961173Y-131284958D01*
X54063279Y-131219255D01*
X54083951Y-131189000D01*
X54499623Y-131189000D01*
X54499623Y-131206500D01*
X54520542Y-131317673D01*
X54586245Y-131419779D01*
X54686497Y-131488278D01*
X54805500Y-131512377D01*
X55694500Y-131512377D01*
X55805673Y-131491458D01*
X55907779Y-131425755D01*
X55976278Y-131325503D01*
X56000377Y-131206500D01*
X56000377Y-131189000D01*
X56249623Y-131189000D01*
X56249623Y-131206500D01*
X56270542Y-131317673D01*
X56336245Y-131419779D01*
X56436497Y-131488278D01*
X56555500Y-131512377D01*
X57444500Y-131512377D01*
X57555673Y-131491458D01*
X57657779Y-131425755D01*
X57726278Y-131325503D01*
X57750377Y-131206500D01*
X57750377Y-130317500D01*
X57729458Y-130206327D01*
X57663755Y-130104221D01*
X57563503Y-130035722D01*
X57444500Y-130011623D01*
X56555500Y-130011623D01*
X56444327Y-130032542D01*
X56342221Y-130098245D01*
X56273722Y-130198497D01*
X56249623Y-130317500D01*
X56249623Y-130335000D01*
X56000377Y-130335000D01*
X56000377Y-130317500D01*
X55979458Y-130206327D01*
X55913755Y-130104221D01*
X55813503Y-130035722D01*
X55782131Y-130029369D01*
X55895025Y-129982607D01*
X55994607Y-129883025D01*
X56048500Y-129752915D01*
X56048500Y-129480500D01*
X55960000Y-129392000D01*
X55404000Y-129392000D01*
X55404000Y-129412000D01*
X55096000Y-129412000D01*
X55096000Y-129392000D01*
X54540000Y-129392000D01*
X54451500Y-129480500D01*
X54451500Y-129752915D01*
X54505393Y-129883025D01*
X54604975Y-129982607D01*
X54715783Y-130028505D01*
X54694327Y-130032542D01*
X54592221Y-130098245D01*
X54523722Y-130198497D01*
X54499623Y-130317500D01*
X54499623Y-130335000D01*
X54143646Y-130335000D01*
X54134958Y-130288827D01*
X54069255Y-130186721D01*
X53969003Y-130118222D01*
X53850000Y-130094123D01*
X53447992Y-130094123D01*
X53282685Y-129928815D01*
X53346000Y-129865500D01*
X53346000Y-129450000D01*
X53654000Y-129450000D01*
X53654000Y-129865500D01*
X53742500Y-129954000D01*
X53920415Y-129954000D01*
X54050525Y-129900107D01*
X54150107Y-129800525D01*
X54204000Y-129670415D01*
X54204000Y-129538500D01*
X54115500Y-129450000D01*
X53654000Y-129450000D01*
X53346000Y-129450000D01*
X52884500Y-129450000D01*
X52844185Y-129490315D01*
X52631011Y-129277141D01*
X52631011Y-128929585D01*
X52796000Y-128929585D01*
X52796000Y-129061500D01*
X52884500Y-129150000D01*
X53346000Y-129150000D01*
X53346000Y-128734500D01*
X53654000Y-128734500D01*
X53654000Y-129150000D01*
X54115500Y-129150000D01*
X54204000Y-129061500D01*
X54204000Y-128929585D01*
X54150107Y-128799475D01*
X54073717Y-128723085D01*
X54451500Y-128723085D01*
X54451500Y-128995500D01*
X54540000Y-129084000D01*
X55096000Y-129084000D01*
X55096000Y-128528000D01*
X55404000Y-128528000D01*
X55404000Y-129084000D01*
X55960000Y-129084000D01*
X56048500Y-128995500D01*
X56048500Y-128723085D01*
X55994607Y-128592975D01*
X55895025Y-128493393D01*
X55764915Y-128439500D01*
X55492500Y-128439500D01*
X55404000Y-128528000D01*
X55096000Y-128528000D01*
X55007500Y-128439500D01*
X54735085Y-128439500D01*
X54604975Y-128493393D01*
X54505393Y-128592975D01*
X54451500Y-128723085D01*
X54073717Y-128723085D01*
X54050525Y-128699893D01*
X53920415Y-128646000D01*
X53742500Y-128646000D01*
X53654000Y-128734500D01*
X53346000Y-128734500D01*
X53257500Y-128646000D01*
X53079585Y-128646000D01*
X52949475Y-128699893D01*
X52849893Y-128799475D01*
X52796000Y-128929585D01*
X52631011Y-128929585D01*
X52631011Y-125640481D01*
X53053308Y-125640481D01*
X53163852Y-125819981D01*
X53657859Y-125981556D01*
X54176092Y-125941783D01*
X54470148Y-125819981D01*
X54580692Y-125640481D01*
X60419308Y-125640481D01*
X60529852Y-125819981D01*
X61023859Y-125981556D01*
X61542092Y-125941783D01*
X61836148Y-125819981D01*
X61946692Y-125640481D01*
X61183000Y-124876789D01*
X60419308Y-125640481D01*
X54580692Y-125640481D01*
X53817000Y-124876789D01*
X53053308Y-125640481D01*
X52631011Y-125640481D01*
X52631011Y-125251773D01*
X52656019Y-125312148D01*
X52835519Y-125422692D01*
X53599211Y-124659000D01*
X54034789Y-124659000D01*
X54798481Y-125422692D01*
X54977981Y-125312148D01*
X55139556Y-124818141D01*
X55115129Y-124499859D01*
X59860444Y-124499859D01*
X59900217Y-125018092D01*
X60022019Y-125312148D01*
X60201519Y-125422692D01*
X60965211Y-124659000D01*
X60201519Y-123895308D01*
X60022019Y-124005852D01*
X59860444Y-124499859D01*
X55115129Y-124499859D01*
X55099783Y-124299908D01*
X54977981Y-124005852D01*
X54798481Y-123895308D01*
X54034789Y-124659000D01*
X53599211Y-124659000D01*
X52835519Y-123895308D01*
X52656019Y-124005852D01*
X52631011Y-124082313D01*
X52631011Y-123677519D01*
X53053308Y-123677519D01*
X53817000Y-124441211D01*
X54580692Y-123677519D01*
X60419308Y-123677519D01*
X61183000Y-124441211D01*
X61946692Y-123677519D01*
X61836148Y-123498019D01*
X61342141Y-123336444D01*
X60823908Y-123376217D01*
X60529852Y-123498019D01*
X60419308Y-123677519D01*
X54580692Y-123677519D01*
X54470148Y-123498019D01*
X53976141Y-123336444D01*
X53457908Y-123376217D01*
X53163852Y-123498019D01*
X53053308Y-123677519D01*
X52631011Y-123677519D01*
X52631011Y-121484659D01*
X52645245Y-121506779D01*
X52745497Y-121575278D01*
X52864500Y-121599377D01*
X54769500Y-121599377D01*
X54880673Y-121578458D01*
X54982779Y-121512755D01*
X55051278Y-121412503D01*
X55075377Y-121293500D01*
X55075377Y-120741000D01*
X59993070Y-120741000D01*
X60120563Y-121049557D01*
X60120563Y-121049557D01*
G37*
X60120563Y-121049557D02*
X60472589Y-121402199D01*
X60932769Y-121593282D01*
X61431045Y-121593717D01*
X61714660Y-121476530D01*
X61833564Y-121595434D01*
X62145989Y-121907858D01*
X62145989Y-123913800D01*
X61400789Y-124659000D01*
X62145989Y-125404200D01*
X62145989Y-125802342D01*
X61353707Y-126594623D01*
X60051500Y-126594623D01*
X59940327Y-126615542D01*
X59838221Y-126681245D01*
X59769722Y-126781497D01*
X59745623Y-126900500D01*
X59745623Y-128050307D01*
X59289141Y-128506789D01*
X59194500Y-128487623D01*
X58305500Y-128487623D01*
X58194327Y-128508542D01*
X58092221Y-128574245D01*
X58023722Y-128674497D01*
X57999623Y-128793500D01*
X57999623Y-128811000D01*
X57750377Y-128811000D01*
X57750377Y-128793500D01*
X57729458Y-128682327D01*
X57663755Y-128580221D01*
X57563503Y-128511722D01*
X57444500Y-128487623D01*
X56555500Y-128487623D01*
X56444327Y-128508542D01*
X56342221Y-128574245D01*
X56273722Y-128674497D01*
X56249623Y-128793500D01*
X56249623Y-129682500D01*
X56270542Y-129793673D01*
X56336245Y-129895779D01*
X56436497Y-129964278D01*
X56555500Y-129988377D01*
X57444500Y-129988377D01*
X57555673Y-129967458D01*
X57657779Y-129901755D01*
X57726278Y-129801503D01*
X57750377Y-129682500D01*
X57750377Y-129665000D01*
X57999623Y-129665000D01*
X57999623Y-129682500D01*
X58020542Y-129793673D01*
X58086245Y-129895779D01*
X58186497Y-129964278D01*
X58305500Y-129988377D01*
X59194500Y-129988377D01*
X59305673Y-129967458D01*
X59407779Y-129901755D01*
X59476278Y-129801503D01*
X59500377Y-129682500D01*
X59500377Y-129503293D01*
X60400293Y-128603377D01*
X61448500Y-128603377D01*
X61559673Y-128582458D01*
X61661779Y-128516755D01*
X61730278Y-128416503D01*
X61754377Y-128297500D01*
X61754377Y-127401693D01*
X62600000Y-126556069D01*
X62600000Y-129677815D01*
X62467157Y-129810657D01*
X62380448Y-129940426D01*
X62371060Y-129987623D01*
X62305500Y-129987623D01*
X62194327Y-130008542D01*
X62092221Y-130074245D01*
X62023722Y-130174497D01*
X61999623Y-130293500D01*
X61999623Y-130350000D01*
X61754377Y-130350000D01*
X61754377Y-130202500D01*
X61733458Y-130091327D01*
X61667755Y-129989221D01*
X61567503Y-129920722D01*
X61448500Y-129896623D01*
X60051500Y-129896623D01*
X59940327Y-129917542D01*
X59838221Y-129983245D01*
X59769722Y-130083497D01*
X59745623Y-130202500D01*
X59745623Y-131599500D01*
X59750597Y-131625936D01*
X59745623Y-131650500D01*
X59745623Y-133046139D01*
X59500377Y-132800893D01*
X59500377Y-132293500D01*
X59479458Y-132182327D01*
X59413755Y-132080221D01*
X59313503Y-132011722D01*
X59292740Y-132007517D01*
X59349896Y-131869871D01*
X59350104Y-131631176D01*
X59293333Y-131493780D01*
X59305673Y-131491458D01*
X59407779Y-131425755D01*
X59476278Y-131325503D01*
X59500377Y-131206500D01*
X59500377Y-130317500D01*
X59479458Y-130206327D01*
X59413755Y-130104221D01*
X59313503Y-130035722D01*
X59194500Y-130011623D01*
X58305500Y-130011623D01*
X58194327Y-130032542D01*
X58092221Y-130098245D01*
X58023722Y-130198497D01*
X57999623Y-130317500D01*
X57999623Y-131206500D01*
X58020542Y-131317673D01*
X58086245Y-131419779D01*
X58186497Y-131488278D01*
X58207260Y-131492483D01*
X58150104Y-131630129D01*
X58149896Y-131868824D01*
X58206667Y-132006220D01*
X58194327Y-132008542D01*
X58092221Y-132074245D01*
X58023722Y-132174497D01*
X57999623Y-132293500D01*
X57999623Y-133182500D01*
X58020542Y-133293673D01*
X58086245Y-133395779D01*
X58186497Y-133464278D01*
X58305500Y-133488377D01*
X59056489Y-133488377D01*
X59079735Y-133511623D01*
X58305500Y-133511623D01*
X58194327Y-133532542D01*
X58092221Y-133598245D01*
X58023722Y-133698497D01*
X57999623Y-133817500D01*
X57999623Y-133835000D01*
X57750377Y-133835000D01*
X57750377Y-133817500D01*
X57729458Y-133706327D01*
X57663755Y-133604221D01*
X57563503Y-133535722D01*
X57444500Y-133511623D01*
X56555500Y-133511623D01*
X56444327Y-133532542D01*
X56342221Y-133598245D01*
X56273722Y-133698497D01*
X56249623Y-133817500D01*
X56249623Y-134706500D01*
X56270542Y-134817673D01*
X56323518Y-134900000D01*
X55997517Y-134900000D01*
X56048500Y-134776915D01*
X56048500Y-134504500D01*
X55960000Y-134416000D01*
X55404000Y-134416000D01*
X55404000Y-134436000D01*
X55096000Y-134436000D01*
X55096000Y-134416000D01*
X54540000Y-134416000D01*
X54451500Y-134504500D01*
X54451500Y-134776915D01*
X54502483Y-134900000D01*
X52765685Y-134900000D01*
X52304186Y-134438500D01*
X52796000Y-134438500D01*
X52796000Y-134570415D01*
X52849893Y-134700525D01*
X52949475Y-134800107D01*
X53079585Y-134854000D01*
X53257500Y-134854000D01*
X53346000Y-134765500D01*
X53346000Y-134350000D01*
X53654000Y-134350000D01*
X53654000Y-134765500D01*
X53742500Y-134854000D01*
X53920415Y-134854000D01*
X54050525Y-134800107D01*
X54150107Y-134700525D01*
X54204000Y-134570415D01*
X54204000Y-134438500D01*
X54115500Y-134350000D01*
X53654000Y-134350000D01*
X53346000Y-134350000D01*
X52884500Y-134350000D01*
X52796000Y-134438500D01*
X52304186Y-134438500D01*
X51700000Y-133834314D01*
X51700000Y-133829585D01*
X52796000Y-133829585D01*
X52796000Y-133961500D01*
X52884500Y-134050000D01*
X53346000Y-134050000D01*
X53346000Y-133634500D01*
X53654000Y-133634500D01*
X53654000Y-134050000D01*
X54115500Y-134050000D01*
X54204000Y-133961500D01*
X54204000Y-133829585D01*
X54150107Y-133699475D01*
X54050525Y-133599893D01*
X53920415Y-133546000D01*
X53742500Y-133546000D01*
X53654000Y-133634500D01*
X53346000Y-133634500D01*
X53257500Y-133546000D01*
X53079585Y-133546000D01*
X52949475Y-133599893D01*
X52849893Y-133699475D01*
X52796000Y-133829585D01*
X51700000Y-133829585D01*
X51700000Y-131703870D01*
X52844123Y-132847992D01*
X52844123Y-133100000D01*
X52865042Y-133211173D01*
X52930745Y-133313279D01*
X53030997Y-133381778D01*
X53150000Y-133405877D01*
X53850000Y-133405877D01*
X53961173Y-133384958D01*
X54063279Y-133319255D01*
X54131778Y-133219003D01*
X54148182Y-133138000D01*
X54499623Y-133138000D01*
X54499623Y-133182500D01*
X54520542Y-133293673D01*
X54586245Y-133395779D01*
X54686497Y-133464278D01*
X54717869Y-133470631D01*
X54604975Y-133517393D01*
X54505393Y-133616975D01*
X54451500Y-133747085D01*
X54451500Y-134019500D01*
X54540000Y-134108000D01*
X55096000Y-134108000D01*
X55096000Y-134088000D01*
X55404000Y-134088000D01*
X55404000Y-134108000D01*
X55960000Y-134108000D01*
X56048500Y-134019500D01*
X56048500Y-133747085D01*
X55994607Y-133616975D01*
X55895025Y-133517393D01*
X55784217Y-133471495D01*
X55805673Y-133467458D01*
X55907779Y-133401755D01*
X55976278Y-133301503D01*
X55999263Y-133188000D01*
X56250658Y-133188000D01*
X56270542Y-133293673D01*
X56336245Y-133395779D01*
X56436497Y-133464278D01*
X56555500Y-133488377D01*
X57444500Y-133488377D01*
X57555673Y-133467458D01*
X57657779Y-133401755D01*
X57726278Y-133301503D01*
X57750377Y-133182500D01*
X57750377Y-132293500D01*
X57729458Y-132182327D01*
X57663755Y-132080221D01*
X57563503Y-132011722D01*
X57444500Y-131987623D01*
X56555500Y-131987623D01*
X56444327Y-132008542D01*
X56342221Y-132074245D01*
X56273722Y-132174497D01*
X56250737Y-132288000D01*
X55999342Y-132288000D01*
X55979458Y-132182327D01*
X55913755Y-132080221D01*
X55813503Y-132011722D01*
X55694500Y-131987623D01*
X54805500Y-131987623D01*
X54694327Y-132008542D01*
X54592221Y-132074245D01*
X54523722Y-132174497D01*
X54499623Y-132293500D01*
X54499623Y-132338000D01*
X54102252Y-132338000D01*
X54069255Y-132286721D01*
X53969003Y-132218222D01*
X53850000Y-132194123D01*
X53397992Y-132194123D01*
X52177000Y-130973130D01*
X52177000Y-130030870D01*
X52844123Y-130697992D01*
X52844123Y-131000000D01*
X52865042Y-131111173D01*
X52930745Y-131213279D01*
X53030997Y-131281778D01*
X53150000Y-131305877D01*
X53850000Y-131305877D01*
X53961173Y-131284958D01*
X54063279Y-131219255D01*
X54083951Y-131189000D01*
X54499623Y-131189000D01*
X54499623Y-131206500D01*
X54520542Y-131317673D01*
X54586245Y-131419779D01*
X54686497Y-131488278D01*
X54805500Y-131512377D01*
X55694500Y-131512377D01*
X55805673Y-131491458D01*
X55907779Y-131425755D01*
X55976278Y-131325503D01*
X56000377Y-131206500D01*
X56000377Y-131189000D01*
X56249623Y-131189000D01*
X56249623Y-131206500D01*
X56270542Y-131317673D01*
X56336245Y-131419779D01*
X56436497Y-131488278D01*
X56555500Y-131512377D01*
X57444500Y-131512377D01*
X57555673Y-131491458D01*
X57657779Y-131425755D01*
X57726278Y-131325503D01*
X57750377Y-131206500D01*
X57750377Y-130317500D01*
X57729458Y-130206327D01*
X57663755Y-130104221D01*
X57563503Y-130035722D01*
X57444500Y-130011623D01*
X56555500Y-130011623D01*
X56444327Y-130032542D01*
X56342221Y-130098245D01*
X56273722Y-130198497D01*
X56249623Y-130317500D01*
X56249623Y-130335000D01*
X56000377Y-130335000D01*
X56000377Y-130317500D01*
X55979458Y-130206327D01*
X55913755Y-130104221D01*
X55813503Y-130035722D01*
X55782131Y-130029369D01*
X55895025Y-129982607D01*
X55994607Y-129883025D01*
X56048500Y-129752915D01*
X56048500Y-129480500D01*
X55960000Y-129392000D01*
X55404000Y-129392000D01*
X55404000Y-129412000D01*
X55096000Y-129412000D01*
X55096000Y-129392000D01*
X54540000Y-129392000D01*
X54451500Y-129480500D01*
X54451500Y-129752915D01*
X54505393Y-129883025D01*
X54604975Y-129982607D01*
X54715783Y-130028505D01*
X54694327Y-130032542D01*
X54592221Y-130098245D01*
X54523722Y-130198497D01*
X54499623Y-130317500D01*
X54499623Y-130335000D01*
X54143646Y-130335000D01*
X54134958Y-130288827D01*
X54069255Y-130186721D01*
X53969003Y-130118222D01*
X53850000Y-130094123D01*
X53447992Y-130094123D01*
X53282685Y-129928815D01*
X53346000Y-129865500D01*
X53346000Y-129450000D01*
X53654000Y-129450000D01*
X53654000Y-129865500D01*
X53742500Y-129954000D01*
X53920415Y-129954000D01*
X54050525Y-129900107D01*
X54150107Y-129800525D01*
X54204000Y-129670415D01*
X54204000Y-129538500D01*
X54115500Y-129450000D01*
X53654000Y-129450000D01*
X53346000Y-129450000D01*
X52884500Y-129450000D01*
X52844185Y-129490315D01*
X52631011Y-129277141D01*
X52631011Y-128929585D01*
X52796000Y-128929585D01*
X52796000Y-129061500D01*
X52884500Y-129150000D01*
X53346000Y-129150000D01*
X53346000Y-128734500D01*
X53654000Y-128734500D01*
X53654000Y-129150000D01*
X54115500Y-129150000D01*
X54204000Y-129061500D01*
X54204000Y-128929585D01*
X54150107Y-128799475D01*
X54073717Y-128723085D01*
X54451500Y-128723085D01*
X54451500Y-128995500D01*
X54540000Y-129084000D01*
X55096000Y-129084000D01*
X55096000Y-128528000D01*
X55404000Y-128528000D01*
X55404000Y-129084000D01*
X55960000Y-129084000D01*
X56048500Y-128995500D01*
X56048500Y-128723085D01*
X55994607Y-128592975D01*
X55895025Y-128493393D01*
X55764915Y-128439500D01*
X55492500Y-128439500D01*
X55404000Y-128528000D01*
X55096000Y-128528000D01*
X55007500Y-128439500D01*
X54735085Y-128439500D01*
X54604975Y-128493393D01*
X54505393Y-128592975D01*
X54451500Y-128723085D01*
X54073717Y-128723085D01*
X54050525Y-128699893D01*
X53920415Y-128646000D01*
X53742500Y-128646000D01*
X53654000Y-128734500D01*
X53346000Y-128734500D01*
X53257500Y-128646000D01*
X53079585Y-128646000D01*
X52949475Y-128699893D01*
X52849893Y-128799475D01*
X52796000Y-128929585D01*
X52631011Y-128929585D01*
X52631011Y-125640481D01*
X53053308Y-125640481D01*
X53163852Y-125819981D01*
X53657859Y-125981556D01*
X54176092Y-125941783D01*
X54470148Y-125819981D01*
X54580692Y-125640481D01*
X60419308Y-125640481D01*
X60529852Y-125819981D01*
X61023859Y-125981556D01*
X61542092Y-125941783D01*
X61836148Y-125819981D01*
X61946692Y-125640481D01*
X61183000Y-124876789D01*
X60419308Y-125640481D01*
X54580692Y-125640481D01*
X53817000Y-124876789D01*
X53053308Y-125640481D01*
X52631011Y-125640481D01*
X52631011Y-125251773D01*
X52656019Y-125312148D01*
X52835519Y-125422692D01*
X53599211Y-124659000D01*
X54034789Y-124659000D01*
X54798481Y-125422692D01*
X54977981Y-125312148D01*
X55139556Y-124818141D01*
X55115129Y-124499859D01*
X59860444Y-124499859D01*
X59900217Y-125018092D01*
X60022019Y-125312148D01*
X60201519Y-125422692D01*
X60965211Y-124659000D01*
X60201519Y-123895308D01*
X60022019Y-124005852D01*
X59860444Y-124499859D01*
X55115129Y-124499859D01*
X55099783Y-124299908D01*
X54977981Y-124005852D01*
X54798481Y-123895308D01*
X54034789Y-124659000D01*
X53599211Y-124659000D01*
X52835519Y-123895308D01*
X52656019Y-124005852D01*
X52631011Y-124082313D01*
X52631011Y-123677519D01*
X53053308Y-123677519D01*
X53817000Y-124441211D01*
X54580692Y-123677519D01*
X60419308Y-123677519D01*
X61183000Y-124441211D01*
X61946692Y-123677519D01*
X61836148Y-123498019D01*
X61342141Y-123336444D01*
X60823908Y-123376217D01*
X60529852Y-123498019D01*
X60419308Y-123677519D01*
X54580692Y-123677519D01*
X54470148Y-123498019D01*
X53976141Y-123336444D01*
X53457908Y-123376217D01*
X53163852Y-123498019D01*
X53053308Y-123677519D01*
X52631011Y-123677519D01*
X52631011Y-121484659D01*
X52645245Y-121506779D01*
X52745497Y-121575278D01*
X52864500Y-121599377D01*
X54769500Y-121599377D01*
X54880673Y-121578458D01*
X54982779Y-121512755D01*
X55051278Y-121412503D01*
X55075377Y-121293500D01*
X55075377Y-120741000D01*
X59993070Y-120741000D01*
X60120563Y-121049557D01*
G36*
X85120563Y-121049557D02*
X85472589Y-121402199D01*
X85932769Y-121593282D01*
X86431045Y-121593717D01*
X86891557Y-121403437D01*
X87244199Y-121051411D01*
X87299989Y-120917053D01*
X87299989Y-123978760D01*
X87164481Y-123895308D01*
X86400789Y-124659000D01*
X87164481Y-125422692D01*
X87299989Y-125339240D01*
X87299989Y-129313615D01*
X87139552Y-129474052D01*
X87115500Y-129450000D01*
X86654000Y-129450000D01*
X86654000Y-129865500D01*
X86701052Y-129912552D01*
X86519481Y-130094123D01*
X86150000Y-130094123D01*
X86038827Y-130115042D01*
X85936721Y-130180745D01*
X85868222Y-130280997D01*
X85861944Y-130312000D01*
X85499342Y-130312000D01*
X85479458Y-130206327D01*
X85413755Y-130104221D01*
X85313503Y-130035722D01*
X85282131Y-130029369D01*
X85395025Y-129982607D01*
X85494607Y-129883025D01*
X85548500Y-129752915D01*
X85548500Y-129538500D01*
X85796000Y-129538500D01*
X85796000Y-129670415D01*
X85849893Y-129800525D01*
X85949475Y-129900107D01*
X86079585Y-129954000D01*
X86257500Y-129954000D01*
X86346000Y-129865500D01*
X86346000Y-129450000D01*
X85884500Y-129450000D01*
X85796000Y-129538500D01*
X85548500Y-129538500D01*
X85548500Y-129480500D01*
X85460000Y-129392000D01*
X84904000Y-129392000D01*
X84904000Y-129412000D01*
X84596000Y-129412000D01*
X84596000Y-129392000D01*
X84040000Y-129392000D01*
X83951500Y-129480500D01*
X83951500Y-129752915D01*
X84005393Y-129883025D01*
X84104975Y-129982607D01*
X84215783Y-130028505D01*
X84194327Y-130032542D01*
X84092221Y-130098245D01*
X84023722Y-130198497D01*
X84000737Y-130312000D01*
X83749342Y-130312000D01*
X83729458Y-130206327D01*
X83663755Y-130104221D01*
X83563503Y-130035722D01*
X83444500Y-130011623D01*
X82555500Y-130011623D01*
X82444327Y-130032542D01*
X82342221Y-130098245D01*
X82273722Y-130198497D01*
X82249623Y-130317500D01*
X82249623Y-131206500D01*
X82270542Y-131317673D01*
X82336245Y-131419779D01*
X82436497Y-131488278D01*
X82555500Y-131512377D01*
X83444500Y-131512377D01*
X83555673Y-131491458D01*
X83657779Y-131425755D01*
X83726278Y-131325503D01*
X83749263Y-131212000D01*
X84000658Y-131212000D01*
X84020542Y-131317673D01*
X84086245Y-131419779D01*
X84186497Y-131488278D01*
X84305500Y-131512377D01*
X85194500Y-131512377D01*
X85305673Y-131491458D01*
X85407779Y-131425755D01*
X85476278Y-131325503D01*
X85499263Y-131212000D01*
X85929922Y-131212000D01*
X85930745Y-131213279D01*
X86030997Y-131281778D01*
X86150000Y-131305877D01*
X86850000Y-131305877D01*
X86961173Y-131284958D01*
X87063279Y-131219255D01*
X87131778Y-131119003D01*
X87155877Y-131000000D01*
X87155877Y-130730519D01*
X87800000Y-130086396D01*
X87800000Y-131063604D01*
X86669481Y-132194123D01*
X86150000Y-132194123D01*
X86038827Y-132215042D01*
X85936721Y-132280745D01*
X85923565Y-132300000D01*
X85500377Y-132300000D01*
X85500377Y-132293500D01*
X85479458Y-132182327D01*
X85413755Y-132080221D01*
X85313503Y-132011722D01*
X85194500Y-131987623D01*
X84305500Y-131987623D01*
X84194327Y-132008542D01*
X84092221Y-132074245D01*
X84023722Y-132174497D01*
X84000737Y-132288000D01*
X83749342Y-132288000D01*
X83729458Y-132182327D01*
X83663755Y-132080221D01*
X83563503Y-132011722D01*
X83444500Y-131987623D01*
X82555500Y-131987623D01*
X82444327Y-132008542D01*
X82342221Y-132074245D01*
X82273722Y-132174497D01*
X82249623Y-132293500D01*
X82249623Y-133117499D01*
X82000377Y-133117499D01*
X82000377Y-132293500D01*
X81979458Y-132182327D01*
X81913755Y-132080221D01*
X81813503Y-132011722D01*
X81700000Y-131988737D01*
X81700000Y-131511342D01*
X81805673Y-131491458D01*
X81907779Y-131425755D01*
X81976278Y-131325503D01*
X82000377Y-131206500D01*
X82000377Y-130317500D01*
X81979458Y-130206327D01*
X81913755Y-130104221D01*
X81813503Y-130035722D01*
X81694500Y-130011623D01*
X80805500Y-130011623D01*
X80694327Y-130032542D01*
X80592221Y-130098245D01*
X80523722Y-130198497D01*
X80499623Y-130317500D01*
X80499623Y-131206500D01*
X80520542Y-131317673D01*
X80586245Y-131419779D01*
X80686497Y-131488278D01*
X80800000Y-131511263D01*
X80800000Y-131988658D01*
X80694327Y-132008542D01*
X80592221Y-132074245D01*
X80523722Y-132174497D01*
X80499623Y-132293500D01*
X80499623Y-133182500D01*
X80520542Y-133293673D01*
X80586245Y-133395779D01*
X80686497Y-133464278D01*
X80805500Y-133488377D01*
X80878467Y-133488377D01*
X80894000Y-133511623D01*
X80805500Y-133511623D01*
X80694327Y-133532542D01*
X80592221Y-133598245D01*
X80523722Y-133698497D01*
X80499623Y-133817500D01*
X80499623Y-134158507D01*
X79761507Y-134896623D01*
X78976493Y-134896623D01*
X78427000Y-134347130D01*
X78427000Y-133575522D01*
X78432497Y-133579278D01*
X78551500Y-133603377D01*
X79948500Y-133603377D01*
X80059673Y-133582458D01*
X80161779Y-133516755D01*
X80230278Y-133416503D01*
X80254377Y-133297500D01*
X80254377Y-131900500D01*
X80233458Y-131789327D01*
X80208445Y-131750456D01*
X80230278Y-131718503D01*
X80254377Y-131599500D01*
X80254377Y-130202500D01*
X80233458Y-130091327D01*
X80167755Y-129989221D01*
X80067503Y-129920722D01*
X79948500Y-129896623D01*
X79661353Y-129896623D01*
X79568198Y-129757208D01*
X77956001Y-128145011D01*
X78111800Y-128176000D01*
X78245623Y-128176000D01*
X78245623Y-128297500D01*
X78266542Y-128408673D01*
X78332245Y-128510779D01*
X78432497Y-128579278D01*
X78551500Y-128603377D01*
X79948500Y-128603377D01*
X79974154Y-128598550D01*
X80499623Y-129124019D01*
X80499623Y-129682500D01*
X80520542Y-129793673D01*
X80586245Y-129895779D01*
X80686497Y-129964278D01*
X80805500Y-129988377D01*
X81694500Y-129988377D01*
X81805673Y-129967458D01*
X81907779Y-129901755D01*
X81976278Y-129801503D01*
X81999263Y-129688000D01*
X82250658Y-129688000D01*
X82270542Y-129793673D01*
X82336245Y-129895779D01*
X82436497Y-129964278D01*
X82555500Y-129988377D01*
X83444500Y-129988377D01*
X83555673Y-129967458D01*
X83657779Y-129901755D01*
X83726278Y-129801503D01*
X83750377Y-129682500D01*
X83750377Y-128793500D01*
X83737128Y-128723085D01*
X83951500Y-128723085D01*
X83951500Y-128995500D01*
X84040000Y-129084000D01*
X84596000Y-129084000D01*
X84596000Y-128528000D01*
X84904000Y-128528000D01*
X84904000Y-129084000D01*
X85460000Y-129084000D01*
X85548500Y-128995500D01*
X85548500Y-128929585D01*
X85796000Y-128929585D01*
X85796000Y-129061500D01*
X85884500Y-129150000D01*
X86346000Y-129150000D01*
X86346000Y-128734500D01*
X86654000Y-128734500D01*
X86654000Y-129150000D01*
X87115500Y-129150000D01*
X87204000Y-129061500D01*
X87204000Y-128929585D01*
X87150107Y-128799475D01*
X87050525Y-128699893D01*
X86920415Y-128646000D01*
X86742500Y-128646000D01*
X86654000Y-128734500D01*
X86346000Y-128734500D01*
X86257500Y-128646000D01*
X86079585Y-128646000D01*
X85949475Y-128699893D01*
X85849893Y-128799475D01*
X85796000Y-128929585D01*
X85548500Y-128929585D01*
X85548500Y-128723085D01*
X85494607Y-128592975D01*
X85395025Y-128493393D01*
X85264915Y-128439500D01*
X84992500Y-128439500D01*
X84904000Y-128528000D01*
X84596000Y-128528000D01*
X84507500Y-128439500D01*
X84235085Y-128439500D01*
X84104975Y-128493393D01*
X84005393Y-128592975D01*
X83951500Y-128723085D01*
X83737128Y-128723085D01*
X83729458Y-128682327D01*
X83663755Y-128580221D01*
X83563503Y-128511722D01*
X83444500Y-128487623D01*
X82555500Y-128487623D01*
X82444327Y-128508542D01*
X82342221Y-128574245D01*
X82273722Y-128674497D01*
X82250737Y-128788000D01*
X81999342Y-128788000D01*
X81979458Y-128682327D01*
X81913755Y-128580221D01*
X81813503Y-128511722D01*
X81694500Y-128487623D01*
X81136019Y-128487623D01*
X80254377Y-127605981D01*
X80254377Y-126900500D01*
X80233458Y-126789327D01*
X80167755Y-126687221D01*
X80067503Y-126618722D01*
X79948500Y-126594623D01*
X78551500Y-126594623D01*
X78440327Y-126615542D01*
X78338221Y-126681245D01*
X78269722Y-126781497D01*
X78245623Y-126900500D01*
X78245623Y-127223427D01*
X77927010Y-126904814D01*
X77927010Y-125650108D01*
X77985347Y-125708445D01*
X78053309Y-125640483D01*
X78163852Y-125819981D01*
X78657859Y-125981556D01*
X79176092Y-125941783D01*
X79470148Y-125819981D01*
X79580692Y-125640481D01*
X85419308Y-125640481D01*
X85529852Y-125819981D01*
X86023859Y-125981556D01*
X86542092Y-125941783D01*
X86836148Y-125819981D01*
X86946692Y-125640481D01*
X86183000Y-124876789D01*
X85419308Y-125640481D01*
X79580692Y-125640481D01*
X78817000Y-124876789D01*
X78802858Y-124890931D01*
X78585069Y-124673142D01*
X78599211Y-124659000D01*
X79034789Y-124659000D01*
X79798481Y-125422692D01*
X79977981Y-125312148D01*
X80139556Y-124818141D01*
X80115129Y-124499859D01*
X84860444Y-124499859D01*
X84900217Y-125018092D01*
X85022019Y-125312148D01*
X85201519Y-125422692D01*
X85965211Y-124659000D01*
X85201519Y-123895308D01*
X85022019Y-124005852D01*
X84860444Y-124499859D01*
X80115129Y-124499859D01*
X80099783Y-124299908D01*
X79977981Y-124005852D01*
X79798481Y-123895308D01*
X79034789Y-124659000D01*
X78599211Y-124659000D01*
X78585069Y-124644858D01*
X78802858Y-124427069D01*
X78817000Y-124441211D01*
X79580692Y-123677519D01*
X85419308Y-123677519D01*
X86183000Y-124441211D01*
X86946692Y-123677519D01*
X86836148Y-123498019D01*
X86342141Y-123336444D01*
X85823908Y-123376217D01*
X85529852Y-123498019D01*
X85419308Y-123677519D01*
X79580692Y-123677519D01*
X79470148Y-123498019D01*
X78976141Y-123336444D01*
X78457908Y-123376217D01*
X78163852Y-123498019D01*
X78053309Y-123677517D01*
X77985347Y-123609555D01*
X77927010Y-123667892D01*
X77927010Y-121709386D01*
X78037019Y-121599377D01*
X79769500Y-121599377D01*
X79880673Y-121578458D01*
X79982779Y-121512755D01*
X80051278Y-121412503D01*
X80075377Y-121293500D01*
X80075377Y-120768000D01*
X85004226Y-120768000D01*
X85120563Y-121049557D01*
X85120563Y-121049557D01*
G37*
X85120563Y-121049557D02*
X85472589Y-121402199D01*
X85932769Y-121593282D01*
X86431045Y-121593717D01*
X86891557Y-121403437D01*
X87244199Y-121051411D01*
X87299989Y-120917053D01*
X87299989Y-123978760D01*
X87164481Y-123895308D01*
X86400789Y-124659000D01*
X87164481Y-125422692D01*
X87299989Y-125339240D01*
X87299989Y-129313615D01*
X87139552Y-129474052D01*
X87115500Y-129450000D01*
X86654000Y-129450000D01*
X86654000Y-129865500D01*
X86701052Y-129912552D01*
X86519481Y-130094123D01*
X86150000Y-130094123D01*
X86038827Y-130115042D01*
X85936721Y-130180745D01*
X85868222Y-130280997D01*
X85861944Y-130312000D01*
X85499342Y-130312000D01*
X85479458Y-130206327D01*
X85413755Y-130104221D01*
X85313503Y-130035722D01*
X85282131Y-130029369D01*
X85395025Y-129982607D01*
X85494607Y-129883025D01*
X85548500Y-129752915D01*
X85548500Y-129538500D01*
X85796000Y-129538500D01*
X85796000Y-129670415D01*
X85849893Y-129800525D01*
X85949475Y-129900107D01*
X86079585Y-129954000D01*
X86257500Y-129954000D01*
X86346000Y-129865500D01*
X86346000Y-129450000D01*
X85884500Y-129450000D01*
X85796000Y-129538500D01*
X85548500Y-129538500D01*
X85548500Y-129480500D01*
X85460000Y-129392000D01*
X84904000Y-129392000D01*
X84904000Y-129412000D01*
X84596000Y-129412000D01*
X84596000Y-129392000D01*
X84040000Y-129392000D01*
X83951500Y-129480500D01*
X83951500Y-129752915D01*
X84005393Y-129883025D01*
X84104975Y-129982607D01*
X84215783Y-130028505D01*
X84194327Y-130032542D01*
X84092221Y-130098245D01*
X84023722Y-130198497D01*
X84000737Y-130312000D01*
X83749342Y-130312000D01*
X83729458Y-130206327D01*
X83663755Y-130104221D01*
X83563503Y-130035722D01*
X83444500Y-130011623D01*
X82555500Y-130011623D01*
X82444327Y-130032542D01*
X82342221Y-130098245D01*
X82273722Y-130198497D01*
X82249623Y-130317500D01*
X82249623Y-131206500D01*
X82270542Y-131317673D01*
X82336245Y-131419779D01*
X82436497Y-131488278D01*
X82555500Y-131512377D01*
X83444500Y-131512377D01*
X83555673Y-131491458D01*
X83657779Y-131425755D01*
X83726278Y-131325503D01*
X83749263Y-131212000D01*
X84000658Y-131212000D01*
X84020542Y-131317673D01*
X84086245Y-131419779D01*
X84186497Y-131488278D01*
X84305500Y-131512377D01*
X85194500Y-131512377D01*
X85305673Y-131491458D01*
X85407779Y-131425755D01*
X85476278Y-131325503D01*
X85499263Y-131212000D01*
X85929922Y-131212000D01*
X85930745Y-131213279D01*
X86030997Y-131281778D01*
X86150000Y-131305877D01*
X86850000Y-131305877D01*
X86961173Y-131284958D01*
X87063279Y-131219255D01*
X87131778Y-131119003D01*
X87155877Y-131000000D01*
X87155877Y-130730519D01*
X87800000Y-130086396D01*
X87800000Y-131063604D01*
X86669481Y-132194123D01*
X86150000Y-132194123D01*
X86038827Y-132215042D01*
X85936721Y-132280745D01*
X85923565Y-132300000D01*
X85500377Y-132300000D01*
X85500377Y-132293500D01*
X85479458Y-132182327D01*
X85413755Y-132080221D01*
X85313503Y-132011722D01*
X85194500Y-131987623D01*
X84305500Y-131987623D01*
X84194327Y-132008542D01*
X84092221Y-132074245D01*
X84023722Y-132174497D01*
X84000737Y-132288000D01*
X83749342Y-132288000D01*
X83729458Y-132182327D01*
X83663755Y-132080221D01*
X83563503Y-132011722D01*
X83444500Y-131987623D01*
X82555500Y-131987623D01*
X82444327Y-132008542D01*
X82342221Y-132074245D01*
X82273722Y-132174497D01*
X82249623Y-132293500D01*
X82249623Y-133117499D01*
X82000377Y-133117499D01*
X82000377Y-132293500D01*
X81979458Y-132182327D01*
X81913755Y-132080221D01*
X81813503Y-132011722D01*
X81700000Y-131988737D01*
X81700000Y-131511342D01*
X81805673Y-131491458D01*
X81907779Y-131425755D01*
X81976278Y-131325503D01*
X82000377Y-131206500D01*
X82000377Y-130317500D01*
X81979458Y-130206327D01*
X81913755Y-130104221D01*
X81813503Y-130035722D01*
X81694500Y-130011623D01*
X80805500Y-130011623D01*
X80694327Y-130032542D01*
X80592221Y-130098245D01*
X80523722Y-130198497D01*
X80499623Y-130317500D01*
X80499623Y-131206500D01*
X80520542Y-131317673D01*
X80586245Y-131419779D01*
X80686497Y-131488278D01*
X80800000Y-131511263D01*
X80800000Y-131988658D01*
X80694327Y-132008542D01*
X80592221Y-132074245D01*
X80523722Y-132174497D01*
X80499623Y-132293500D01*
X80499623Y-133182500D01*
X80520542Y-133293673D01*
X80586245Y-133395779D01*
X80686497Y-133464278D01*
X80805500Y-133488377D01*
X80878467Y-133488377D01*
X80894000Y-133511623D01*
X80805500Y-133511623D01*
X80694327Y-133532542D01*
X80592221Y-133598245D01*
X80523722Y-133698497D01*
X80499623Y-133817500D01*
X80499623Y-134158507D01*
X79761507Y-134896623D01*
X78976493Y-134896623D01*
X78427000Y-134347130D01*
X78427000Y-133575522D01*
X78432497Y-133579278D01*
X78551500Y-133603377D01*
X79948500Y-133603377D01*
X80059673Y-133582458D01*
X80161779Y-133516755D01*
X80230278Y-133416503D01*
X80254377Y-133297500D01*
X80254377Y-131900500D01*
X80233458Y-131789327D01*
X80208445Y-131750456D01*
X80230278Y-131718503D01*
X80254377Y-131599500D01*
X80254377Y-130202500D01*
X80233458Y-130091327D01*
X80167755Y-129989221D01*
X80067503Y-129920722D01*
X79948500Y-129896623D01*
X79661353Y-129896623D01*
X79568198Y-129757208D01*
X77956001Y-128145011D01*
X78111800Y-128176000D01*
X78245623Y-128176000D01*
X78245623Y-128297500D01*
X78266542Y-128408673D01*
X78332245Y-128510779D01*
X78432497Y-128579278D01*
X78551500Y-128603377D01*
X79948500Y-128603377D01*
X79974154Y-128598550D01*
X80499623Y-129124019D01*
X80499623Y-129682500D01*
X80520542Y-129793673D01*
X80586245Y-129895779D01*
X80686497Y-129964278D01*
X80805500Y-129988377D01*
X81694500Y-129988377D01*
X81805673Y-129967458D01*
X81907779Y-129901755D01*
X81976278Y-129801503D01*
X81999263Y-129688000D01*
X82250658Y-129688000D01*
X82270542Y-129793673D01*
X82336245Y-129895779D01*
X82436497Y-129964278D01*
X82555500Y-129988377D01*
X83444500Y-129988377D01*
X83555673Y-129967458D01*
X83657779Y-129901755D01*
X83726278Y-129801503D01*
X83750377Y-129682500D01*
X83750377Y-128793500D01*
X83737128Y-128723085D01*
X83951500Y-128723085D01*
X83951500Y-128995500D01*
X84040000Y-129084000D01*
X84596000Y-129084000D01*
X84596000Y-128528000D01*
X84904000Y-128528000D01*
X84904000Y-129084000D01*
X85460000Y-129084000D01*
X85548500Y-128995500D01*
X85548500Y-128929585D01*
X85796000Y-128929585D01*
X85796000Y-129061500D01*
X85884500Y-129150000D01*
X86346000Y-129150000D01*
X86346000Y-128734500D01*
X86654000Y-128734500D01*
X86654000Y-129150000D01*
X87115500Y-129150000D01*
X87204000Y-129061500D01*
X87204000Y-128929585D01*
X87150107Y-128799475D01*
X87050525Y-128699893D01*
X86920415Y-128646000D01*
X86742500Y-128646000D01*
X86654000Y-128734500D01*
X86346000Y-128734500D01*
X86257500Y-128646000D01*
X86079585Y-128646000D01*
X85949475Y-128699893D01*
X85849893Y-128799475D01*
X85796000Y-128929585D01*
X85548500Y-128929585D01*
X85548500Y-128723085D01*
X85494607Y-128592975D01*
X85395025Y-128493393D01*
X85264915Y-128439500D01*
X84992500Y-128439500D01*
X84904000Y-128528000D01*
X84596000Y-128528000D01*
X84507500Y-128439500D01*
X84235085Y-128439500D01*
X84104975Y-128493393D01*
X84005393Y-128592975D01*
X83951500Y-128723085D01*
X83737128Y-128723085D01*
X83729458Y-128682327D01*
X83663755Y-128580221D01*
X83563503Y-128511722D01*
X83444500Y-128487623D01*
X82555500Y-128487623D01*
X82444327Y-128508542D01*
X82342221Y-128574245D01*
X82273722Y-128674497D01*
X82250737Y-128788000D01*
X81999342Y-128788000D01*
X81979458Y-128682327D01*
X81913755Y-128580221D01*
X81813503Y-128511722D01*
X81694500Y-128487623D01*
X81136019Y-128487623D01*
X80254377Y-127605981D01*
X80254377Y-126900500D01*
X80233458Y-126789327D01*
X80167755Y-126687221D01*
X80067503Y-126618722D01*
X79948500Y-126594623D01*
X78551500Y-126594623D01*
X78440327Y-126615542D01*
X78338221Y-126681245D01*
X78269722Y-126781497D01*
X78245623Y-126900500D01*
X78245623Y-127223427D01*
X77927010Y-126904814D01*
X77927010Y-125650108D01*
X77985347Y-125708445D01*
X78053309Y-125640483D01*
X78163852Y-125819981D01*
X78657859Y-125981556D01*
X79176092Y-125941783D01*
X79470148Y-125819981D01*
X79580692Y-125640481D01*
X85419308Y-125640481D01*
X85529852Y-125819981D01*
X86023859Y-125981556D01*
X86542092Y-125941783D01*
X86836148Y-125819981D01*
X86946692Y-125640481D01*
X86183000Y-124876789D01*
X85419308Y-125640481D01*
X79580692Y-125640481D01*
X78817000Y-124876789D01*
X78802858Y-124890931D01*
X78585069Y-124673142D01*
X78599211Y-124659000D01*
X79034789Y-124659000D01*
X79798481Y-125422692D01*
X79977981Y-125312148D01*
X80139556Y-124818141D01*
X80115129Y-124499859D01*
X84860444Y-124499859D01*
X84900217Y-125018092D01*
X85022019Y-125312148D01*
X85201519Y-125422692D01*
X85965211Y-124659000D01*
X85201519Y-123895308D01*
X85022019Y-124005852D01*
X84860444Y-124499859D01*
X80115129Y-124499859D01*
X80099783Y-124299908D01*
X79977981Y-124005852D01*
X79798481Y-123895308D01*
X79034789Y-124659000D01*
X78599211Y-124659000D01*
X78585069Y-124644858D01*
X78802858Y-124427069D01*
X78817000Y-124441211D01*
X79580692Y-123677519D01*
X85419308Y-123677519D01*
X86183000Y-124441211D01*
X86946692Y-123677519D01*
X86836148Y-123498019D01*
X86342141Y-123336444D01*
X85823908Y-123376217D01*
X85529852Y-123498019D01*
X85419308Y-123677519D01*
X79580692Y-123677519D01*
X79470148Y-123498019D01*
X78976141Y-123336444D01*
X78457908Y-123376217D01*
X78163852Y-123498019D01*
X78053309Y-123677517D01*
X77985347Y-123609555D01*
X77927010Y-123667892D01*
X77927010Y-121709386D01*
X78037019Y-121599377D01*
X79769500Y-121599377D01*
X79880673Y-121578458D01*
X79982779Y-121512755D01*
X80051278Y-121412503D01*
X80075377Y-121293500D01*
X80075377Y-120768000D01*
X85004226Y-120768000D01*
X85120563Y-121049557D01*
G36*
X67921200Y-124530228D02*
X67921200Y-124625265D01*
X67863421Y-124662445D01*
X67794922Y-124762697D01*
X67788569Y-124794069D01*
X67741807Y-124681175D01*
X67642225Y-124581593D01*
X67512115Y-124527700D01*
X67239700Y-124527700D01*
X67151200Y-124616200D01*
X67151200Y-125172200D01*
X67171200Y-125172200D01*
X67171200Y-125480200D01*
X67151200Y-125480200D01*
X67151200Y-126036200D01*
X67239700Y-126124700D01*
X67512115Y-126124700D01*
X67642225Y-126070807D01*
X67741807Y-125971225D01*
X67787705Y-125860417D01*
X67791742Y-125881873D01*
X67857445Y-125983979D01*
X67957697Y-126052478D01*
X68076700Y-126076577D01*
X68965700Y-126076577D01*
X69076873Y-126055658D01*
X69178979Y-125989955D01*
X69222541Y-125926200D01*
X69471265Y-125926200D01*
X69508445Y-125983979D01*
X69572200Y-126027541D01*
X69572200Y-126422200D01*
X69617872Y-126651810D01*
X69747936Y-126846464D01*
X73751472Y-130850000D01*
X65150000Y-130850000D01*
X65150000Y-129762377D01*
X65194500Y-129762377D01*
X65305673Y-129741458D01*
X65407779Y-129675755D01*
X65476278Y-129575503D01*
X65500377Y-129456500D01*
X65500377Y-128567500D01*
X65479458Y-128456327D01*
X65413755Y-128354221D01*
X65313503Y-128285722D01*
X65194500Y-128261623D01*
X64305500Y-128261623D01*
X64194327Y-128282542D01*
X64092221Y-128348245D01*
X64023722Y-128448497D01*
X63999623Y-128567500D01*
X63999623Y-129456500D01*
X64020542Y-129567673D01*
X64086245Y-129669779D01*
X64186497Y-129738278D01*
X64305500Y-129762377D01*
X64350000Y-129762377D01*
X64350000Y-130740815D01*
X64240814Y-130850000D01*
X63750005Y-130850000D01*
X63750000Y-130849999D01*
X63596927Y-130880448D01*
X63500377Y-130944960D01*
X63500377Y-130293500D01*
X63479458Y-130182327D01*
X63413755Y-130080221D01*
X63345034Y-130033266D01*
X63369552Y-129996573D01*
X63400000Y-129843500D01*
X63400000Y-126715686D01*
X63999623Y-127315308D01*
X63999623Y-127932500D01*
X64020542Y-128043673D01*
X64086245Y-128145779D01*
X64186497Y-128214278D01*
X64305500Y-128238377D01*
X65194500Y-128238377D01*
X65305673Y-128217458D01*
X65407779Y-128151755D01*
X65476278Y-128051503D01*
X65500377Y-127932500D01*
X65500377Y-127043500D01*
X65479458Y-126932327D01*
X65413755Y-126830221D01*
X65313503Y-126761722D01*
X65194500Y-126737623D01*
X64553308Y-126737623D01*
X63800010Y-125984324D01*
X63800010Y-125568700D01*
X66198700Y-125568700D01*
X66198700Y-125841115D01*
X66252593Y-125971225D01*
X66352175Y-126070807D01*
X66482285Y-126124700D01*
X66754700Y-126124700D01*
X66843200Y-126036200D01*
X66843200Y-125480200D01*
X66287200Y-125480200D01*
X66198700Y-125568700D01*
X63800010Y-125568700D01*
X63800010Y-124811285D01*
X66198700Y-124811285D01*
X66198700Y-125083700D01*
X66287200Y-125172200D01*
X66843200Y-125172200D01*
X66843200Y-124616200D01*
X66754700Y-124527700D01*
X66482285Y-124527700D01*
X66352175Y-124581593D01*
X66252593Y-124681175D01*
X66198700Y-124811285D01*
X63800010Y-124811285D01*
X63800010Y-123638965D01*
X63893697Y-123702978D01*
X64012700Y-123727077D01*
X65409700Y-123727077D01*
X65520873Y-123706158D01*
X65622979Y-123640455D01*
X65626569Y-123635201D01*
X67026173Y-123635201D01*
X67921200Y-124530228D01*
X67921200Y-124530228D01*
G37*
X67921200Y-124530228D02*
X67921200Y-124625265D01*
X67863421Y-124662445D01*
X67794922Y-124762697D01*
X67788569Y-124794069D01*
X67741807Y-124681175D01*
X67642225Y-124581593D01*
X67512115Y-124527700D01*
X67239700Y-124527700D01*
X67151200Y-124616200D01*
X67151200Y-125172200D01*
X67171200Y-125172200D01*
X67171200Y-125480200D01*
X67151200Y-125480200D01*
X67151200Y-126036200D01*
X67239700Y-126124700D01*
X67512115Y-126124700D01*
X67642225Y-126070807D01*
X67741807Y-125971225D01*
X67787705Y-125860417D01*
X67791742Y-125881873D01*
X67857445Y-125983979D01*
X67957697Y-126052478D01*
X68076700Y-126076577D01*
X68965700Y-126076577D01*
X69076873Y-126055658D01*
X69178979Y-125989955D01*
X69222541Y-125926200D01*
X69471265Y-125926200D01*
X69508445Y-125983979D01*
X69572200Y-126027541D01*
X69572200Y-126422200D01*
X69617872Y-126651810D01*
X69747936Y-126846464D01*
X73751472Y-130850000D01*
X65150000Y-130850000D01*
X65150000Y-129762377D01*
X65194500Y-129762377D01*
X65305673Y-129741458D01*
X65407779Y-129675755D01*
X65476278Y-129575503D01*
X65500377Y-129456500D01*
X65500377Y-128567500D01*
X65479458Y-128456327D01*
X65413755Y-128354221D01*
X65313503Y-128285722D01*
X65194500Y-128261623D01*
X64305500Y-128261623D01*
X64194327Y-128282542D01*
X64092221Y-128348245D01*
X64023722Y-128448497D01*
X63999623Y-128567500D01*
X63999623Y-129456500D01*
X64020542Y-129567673D01*
X64086245Y-129669779D01*
X64186497Y-129738278D01*
X64305500Y-129762377D01*
X64350000Y-129762377D01*
X64350000Y-130740815D01*
X64240814Y-130850000D01*
X63750005Y-130850000D01*
X63750000Y-130849999D01*
X63596927Y-130880448D01*
X63500377Y-130944960D01*
X63500377Y-130293500D01*
X63479458Y-130182327D01*
X63413755Y-130080221D01*
X63345034Y-130033266D01*
X63369552Y-129996573D01*
X63400000Y-129843500D01*
X63400000Y-126715686D01*
X63999623Y-127315308D01*
X63999623Y-127932500D01*
X64020542Y-128043673D01*
X64086245Y-128145779D01*
X64186497Y-128214278D01*
X64305500Y-128238377D01*
X65194500Y-128238377D01*
X65305673Y-128217458D01*
X65407779Y-128151755D01*
X65476278Y-128051503D01*
X65500377Y-127932500D01*
X65500377Y-127043500D01*
X65479458Y-126932327D01*
X65413755Y-126830221D01*
X65313503Y-126761722D01*
X65194500Y-126737623D01*
X64553308Y-126737623D01*
X63800010Y-125984324D01*
X63800010Y-125568700D01*
X66198700Y-125568700D01*
X66198700Y-125841115D01*
X66252593Y-125971225D01*
X66352175Y-126070807D01*
X66482285Y-126124700D01*
X66754700Y-126124700D01*
X66843200Y-126036200D01*
X66843200Y-125480200D01*
X66287200Y-125480200D01*
X66198700Y-125568700D01*
X63800010Y-125568700D01*
X63800010Y-124811285D01*
X66198700Y-124811285D01*
X66198700Y-125083700D01*
X66287200Y-125172200D01*
X66843200Y-125172200D01*
X66843200Y-124616200D01*
X66754700Y-124527700D01*
X66482285Y-124527700D01*
X66352175Y-124581593D01*
X66252593Y-124681175D01*
X66198700Y-124811285D01*
X63800010Y-124811285D01*
X63800010Y-123638965D01*
X63893697Y-123702978D01*
X64012700Y-123727077D01*
X65409700Y-123727077D01*
X65520873Y-123706158D01*
X65622979Y-123640455D01*
X65626569Y-123635201D01*
X67026173Y-123635201D01*
X67921200Y-124530228D01*
G36*
X60394123Y-96550000D02*
X60415042Y-96661173D01*
X60480745Y-96763279D01*
X60580997Y-96831778D01*
X60700000Y-96855877D01*
X63300000Y-96855877D01*
X63411173Y-96834958D01*
X63513279Y-96769255D01*
X63581778Y-96669003D01*
X63605877Y-96550000D01*
X63605877Y-96450000D01*
X70563604Y-96450000D01*
X71649999Y-97536395D01*
X71649999Y-97914374D01*
X71550000Y-97894123D01*
X70450000Y-97894123D01*
X70338827Y-97915042D01*
X70236721Y-97980745D01*
X70168222Y-98080997D01*
X70144123Y-98200000D01*
X70144123Y-100800000D01*
X70165042Y-100911173D01*
X70230745Y-101013279D01*
X70330997Y-101081778D01*
X70450000Y-101105877D01*
X71550000Y-101105877D01*
X71649999Y-101087061D01*
X71649999Y-101849999D01*
X71684253Y-102022207D01*
X71725712Y-102084254D01*
X71781801Y-102168197D01*
X77777010Y-108163406D01*
X77777010Y-111331141D01*
X74818454Y-108372584D01*
X74935282Y-108091231D01*
X74935717Y-107592955D01*
X74745437Y-107132443D01*
X74393411Y-106779801D01*
X73933231Y-106588718D01*
X73434955Y-106588283D01*
X72974443Y-106778563D01*
X72621801Y-107130589D01*
X72504119Y-107414000D01*
X67575377Y-107414000D01*
X67575377Y-106888500D01*
X67554458Y-106777327D01*
X67488755Y-106675221D01*
X67388503Y-106606722D01*
X67269500Y-106582623D01*
X65364500Y-106582623D01*
X65253327Y-106603542D01*
X65151221Y-106669245D01*
X65082722Y-106769497D01*
X65058623Y-106888500D01*
X65058623Y-108793500D01*
X65079542Y-108904673D01*
X65145245Y-109006779D01*
X65245497Y-109075278D01*
X65364500Y-109099377D01*
X67269500Y-109099377D01*
X67380673Y-109078458D01*
X67482779Y-109012755D01*
X67551278Y-108912503D01*
X67575377Y-108793500D01*
X67575377Y-108268000D01*
X72504226Y-108268000D01*
X72620563Y-108549557D01*
X72972589Y-108902199D01*
X73432769Y-109093282D01*
X73931045Y-109093717D01*
X74214660Y-108976530D01*
X77323000Y-112084869D01*
X77323000Y-117842633D01*
X75860200Y-119305432D01*
X75860200Y-119218700D01*
X75771700Y-119130200D01*
X75152200Y-119130200D01*
X75152200Y-119940200D01*
X75240700Y-120028700D01*
X75323000Y-120028700D01*
X75323000Y-121050761D01*
X75280955Y-120985421D01*
X75180703Y-120916922D01*
X75061700Y-120892823D01*
X74172700Y-120892823D01*
X74061527Y-120913742D01*
X73959421Y-120979445D01*
X73890922Y-121079697D01*
X73866823Y-121198700D01*
X73866823Y-122087700D01*
X73887742Y-122198873D01*
X73953445Y-122300979D01*
X74038618Y-122359175D01*
X72896447Y-123501347D01*
X72788060Y-123663558D01*
X72750000Y-123854900D01*
X72750000Y-125174296D01*
X72446577Y-125477719D01*
X72446577Y-124881700D01*
X72425658Y-124770527D01*
X72359955Y-124668421D01*
X72259703Y-124599922D01*
X72196200Y-124587062D01*
X72196200Y-123416861D01*
X72215479Y-123404455D01*
X72283978Y-123304203D01*
X72308077Y-123185200D01*
X72308077Y-122735200D01*
X72288570Y-122631529D01*
X72308077Y-122535200D01*
X72308077Y-122143200D01*
X72353266Y-122143200D01*
X72363742Y-122198873D01*
X72429445Y-122300979D01*
X72529697Y-122369478D01*
X72648700Y-122393577D01*
X73537700Y-122393577D01*
X73648873Y-122372658D01*
X73750979Y-122306955D01*
X73819478Y-122206703D01*
X73843577Y-122087700D01*
X73843577Y-121198700D01*
X73822658Y-121087527D01*
X73756955Y-120985421D01*
X73656703Y-120916922D01*
X73537700Y-120892823D01*
X72648700Y-120892823D01*
X72537527Y-120913742D01*
X72435421Y-120979445D01*
X72366922Y-121079697D01*
X72354062Y-121143200D01*
X72308077Y-121143200D01*
X72308077Y-120785200D01*
X72287158Y-120674027D01*
X72221455Y-120571921D01*
X72121203Y-120503422D01*
X72002200Y-120479323D01*
X71777200Y-120479323D01*
X71777200Y-119980577D01*
X71886700Y-119980577D01*
X71997873Y-119959658D01*
X72099979Y-119893955D01*
X72168478Y-119793703D01*
X72181338Y-119730200D01*
X72416766Y-119730200D01*
X72427242Y-119785873D01*
X72492945Y-119887979D01*
X72593197Y-119956478D01*
X72712200Y-119980577D01*
X73728200Y-119980577D01*
X73839373Y-119959658D01*
X73941479Y-119893955D01*
X74009978Y-119793703D01*
X74034077Y-119674700D01*
X74034077Y-119218700D01*
X74136200Y-119218700D01*
X74136200Y-119745115D01*
X74190093Y-119875225D01*
X74289675Y-119974807D01*
X74419785Y-120028700D01*
X74755700Y-120028700D01*
X74844200Y-119940200D01*
X74844200Y-119130200D01*
X74224700Y-119130200D01*
X74136200Y-119218700D01*
X74034077Y-119218700D01*
X74034077Y-118277700D01*
X74020828Y-118207285D01*
X74136200Y-118207285D01*
X74136200Y-118733700D01*
X74224700Y-118822200D01*
X74844200Y-118822200D01*
X74844200Y-118012200D01*
X75152200Y-118012200D01*
X75152200Y-118822200D01*
X75771700Y-118822200D01*
X75860200Y-118733700D01*
X75860200Y-118207285D01*
X75806307Y-118077175D01*
X75706725Y-117977593D01*
X75576615Y-117923700D01*
X75240700Y-117923700D01*
X75152200Y-118012200D01*
X74844200Y-118012200D01*
X74755700Y-117923700D01*
X74419785Y-117923700D01*
X74289675Y-117977593D01*
X74190093Y-118077175D01*
X74136200Y-118207285D01*
X74020828Y-118207285D01*
X74013158Y-118166527D01*
X73947455Y-118064421D01*
X73847203Y-117995922D01*
X73728200Y-117971823D01*
X73720200Y-117971823D01*
X73720200Y-116805577D01*
X73728200Y-116805577D01*
X73839373Y-116784658D01*
X73941479Y-116718955D01*
X74009978Y-116618703D01*
X74034077Y-116499700D01*
X74034077Y-116043700D01*
X74136200Y-116043700D01*
X74136200Y-116570115D01*
X74190093Y-116700225D01*
X74289675Y-116799807D01*
X74419785Y-116853700D01*
X74755700Y-116853700D01*
X74844200Y-116765200D01*
X74844200Y-115955200D01*
X75152200Y-115955200D01*
X75152200Y-116765200D01*
X75240700Y-116853700D01*
X75576615Y-116853700D01*
X75706725Y-116799807D01*
X75806307Y-116700225D01*
X75860200Y-116570115D01*
X75860200Y-116043700D01*
X75771700Y-115955200D01*
X75152200Y-115955200D01*
X74844200Y-115955200D01*
X74224700Y-115955200D01*
X74136200Y-116043700D01*
X74034077Y-116043700D01*
X74034077Y-115102700D01*
X74020828Y-115032285D01*
X74136200Y-115032285D01*
X74136200Y-115558700D01*
X74224700Y-115647200D01*
X74844200Y-115647200D01*
X74844200Y-114837200D01*
X75152200Y-114837200D01*
X75152200Y-115647200D01*
X75771700Y-115647200D01*
X75860200Y-115558700D01*
X75860200Y-115032285D01*
X75806307Y-114902175D01*
X75706725Y-114802593D01*
X75576615Y-114748700D01*
X75240700Y-114748700D01*
X75152200Y-114837200D01*
X74844200Y-114837200D01*
X74755700Y-114748700D01*
X74419785Y-114748700D01*
X74289675Y-114802593D01*
X74190093Y-114902175D01*
X74136200Y-115032285D01*
X74020828Y-115032285D01*
X74013158Y-114991527D01*
X73947455Y-114889421D01*
X73847203Y-114820922D01*
X73728200Y-114796823D01*
X72712200Y-114796823D01*
X72601027Y-114817742D01*
X72498921Y-114883445D01*
X72430422Y-114983697D01*
X72406323Y-115102700D01*
X72406323Y-115301200D01*
X72182134Y-115301200D01*
X72171658Y-115245527D01*
X72105955Y-115143421D01*
X72005703Y-115074922D01*
X71886700Y-115050823D01*
X70997700Y-115050823D01*
X70886527Y-115071742D01*
X70784421Y-115137445D01*
X70715922Y-115237697D01*
X70691823Y-115356700D01*
X70691823Y-116245700D01*
X70712742Y-116356873D01*
X70778445Y-116458979D01*
X70878697Y-116527478D01*
X70997700Y-116551577D01*
X71886700Y-116551577D01*
X71997873Y-116530658D01*
X72099979Y-116464955D01*
X72168478Y-116364703D01*
X72181338Y-116301200D01*
X72406323Y-116301200D01*
X72406323Y-116499700D01*
X72427242Y-116610873D01*
X72492945Y-116712979D01*
X72593197Y-116781478D01*
X72712200Y-116805577D01*
X72720200Y-116805577D01*
X72720200Y-117971823D01*
X72712200Y-117971823D01*
X72601027Y-117992742D01*
X72498921Y-118058445D01*
X72430422Y-118158697D01*
X72406323Y-118277700D01*
X72406323Y-118730200D01*
X72182134Y-118730200D01*
X72171658Y-118674527D01*
X72105955Y-118572421D01*
X72005703Y-118503922D01*
X71886700Y-118479823D01*
X70997700Y-118479823D01*
X70886527Y-118500742D01*
X70784421Y-118566445D01*
X70715922Y-118666697D01*
X70691823Y-118785700D01*
X70691823Y-119674700D01*
X70712742Y-119785873D01*
X70777200Y-119886044D01*
X70777200Y-120479323D01*
X70552200Y-120479323D01*
X70441027Y-120500242D01*
X70418200Y-120514931D01*
X70418200Y-119970134D01*
X70473873Y-119959658D01*
X70575979Y-119893955D01*
X70644478Y-119793703D01*
X70668577Y-119674700D01*
X70668577Y-118785700D01*
X70647658Y-118674527D01*
X70581955Y-118572421D01*
X70481703Y-118503922D01*
X70362700Y-118479823D01*
X69473700Y-118479823D01*
X69362527Y-118500742D01*
X69260421Y-118566445D01*
X69191922Y-118666697D01*
X69179062Y-118730200D01*
X69134134Y-118730200D01*
X69123658Y-118674527D01*
X69057955Y-118572421D01*
X68957703Y-118503922D01*
X68838700Y-118479823D01*
X67949700Y-118479823D01*
X67838527Y-118500742D01*
X67736421Y-118566445D01*
X67667922Y-118666697D01*
X67661569Y-118698069D01*
X67614807Y-118585175D01*
X67515225Y-118485593D01*
X67385115Y-118431700D01*
X67112700Y-118431700D01*
X67024200Y-118520200D01*
X67024200Y-119076200D01*
X67044200Y-119076200D01*
X67044200Y-119384200D01*
X67024200Y-119384200D01*
X67024200Y-119940200D01*
X67112700Y-120028700D01*
X67385115Y-120028700D01*
X67515225Y-119974807D01*
X67614807Y-119875225D01*
X67660705Y-119764417D01*
X67664742Y-119785873D01*
X67730445Y-119887979D01*
X67830697Y-119956478D01*
X67949700Y-119980577D01*
X68838700Y-119980577D01*
X68949873Y-119959658D01*
X69051979Y-119893955D01*
X69120478Y-119793703D01*
X69133338Y-119730200D01*
X69178266Y-119730200D01*
X69188742Y-119785873D01*
X69254445Y-119887979D01*
X69354697Y-119956478D01*
X69418200Y-119969338D01*
X69418200Y-122168200D01*
X69447042Y-122313200D01*
X69456260Y-122359542D01*
X69564647Y-122521753D01*
X69706646Y-122663753D01*
X69833447Y-122748479D01*
X69868858Y-122772140D01*
X70060200Y-122810200D01*
X70246323Y-122810200D01*
X70246323Y-123185200D01*
X70267242Y-123296373D01*
X70332945Y-123398479D01*
X70433197Y-123466978D01*
X70552200Y-123491077D01*
X71100971Y-123491077D01*
X71196200Y-123586307D01*
X71196200Y-124586266D01*
X71140527Y-124596742D01*
X71038421Y-124662445D01*
X70969922Y-124762697D01*
X70945823Y-124881700D01*
X70945823Y-125770700D01*
X70966742Y-125881873D01*
X71032445Y-125983979D01*
X71132697Y-126052478D01*
X71251700Y-126076577D01*
X71847719Y-126076577D01*
X71792894Y-126131402D01*
X70838509Y-126131402D01*
X70772200Y-126065093D01*
X70772200Y-126027135D01*
X70829979Y-125989955D01*
X70898478Y-125889703D01*
X70922577Y-125770700D01*
X70922577Y-124881700D01*
X70901658Y-124770527D01*
X70835955Y-124668421D01*
X70735703Y-124599922D01*
X70616700Y-124575823D01*
X69727700Y-124575823D01*
X69616527Y-124596742D01*
X69514421Y-124662445D01*
X69470859Y-124726200D01*
X69222135Y-124726200D01*
X69184955Y-124668421D01*
X69121200Y-124624859D01*
X69121200Y-124281700D01*
X69075528Y-124052090D01*
X68945464Y-123857436D01*
X67908077Y-122820049D01*
X67908077Y-122735200D01*
X67906343Y-122725982D01*
X67956200Y-122605615D01*
X67956200Y-122511200D01*
X67867700Y-122422700D01*
X67031200Y-122422700D01*
X67031200Y-122429323D01*
X66723200Y-122429323D01*
X66723200Y-122422700D01*
X65886700Y-122422700D01*
X65874199Y-122435201D01*
X65715577Y-122435201D01*
X65715577Y-122405200D01*
X65694658Y-122294027D01*
X65628955Y-122191921D01*
X65528703Y-122123422D01*
X65409700Y-122099323D01*
X64012700Y-122099323D01*
X63901527Y-122120242D01*
X63800010Y-122185566D01*
X63800010Y-121860965D01*
X63893697Y-121924978D01*
X64012700Y-121949077D01*
X65409700Y-121949077D01*
X65520873Y-121928158D01*
X65622979Y-121862455D01*
X65623836Y-121861200D01*
X65798200Y-121861200D01*
X65798200Y-121955615D01*
X65810454Y-121985200D01*
X65798200Y-122014785D01*
X65798200Y-122109200D01*
X65886700Y-122197700D01*
X65981595Y-122197700D01*
X66081785Y-122239200D01*
X66634700Y-122239200D01*
X66676200Y-122197700D01*
X66723200Y-122197700D01*
X66723200Y-121772700D01*
X67031200Y-121772700D01*
X67031200Y-122197700D01*
X67078200Y-122197700D01*
X67119700Y-122239200D01*
X67672615Y-122239200D01*
X67772805Y-122197700D01*
X67867700Y-122197700D01*
X67956200Y-122109200D01*
X67956200Y-122014785D01*
X67943946Y-121985200D01*
X67956200Y-121955615D01*
X67956200Y-121861200D01*
X67867700Y-121772700D01*
X67772805Y-121772700D01*
X67672615Y-121731200D01*
X67119700Y-121731200D01*
X67078200Y-121772700D01*
X67031200Y-121772700D01*
X66723200Y-121772700D01*
X66676200Y-121772700D01*
X66634700Y-121731200D01*
X66081785Y-121731200D01*
X65981595Y-121772700D01*
X65886700Y-121772700D01*
X65798200Y-121861200D01*
X65623836Y-121861200D01*
X65691478Y-121762203D01*
X65715577Y-121643200D01*
X65715577Y-121535199D01*
X65874199Y-121535199D01*
X65886700Y-121547700D01*
X66723200Y-121547700D01*
X66723200Y-121541077D01*
X67031200Y-121541077D01*
X67031200Y-121547700D01*
X67867700Y-121547700D01*
X67956200Y-121459200D01*
X67956200Y-121364785D01*
X67906254Y-121244203D01*
X67908077Y-121235200D01*
X67908077Y-120785200D01*
X67887158Y-120674027D01*
X67821455Y-120571921D01*
X67721203Y-120503422D01*
X67602200Y-120479323D01*
X67254153Y-120479323D01*
X67106810Y-120380871D01*
X66877200Y-120335199D01*
X65478221Y-120335199D01*
X65409700Y-120321323D01*
X64012700Y-120321323D01*
X63901527Y-120342242D01*
X63800010Y-120407566D01*
X63800010Y-119472700D01*
X66071700Y-119472700D01*
X66071700Y-119745115D01*
X66125593Y-119875225D01*
X66225175Y-119974807D01*
X66355285Y-120028700D01*
X66627700Y-120028700D01*
X66716200Y-119940200D01*
X66716200Y-119384200D01*
X66160200Y-119384200D01*
X66071700Y-119472700D01*
X63800010Y-119472700D01*
X63800010Y-118715285D01*
X66071700Y-118715285D01*
X66071700Y-118987700D01*
X66160200Y-119076200D01*
X66716200Y-119076200D01*
X66716200Y-118520200D01*
X66627700Y-118431700D01*
X66355285Y-118431700D01*
X66225175Y-118485593D01*
X66125593Y-118585175D01*
X66071700Y-118715285D01*
X63800010Y-118715285D01*
X63800010Y-118015676D01*
X65665685Y-116150000D01*
X68051513Y-116150000D01*
X68159683Y-116258359D01*
X68380129Y-116349896D01*
X68618824Y-116350104D01*
X68737181Y-116301200D01*
X69178266Y-116301200D01*
X69188742Y-116356873D01*
X69254445Y-116458979D01*
X69354697Y-116527478D01*
X69473700Y-116551577D01*
X70362700Y-116551577D01*
X70473873Y-116530658D01*
X70575979Y-116464955D01*
X70644478Y-116364703D01*
X70668577Y-116245700D01*
X70668577Y-115356700D01*
X70647658Y-115245527D01*
X70581955Y-115143421D01*
X70481703Y-115074922D01*
X70362700Y-115050823D01*
X69473700Y-115050823D01*
X69362527Y-115071742D01*
X69260421Y-115137445D01*
X69191922Y-115237697D01*
X69179062Y-115301200D01*
X68899772Y-115301200D01*
X68840317Y-115241641D01*
X68619871Y-115150104D01*
X68381176Y-115149896D01*
X68160571Y-115241048D01*
X68051428Y-115350000D01*
X65500000Y-115350000D01*
X65346927Y-115380448D01*
X65217157Y-115467157D01*
X65217155Y-115467160D01*
X63400000Y-117284314D01*
X63400000Y-113140481D01*
X65553308Y-113140481D01*
X65663852Y-113319981D01*
X66157859Y-113481556D01*
X66676092Y-113441783D01*
X66970148Y-113319981D01*
X67080692Y-113140481D01*
X72919308Y-113140481D01*
X73029852Y-113319981D01*
X73523859Y-113481556D01*
X74042092Y-113441783D01*
X74336148Y-113319981D01*
X74446692Y-113140481D01*
X73683000Y-112376789D01*
X72919308Y-113140481D01*
X67080692Y-113140481D01*
X66317000Y-112376789D01*
X65553308Y-113140481D01*
X63400000Y-113140481D01*
X63400000Y-111999859D01*
X64994444Y-111999859D01*
X65034217Y-112518092D01*
X65156019Y-112812148D01*
X65335519Y-112922692D01*
X66099211Y-112159000D01*
X66534789Y-112159000D01*
X67298481Y-112922692D01*
X67477981Y-112812148D01*
X67639556Y-112318141D01*
X67615129Y-111999859D01*
X72360444Y-111999859D01*
X72400217Y-112518092D01*
X72522019Y-112812148D01*
X72701519Y-112922692D01*
X73465211Y-112159000D01*
X73900789Y-112159000D01*
X74664481Y-112922692D01*
X74843981Y-112812148D01*
X75005556Y-112318141D01*
X74965783Y-111799908D01*
X74843981Y-111505852D01*
X74664481Y-111395308D01*
X73900789Y-112159000D01*
X73465211Y-112159000D01*
X72701519Y-111395308D01*
X72522019Y-111505852D01*
X72360444Y-111999859D01*
X67615129Y-111999859D01*
X67599783Y-111799908D01*
X67477981Y-111505852D01*
X67298481Y-111395308D01*
X66534789Y-112159000D01*
X66099211Y-112159000D01*
X65335519Y-111395308D01*
X65156019Y-111505852D01*
X64994444Y-111999859D01*
X63400000Y-111999859D01*
X63400000Y-111177519D01*
X65553308Y-111177519D01*
X66317000Y-111941211D01*
X67080692Y-111177519D01*
X72919308Y-111177519D01*
X73683000Y-111941211D01*
X74446692Y-111177519D01*
X74336148Y-110998019D01*
X73842141Y-110836444D01*
X73323908Y-110876217D01*
X73029852Y-110998019D01*
X72919308Y-111177519D01*
X67080692Y-111177519D01*
X66970148Y-110998019D01*
X66476141Y-110836444D01*
X65957908Y-110876217D01*
X65663852Y-110998019D01*
X65553308Y-111177519D01*
X63400000Y-111177519D01*
X63400000Y-109542232D01*
X63388921Y-109486532D01*
X63369552Y-109389158D01*
X63282843Y-109259389D01*
X58254022Y-104230568D01*
X58254022Y-102567500D01*
X58749623Y-102567500D01*
X58749623Y-103456500D01*
X58770542Y-103567673D01*
X58836245Y-103669779D01*
X58900000Y-103713341D01*
X58900000Y-104249477D01*
X58899896Y-104368824D01*
X58991048Y-104589429D01*
X59159683Y-104758359D01*
X59380129Y-104849896D01*
X59618824Y-104850104D01*
X59839429Y-104758952D01*
X60008359Y-104590317D01*
X60099896Y-104369871D01*
X60100104Y-104131176D01*
X60100000Y-104130924D01*
X60100000Y-103712935D01*
X60157779Y-103675755D01*
X60226278Y-103575503D01*
X60250377Y-103456500D01*
X60250377Y-103254500D01*
X61201500Y-103254500D01*
X61201500Y-103526915D01*
X61255393Y-103657025D01*
X61354975Y-103756607D01*
X61485085Y-103810500D01*
X61757500Y-103810500D01*
X61846000Y-103722000D01*
X61846000Y-103166000D01*
X62154000Y-103166000D01*
X62154000Y-103722000D01*
X62242500Y-103810500D01*
X62514915Y-103810500D01*
X62645025Y-103756607D01*
X62744607Y-103657025D01*
X62798500Y-103526915D01*
X62798500Y-103254500D01*
X62710000Y-103166000D01*
X62154000Y-103166000D01*
X61846000Y-103166000D01*
X61290000Y-103166000D01*
X61201500Y-103254500D01*
X60250377Y-103254500D01*
X60250377Y-102567500D01*
X60229458Y-102456327D01*
X60163755Y-102354221D01*
X60063503Y-102285722D01*
X59944500Y-102261623D01*
X59055500Y-102261623D01*
X58944327Y-102282542D01*
X58842221Y-102348245D01*
X58773722Y-102448497D01*
X58749623Y-102567500D01*
X58254022Y-102567500D01*
X58254022Y-101043500D01*
X58749623Y-101043500D01*
X58749623Y-101932500D01*
X58770542Y-102043673D01*
X58836245Y-102145779D01*
X58936497Y-102214278D01*
X59055500Y-102238377D01*
X59944500Y-102238377D01*
X60055673Y-102217458D01*
X60157779Y-102151755D01*
X60201341Y-102088000D01*
X61299065Y-102088000D01*
X61336245Y-102145779D01*
X61436497Y-102214278D01*
X61467869Y-102220631D01*
X61354975Y-102267393D01*
X61255393Y-102366975D01*
X61201500Y-102497085D01*
X61201500Y-102769500D01*
X61290000Y-102858000D01*
X61846000Y-102858000D01*
X61846000Y-102838000D01*
X62154000Y-102838000D01*
X62154000Y-102858000D01*
X62710000Y-102858000D01*
X62798500Y-102769500D01*
X62798500Y-102497085D01*
X62744607Y-102366975D01*
X62645025Y-102267393D01*
X62534217Y-102221495D01*
X62555673Y-102217458D01*
X62657779Y-102151755D01*
X62726278Y-102051503D01*
X62750377Y-101932500D01*
X62750377Y-101043500D01*
X62729458Y-100932327D01*
X62663755Y-100830221D01*
X62600000Y-100786659D01*
X62600000Y-98855877D01*
X63300000Y-98855877D01*
X63411173Y-98834958D01*
X63513279Y-98769255D01*
X63581778Y-98669003D01*
X63605877Y-98550000D01*
X63605877Y-98200000D01*
X64144123Y-98200000D01*
X64144123Y-100800000D01*
X64165042Y-100911173D01*
X64230745Y-101013279D01*
X64330997Y-101081778D01*
X64450000Y-101105877D01*
X65550000Y-101105877D01*
X65661173Y-101084958D01*
X65763279Y-101019255D01*
X65831778Y-100919003D01*
X65855877Y-100800000D01*
X65855877Y-98200000D01*
X66144123Y-98200000D01*
X66144123Y-100800000D01*
X66165042Y-100911173D01*
X66230745Y-101013279D01*
X66330997Y-101081778D01*
X66450000Y-101105877D01*
X67550000Y-101105877D01*
X67661173Y-101084958D01*
X67763279Y-101019255D01*
X67831778Y-100919003D01*
X67855877Y-100800000D01*
X67855877Y-98200000D01*
X68144123Y-98200000D01*
X68144123Y-100800000D01*
X68165042Y-100911173D01*
X68230745Y-101013279D01*
X68330997Y-101081778D01*
X68450000Y-101105877D01*
X69550000Y-101105877D01*
X69661173Y-101084958D01*
X69763279Y-101019255D01*
X69831778Y-100919003D01*
X69855877Y-100800000D01*
X69855877Y-98200000D01*
X69834958Y-98088827D01*
X69769255Y-97986721D01*
X69669003Y-97918222D01*
X69550000Y-97894123D01*
X68450000Y-97894123D01*
X68338827Y-97915042D01*
X68236721Y-97980745D01*
X68168222Y-98080997D01*
X68144123Y-98200000D01*
X67855877Y-98200000D01*
X67834958Y-98088827D01*
X67769255Y-97986721D01*
X67669003Y-97918222D01*
X67550000Y-97894123D01*
X66450000Y-97894123D01*
X66338827Y-97915042D01*
X66236721Y-97980745D01*
X66168222Y-98080997D01*
X66144123Y-98200000D01*
X65855877Y-98200000D01*
X65834958Y-98088827D01*
X65769255Y-97986721D01*
X65669003Y-97918222D01*
X65550000Y-97894123D01*
X64450000Y-97894123D01*
X64338827Y-97915042D01*
X64236721Y-97980745D01*
X64168222Y-98080997D01*
X64144123Y-98200000D01*
X63605877Y-98200000D01*
X63605877Y-97450000D01*
X63584958Y-97338827D01*
X63519255Y-97236721D01*
X63419003Y-97168222D01*
X63300000Y-97144123D01*
X60700000Y-97144123D01*
X60588827Y-97165042D01*
X60486721Y-97230745D01*
X60418222Y-97330997D01*
X60394123Y-97450000D01*
X60394123Y-98550000D01*
X60415042Y-98661173D01*
X60480745Y-98763279D01*
X60580997Y-98831778D01*
X60700000Y-98855877D01*
X61400000Y-98855877D01*
X61400000Y-100787065D01*
X61342221Y-100824245D01*
X61298659Y-100888000D01*
X60200935Y-100888000D01*
X60163755Y-100830221D01*
X60063503Y-100761722D01*
X59944500Y-100737623D01*
X59055500Y-100737623D01*
X58944327Y-100758542D01*
X58842221Y-100824245D01*
X58773722Y-100924497D01*
X58749623Y-101043500D01*
X58254022Y-101043500D01*
X58254022Y-97561664D01*
X59415686Y-96400000D01*
X60394123Y-96400000D01*
X60394123Y-96550000D01*
X60394123Y-96550000D01*
G37*
X60394123Y-96550000D02*
X60415042Y-96661173D01*
X60480745Y-96763279D01*
X60580997Y-96831778D01*
X60700000Y-96855877D01*
X63300000Y-96855877D01*
X63411173Y-96834958D01*
X63513279Y-96769255D01*
X63581778Y-96669003D01*
X63605877Y-96550000D01*
X63605877Y-96450000D01*
X70563604Y-96450000D01*
X71649999Y-97536395D01*
X71649999Y-97914374D01*
X71550000Y-97894123D01*
X70450000Y-97894123D01*
X70338827Y-97915042D01*
X70236721Y-97980745D01*
X70168222Y-98080997D01*
X70144123Y-98200000D01*
X70144123Y-100800000D01*
X70165042Y-100911173D01*
X70230745Y-101013279D01*
X70330997Y-101081778D01*
X70450000Y-101105877D01*
X71550000Y-101105877D01*
X71649999Y-101087061D01*
X71649999Y-101849999D01*
X71684253Y-102022207D01*
X71725712Y-102084254D01*
X71781801Y-102168197D01*
X77777010Y-108163406D01*
X77777010Y-111331141D01*
X74818454Y-108372584D01*
X74935282Y-108091231D01*
X74935717Y-107592955D01*
X74745437Y-107132443D01*
X74393411Y-106779801D01*
X73933231Y-106588718D01*
X73434955Y-106588283D01*
X72974443Y-106778563D01*
X72621801Y-107130589D01*
X72504119Y-107414000D01*
X67575377Y-107414000D01*
X67575377Y-106888500D01*
X67554458Y-106777327D01*
X67488755Y-106675221D01*
X67388503Y-106606722D01*
X67269500Y-106582623D01*
X65364500Y-106582623D01*
X65253327Y-106603542D01*
X65151221Y-106669245D01*
X65082722Y-106769497D01*
X65058623Y-106888500D01*
X65058623Y-108793500D01*
X65079542Y-108904673D01*
X65145245Y-109006779D01*
X65245497Y-109075278D01*
X65364500Y-109099377D01*
X67269500Y-109099377D01*
X67380673Y-109078458D01*
X67482779Y-109012755D01*
X67551278Y-108912503D01*
X67575377Y-108793500D01*
X67575377Y-108268000D01*
X72504226Y-108268000D01*
X72620563Y-108549557D01*
X72972589Y-108902199D01*
X73432769Y-109093282D01*
X73931045Y-109093717D01*
X74214660Y-108976530D01*
X77323000Y-112084869D01*
X77323000Y-117842633D01*
X75860200Y-119305432D01*
X75860200Y-119218700D01*
X75771700Y-119130200D01*
X75152200Y-119130200D01*
X75152200Y-119940200D01*
X75240700Y-120028700D01*
X75323000Y-120028700D01*
X75323000Y-121050761D01*
X75280955Y-120985421D01*
X75180703Y-120916922D01*
X75061700Y-120892823D01*
X74172700Y-120892823D01*
X74061527Y-120913742D01*
X73959421Y-120979445D01*
X73890922Y-121079697D01*
X73866823Y-121198700D01*
X73866823Y-122087700D01*
X73887742Y-122198873D01*
X73953445Y-122300979D01*
X74038618Y-122359175D01*
X72896447Y-123501347D01*
X72788060Y-123663558D01*
X72750000Y-123854900D01*
X72750000Y-125174296D01*
X72446577Y-125477719D01*
X72446577Y-124881700D01*
X72425658Y-124770527D01*
X72359955Y-124668421D01*
X72259703Y-124599922D01*
X72196200Y-124587062D01*
X72196200Y-123416861D01*
X72215479Y-123404455D01*
X72283978Y-123304203D01*
X72308077Y-123185200D01*
X72308077Y-122735200D01*
X72288570Y-122631529D01*
X72308077Y-122535200D01*
X72308077Y-122143200D01*
X72353266Y-122143200D01*
X72363742Y-122198873D01*
X72429445Y-122300979D01*
X72529697Y-122369478D01*
X72648700Y-122393577D01*
X73537700Y-122393577D01*
X73648873Y-122372658D01*
X73750979Y-122306955D01*
X73819478Y-122206703D01*
X73843577Y-122087700D01*
X73843577Y-121198700D01*
X73822658Y-121087527D01*
X73756955Y-120985421D01*
X73656703Y-120916922D01*
X73537700Y-120892823D01*
X72648700Y-120892823D01*
X72537527Y-120913742D01*
X72435421Y-120979445D01*
X72366922Y-121079697D01*
X72354062Y-121143200D01*
X72308077Y-121143200D01*
X72308077Y-120785200D01*
X72287158Y-120674027D01*
X72221455Y-120571921D01*
X72121203Y-120503422D01*
X72002200Y-120479323D01*
X71777200Y-120479323D01*
X71777200Y-119980577D01*
X71886700Y-119980577D01*
X71997873Y-119959658D01*
X72099979Y-119893955D01*
X72168478Y-119793703D01*
X72181338Y-119730200D01*
X72416766Y-119730200D01*
X72427242Y-119785873D01*
X72492945Y-119887979D01*
X72593197Y-119956478D01*
X72712200Y-119980577D01*
X73728200Y-119980577D01*
X73839373Y-119959658D01*
X73941479Y-119893955D01*
X74009978Y-119793703D01*
X74034077Y-119674700D01*
X74034077Y-119218700D01*
X74136200Y-119218700D01*
X74136200Y-119745115D01*
X74190093Y-119875225D01*
X74289675Y-119974807D01*
X74419785Y-120028700D01*
X74755700Y-120028700D01*
X74844200Y-119940200D01*
X74844200Y-119130200D01*
X74224700Y-119130200D01*
X74136200Y-119218700D01*
X74034077Y-119218700D01*
X74034077Y-118277700D01*
X74020828Y-118207285D01*
X74136200Y-118207285D01*
X74136200Y-118733700D01*
X74224700Y-118822200D01*
X74844200Y-118822200D01*
X74844200Y-118012200D01*
X75152200Y-118012200D01*
X75152200Y-118822200D01*
X75771700Y-118822200D01*
X75860200Y-118733700D01*
X75860200Y-118207285D01*
X75806307Y-118077175D01*
X75706725Y-117977593D01*
X75576615Y-117923700D01*
X75240700Y-117923700D01*
X75152200Y-118012200D01*
X74844200Y-118012200D01*
X74755700Y-117923700D01*
X74419785Y-117923700D01*
X74289675Y-117977593D01*
X74190093Y-118077175D01*
X74136200Y-118207285D01*
X74020828Y-118207285D01*
X74013158Y-118166527D01*
X73947455Y-118064421D01*
X73847203Y-117995922D01*
X73728200Y-117971823D01*
X73720200Y-117971823D01*
X73720200Y-116805577D01*
X73728200Y-116805577D01*
X73839373Y-116784658D01*
X73941479Y-116718955D01*
X74009978Y-116618703D01*
X74034077Y-116499700D01*
X74034077Y-116043700D01*
X74136200Y-116043700D01*
X74136200Y-116570115D01*
X74190093Y-116700225D01*
X74289675Y-116799807D01*
X74419785Y-116853700D01*
X74755700Y-116853700D01*
X74844200Y-116765200D01*
X74844200Y-115955200D01*
X75152200Y-115955200D01*
X75152200Y-116765200D01*
X75240700Y-116853700D01*
X75576615Y-116853700D01*
X75706725Y-116799807D01*
X75806307Y-116700225D01*
X75860200Y-116570115D01*
X75860200Y-116043700D01*
X75771700Y-115955200D01*
X75152200Y-115955200D01*
X74844200Y-115955200D01*
X74224700Y-115955200D01*
X74136200Y-116043700D01*
X74034077Y-116043700D01*
X74034077Y-115102700D01*
X74020828Y-115032285D01*
X74136200Y-115032285D01*
X74136200Y-115558700D01*
X74224700Y-115647200D01*
X74844200Y-115647200D01*
X74844200Y-114837200D01*
X75152200Y-114837200D01*
X75152200Y-115647200D01*
X75771700Y-115647200D01*
X75860200Y-115558700D01*
X75860200Y-115032285D01*
X75806307Y-114902175D01*
X75706725Y-114802593D01*
X75576615Y-114748700D01*
X75240700Y-114748700D01*
X75152200Y-114837200D01*
X74844200Y-114837200D01*
X74755700Y-114748700D01*
X74419785Y-114748700D01*
X74289675Y-114802593D01*
X74190093Y-114902175D01*
X74136200Y-115032285D01*
X74020828Y-115032285D01*
X74013158Y-114991527D01*
X73947455Y-114889421D01*
X73847203Y-114820922D01*
X73728200Y-114796823D01*
X72712200Y-114796823D01*
X72601027Y-114817742D01*
X72498921Y-114883445D01*
X72430422Y-114983697D01*
X72406323Y-115102700D01*
X72406323Y-115301200D01*
X72182134Y-115301200D01*
X72171658Y-115245527D01*
X72105955Y-115143421D01*
X72005703Y-115074922D01*
X71886700Y-115050823D01*
X70997700Y-115050823D01*
X70886527Y-115071742D01*
X70784421Y-115137445D01*
X70715922Y-115237697D01*
X70691823Y-115356700D01*
X70691823Y-116245700D01*
X70712742Y-116356873D01*
X70778445Y-116458979D01*
X70878697Y-116527478D01*
X70997700Y-116551577D01*
X71886700Y-116551577D01*
X71997873Y-116530658D01*
X72099979Y-116464955D01*
X72168478Y-116364703D01*
X72181338Y-116301200D01*
X72406323Y-116301200D01*
X72406323Y-116499700D01*
X72427242Y-116610873D01*
X72492945Y-116712979D01*
X72593197Y-116781478D01*
X72712200Y-116805577D01*
X72720200Y-116805577D01*
X72720200Y-117971823D01*
X72712200Y-117971823D01*
X72601027Y-117992742D01*
X72498921Y-118058445D01*
X72430422Y-118158697D01*
X72406323Y-118277700D01*
X72406323Y-118730200D01*
X72182134Y-118730200D01*
X72171658Y-118674527D01*
X72105955Y-118572421D01*
X72005703Y-118503922D01*
X71886700Y-118479823D01*
X70997700Y-118479823D01*
X70886527Y-118500742D01*
X70784421Y-118566445D01*
X70715922Y-118666697D01*
X70691823Y-118785700D01*
X70691823Y-119674700D01*
X70712742Y-119785873D01*
X70777200Y-119886044D01*
X70777200Y-120479323D01*
X70552200Y-120479323D01*
X70441027Y-120500242D01*
X70418200Y-120514931D01*
X70418200Y-119970134D01*
X70473873Y-119959658D01*
X70575979Y-119893955D01*
X70644478Y-119793703D01*
X70668577Y-119674700D01*
X70668577Y-118785700D01*
X70647658Y-118674527D01*
X70581955Y-118572421D01*
X70481703Y-118503922D01*
X70362700Y-118479823D01*
X69473700Y-118479823D01*
X69362527Y-118500742D01*
X69260421Y-118566445D01*
X69191922Y-118666697D01*
X69179062Y-118730200D01*
X69134134Y-118730200D01*
X69123658Y-118674527D01*
X69057955Y-118572421D01*
X68957703Y-118503922D01*
X68838700Y-118479823D01*
X67949700Y-118479823D01*
X67838527Y-118500742D01*
X67736421Y-118566445D01*
X67667922Y-118666697D01*
X67661569Y-118698069D01*
X67614807Y-118585175D01*
X67515225Y-118485593D01*
X67385115Y-118431700D01*
X67112700Y-118431700D01*
X67024200Y-118520200D01*
X67024200Y-119076200D01*
X67044200Y-119076200D01*
X67044200Y-119384200D01*
X67024200Y-119384200D01*
X67024200Y-119940200D01*
X67112700Y-120028700D01*
X67385115Y-120028700D01*
X67515225Y-119974807D01*
X67614807Y-119875225D01*
X67660705Y-119764417D01*
X67664742Y-119785873D01*
X67730445Y-119887979D01*
X67830697Y-119956478D01*
X67949700Y-119980577D01*
X68838700Y-119980577D01*
X68949873Y-119959658D01*
X69051979Y-119893955D01*
X69120478Y-119793703D01*
X69133338Y-119730200D01*
X69178266Y-119730200D01*
X69188742Y-119785873D01*
X69254445Y-119887979D01*
X69354697Y-119956478D01*
X69418200Y-119969338D01*
X69418200Y-122168200D01*
X69447042Y-122313200D01*
X69456260Y-122359542D01*
X69564647Y-122521753D01*
X69706646Y-122663753D01*
X69833447Y-122748479D01*
X69868858Y-122772140D01*
X70060200Y-122810200D01*
X70246323Y-122810200D01*
X70246323Y-123185200D01*
X70267242Y-123296373D01*
X70332945Y-123398479D01*
X70433197Y-123466978D01*
X70552200Y-123491077D01*
X71100971Y-123491077D01*
X71196200Y-123586307D01*
X71196200Y-124586266D01*
X71140527Y-124596742D01*
X71038421Y-124662445D01*
X70969922Y-124762697D01*
X70945823Y-124881700D01*
X70945823Y-125770700D01*
X70966742Y-125881873D01*
X71032445Y-125983979D01*
X71132697Y-126052478D01*
X71251700Y-126076577D01*
X71847719Y-126076577D01*
X71792894Y-126131402D01*
X70838509Y-126131402D01*
X70772200Y-126065093D01*
X70772200Y-126027135D01*
X70829979Y-125989955D01*
X70898478Y-125889703D01*
X70922577Y-125770700D01*
X70922577Y-124881700D01*
X70901658Y-124770527D01*
X70835955Y-124668421D01*
X70735703Y-124599922D01*
X70616700Y-124575823D01*
X69727700Y-124575823D01*
X69616527Y-124596742D01*
X69514421Y-124662445D01*
X69470859Y-124726200D01*
X69222135Y-124726200D01*
X69184955Y-124668421D01*
X69121200Y-124624859D01*
X69121200Y-124281700D01*
X69075528Y-124052090D01*
X68945464Y-123857436D01*
X67908077Y-122820049D01*
X67908077Y-122735200D01*
X67906343Y-122725982D01*
X67956200Y-122605615D01*
X67956200Y-122511200D01*
X67867700Y-122422700D01*
X67031200Y-122422700D01*
X67031200Y-122429323D01*
X66723200Y-122429323D01*
X66723200Y-122422700D01*
X65886700Y-122422700D01*
X65874199Y-122435201D01*
X65715577Y-122435201D01*
X65715577Y-122405200D01*
X65694658Y-122294027D01*
X65628955Y-122191921D01*
X65528703Y-122123422D01*
X65409700Y-122099323D01*
X64012700Y-122099323D01*
X63901527Y-122120242D01*
X63800010Y-122185566D01*
X63800010Y-121860965D01*
X63893697Y-121924978D01*
X64012700Y-121949077D01*
X65409700Y-121949077D01*
X65520873Y-121928158D01*
X65622979Y-121862455D01*
X65623836Y-121861200D01*
X65798200Y-121861200D01*
X65798200Y-121955615D01*
X65810454Y-121985200D01*
X65798200Y-122014785D01*
X65798200Y-122109200D01*
X65886700Y-122197700D01*
X65981595Y-122197700D01*
X66081785Y-122239200D01*
X66634700Y-122239200D01*
X66676200Y-122197700D01*
X66723200Y-122197700D01*
X66723200Y-121772700D01*
X67031200Y-121772700D01*
X67031200Y-122197700D01*
X67078200Y-122197700D01*
X67119700Y-122239200D01*
X67672615Y-122239200D01*
X67772805Y-122197700D01*
X67867700Y-122197700D01*
X67956200Y-122109200D01*
X67956200Y-122014785D01*
X67943946Y-121985200D01*
X67956200Y-121955615D01*
X67956200Y-121861200D01*
X67867700Y-121772700D01*
X67772805Y-121772700D01*
X67672615Y-121731200D01*
X67119700Y-121731200D01*
X67078200Y-121772700D01*
X67031200Y-121772700D01*
X66723200Y-121772700D01*
X66676200Y-121772700D01*
X66634700Y-121731200D01*
X66081785Y-121731200D01*
X65981595Y-121772700D01*
X65886700Y-121772700D01*
X65798200Y-121861200D01*
X65623836Y-121861200D01*
X65691478Y-121762203D01*
X65715577Y-121643200D01*
X65715577Y-121535199D01*
X65874199Y-121535199D01*
X65886700Y-121547700D01*
X66723200Y-121547700D01*
X66723200Y-121541077D01*
X67031200Y-121541077D01*
X67031200Y-121547700D01*
X67867700Y-121547700D01*
X67956200Y-121459200D01*
X67956200Y-121364785D01*
X67906254Y-121244203D01*
X67908077Y-121235200D01*
X67908077Y-120785200D01*
X67887158Y-120674027D01*
X67821455Y-120571921D01*
X67721203Y-120503422D01*
X67602200Y-120479323D01*
X67254153Y-120479323D01*
X67106810Y-120380871D01*
X66877200Y-120335199D01*
X65478221Y-120335199D01*
X65409700Y-120321323D01*
X64012700Y-120321323D01*
X63901527Y-120342242D01*
X63800010Y-120407566D01*
X63800010Y-119472700D01*
X66071700Y-119472700D01*
X66071700Y-119745115D01*
X66125593Y-119875225D01*
X66225175Y-119974807D01*
X66355285Y-120028700D01*
X66627700Y-120028700D01*
X66716200Y-119940200D01*
X66716200Y-119384200D01*
X66160200Y-119384200D01*
X66071700Y-119472700D01*
X63800010Y-119472700D01*
X63800010Y-118715285D01*
X66071700Y-118715285D01*
X66071700Y-118987700D01*
X66160200Y-119076200D01*
X66716200Y-119076200D01*
X66716200Y-118520200D01*
X66627700Y-118431700D01*
X66355285Y-118431700D01*
X66225175Y-118485593D01*
X66125593Y-118585175D01*
X66071700Y-118715285D01*
X63800010Y-118715285D01*
X63800010Y-118015676D01*
X65665685Y-116150000D01*
X68051513Y-116150000D01*
X68159683Y-116258359D01*
X68380129Y-116349896D01*
X68618824Y-116350104D01*
X68737181Y-116301200D01*
X69178266Y-116301200D01*
X69188742Y-116356873D01*
X69254445Y-116458979D01*
X69354697Y-116527478D01*
X69473700Y-116551577D01*
X70362700Y-116551577D01*
X70473873Y-116530658D01*
X70575979Y-116464955D01*
X70644478Y-116364703D01*
X70668577Y-116245700D01*
X70668577Y-115356700D01*
X70647658Y-115245527D01*
X70581955Y-115143421D01*
X70481703Y-115074922D01*
X70362700Y-115050823D01*
X69473700Y-115050823D01*
X69362527Y-115071742D01*
X69260421Y-115137445D01*
X69191922Y-115237697D01*
X69179062Y-115301200D01*
X68899772Y-115301200D01*
X68840317Y-115241641D01*
X68619871Y-115150104D01*
X68381176Y-115149896D01*
X68160571Y-115241048D01*
X68051428Y-115350000D01*
X65500000Y-115350000D01*
X65346927Y-115380448D01*
X65217157Y-115467157D01*
X65217155Y-115467160D01*
X63400000Y-117284314D01*
X63400000Y-113140481D01*
X65553308Y-113140481D01*
X65663852Y-113319981D01*
X66157859Y-113481556D01*
X66676092Y-113441783D01*
X66970148Y-113319981D01*
X67080692Y-113140481D01*
X72919308Y-113140481D01*
X73029852Y-113319981D01*
X73523859Y-113481556D01*
X74042092Y-113441783D01*
X74336148Y-113319981D01*
X74446692Y-113140481D01*
X73683000Y-112376789D01*
X72919308Y-113140481D01*
X67080692Y-113140481D01*
X66317000Y-112376789D01*
X65553308Y-113140481D01*
X63400000Y-113140481D01*
X63400000Y-111999859D01*
X64994444Y-111999859D01*
X65034217Y-112518092D01*
X65156019Y-112812148D01*
X65335519Y-112922692D01*
X66099211Y-112159000D01*
X66534789Y-112159000D01*
X67298481Y-112922692D01*
X67477981Y-112812148D01*
X67639556Y-112318141D01*
X67615129Y-111999859D01*
X72360444Y-111999859D01*
X72400217Y-112518092D01*
X72522019Y-112812148D01*
X72701519Y-112922692D01*
X73465211Y-112159000D01*
X73900789Y-112159000D01*
X74664481Y-112922692D01*
X74843981Y-112812148D01*
X75005556Y-112318141D01*
X74965783Y-111799908D01*
X74843981Y-111505852D01*
X74664481Y-111395308D01*
X73900789Y-112159000D01*
X73465211Y-112159000D01*
X72701519Y-111395308D01*
X72522019Y-111505852D01*
X72360444Y-111999859D01*
X67615129Y-111999859D01*
X67599783Y-111799908D01*
X67477981Y-111505852D01*
X67298481Y-111395308D01*
X66534789Y-112159000D01*
X66099211Y-112159000D01*
X65335519Y-111395308D01*
X65156019Y-111505852D01*
X64994444Y-111999859D01*
X63400000Y-111999859D01*
X63400000Y-111177519D01*
X65553308Y-111177519D01*
X66317000Y-111941211D01*
X67080692Y-111177519D01*
X72919308Y-111177519D01*
X73683000Y-111941211D01*
X74446692Y-111177519D01*
X74336148Y-110998019D01*
X73842141Y-110836444D01*
X73323908Y-110876217D01*
X73029852Y-110998019D01*
X72919308Y-111177519D01*
X67080692Y-111177519D01*
X66970148Y-110998019D01*
X66476141Y-110836444D01*
X65957908Y-110876217D01*
X65663852Y-110998019D01*
X65553308Y-111177519D01*
X63400000Y-111177519D01*
X63400000Y-109542232D01*
X63388921Y-109486532D01*
X63369552Y-109389158D01*
X63282843Y-109259389D01*
X58254022Y-104230568D01*
X58254022Y-102567500D01*
X58749623Y-102567500D01*
X58749623Y-103456500D01*
X58770542Y-103567673D01*
X58836245Y-103669779D01*
X58900000Y-103713341D01*
X58900000Y-104249477D01*
X58899896Y-104368824D01*
X58991048Y-104589429D01*
X59159683Y-104758359D01*
X59380129Y-104849896D01*
X59618824Y-104850104D01*
X59839429Y-104758952D01*
X60008359Y-104590317D01*
X60099896Y-104369871D01*
X60100104Y-104131176D01*
X60100000Y-104130924D01*
X60100000Y-103712935D01*
X60157779Y-103675755D01*
X60226278Y-103575503D01*
X60250377Y-103456500D01*
X60250377Y-103254500D01*
X61201500Y-103254500D01*
X61201500Y-103526915D01*
X61255393Y-103657025D01*
X61354975Y-103756607D01*
X61485085Y-103810500D01*
X61757500Y-103810500D01*
X61846000Y-103722000D01*
X61846000Y-103166000D01*
X62154000Y-103166000D01*
X62154000Y-103722000D01*
X62242500Y-103810500D01*
X62514915Y-103810500D01*
X62645025Y-103756607D01*
X62744607Y-103657025D01*
X62798500Y-103526915D01*
X62798500Y-103254500D01*
X62710000Y-103166000D01*
X62154000Y-103166000D01*
X61846000Y-103166000D01*
X61290000Y-103166000D01*
X61201500Y-103254500D01*
X60250377Y-103254500D01*
X60250377Y-102567500D01*
X60229458Y-102456327D01*
X60163755Y-102354221D01*
X60063503Y-102285722D01*
X59944500Y-102261623D01*
X59055500Y-102261623D01*
X58944327Y-102282542D01*
X58842221Y-102348245D01*
X58773722Y-102448497D01*
X58749623Y-102567500D01*
X58254022Y-102567500D01*
X58254022Y-101043500D01*
X58749623Y-101043500D01*
X58749623Y-101932500D01*
X58770542Y-102043673D01*
X58836245Y-102145779D01*
X58936497Y-102214278D01*
X59055500Y-102238377D01*
X59944500Y-102238377D01*
X60055673Y-102217458D01*
X60157779Y-102151755D01*
X60201341Y-102088000D01*
X61299065Y-102088000D01*
X61336245Y-102145779D01*
X61436497Y-102214278D01*
X61467869Y-102220631D01*
X61354975Y-102267393D01*
X61255393Y-102366975D01*
X61201500Y-102497085D01*
X61201500Y-102769500D01*
X61290000Y-102858000D01*
X61846000Y-102858000D01*
X61846000Y-102838000D01*
X62154000Y-102838000D01*
X62154000Y-102858000D01*
X62710000Y-102858000D01*
X62798500Y-102769500D01*
X62798500Y-102497085D01*
X62744607Y-102366975D01*
X62645025Y-102267393D01*
X62534217Y-102221495D01*
X62555673Y-102217458D01*
X62657779Y-102151755D01*
X62726278Y-102051503D01*
X62750377Y-101932500D01*
X62750377Y-101043500D01*
X62729458Y-100932327D01*
X62663755Y-100830221D01*
X62600000Y-100786659D01*
X62600000Y-98855877D01*
X63300000Y-98855877D01*
X63411173Y-98834958D01*
X63513279Y-98769255D01*
X63581778Y-98669003D01*
X63605877Y-98550000D01*
X63605877Y-98200000D01*
X64144123Y-98200000D01*
X64144123Y-100800000D01*
X64165042Y-100911173D01*
X64230745Y-101013279D01*
X64330997Y-101081778D01*
X64450000Y-101105877D01*
X65550000Y-101105877D01*
X65661173Y-101084958D01*
X65763279Y-101019255D01*
X65831778Y-100919003D01*
X65855877Y-100800000D01*
X65855877Y-98200000D01*
X66144123Y-98200000D01*
X66144123Y-100800000D01*
X66165042Y-100911173D01*
X66230745Y-101013279D01*
X66330997Y-101081778D01*
X66450000Y-101105877D01*
X67550000Y-101105877D01*
X67661173Y-101084958D01*
X67763279Y-101019255D01*
X67831778Y-100919003D01*
X67855877Y-100800000D01*
X67855877Y-98200000D01*
X68144123Y-98200000D01*
X68144123Y-100800000D01*
X68165042Y-100911173D01*
X68230745Y-101013279D01*
X68330997Y-101081778D01*
X68450000Y-101105877D01*
X69550000Y-101105877D01*
X69661173Y-101084958D01*
X69763279Y-101019255D01*
X69831778Y-100919003D01*
X69855877Y-100800000D01*
X69855877Y-98200000D01*
X69834958Y-98088827D01*
X69769255Y-97986721D01*
X69669003Y-97918222D01*
X69550000Y-97894123D01*
X68450000Y-97894123D01*
X68338827Y-97915042D01*
X68236721Y-97980745D01*
X68168222Y-98080997D01*
X68144123Y-98200000D01*
X67855877Y-98200000D01*
X67834958Y-98088827D01*
X67769255Y-97986721D01*
X67669003Y-97918222D01*
X67550000Y-97894123D01*
X66450000Y-97894123D01*
X66338827Y-97915042D01*
X66236721Y-97980745D01*
X66168222Y-98080997D01*
X66144123Y-98200000D01*
X65855877Y-98200000D01*
X65834958Y-98088827D01*
X65769255Y-97986721D01*
X65669003Y-97918222D01*
X65550000Y-97894123D01*
X64450000Y-97894123D01*
X64338827Y-97915042D01*
X64236721Y-97980745D01*
X64168222Y-98080997D01*
X64144123Y-98200000D01*
X63605877Y-98200000D01*
X63605877Y-97450000D01*
X63584958Y-97338827D01*
X63519255Y-97236721D01*
X63419003Y-97168222D01*
X63300000Y-97144123D01*
X60700000Y-97144123D01*
X60588827Y-97165042D01*
X60486721Y-97230745D01*
X60418222Y-97330997D01*
X60394123Y-97450000D01*
X60394123Y-98550000D01*
X60415042Y-98661173D01*
X60480745Y-98763279D01*
X60580997Y-98831778D01*
X60700000Y-98855877D01*
X61400000Y-98855877D01*
X61400000Y-100787065D01*
X61342221Y-100824245D01*
X61298659Y-100888000D01*
X60200935Y-100888000D01*
X60163755Y-100830221D01*
X60063503Y-100761722D01*
X59944500Y-100737623D01*
X59055500Y-100737623D01*
X58944327Y-100758542D01*
X58842221Y-100824245D01*
X58773722Y-100924497D01*
X58749623Y-101043500D01*
X58254022Y-101043500D01*
X58254022Y-97561664D01*
X59415686Y-96400000D01*
X60394123Y-96400000D01*
X60394123Y-96550000D01*
G36*
X76394123Y-88219481D02*
X73781801Y-90831803D01*
X73684253Y-90977793D01*
X73649999Y-91150001D01*
X73649999Y-97914374D01*
X73550000Y-97894123D01*
X72549999Y-97894123D01*
X72549999Y-97349999D01*
X72515745Y-97177791D01*
X72418197Y-97031801D01*
X71068198Y-95681802D01*
X71032245Y-95657779D01*
X70922208Y-95584254D01*
X70750000Y-95550000D01*
X63605877Y-95550000D01*
X63605877Y-95450000D01*
X63584958Y-95338827D01*
X63519255Y-95236721D01*
X63419003Y-95168222D01*
X63300000Y-95144123D01*
X60700000Y-95144123D01*
X60588827Y-95165042D01*
X60486721Y-95230745D01*
X60418222Y-95330997D01*
X60394123Y-95450000D01*
X60394123Y-95600000D01*
X59449869Y-95600000D01*
X60410870Y-94638999D01*
X60415042Y-94661173D01*
X60480745Y-94763279D01*
X60580997Y-94831778D01*
X60700000Y-94855877D01*
X63300000Y-94855877D01*
X63411173Y-94834958D01*
X63513279Y-94769255D01*
X63581778Y-94669003D01*
X63605877Y-94550000D01*
X63605877Y-93450000D01*
X63584958Y-93338827D01*
X63519255Y-93236721D01*
X63419003Y-93168222D01*
X63300000Y-93144123D01*
X60709747Y-93144123D01*
X60997993Y-92855877D01*
X63300000Y-92855877D01*
X63411173Y-92834958D01*
X63513279Y-92769255D01*
X63581778Y-92669003D01*
X63605877Y-92550000D01*
X63605877Y-91450000D01*
X63584958Y-91338827D01*
X63519255Y-91236721D01*
X63419003Y-91168222D01*
X63300000Y-91144123D01*
X60700000Y-91144123D01*
X60588827Y-91165042D01*
X60486721Y-91230745D01*
X60418222Y-91330997D01*
X60394123Y-91450000D01*
X60394123Y-92252007D01*
X56799615Y-95846515D01*
X56782843Y-95821415D01*
X56782840Y-95821413D01*
X52678585Y-91717157D01*
X52632579Y-91686417D01*
X52636712Y-91684709D01*
X52953596Y-91368377D01*
X53125304Y-90954858D01*
X53125695Y-90507106D01*
X52954709Y-90093288D01*
X52935170Y-90073715D01*
X53608885Y-89400000D01*
X60404248Y-89400000D01*
X60394123Y-89450000D01*
X60394123Y-90550000D01*
X60415042Y-90661173D01*
X60480745Y-90763279D01*
X60580997Y-90831778D01*
X60700000Y-90855877D01*
X63300000Y-90855877D01*
X63411173Y-90834958D01*
X63513279Y-90769255D01*
X63581778Y-90669003D01*
X63605877Y-90550000D01*
X63605877Y-89450000D01*
X63596469Y-89400000D01*
X74550000Y-89400000D01*
X74703074Y-89369552D01*
X74832843Y-89282843D01*
X76394123Y-87721563D01*
X76394123Y-88219481D01*
X76394123Y-88219481D01*
G37*
X76394123Y-88219481D02*
X73781801Y-90831803D01*
X73684253Y-90977793D01*
X73649999Y-91150001D01*
X73649999Y-97914374D01*
X73550000Y-97894123D01*
X72549999Y-97894123D01*
X72549999Y-97349999D01*
X72515745Y-97177791D01*
X72418197Y-97031801D01*
X71068198Y-95681802D01*
X71032245Y-95657779D01*
X70922208Y-95584254D01*
X70750000Y-95550000D01*
X63605877Y-95550000D01*
X63605877Y-95450000D01*
X63584958Y-95338827D01*
X63519255Y-95236721D01*
X63419003Y-95168222D01*
X63300000Y-95144123D01*
X60700000Y-95144123D01*
X60588827Y-95165042D01*
X60486721Y-95230745D01*
X60418222Y-95330997D01*
X60394123Y-95450000D01*
X60394123Y-95600000D01*
X59449869Y-95600000D01*
X60410870Y-94638999D01*
X60415042Y-94661173D01*
X60480745Y-94763279D01*
X60580997Y-94831778D01*
X60700000Y-94855877D01*
X63300000Y-94855877D01*
X63411173Y-94834958D01*
X63513279Y-94769255D01*
X63581778Y-94669003D01*
X63605877Y-94550000D01*
X63605877Y-93450000D01*
X63584958Y-93338827D01*
X63519255Y-93236721D01*
X63419003Y-93168222D01*
X63300000Y-93144123D01*
X60709747Y-93144123D01*
X60997993Y-92855877D01*
X63300000Y-92855877D01*
X63411173Y-92834958D01*
X63513279Y-92769255D01*
X63581778Y-92669003D01*
X63605877Y-92550000D01*
X63605877Y-91450000D01*
X63584958Y-91338827D01*
X63519255Y-91236721D01*
X63419003Y-91168222D01*
X63300000Y-91144123D01*
X60700000Y-91144123D01*
X60588827Y-91165042D01*
X60486721Y-91230745D01*
X60418222Y-91330997D01*
X60394123Y-91450000D01*
X60394123Y-92252007D01*
X56799615Y-95846515D01*
X56782843Y-95821415D01*
X56782840Y-95821413D01*
X52678585Y-91717157D01*
X52632579Y-91686417D01*
X52636712Y-91684709D01*
X52953596Y-91368377D01*
X53125304Y-90954858D01*
X53125695Y-90507106D01*
X52954709Y-90093288D01*
X52935170Y-90073715D01*
X53608885Y-89400000D01*
X60404248Y-89400000D01*
X60394123Y-89450000D01*
X60394123Y-90550000D01*
X60415042Y-90661173D01*
X60480745Y-90763279D01*
X60580997Y-90831778D01*
X60700000Y-90855877D01*
X63300000Y-90855877D01*
X63411173Y-90834958D01*
X63513279Y-90769255D01*
X63581778Y-90669003D01*
X63605877Y-90550000D01*
X63605877Y-89450000D01*
X63596469Y-89400000D01*
X74550000Y-89400000D01*
X74703074Y-89369552D01*
X74832843Y-89282843D01*
X76394123Y-87721563D01*
X76394123Y-88219481D01*
G36*
X76394123Y-85450000D02*
X76394123Y-86550000D01*
X76409033Y-86629241D01*
X76395427Y-86631947D01*
X76265658Y-86718656D01*
X74384314Y-88600000D01*
X63595752Y-88600000D01*
X63605877Y-88550000D01*
X63605877Y-87450000D01*
X63601173Y-87425000D01*
X73140700Y-87425000D01*
X73293774Y-87394552D01*
X73423543Y-87307843D01*
X75331385Y-85400000D01*
X76404248Y-85400000D01*
X76394123Y-85450000D01*
X76394123Y-85450000D01*
G37*
X76394123Y-85450000D02*
X76394123Y-86550000D01*
X76409033Y-86629241D01*
X76395427Y-86631947D01*
X76265658Y-86718656D01*
X74384314Y-88600000D01*
X63595752Y-88600000D01*
X63605877Y-88550000D01*
X63605877Y-87450000D01*
X63601173Y-87425000D01*
X73140700Y-87425000D01*
X73293774Y-87394552D01*
X73423543Y-87307843D01*
X75331385Y-85400000D01*
X76404248Y-85400000D01*
X76394123Y-85450000D01*
G36*
X58473623Y-83805500D02*
X58473623Y-84694500D01*
X58494542Y-84805673D01*
X58560245Y-84907779D01*
X58660497Y-84976278D01*
X58779500Y-85000377D01*
X58824000Y-85000377D01*
X58824000Y-85249623D01*
X58767500Y-85249623D01*
X58656327Y-85270542D01*
X58554221Y-85336245D01*
X58485722Y-85436497D01*
X58479369Y-85467869D01*
X58432607Y-85354975D01*
X58333025Y-85255393D01*
X58202915Y-85201500D01*
X57930500Y-85201500D01*
X57842000Y-85290000D01*
X57842000Y-85846000D01*
X57862000Y-85846000D01*
X57862000Y-86154000D01*
X57842000Y-86154000D01*
X57842000Y-86174000D01*
X57534000Y-86174000D01*
X57534000Y-86154000D01*
X56978000Y-86154000D01*
X56889500Y-86242500D01*
X56889500Y-86514915D01*
X56935098Y-86625000D01*
X53564987Y-86625000D01*
X54704901Y-85485085D01*
X56889500Y-85485085D01*
X56889500Y-85757500D01*
X56978000Y-85846000D01*
X57534000Y-85846000D01*
X57534000Y-85290000D01*
X57445500Y-85201500D01*
X57173085Y-85201500D01*
X57042975Y-85255393D01*
X56943393Y-85354975D01*
X56889500Y-85485085D01*
X54704901Y-85485085D01*
X55539986Y-84650000D01*
X56949623Y-84650000D01*
X56949623Y-84694500D01*
X56970542Y-84805673D01*
X57036245Y-84907779D01*
X57136497Y-84976278D01*
X57255500Y-85000377D01*
X58144500Y-85000377D01*
X58255673Y-84979458D01*
X58357779Y-84913755D01*
X58426278Y-84813503D01*
X58450377Y-84694500D01*
X58450377Y-83805500D01*
X58430525Y-83700000D01*
X58494988Y-83700000D01*
X58473623Y-83805500D01*
X58473623Y-83805500D01*
G37*
X58473623Y-83805500D02*
X58473623Y-84694500D01*
X58494542Y-84805673D01*
X58560245Y-84907779D01*
X58660497Y-84976278D01*
X58779500Y-85000377D01*
X58824000Y-85000377D01*
X58824000Y-85249623D01*
X58767500Y-85249623D01*
X58656327Y-85270542D01*
X58554221Y-85336245D01*
X58485722Y-85436497D01*
X58479369Y-85467869D01*
X58432607Y-85354975D01*
X58333025Y-85255393D01*
X58202915Y-85201500D01*
X57930500Y-85201500D01*
X57842000Y-85290000D01*
X57842000Y-85846000D01*
X57862000Y-85846000D01*
X57862000Y-86154000D01*
X57842000Y-86154000D01*
X57842000Y-86174000D01*
X57534000Y-86174000D01*
X57534000Y-86154000D01*
X56978000Y-86154000D01*
X56889500Y-86242500D01*
X56889500Y-86514915D01*
X56935098Y-86625000D01*
X53564987Y-86625000D01*
X54704901Y-85485085D01*
X56889500Y-85485085D01*
X56889500Y-85757500D01*
X56978000Y-85846000D01*
X57534000Y-85846000D01*
X57534000Y-85290000D01*
X57445500Y-85201500D01*
X57173085Y-85201500D01*
X57042975Y-85255393D01*
X56943393Y-85354975D01*
X56889500Y-85485085D01*
X54704901Y-85485085D01*
X55539986Y-84650000D01*
X56949623Y-84650000D01*
X56949623Y-84694500D01*
X56970542Y-84805673D01*
X57036245Y-84907779D01*
X57136497Y-84976278D01*
X57255500Y-85000377D01*
X58144500Y-85000377D01*
X58255673Y-84979458D01*
X58357779Y-84913755D01*
X58426278Y-84813503D01*
X58450377Y-84694500D01*
X58450377Y-83805500D01*
X58430525Y-83700000D01*
X58494988Y-83700000D01*
X58473623Y-83805500D01*
G36*
X72975014Y-86625000D02*
X63590689Y-86625000D01*
X63605877Y-86550000D01*
X63605877Y-85450000D01*
X63601173Y-85425000D01*
X74175015Y-85425000D01*
X72975014Y-86625000D01*
X72975014Y-86625000D01*
G37*
X72975014Y-86625000D02*
X63590689Y-86625000D01*
X63605877Y-86550000D01*
X63605877Y-85450000D01*
X63601173Y-85425000D01*
X74175015Y-85425000D01*
X72975014Y-86625000D01*
G36*
X74409314Y-84625000D02*
X63590689Y-84625000D01*
X63605877Y-84550000D01*
X63605877Y-83450000D01*
X63584958Y-83338827D01*
X63519255Y-83236721D01*
X63419003Y-83168222D01*
X63300000Y-83144123D01*
X60709809Y-83144123D01*
X60415686Y-82850000D01*
X76184314Y-82850000D01*
X74409314Y-84625000D01*
X74409314Y-84625000D01*
G37*
X74409314Y-84625000D02*
X63590689Y-84625000D01*
X63605877Y-84550000D01*
X63605877Y-83450000D01*
X63584958Y-83338827D01*
X63519255Y-83236721D01*
X63419003Y-83168222D01*
X63300000Y-83144123D01*
X60709809Y-83144123D01*
X60415686Y-82850000D01*
X76184314Y-82850000D01*
X74409314Y-84625000D01*
M02*
