G04 #@! TF.FileFunction,Copper,L2,Bot,Signal*
%FSLAX46Y46*%
G04 Gerber Fmt 4.6, Leading zero omitted, Abs format (unit mm)*
G04 Created by KiCad (PCBNEW 4.0.2+dfsg1-stable) date Sun 24 Sep 2017 09:19:22 PM CDT*
%MOMM*%
G01*
G04 APERTURE LIST*
%ADD10C,0.100000*%
%ADD11C,1.651000*%
%ADD12R,1.651000X1.651000*%
%ADD13O,1.397000X2.794000*%
%ADD14R,1.905000X1.905000*%
%ADD15C,1.905000*%
%ADD16C,8.000000*%
%ADD17C,0.600000*%
%ADD18C,0.300000*%
%ADD19C,0.200000*%
%ADD20C,0.600000*%
G04 APERTURE END LIST*
D10*
D11*
X77038300Y-146837700D03*
X72974300Y-146837700D03*
D12*
X75006300Y-146837700D03*
D13*
X79171900Y-146837700D03*
X70840700Y-146837700D03*
D12*
X52000000Y-98350000D03*
D11*
X52000000Y-95810000D03*
X52000000Y-93270000D03*
X52000000Y-90730000D03*
X52000000Y-88190000D03*
X52000000Y-85650000D03*
D14*
X66317000Y-107841000D03*
D15*
X66317000Y-112159000D03*
X73683000Y-112159000D03*
X73683000Y-107841000D03*
D14*
X78817000Y-120341000D03*
D15*
X78817000Y-124659000D03*
X86183000Y-124659000D03*
X86183000Y-120341000D03*
D14*
X66317000Y-132841000D03*
D15*
X66317000Y-137159000D03*
X73683000Y-137159000D03*
X73683000Y-132841000D03*
D14*
X53817000Y-120341000D03*
D15*
X53817000Y-124659000D03*
X61183000Y-124659000D03*
X61183000Y-120341000D03*
D16*
X55000000Y-112000000D03*
X85000000Y-112000000D03*
X55000000Y-142000000D03*
X85000000Y-142000000D03*
D12*
X65001240Y-147774960D03*
D11*
X62461240Y-147774960D03*
D17*
X53000000Y-81500000D03*
X76000000Y-92000000D03*
X73000000Y-97000000D03*
X70000000Y-97000000D03*
X67000000Y-97000000D03*
X64000000Y-97000000D03*
X81000000Y-149000000D03*
X85000000Y-149000000D03*
X89000000Y-149000000D03*
X59000000Y-149000000D03*
X55000000Y-149000006D03*
X51000000Y-149000000D03*
X89000000Y-104000000D03*
X60000000Y-91000000D03*
X57000000Y-93000000D03*
X51000000Y-77000000D03*
X52000000Y-76000000D03*
X59400000Y-82000000D03*
X64000000Y-83299994D03*
X59400000Y-80000000D03*
X59400000Y-77999994D03*
X64000000Y-106000000D03*
X68000000Y-106000000D03*
X72000000Y-106000000D03*
X69000000Y-103000000D03*
X66000000Y-103000000D03*
X63200002Y-103000000D03*
X62000000Y-104000000D03*
X84000000Y-99000000D03*
X81000000Y-102000000D03*
X78000000Y-102000000D03*
X89000000Y-98400000D03*
X89000000Y-93400000D03*
X89000000Y-80000001D03*
X89000000Y-86000000D03*
X89000000Y-76000000D03*
X84000000Y-76000000D03*
X65800000Y-125300000D03*
X67000000Y-129000000D03*
X70000000Y-129000000D03*
X67000000Y-126600000D03*
X55000000Y-91000000D03*
X69000000Y-94000000D03*
X64000000Y-94000000D03*
X73000000Y-94000000D03*
X73000000Y-90000000D03*
X64000000Y-90000000D03*
X64000000Y-88000000D03*
X73000000Y-88000000D03*
X73000000Y-86000000D03*
X64000000Y-86000000D03*
X80000000Y-76000000D03*
X80000000Y-78000000D03*
X80000000Y-80000000D03*
X80000000Y-82000000D03*
X67000000Y-83299994D03*
X75000000Y-83300000D03*
X73000000Y-83300000D03*
X70000000Y-83300000D03*
X59400000Y-76000000D03*
X55000010Y-86000000D03*
X52500000Y-134200000D03*
X78000000Y-99100000D03*
X79800000Y-98000000D03*
X83099990Y-94000000D03*
X53750000Y-77000000D03*
X54900000Y-88000000D03*
X68500000Y-115750000D03*
X59500000Y-104250000D03*
X58750000Y-131750000D03*
D18*
X53000000Y-81500000D02*
X54100000Y-81500000D01*
X54100000Y-81500000D02*
X64600000Y-92000000D01*
X64600000Y-92000000D02*
X75575736Y-92000000D01*
X75575736Y-92000000D02*
X76000000Y-92000000D01*
D19*
X70000000Y-97000000D02*
X73000000Y-97000000D01*
X67000000Y-97000000D02*
X70000000Y-97000000D01*
X64000000Y-94000000D02*
X64000000Y-97000000D01*
X89000000Y-149000000D02*
X85000000Y-149000000D01*
X54999994Y-149000000D02*
X55000000Y-149000006D01*
X51000000Y-149000000D02*
X54999994Y-149000000D01*
X59400000Y-82000000D02*
X59400000Y-82200000D01*
X59400000Y-82200000D02*
X60400000Y-83200000D01*
X60400000Y-83200000D02*
X63800000Y-83200000D01*
X63800000Y-83200000D02*
X64000000Y-83400000D01*
X55000000Y-91000000D02*
X57000000Y-93000000D01*
X59400000Y-76000000D02*
X52000000Y-76000000D01*
X64000000Y-83300000D02*
X64000000Y-83400000D01*
X64000000Y-83400000D02*
X64000000Y-86000000D01*
X59400000Y-82200000D02*
X59400000Y-80000000D01*
X59400000Y-76000000D02*
X59400000Y-77999994D01*
X68000000Y-106000000D02*
X64000000Y-106000000D01*
X69000000Y-103000000D02*
X72000000Y-106000000D01*
X63200002Y-103000000D02*
X66000000Y-103000000D01*
X78000000Y-102000000D02*
X81000000Y-102000000D01*
X89000000Y-86000000D02*
X89000000Y-80000001D01*
X84000000Y-76000000D02*
X89000000Y-76000000D01*
X67000000Y-128900000D02*
X67000000Y-129000000D01*
X67000000Y-126600000D02*
X67000000Y-128900000D01*
X73000000Y-94000000D02*
X64000000Y-94000000D01*
X64000000Y-88424264D02*
X64000000Y-90000000D01*
X64000000Y-88000000D02*
X64000000Y-88424264D01*
X73000000Y-86424264D02*
X73000000Y-88000000D01*
X73000000Y-86000000D02*
X73000000Y-86424264D01*
X80000000Y-80000000D02*
X80000000Y-78000000D01*
X79800000Y-83300000D02*
X80000000Y-83100000D01*
X80000000Y-83100000D02*
X80000000Y-82000000D01*
X75000000Y-83300000D02*
X79800000Y-83300000D01*
X64000000Y-83300000D02*
X66999994Y-83300000D01*
X66999994Y-83300000D02*
X67000000Y-83299994D01*
X70000000Y-83300000D02*
X73000000Y-83300000D01*
D20*
X83099990Y-94000000D02*
X82099990Y-93000000D01*
X82099990Y-93000000D02*
X61000000Y-93000000D01*
X61000000Y-93000000D02*
X59500000Y-94500000D01*
X59500000Y-104250000D02*
X59500000Y-94500000D01*
X59500000Y-94500000D02*
X59500000Y-92600000D01*
X53750000Y-77000000D02*
X51250000Y-79500000D01*
X51250000Y-79500000D02*
X51250000Y-82350000D01*
X51250000Y-82350000D02*
X54200000Y-85300000D01*
X54200000Y-85300000D02*
X54200000Y-87300000D01*
X54200000Y-87300000D02*
X54900000Y-88000000D01*
X59500000Y-92600000D02*
X55199999Y-88299999D01*
X55199999Y-88299999D02*
X54900000Y-88000000D01*
X63000000Y-112500000D02*
X63000000Y-107750000D01*
X63000000Y-107750000D02*
X59500000Y-104250000D01*
X68500000Y-115750000D02*
X66250000Y-115750000D01*
X66250000Y-115750000D02*
X63000000Y-112500000D01*
D19*
G36*
X60150000Y-82750000D02*
X60156839Y-82786346D01*
X60178319Y-82819727D01*
X60211094Y-82842121D01*
X60250000Y-82850000D01*
X79500000Y-82850000D01*
X79536346Y-82843161D01*
X79569727Y-82821681D01*
X79592121Y-82788906D01*
X79600000Y-82750000D01*
X79600000Y-75350000D01*
X89650000Y-75350000D01*
X89650000Y-149650000D01*
X50350000Y-149650000D01*
X50350000Y-148664085D01*
X61789904Y-148664085D01*
X61884773Y-148830399D01*
X62332553Y-148970663D01*
X62799924Y-148928892D01*
X63037707Y-148830399D01*
X63132576Y-148664085D01*
X62461240Y-147992749D01*
X61789904Y-148664085D01*
X50350000Y-148664085D01*
X50350000Y-147646273D01*
X61265537Y-147646273D01*
X61307308Y-148113644D01*
X61405801Y-148351427D01*
X61572115Y-148446296D01*
X62243451Y-147774960D01*
X62679029Y-147774960D01*
X63350365Y-148446296D01*
X63516679Y-148351427D01*
X63656943Y-147903647D01*
X63615172Y-147436276D01*
X63516679Y-147198493D01*
X63350365Y-147103624D01*
X62679029Y-147774960D01*
X62243451Y-147774960D01*
X61572115Y-147103624D01*
X61405801Y-147198493D01*
X61265537Y-147646273D01*
X50350000Y-147646273D01*
X50350000Y-146885835D01*
X61789904Y-146885835D01*
X62461240Y-147557171D01*
X63068951Y-146949460D01*
X63869863Y-146949460D01*
X63869863Y-148600460D01*
X63890782Y-148711633D01*
X63956485Y-148813739D01*
X64056737Y-148882238D01*
X64175740Y-148906337D01*
X65826740Y-148906337D01*
X65937913Y-148885418D01*
X66040019Y-148819715D01*
X66108518Y-148719463D01*
X66132617Y-148600460D01*
X66132617Y-146991700D01*
X69788200Y-146991700D01*
X69788200Y-147690200D01*
X69927250Y-148081252D01*
X70205365Y-148389325D01*
X70525721Y-148540464D01*
X70686700Y-148487820D01*
X70686700Y-146991700D01*
X69788200Y-146991700D01*
X66132617Y-146991700D01*
X66132617Y-146949460D01*
X66111698Y-146838287D01*
X66045995Y-146736181D01*
X65945743Y-146667682D01*
X65826740Y-146643583D01*
X64175740Y-146643583D01*
X64064567Y-146664502D01*
X63962461Y-146730205D01*
X63893962Y-146830457D01*
X63869863Y-146949460D01*
X63068951Y-146949460D01*
X63132576Y-146885835D01*
X63037707Y-146719521D01*
X62589927Y-146579257D01*
X62122556Y-146621028D01*
X61884773Y-146719521D01*
X61789904Y-146885835D01*
X50350000Y-146885835D01*
X50350000Y-145985200D01*
X69788200Y-145985200D01*
X69788200Y-146683700D01*
X70686700Y-146683700D01*
X70686700Y-145187580D01*
X70994700Y-145187580D01*
X70994700Y-146683700D01*
X71014700Y-146683700D01*
X71014700Y-146991700D01*
X70994700Y-146991700D01*
X70994700Y-148487820D01*
X71155679Y-148540464D01*
X71476035Y-148389325D01*
X71754150Y-148081252D01*
X71893200Y-147690200D01*
X71893200Y-147168522D01*
X72019591Y-147474412D01*
X72335923Y-147791296D01*
X72749442Y-147963004D01*
X73197194Y-147963395D01*
X73611012Y-147792409D01*
X73874923Y-147528958D01*
X73874923Y-147663200D01*
X73895842Y-147774373D01*
X73961545Y-147876479D01*
X74061797Y-147944978D01*
X74180800Y-147969077D01*
X75831800Y-147969077D01*
X75942973Y-147948158D01*
X76045079Y-147882455D01*
X76113578Y-147782203D01*
X76137677Y-147663200D01*
X76137677Y-147528592D01*
X76399923Y-147791296D01*
X76813442Y-147963004D01*
X77261194Y-147963395D01*
X77675012Y-147792409D01*
X77991896Y-147476077D01*
X78119400Y-147169013D01*
X78119400Y-147690200D01*
X78258450Y-148081252D01*
X78536565Y-148389325D01*
X78856921Y-148540464D01*
X79017900Y-148487820D01*
X79017900Y-146991700D01*
X79325900Y-146991700D01*
X79325900Y-148487820D01*
X79486879Y-148540464D01*
X79807235Y-148389325D01*
X80085350Y-148081252D01*
X80224400Y-147690200D01*
X80224400Y-146991700D01*
X79325900Y-146991700D01*
X79017900Y-146991700D01*
X78997900Y-146991700D01*
X78997900Y-146683700D01*
X79017900Y-146683700D01*
X79017900Y-145187580D01*
X79325900Y-145187580D01*
X79325900Y-146683700D01*
X80224400Y-146683700D01*
X80224400Y-145985200D01*
X80085350Y-145594148D01*
X79807235Y-145286075D01*
X79486879Y-145134936D01*
X79325900Y-145187580D01*
X79017900Y-145187580D01*
X78856921Y-145134936D01*
X78536565Y-145286075D01*
X78258450Y-145594148D01*
X78119400Y-145985200D01*
X78119400Y-146506878D01*
X77993009Y-146200988D01*
X77676677Y-145884104D01*
X77263158Y-145712396D01*
X76815406Y-145712005D01*
X76401588Y-145882991D01*
X76137677Y-146146442D01*
X76137677Y-146012200D01*
X76116758Y-145901027D01*
X76051055Y-145798921D01*
X75950803Y-145730422D01*
X75831800Y-145706323D01*
X74180800Y-145706323D01*
X74069627Y-145727242D01*
X73967521Y-145792945D01*
X73899022Y-145893197D01*
X73874923Y-146012200D01*
X73874923Y-146146808D01*
X73612677Y-145884104D01*
X73199158Y-145712396D01*
X72751406Y-145712005D01*
X72337588Y-145882991D01*
X72020704Y-146199323D01*
X71893200Y-146506387D01*
X71893200Y-145985200D01*
X71754150Y-145594148D01*
X71476035Y-145286075D01*
X71155679Y-145134936D01*
X70994700Y-145187580D01*
X70686700Y-145187580D01*
X70525721Y-145134936D01*
X70205365Y-145286075D01*
X69927250Y-145594148D01*
X69788200Y-145985200D01*
X50350000Y-145985200D01*
X50350000Y-138140481D01*
X65553308Y-138140481D01*
X65663852Y-138319981D01*
X66157859Y-138481556D01*
X66676092Y-138441783D01*
X66970148Y-138319981D01*
X67080692Y-138140481D01*
X72919308Y-138140481D01*
X73029852Y-138319981D01*
X73523859Y-138481556D01*
X74042092Y-138441783D01*
X74336148Y-138319981D01*
X74446692Y-138140481D01*
X73683000Y-137376789D01*
X72919308Y-138140481D01*
X67080692Y-138140481D01*
X66317000Y-137376789D01*
X65553308Y-138140481D01*
X50350000Y-138140481D01*
X50350000Y-136999859D01*
X64994444Y-136999859D01*
X65034217Y-137518092D01*
X65156019Y-137812148D01*
X65335519Y-137922692D01*
X66099211Y-137159000D01*
X66534789Y-137159000D01*
X67298481Y-137922692D01*
X67477981Y-137812148D01*
X67639556Y-137318141D01*
X67615129Y-136999859D01*
X72360444Y-136999859D01*
X72400217Y-137518092D01*
X72522019Y-137812148D01*
X72701519Y-137922692D01*
X73465211Y-137159000D01*
X73900789Y-137159000D01*
X74664481Y-137922692D01*
X74843981Y-137812148D01*
X75005556Y-137318141D01*
X74965783Y-136799908D01*
X74843981Y-136505852D01*
X74664481Y-136395308D01*
X73900789Y-137159000D01*
X73465211Y-137159000D01*
X72701519Y-136395308D01*
X72522019Y-136505852D01*
X72360444Y-136999859D01*
X67615129Y-136999859D01*
X67599783Y-136799908D01*
X67477981Y-136505852D01*
X67298481Y-136395308D01*
X66534789Y-137159000D01*
X66099211Y-137159000D01*
X65335519Y-136395308D01*
X65156019Y-136505852D01*
X64994444Y-136999859D01*
X50350000Y-136999859D01*
X50350000Y-136177519D01*
X65553308Y-136177519D01*
X66317000Y-136941211D01*
X67080692Y-136177519D01*
X72919308Y-136177519D01*
X73683000Y-136941211D01*
X74446692Y-136177519D01*
X74336148Y-135998019D01*
X73842141Y-135836444D01*
X73323908Y-135876217D01*
X73029852Y-135998019D01*
X72919308Y-136177519D01*
X67080692Y-136177519D01*
X66970148Y-135998019D01*
X66476141Y-135836444D01*
X65957908Y-135876217D01*
X65663852Y-135998019D01*
X65553308Y-136177519D01*
X50350000Y-136177519D01*
X50350000Y-131868824D01*
X58149896Y-131868824D01*
X58241048Y-132089429D01*
X58409683Y-132258359D01*
X58630129Y-132349896D01*
X58868824Y-132350104D01*
X59089429Y-132258952D01*
X59258359Y-132090317D01*
X59342160Y-131888500D01*
X65058623Y-131888500D01*
X65058623Y-133793500D01*
X65079542Y-133904673D01*
X65145245Y-134006779D01*
X65245497Y-134075278D01*
X65364500Y-134099377D01*
X67269500Y-134099377D01*
X67380673Y-134078458D01*
X67482779Y-134012755D01*
X67551278Y-133912503D01*
X67575377Y-133793500D01*
X67575377Y-133089045D01*
X72430283Y-133089045D01*
X72620563Y-133549557D01*
X72972589Y-133902199D01*
X73432769Y-134093282D01*
X73931045Y-134093717D01*
X74391557Y-133903437D01*
X74744199Y-133551411D01*
X74935282Y-133091231D01*
X74935717Y-132592955D01*
X74745437Y-132132443D01*
X74393411Y-131779801D01*
X73933231Y-131588718D01*
X73434955Y-131588283D01*
X72974443Y-131778563D01*
X72621801Y-132130589D01*
X72430718Y-132590769D01*
X72430283Y-133089045D01*
X67575377Y-133089045D01*
X67575377Y-131888500D01*
X67554458Y-131777327D01*
X67488755Y-131675221D01*
X67388503Y-131606722D01*
X67269500Y-131582623D01*
X65364500Y-131582623D01*
X65253327Y-131603542D01*
X65151221Y-131669245D01*
X65082722Y-131769497D01*
X65058623Y-131888500D01*
X59342160Y-131888500D01*
X59349896Y-131869871D01*
X59350104Y-131631176D01*
X59258952Y-131410571D01*
X59090317Y-131241641D01*
X58869871Y-131150104D01*
X58631176Y-131149896D01*
X58410571Y-131241048D01*
X58241641Y-131409683D01*
X58150104Y-131630129D01*
X58149896Y-131868824D01*
X50350000Y-131868824D01*
X50350000Y-125640481D01*
X53053308Y-125640481D01*
X53163852Y-125819981D01*
X53657859Y-125981556D01*
X54176092Y-125941783D01*
X54470148Y-125819981D01*
X54580692Y-125640481D01*
X60419308Y-125640481D01*
X60529852Y-125819981D01*
X61023859Y-125981556D01*
X61542092Y-125941783D01*
X61836148Y-125819981D01*
X61946692Y-125640481D01*
X78053308Y-125640481D01*
X78163852Y-125819981D01*
X78657859Y-125981556D01*
X79176092Y-125941783D01*
X79470148Y-125819981D01*
X79580692Y-125640481D01*
X85419308Y-125640481D01*
X85529852Y-125819981D01*
X86023859Y-125981556D01*
X86542092Y-125941783D01*
X86836148Y-125819981D01*
X86946692Y-125640481D01*
X86183000Y-124876789D01*
X85419308Y-125640481D01*
X79580692Y-125640481D01*
X78817000Y-124876789D01*
X78053308Y-125640481D01*
X61946692Y-125640481D01*
X61183000Y-124876789D01*
X60419308Y-125640481D01*
X54580692Y-125640481D01*
X53817000Y-124876789D01*
X53053308Y-125640481D01*
X50350000Y-125640481D01*
X50350000Y-124499859D01*
X52494444Y-124499859D01*
X52534217Y-125018092D01*
X52656019Y-125312148D01*
X52835519Y-125422692D01*
X53599211Y-124659000D01*
X54034789Y-124659000D01*
X54798481Y-125422692D01*
X54977981Y-125312148D01*
X55139556Y-124818141D01*
X55115129Y-124499859D01*
X59860444Y-124499859D01*
X59900217Y-125018092D01*
X60022019Y-125312148D01*
X60201519Y-125422692D01*
X60965211Y-124659000D01*
X61400789Y-124659000D01*
X62164481Y-125422692D01*
X62343981Y-125312148D01*
X62505556Y-124818141D01*
X62481129Y-124499859D01*
X77494444Y-124499859D01*
X77534217Y-125018092D01*
X77656019Y-125312148D01*
X77835519Y-125422692D01*
X78599211Y-124659000D01*
X79034789Y-124659000D01*
X79798481Y-125422692D01*
X79977981Y-125312148D01*
X80139556Y-124818141D01*
X80115129Y-124499859D01*
X84860444Y-124499859D01*
X84900217Y-125018092D01*
X85022019Y-125312148D01*
X85201519Y-125422692D01*
X85965211Y-124659000D01*
X86400789Y-124659000D01*
X87164481Y-125422692D01*
X87343981Y-125312148D01*
X87505556Y-124818141D01*
X87465783Y-124299908D01*
X87343981Y-124005852D01*
X87164481Y-123895308D01*
X86400789Y-124659000D01*
X85965211Y-124659000D01*
X85201519Y-123895308D01*
X85022019Y-124005852D01*
X84860444Y-124499859D01*
X80115129Y-124499859D01*
X80099783Y-124299908D01*
X79977981Y-124005852D01*
X79798481Y-123895308D01*
X79034789Y-124659000D01*
X78599211Y-124659000D01*
X77835519Y-123895308D01*
X77656019Y-124005852D01*
X77494444Y-124499859D01*
X62481129Y-124499859D01*
X62465783Y-124299908D01*
X62343981Y-124005852D01*
X62164481Y-123895308D01*
X61400789Y-124659000D01*
X60965211Y-124659000D01*
X60201519Y-123895308D01*
X60022019Y-124005852D01*
X59860444Y-124499859D01*
X55115129Y-124499859D01*
X55099783Y-124299908D01*
X54977981Y-124005852D01*
X54798481Y-123895308D01*
X54034789Y-124659000D01*
X53599211Y-124659000D01*
X52835519Y-123895308D01*
X52656019Y-124005852D01*
X52494444Y-124499859D01*
X50350000Y-124499859D01*
X50350000Y-123677519D01*
X53053308Y-123677519D01*
X53817000Y-124441211D01*
X54580692Y-123677519D01*
X60419308Y-123677519D01*
X61183000Y-124441211D01*
X61946692Y-123677519D01*
X78053308Y-123677519D01*
X78817000Y-124441211D01*
X79580692Y-123677519D01*
X85419308Y-123677519D01*
X86183000Y-124441211D01*
X86946692Y-123677519D01*
X86836148Y-123498019D01*
X86342141Y-123336444D01*
X85823908Y-123376217D01*
X85529852Y-123498019D01*
X85419308Y-123677519D01*
X79580692Y-123677519D01*
X79470148Y-123498019D01*
X78976141Y-123336444D01*
X78457908Y-123376217D01*
X78163852Y-123498019D01*
X78053308Y-123677519D01*
X61946692Y-123677519D01*
X61836148Y-123498019D01*
X61342141Y-123336444D01*
X60823908Y-123376217D01*
X60529852Y-123498019D01*
X60419308Y-123677519D01*
X54580692Y-123677519D01*
X54470148Y-123498019D01*
X53976141Y-123336444D01*
X53457908Y-123376217D01*
X53163852Y-123498019D01*
X53053308Y-123677519D01*
X50350000Y-123677519D01*
X50350000Y-119388500D01*
X52558623Y-119388500D01*
X52558623Y-121293500D01*
X52579542Y-121404673D01*
X52645245Y-121506779D01*
X52745497Y-121575278D01*
X52864500Y-121599377D01*
X54769500Y-121599377D01*
X54880673Y-121578458D01*
X54982779Y-121512755D01*
X55051278Y-121412503D01*
X55075377Y-121293500D01*
X55075377Y-120589045D01*
X59930283Y-120589045D01*
X60120563Y-121049557D01*
X60472589Y-121402199D01*
X60932769Y-121593282D01*
X61431045Y-121593717D01*
X61891557Y-121403437D01*
X62244199Y-121051411D01*
X62435282Y-120591231D01*
X62435717Y-120092955D01*
X62245437Y-119632443D01*
X62001921Y-119388500D01*
X77558623Y-119388500D01*
X77558623Y-121293500D01*
X77579542Y-121404673D01*
X77645245Y-121506779D01*
X77745497Y-121575278D01*
X77864500Y-121599377D01*
X79769500Y-121599377D01*
X79880673Y-121578458D01*
X79982779Y-121512755D01*
X80051278Y-121412503D01*
X80075377Y-121293500D01*
X80075377Y-120589045D01*
X84930283Y-120589045D01*
X85120563Y-121049557D01*
X85472589Y-121402199D01*
X85932769Y-121593282D01*
X86431045Y-121593717D01*
X86891557Y-121403437D01*
X87244199Y-121051411D01*
X87435282Y-120591231D01*
X87435717Y-120092955D01*
X87245437Y-119632443D01*
X86893411Y-119279801D01*
X86433231Y-119088718D01*
X85934955Y-119088283D01*
X85474443Y-119278563D01*
X85121801Y-119630589D01*
X84930718Y-120090769D01*
X84930283Y-120589045D01*
X80075377Y-120589045D01*
X80075377Y-119388500D01*
X80054458Y-119277327D01*
X79988755Y-119175221D01*
X79888503Y-119106722D01*
X79769500Y-119082623D01*
X77864500Y-119082623D01*
X77753327Y-119103542D01*
X77651221Y-119169245D01*
X77582722Y-119269497D01*
X77558623Y-119388500D01*
X62001921Y-119388500D01*
X61893411Y-119279801D01*
X61433231Y-119088718D01*
X60934955Y-119088283D01*
X60474443Y-119278563D01*
X60121801Y-119630589D01*
X59930718Y-120090769D01*
X59930283Y-120589045D01*
X55075377Y-120589045D01*
X55075377Y-119388500D01*
X55054458Y-119277327D01*
X54988755Y-119175221D01*
X54888503Y-119106722D01*
X54769500Y-119082623D01*
X52864500Y-119082623D01*
X52753327Y-119103542D01*
X52651221Y-119169245D01*
X52582722Y-119269497D01*
X52558623Y-119388500D01*
X50350000Y-119388500D01*
X50350000Y-98592500D01*
X50820500Y-98592500D01*
X50820500Y-99245915D01*
X50874393Y-99376025D01*
X50973975Y-99475607D01*
X51104085Y-99529500D01*
X51757500Y-99529500D01*
X51846000Y-99441000D01*
X51846000Y-98504000D01*
X52154000Y-98504000D01*
X52154000Y-99441000D01*
X52242500Y-99529500D01*
X52895915Y-99529500D01*
X53026025Y-99475607D01*
X53125607Y-99376025D01*
X53179500Y-99245915D01*
X53179500Y-98592500D01*
X53091000Y-98504000D01*
X52154000Y-98504000D01*
X51846000Y-98504000D01*
X50909000Y-98504000D01*
X50820500Y-98592500D01*
X50350000Y-98592500D01*
X50350000Y-97454085D01*
X50820500Y-97454085D01*
X50820500Y-98107500D01*
X50909000Y-98196000D01*
X51846000Y-98196000D01*
X51846000Y-97259000D01*
X52154000Y-97259000D01*
X52154000Y-98196000D01*
X53091000Y-98196000D01*
X53179500Y-98107500D01*
X53179500Y-97454085D01*
X53125607Y-97323975D01*
X53026025Y-97224393D01*
X52895915Y-97170500D01*
X52242500Y-97170500D01*
X52154000Y-97259000D01*
X51846000Y-97259000D01*
X51757500Y-97170500D01*
X51104085Y-97170500D01*
X50973975Y-97224393D01*
X50874393Y-97323975D01*
X50820500Y-97454085D01*
X50350000Y-97454085D01*
X50350000Y-96032894D01*
X50874305Y-96032894D01*
X51045291Y-96446712D01*
X51361623Y-96763596D01*
X51775142Y-96935304D01*
X52222894Y-96935695D01*
X52636712Y-96764709D01*
X52953596Y-96448377D01*
X53125304Y-96034858D01*
X53125695Y-95587106D01*
X52954709Y-95173288D01*
X52638377Y-94856404D01*
X52224858Y-94684696D01*
X51777106Y-94684305D01*
X51363288Y-94855291D01*
X51046404Y-95171623D01*
X50874696Y-95585142D01*
X50874305Y-96032894D01*
X50350000Y-96032894D01*
X50350000Y-93492894D01*
X50874305Y-93492894D01*
X51045291Y-93906712D01*
X51361623Y-94223596D01*
X51775142Y-94395304D01*
X52222894Y-94395695D01*
X52636712Y-94224709D01*
X52953596Y-93908377D01*
X53125304Y-93494858D01*
X53125695Y-93047106D01*
X52954709Y-92633288D01*
X52638377Y-92316404D01*
X52224858Y-92144696D01*
X51777106Y-92144305D01*
X51363288Y-92315291D01*
X51046404Y-92631623D01*
X50874696Y-93045142D01*
X50874305Y-93492894D01*
X50350000Y-93492894D01*
X50350000Y-90952894D01*
X50874305Y-90952894D01*
X51045291Y-91366712D01*
X51361623Y-91683596D01*
X51775142Y-91855304D01*
X52222894Y-91855695D01*
X52636712Y-91684709D01*
X52953596Y-91368377D01*
X53125304Y-90954858D01*
X53125695Y-90507106D01*
X52954709Y-90093288D01*
X52638377Y-89776404D01*
X52224858Y-89604696D01*
X51777106Y-89604305D01*
X51363288Y-89775291D01*
X51046404Y-90091623D01*
X50874696Y-90505142D01*
X50874305Y-90952894D01*
X50350000Y-90952894D01*
X50350000Y-88412894D01*
X50874305Y-88412894D01*
X51045291Y-88826712D01*
X51361623Y-89143596D01*
X51775142Y-89315304D01*
X52222894Y-89315695D01*
X52636712Y-89144709D01*
X52953596Y-88828377D01*
X53125304Y-88414858D01*
X53125695Y-87967106D01*
X52954709Y-87553288D01*
X52638377Y-87236404D01*
X52224858Y-87064696D01*
X51777106Y-87064305D01*
X51363288Y-87235291D01*
X51046404Y-87551623D01*
X50874696Y-87965142D01*
X50874305Y-88412894D01*
X50350000Y-88412894D01*
X50350000Y-85872894D01*
X50874305Y-85872894D01*
X51045291Y-86286712D01*
X51361623Y-86603596D01*
X51775142Y-86775304D01*
X52222894Y-86775695D01*
X52636712Y-86604709D01*
X52953596Y-86288377D01*
X53125304Y-85874858D01*
X53125695Y-85427106D01*
X52954709Y-85013288D01*
X52638377Y-84696404D01*
X52224858Y-84524696D01*
X51777106Y-84524305D01*
X51363288Y-84695291D01*
X51046404Y-85011623D01*
X50874696Y-85425142D01*
X50874305Y-85872894D01*
X50350000Y-85872894D01*
X50350000Y-79500000D01*
X50650000Y-79500000D01*
X50650000Y-82350000D01*
X50695672Y-82579610D01*
X50825736Y-82774264D01*
X53600000Y-85548528D01*
X53600000Y-87300000D01*
X53645672Y-87529610D01*
X53775736Y-87724264D01*
X54475080Y-88423608D01*
X54559683Y-88508359D01*
X54559936Y-88508464D01*
X58900000Y-92848528D01*
X58900000Y-104249477D01*
X58899896Y-104368824D01*
X58991048Y-104589429D01*
X59159683Y-104758359D01*
X59159936Y-104758464D01*
X62400000Y-107998528D01*
X62400000Y-112500000D01*
X62445672Y-112729610D01*
X62575736Y-112924264D01*
X65825736Y-116174264D01*
X66020390Y-116304328D01*
X66250000Y-116350000D01*
X68499476Y-116350000D01*
X68618824Y-116350104D01*
X68839429Y-116258952D01*
X69008359Y-116090317D01*
X69099896Y-115869871D01*
X69100104Y-115631176D01*
X69008952Y-115410571D01*
X68840317Y-115241641D01*
X68619871Y-115150104D01*
X68381176Y-115149896D01*
X68380924Y-115150000D01*
X66498528Y-115150000D01*
X64489009Y-113140481D01*
X65553308Y-113140481D01*
X65663852Y-113319981D01*
X66157859Y-113481556D01*
X66676092Y-113441783D01*
X66970148Y-113319981D01*
X67080692Y-113140481D01*
X72919308Y-113140481D01*
X73029852Y-113319981D01*
X73523859Y-113481556D01*
X74042092Y-113441783D01*
X74336148Y-113319981D01*
X74446692Y-113140481D01*
X73683000Y-112376789D01*
X72919308Y-113140481D01*
X67080692Y-113140481D01*
X66317000Y-112376789D01*
X65553308Y-113140481D01*
X64489009Y-113140481D01*
X63600000Y-112251472D01*
X63600000Y-111999859D01*
X64994444Y-111999859D01*
X65034217Y-112518092D01*
X65156019Y-112812148D01*
X65335519Y-112922692D01*
X66099211Y-112159000D01*
X66534789Y-112159000D01*
X67298481Y-112922692D01*
X67477981Y-112812148D01*
X67639556Y-112318141D01*
X67615129Y-111999859D01*
X72360444Y-111999859D01*
X72400217Y-112518092D01*
X72522019Y-112812148D01*
X72701519Y-112922692D01*
X73465211Y-112159000D01*
X73900789Y-112159000D01*
X74664481Y-112922692D01*
X74843981Y-112812148D01*
X75005556Y-112318141D01*
X74965783Y-111799908D01*
X74843981Y-111505852D01*
X74664481Y-111395308D01*
X73900789Y-112159000D01*
X73465211Y-112159000D01*
X72701519Y-111395308D01*
X72522019Y-111505852D01*
X72360444Y-111999859D01*
X67615129Y-111999859D01*
X67599783Y-111799908D01*
X67477981Y-111505852D01*
X67298481Y-111395308D01*
X66534789Y-112159000D01*
X66099211Y-112159000D01*
X65335519Y-111395308D01*
X65156019Y-111505852D01*
X64994444Y-111999859D01*
X63600000Y-111999859D01*
X63600000Y-111177519D01*
X65553308Y-111177519D01*
X66317000Y-111941211D01*
X67080692Y-111177519D01*
X72919308Y-111177519D01*
X73683000Y-111941211D01*
X74446692Y-111177519D01*
X74336148Y-110998019D01*
X73842141Y-110836444D01*
X73323908Y-110876217D01*
X73029852Y-110998019D01*
X72919308Y-111177519D01*
X67080692Y-111177519D01*
X66970148Y-110998019D01*
X66476141Y-110836444D01*
X65957908Y-110876217D01*
X65663852Y-110998019D01*
X65553308Y-111177519D01*
X63600000Y-111177519D01*
X63600000Y-107750000D01*
X63554328Y-107520390D01*
X63554328Y-107520389D01*
X63424264Y-107325736D01*
X62987028Y-106888500D01*
X65058623Y-106888500D01*
X65058623Y-108793500D01*
X65079542Y-108904673D01*
X65145245Y-109006779D01*
X65245497Y-109075278D01*
X65364500Y-109099377D01*
X67269500Y-109099377D01*
X67380673Y-109078458D01*
X67482779Y-109012755D01*
X67551278Y-108912503D01*
X67575377Y-108793500D01*
X67575377Y-108089045D01*
X72430283Y-108089045D01*
X72620563Y-108549557D01*
X72972589Y-108902199D01*
X73432769Y-109093282D01*
X73931045Y-109093717D01*
X74391557Y-108903437D01*
X74744199Y-108551411D01*
X74935282Y-108091231D01*
X74935717Y-107592955D01*
X74745437Y-107132443D01*
X74393411Y-106779801D01*
X73933231Y-106588718D01*
X73434955Y-106588283D01*
X72974443Y-106778563D01*
X72621801Y-107130589D01*
X72430718Y-107590769D01*
X72430283Y-108089045D01*
X67575377Y-108089045D01*
X67575377Y-106888500D01*
X67554458Y-106777327D01*
X67488755Y-106675221D01*
X67388503Y-106606722D01*
X67269500Y-106582623D01*
X65364500Y-106582623D01*
X65253327Y-106603542D01*
X65151221Y-106669245D01*
X65082722Y-106769497D01*
X65058623Y-106888500D01*
X62987028Y-106888500D01*
X60100000Y-104001472D01*
X60100000Y-94748528D01*
X61248528Y-93600000D01*
X81851462Y-93600000D01*
X82675070Y-94423608D01*
X82759673Y-94508359D01*
X82980119Y-94599896D01*
X83218814Y-94600104D01*
X83439419Y-94508952D01*
X83608349Y-94340317D01*
X83699886Y-94119871D01*
X83700094Y-93881176D01*
X83608942Y-93660571D01*
X83440307Y-93491641D01*
X83440054Y-93491536D01*
X82524254Y-92575736D01*
X82329600Y-92445672D01*
X82099990Y-92400000D01*
X76448572Y-92400000D01*
X76508359Y-92340317D01*
X76599896Y-92119871D01*
X76600104Y-91881176D01*
X76508952Y-91660571D01*
X76340317Y-91491641D01*
X76119871Y-91400104D01*
X75881176Y-91399896D01*
X75660571Y-91491048D01*
X75601516Y-91550000D01*
X64786396Y-91550000D01*
X54418198Y-81181802D01*
X54385095Y-81159683D01*
X54272208Y-81084254D01*
X54100000Y-81050000D01*
X53398574Y-81050000D01*
X53340317Y-80991641D01*
X53119871Y-80900104D01*
X52881176Y-80899896D01*
X52660571Y-80991048D01*
X52491641Y-81159683D01*
X52400104Y-81380129D01*
X52399896Y-81618824D01*
X52491048Y-81839429D01*
X52659683Y-82008359D01*
X52880129Y-82099896D01*
X53118824Y-82100104D01*
X53339429Y-82008952D01*
X53398484Y-81950000D01*
X53913604Y-81950000D01*
X64281802Y-92318198D01*
X64404227Y-92400000D01*
X61000000Y-92400000D01*
X60770389Y-92445672D01*
X60575736Y-92575736D01*
X60100000Y-93051472D01*
X60100000Y-92600000D01*
X60054328Y-92370390D01*
X59924264Y-92175736D01*
X55324920Y-87576392D01*
X55240317Y-87491641D01*
X55240064Y-87491536D01*
X54800000Y-87051472D01*
X54800000Y-85300000D01*
X54754328Y-85070390D01*
X54624264Y-84875736D01*
X51850000Y-82101472D01*
X51850000Y-79748528D01*
X54173608Y-77424920D01*
X54258359Y-77340317D01*
X54349896Y-77119871D01*
X54350104Y-76881176D01*
X54258952Y-76660571D01*
X54090317Y-76491641D01*
X53869871Y-76400104D01*
X53631176Y-76399896D01*
X53410571Y-76491048D01*
X53241641Y-76659683D01*
X53241536Y-76659936D01*
X50825736Y-79075736D01*
X50695672Y-79270390D01*
X50650000Y-79500000D01*
X50350000Y-79500000D01*
X50350000Y-75350000D01*
X60150000Y-75350000D01*
X60150000Y-82750000D01*
X60150000Y-82750000D01*
G37*
X60150000Y-82750000D02*
X60156839Y-82786346D01*
X60178319Y-82819727D01*
X60211094Y-82842121D01*
X60250000Y-82850000D01*
X79500000Y-82850000D01*
X79536346Y-82843161D01*
X79569727Y-82821681D01*
X79592121Y-82788906D01*
X79600000Y-82750000D01*
X79600000Y-75350000D01*
X89650000Y-75350000D01*
X89650000Y-149650000D01*
X50350000Y-149650000D01*
X50350000Y-148664085D01*
X61789904Y-148664085D01*
X61884773Y-148830399D01*
X62332553Y-148970663D01*
X62799924Y-148928892D01*
X63037707Y-148830399D01*
X63132576Y-148664085D01*
X62461240Y-147992749D01*
X61789904Y-148664085D01*
X50350000Y-148664085D01*
X50350000Y-147646273D01*
X61265537Y-147646273D01*
X61307308Y-148113644D01*
X61405801Y-148351427D01*
X61572115Y-148446296D01*
X62243451Y-147774960D01*
X62679029Y-147774960D01*
X63350365Y-148446296D01*
X63516679Y-148351427D01*
X63656943Y-147903647D01*
X63615172Y-147436276D01*
X63516679Y-147198493D01*
X63350365Y-147103624D01*
X62679029Y-147774960D01*
X62243451Y-147774960D01*
X61572115Y-147103624D01*
X61405801Y-147198493D01*
X61265537Y-147646273D01*
X50350000Y-147646273D01*
X50350000Y-146885835D01*
X61789904Y-146885835D01*
X62461240Y-147557171D01*
X63068951Y-146949460D01*
X63869863Y-146949460D01*
X63869863Y-148600460D01*
X63890782Y-148711633D01*
X63956485Y-148813739D01*
X64056737Y-148882238D01*
X64175740Y-148906337D01*
X65826740Y-148906337D01*
X65937913Y-148885418D01*
X66040019Y-148819715D01*
X66108518Y-148719463D01*
X66132617Y-148600460D01*
X66132617Y-146991700D01*
X69788200Y-146991700D01*
X69788200Y-147690200D01*
X69927250Y-148081252D01*
X70205365Y-148389325D01*
X70525721Y-148540464D01*
X70686700Y-148487820D01*
X70686700Y-146991700D01*
X69788200Y-146991700D01*
X66132617Y-146991700D01*
X66132617Y-146949460D01*
X66111698Y-146838287D01*
X66045995Y-146736181D01*
X65945743Y-146667682D01*
X65826740Y-146643583D01*
X64175740Y-146643583D01*
X64064567Y-146664502D01*
X63962461Y-146730205D01*
X63893962Y-146830457D01*
X63869863Y-146949460D01*
X63068951Y-146949460D01*
X63132576Y-146885835D01*
X63037707Y-146719521D01*
X62589927Y-146579257D01*
X62122556Y-146621028D01*
X61884773Y-146719521D01*
X61789904Y-146885835D01*
X50350000Y-146885835D01*
X50350000Y-145985200D01*
X69788200Y-145985200D01*
X69788200Y-146683700D01*
X70686700Y-146683700D01*
X70686700Y-145187580D01*
X70994700Y-145187580D01*
X70994700Y-146683700D01*
X71014700Y-146683700D01*
X71014700Y-146991700D01*
X70994700Y-146991700D01*
X70994700Y-148487820D01*
X71155679Y-148540464D01*
X71476035Y-148389325D01*
X71754150Y-148081252D01*
X71893200Y-147690200D01*
X71893200Y-147168522D01*
X72019591Y-147474412D01*
X72335923Y-147791296D01*
X72749442Y-147963004D01*
X73197194Y-147963395D01*
X73611012Y-147792409D01*
X73874923Y-147528958D01*
X73874923Y-147663200D01*
X73895842Y-147774373D01*
X73961545Y-147876479D01*
X74061797Y-147944978D01*
X74180800Y-147969077D01*
X75831800Y-147969077D01*
X75942973Y-147948158D01*
X76045079Y-147882455D01*
X76113578Y-147782203D01*
X76137677Y-147663200D01*
X76137677Y-147528592D01*
X76399923Y-147791296D01*
X76813442Y-147963004D01*
X77261194Y-147963395D01*
X77675012Y-147792409D01*
X77991896Y-147476077D01*
X78119400Y-147169013D01*
X78119400Y-147690200D01*
X78258450Y-148081252D01*
X78536565Y-148389325D01*
X78856921Y-148540464D01*
X79017900Y-148487820D01*
X79017900Y-146991700D01*
X79325900Y-146991700D01*
X79325900Y-148487820D01*
X79486879Y-148540464D01*
X79807235Y-148389325D01*
X80085350Y-148081252D01*
X80224400Y-147690200D01*
X80224400Y-146991700D01*
X79325900Y-146991700D01*
X79017900Y-146991700D01*
X78997900Y-146991700D01*
X78997900Y-146683700D01*
X79017900Y-146683700D01*
X79017900Y-145187580D01*
X79325900Y-145187580D01*
X79325900Y-146683700D01*
X80224400Y-146683700D01*
X80224400Y-145985200D01*
X80085350Y-145594148D01*
X79807235Y-145286075D01*
X79486879Y-145134936D01*
X79325900Y-145187580D01*
X79017900Y-145187580D01*
X78856921Y-145134936D01*
X78536565Y-145286075D01*
X78258450Y-145594148D01*
X78119400Y-145985200D01*
X78119400Y-146506878D01*
X77993009Y-146200988D01*
X77676677Y-145884104D01*
X77263158Y-145712396D01*
X76815406Y-145712005D01*
X76401588Y-145882991D01*
X76137677Y-146146442D01*
X76137677Y-146012200D01*
X76116758Y-145901027D01*
X76051055Y-145798921D01*
X75950803Y-145730422D01*
X75831800Y-145706323D01*
X74180800Y-145706323D01*
X74069627Y-145727242D01*
X73967521Y-145792945D01*
X73899022Y-145893197D01*
X73874923Y-146012200D01*
X73874923Y-146146808D01*
X73612677Y-145884104D01*
X73199158Y-145712396D01*
X72751406Y-145712005D01*
X72337588Y-145882991D01*
X72020704Y-146199323D01*
X71893200Y-146506387D01*
X71893200Y-145985200D01*
X71754150Y-145594148D01*
X71476035Y-145286075D01*
X71155679Y-145134936D01*
X70994700Y-145187580D01*
X70686700Y-145187580D01*
X70525721Y-145134936D01*
X70205365Y-145286075D01*
X69927250Y-145594148D01*
X69788200Y-145985200D01*
X50350000Y-145985200D01*
X50350000Y-138140481D01*
X65553308Y-138140481D01*
X65663852Y-138319981D01*
X66157859Y-138481556D01*
X66676092Y-138441783D01*
X66970148Y-138319981D01*
X67080692Y-138140481D01*
X72919308Y-138140481D01*
X73029852Y-138319981D01*
X73523859Y-138481556D01*
X74042092Y-138441783D01*
X74336148Y-138319981D01*
X74446692Y-138140481D01*
X73683000Y-137376789D01*
X72919308Y-138140481D01*
X67080692Y-138140481D01*
X66317000Y-137376789D01*
X65553308Y-138140481D01*
X50350000Y-138140481D01*
X50350000Y-136999859D01*
X64994444Y-136999859D01*
X65034217Y-137518092D01*
X65156019Y-137812148D01*
X65335519Y-137922692D01*
X66099211Y-137159000D01*
X66534789Y-137159000D01*
X67298481Y-137922692D01*
X67477981Y-137812148D01*
X67639556Y-137318141D01*
X67615129Y-136999859D01*
X72360444Y-136999859D01*
X72400217Y-137518092D01*
X72522019Y-137812148D01*
X72701519Y-137922692D01*
X73465211Y-137159000D01*
X73900789Y-137159000D01*
X74664481Y-137922692D01*
X74843981Y-137812148D01*
X75005556Y-137318141D01*
X74965783Y-136799908D01*
X74843981Y-136505852D01*
X74664481Y-136395308D01*
X73900789Y-137159000D01*
X73465211Y-137159000D01*
X72701519Y-136395308D01*
X72522019Y-136505852D01*
X72360444Y-136999859D01*
X67615129Y-136999859D01*
X67599783Y-136799908D01*
X67477981Y-136505852D01*
X67298481Y-136395308D01*
X66534789Y-137159000D01*
X66099211Y-137159000D01*
X65335519Y-136395308D01*
X65156019Y-136505852D01*
X64994444Y-136999859D01*
X50350000Y-136999859D01*
X50350000Y-136177519D01*
X65553308Y-136177519D01*
X66317000Y-136941211D01*
X67080692Y-136177519D01*
X72919308Y-136177519D01*
X73683000Y-136941211D01*
X74446692Y-136177519D01*
X74336148Y-135998019D01*
X73842141Y-135836444D01*
X73323908Y-135876217D01*
X73029852Y-135998019D01*
X72919308Y-136177519D01*
X67080692Y-136177519D01*
X66970148Y-135998019D01*
X66476141Y-135836444D01*
X65957908Y-135876217D01*
X65663852Y-135998019D01*
X65553308Y-136177519D01*
X50350000Y-136177519D01*
X50350000Y-131868824D01*
X58149896Y-131868824D01*
X58241048Y-132089429D01*
X58409683Y-132258359D01*
X58630129Y-132349896D01*
X58868824Y-132350104D01*
X59089429Y-132258952D01*
X59258359Y-132090317D01*
X59342160Y-131888500D01*
X65058623Y-131888500D01*
X65058623Y-133793500D01*
X65079542Y-133904673D01*
X65145245Y-134006779D01*
X65245497Y-134075278D01*
X65364500Y-134099377D01*
X67269500Y-134099377D01*
X67380673Y-134078458D01*
X67482779Y-134012755D01*
X67551278Y-133912503D01*
X67575377Y-133793500D01*
X67575377Y-133089045D01*
X72430283Y-133089045D01*
X72620563Y-133549557D01*
X72972589Y-133902199D01*
X73432769Y-134093282D01*
X73931045Y-134093717D01*
X74391557Y-133903437D01*
X74744199Y-133551411D01*
X74935282Y-133091231D01*
X74935717Y-132592955D01*
X74745437Y-132132443D01*
X74393411Y-131779801D01*
X73933231Y-131588718D01*
X73434955Y-131588283D01*
X72974443Y-131778563D01*
X72621801Y-132130589D01*
X72430718Y-132590769D01*
X72430283Y-133089045D01*
X67575377Y-133089045D01*
X67575377Y-131888500D01*
X67554458Y-131777327D01*
X67488755Y-131675221D01*
X67388503Y-131606722D01*
X67269500Y-131582623D01*
X65364500Y-131582623D01*
X65253327Y-131603542D01*
X65151221Y-131669245D01*
X65082722Y-131769497D01*
X65058623Y-131888500D01*
X59342160Y-131888500D01*
X59349896Y-131869871D01*
X59350104Y-131631176D01*
X59258952Y-131410571D01*
X59090317Y-131241641D01*
X58869871Y-131150104D01*
X58631176Y-131149896D01*
X58410571Y-131241048D01*
X58241641Y-131409683D01*
X58150104Y-131630129D01*
X58149896Y-131868824D01*
X50350000Y-131868824D01*
X50350000Y-125640481D01*
X53053308Y-125640481D01*
X53163852Y-125819981D01*
X53657859Y-125981556D01*
X54176092Y-125941783D01*
X54470148Y-125819981D01*
X54580692Y-125640481D01*
X60419308Y-125640481D01*
X60529852Y-125819981D01*
X61023859Y-125981556D01*
X61542092Y-125941783D01*
X61836148Y-125819981D01*
X61946692Y-125640481D01*
X78053308Y-125640481D01*
X78163852Y-125819981D01*
X78657859Y-125981556D01*
X79176092Y-125941783D01*
X79470148Y-125819981D01*
X79580692Y-125640481D01*
X85419308Y-125640481D01*
X85529852Y-125819981D01*
X86023859Y-125981556D01*
X86542092Y-125941783D01*
X86836148Y-125819981D01*
X86946692Y-125640481D01*
X86183000Y-124876789D01*
X85419308Y-125640481D01*
X79580692Y-125640481D01*
X78817000Y-124876789D01*
X78053308Y-125640481D01*
X61946692Y-125640481D01*
X61183000Y-124876789D01*
X60419308Y-125640481D01*
X54580692Y-125640481D01*
X53817000Y-124876789D01*
X53053308Y-125640481D01*
X50350000Y-125640481D01*
X50350000Y-124499859D01*
X52494444Y-124499859D01*
X52534217Y-125018092D01*
X52656019Y-125312148D01*
X52835519Y-125422692D01*
X53599211Y-124659000D01*
X54034789Y-124659000D01*
X54798481Y-125422692D01*
X54977981Y-125312148D01*
X55139556Y-124818141D01*
X55115129Y-124499859D01*
X59860444Y-124499859D01*
X59900217Y-125018092D01*
X60022019Y-125312148D01*
X60201519Y-125422692D01*
X60965211Y-124659000D01*
X61400789Y-124659000D01*
X62164481Y-125422692D01*
X62343981Y-125312148D01*
X62505556Y-124818141D01*
X62481129Y-124499859D01*
X77494444Y-124499859D01*
X77534217Y-125018092D01*
X77656019Y-125312148D01*
X77835519Y-125422692D01*
X78599211Y-124659000D01*
X79034789Y-124659000D01*
X79798481Y-125422692D01*
X79977981Y-125312148D01*
X80139556Y-124818141D01*
X80115129Y-124499859D01*
X84860444Y-124499859D01*
X84900217Y-125018092D01*
X85022019Y-125312148D01*
X85201519Y-125422692D01*
X85965211Y-124659000D01*
X86400789Y-124659000D01*
X87164481Y-125422692D01*
X87343981Y-125312148D01*
X87505556Y-124818141D01*
X87465783Y-124299908D01*
X87343981Y-124005852D01*
X87164481Y-123895308D01*
X86400789Y-124659000D01*
X85965211Y-124659000D01*
X85201519Y-123895308D01*
X85022019Y-124005852D01*
X84860444Y-124499859D01*
X80115129Y-124499859D01*
X80099783Y-124299908D01*
X79977981Y-124005852D01*
X79798481Y-123895308D01*
X79034789Y-124659000D01*
X78599211Y-124659000D01*
X77835519Y-123895308D01*
X77656019Y-124005852D01*
X77494444Y-124499859D01*
X62481129Y-124499859D01*
X62465783Y-124299908D01*
X62343981Y-124005852D01*
X62164481Y-123895308D01*
X61400789Y-124659000D01*
X60965211Y-124659000D01*
X60201519Y-123895308D01*
X60022019Y-124005852D01*
X59860444Y-124499859D01*
X55115129Y-124499859D01*
X55099783Y-124299908D01*
X54977981Y-124005852D01*
X54798481Y-123895308D01*
X54034789Y-124659000D01*
X53599211Y-124659000D01*
X52835519Y-123895308D01*
X52656019Y-124005852D01*
X52494444Y-124499859D01*
X50350000Y-124499859D01*
X50350000Y-123677519D01*
X53053308Y-123677519D01*
X53817000Y-124441211D01*
X54580692Y-123677519D01*
X60419308Y-123677519D01*
X61183000Y-124441211D01*
X61946692Y-123677519D01*
X78053308Y-123677519D01*
X78817000Y-124441211D01*
X79580692Y-123677519D01*
X85419308Y-123677519D01*
X86183000Y-124441211D01*
X86946692Y-123677519D01*
X86836148Y-123498019D01*
X86342141Y-123336444D01*
X85823908Y-123376217D01*
X85529852Y-123498019D01*
X85419308Y-123677519D01*
X79580692Y-123677519D01*
X79470148Y-123498019D01*
X78976141Y-123336444D01*
X78457908Y-123376217D01*
X78163852Y-123498019D01*
X78053308Y-123677519D01*
X61946692Y-123677519D01*
X61836148Y-123498019D01*
X61342141Y-123336444D01*
X60823908Y-123376217D01*
X60529852Y-123498019D01*
X60419308Y-123677519D01*
X54580692Y-123677519D01*
X54470148Y-123498019D01*
X53976141Y-123336444D01*
X53457908Y-123376217D01*
X53163852Y-123498019D01*
X53053308Y-123677519D01*
X50350000Y-123677519D01*
X50350000Y-119388500D01*
X52558623Y-119388500D01*
X52558623Y-121293500D01*
X52579542Y-121404673D01*
X52645245Y-121506779D01*
X52745497Y-121575278D01*
X52864500Y-121599377D01*
X54769500Y-121599377D01*
X54880673Y-121578458D01*
X54982779Y-121512755D01*
X55051278Y-121412503D01*
X55075377Y-121293500D01*
X55075377Y-120589045D01*
X59930283Y-120589045D01*
X60120563Y-121049557D01*
X60472589Y-121402199D01*
X60932769Y-121593282D01*
X61431045Y-121593717D01*
X61891557Y-121403437D01*
X62244199Y-121051411D01*
X62435282Y-120591231D01*
X62435717Y-120092955D01*
X62245437Y-119632443D01*
X62001921Y-119388500D01*
X77558623Y-119388500D01*
X77558623Y-121293500D01*
X77579542Y-121404673D01*
X77645245Y-121506779D01*
X77745497Y-121575278D01*
X77864500Y-121599377D01*
X79769500Y-121599377D01*
X79880673Y-121578458D01*
X79982779Y-121512755D01*
X80051278Y-121412503D01*
X80075377Y-121293500D01*
X80075377Y-120589045D01*
X84930283Y-120589045D01*
X85120563Y-121049557D01*
X85472589Y-121402199D01*
X85932769Y-121593282D01*
X86431045Y-121593717D01*
X86891557Y-121403437D01*
X87244199Y-121051411D01*
X87435282Y-120591231D01*
X87435717Y-120092955D01*
X87245437Y-119632443D01*
X86893411Y-119279801D01*
X86433231Y-119088718D01*
X85934955Y-119088283D01*
X85474443Y-119278563D01*
X85121801Y-119630589D01*
X84930718Y-120090769D01*
X84930283Y-120589045D01*
X80075377Y-120589045D01*
X80075377Y-119388500D01*
X80054458Y-119277327D01*
X79988755Y-119175221D01*
X79888503Y-119106722D01*
X79769500Y-119082623D01*
X77864500Y-119082623D01*
X77753327Y-119103542D01*
X77651221Y-119169245D01*
X77582722Y-119269497D01*
X77558623Y-119388500D01*
X62001921Y-119388500D01*
X61893411Y-119279801D01*
X61433231Y-119088718D01*
X60934955Y-119088283D01*
X60474443Y-119278563D01*
X60121801Y-119630589D01*
X59930718Y-120090769D01*
X59930283Y-120589045D01*
X55075377Y-120589045D01*
X55075377Y-119388500D01*
X55054458Y-119277327D01*
X54988755Y-119175221D01*
X54888503Y-119106722D01*
X54769500Y-119082623D01*
X52864500Y-119082623D01*
X52753327Y-119103542D01*
X52651221Y-119169245D01*
X52582722Y-119269497D01*
X52558623Y-119388500D01*
X50350000Y-119388500D01*
X50350000Y-98592500D01*
X50820500Y-98592500D01*
X50820500Y-99245915D01*
X50874393Y-99376025D01*
X50973975Y-99475607D01*
X51104085Y-99529500D01*
X51757500Y-99529500D01*
X51846000Y-99441000D01*
X51846000Y-98504000D01*
X52154000Y-98504000D01*
X52154000Y-99441000D01*
X52242500Y-99529500D01*
X52895915Y-99529500D01*
X53026025Y-99475607D01*
X53125607Y-99376025D01*
X53179500Y-99245915D01*
X53179500Y-98592500D01*
X53091000Y-98504000D01*
X52154000Y-98504000D01*
X51846000Y-98504000D01*
X50909000Y-98504000D01*
X50820500Y-98592500D01*
X50350000Y-98592500D01*
X50350000Y-97454085D01*
X50820500Y-97454085D01*
X50820500Y-98107500D01*
X50909000Y-98196000D01*
X51846000Y-98196000D01*
X51846000Y-97259000D01*
X52154000Y-97259000D01*
X52154000Y-98196000D01*
X53091000Y-98196000D01*
X53179500Y-98107500D01*
X53179500Y-97454085D01*
X53125607Y-97323975D01*
X53026025Y-97224393D01*
X52895915Y-97170500D01*
X52242500Y-97170500D01*
X52154000Y-97259000D01*
X51846000Y-97259000D01*
X51757500Y-97170500D01*
X51104085Y-97170500D01*
X50973975Y-97224393D01*
X50874393Y-97323975D01*
X50820500Y-97454085D01*
X50350000Y-97454085D01*
X50350000Y-96032894D01*
X50874305Y-96032894D01*
X51045291Y-96446712D01*
X51361623Y-96763596D01*
X51775142Y-96935304D01*
X52222894Y-96935695D01*
X52636712Y-96764709D01*
X52953596Y-96448377D01*
X53125304Y-96034858D01*
X53125695Y-95587106D01*
X52954709Y-95173288D01*
X52638377Y-94856404D01*
X52224858Y-94684696D01*
X51777106Y-94684305D01*
X51363288Y-94855291D01*
X51046404Y-95171623D01*
X50874696Y-95585142D01*
X50874305Y-96032894D01*
X50350000Y-96032894D01*
X50350000Y-93492894D01*
X50874305Y-93492894D01*
X51045291Y-93906712D01*
X51361623Y-94223596D01*
X51775142Y-94395304D01*
X52222894Y-94395695D01*
X52636712Y-94224709D01*
X52953596Y-93908377D01*
X53125304Y-93494858D01*
X53125695Y-93047106D01*
X52954709Y-92633288D01*
X52638377Y-92316404D01*
X52224858Y-92144696D01*
X51777106Y-92144305D01*
X51363288Y-92315291D01*
X51046404Y-92631623D01*
X50874696Y-93045142D01*
X50874305Y-93492894D01*
X50350000Y-93492894D01*
X50350000Y-90952894D01*
X50874305Y-90952894D01*
X51045291Y-91366712D01*
X51361623Y-91683596D01*
X51775142Y-91855304D01*
X52222894Y-91855695D01*
X52636712Y-91684709D01*
X52953596Y-91368377D01*
X53125304Y-90954858D01*
X53125695Y-90507106D01*
X52954709Y-90093288D01*
X52638377Y-89776404D01*
X52224858Y-89604696D01*
X51777106Y-89604305D01*
X51363288Y-89775291D01*
X51046404Y-90091623D01*
X50874696Y-90505142D01*
X50874305Y-90952894D01*
X50350000Y-90952894D01*
X50350000Y-88412894D01*
X50874305Y-88412894D01*
X51045291Y-88826712D01*
X51361623Y-89143596D01*
X51775142Y-89315304D01*
X52222894Y-89315695D01*
X52636712Y-89144709D01*
X52953596Y-88828377D01*
X53125304Y-88414858D01*
X53125695Y-87967106D01*
X52954709Y-87553288D01*
X52638377Y-87236404D01*
X52224858Y-87064696D01*
X51777106Y-87064305D01*
X51363288Y-87235291D01*
X51046404Y-87551623D01*
X50874696Y-87965142D01*
X50874305Y-88412894D01*
X50350000Y-88412894D01*
X50350000Y-85872894D01*
X50874305Y-85872894D01*
X51045291Y-86286712D01*
X51361623Y-86603596D01*
X51775142Y-86775304D01*
X52222894Y-86775695D01*
X52636712Y-86604709D01*
X52953596Y-86288377D01*
X53125304Y-85874858D01*
X53125695Y-85427106D01*
X52954709Y-85013288D01*
X52638377Y-84696404D01*
X52224858Y-84524696D01*
X51777106Y-84524305D01*
X51363288Y-84695291D01*
X51046404Y-85011623D01*
X50874696Y-85425142D01*
X50874305Y-85872894D01*
X50350000Y-85872894D01*
X50350000Y-79500000D01*
X50650000Y-79500000D01*
X50650000Y-82350000D01*
X50695672Y-82579610D01*
X50825736Y-82774264D01*
X53600000Y-85548528D01*
X53600000Y-87300000D01*
X53645672Y-87529610D01*
X53775736Y-87724264D01*
X54475080Y-88423608D01*
X54559683Y-88508359D01*
X54559936Y-88508464D01*
X58900000Y-92848528D01*
X58900000Y-104249477D01*
X58899896Y-104368824D01*
X58991048Y-104589429D01*
X59159683Y-104758359D01*
X59159936Y-104758464D01*
X62400000Y-107998528D01*
X62400000Y-112500000D01*
X62445672Y-112729610D01*
X62575736Y-112924264D01*
X65825736Y-116174264D01*
X66020390Y-116304328D01*
X66250000Y-116350000D01*
X68499476Y-116350000D01*
X68618824Y-116350104D01*
X68839429Y-116258952D01*
X69008359Y-116090317D01*
X69099896Y-115869871D01*
X69100104Y-115631176D01*
X69008952Y-115410571D01*
X68840317Y-115241641D01*
X68619871Y-115150104D01*
X68381176Y-115149896D01*
X68380924Y-115150000D01*
X66498528Y-115150000D01*
X64489009Y-113140481D01*
X65553308Y-113140481D01*
X65663852Y-113319981D01*
X66157859Y-113481556D01*
X66676092Y-113441783D01*
X66970148Y-113319981D01*
X67080692Y-113140481D01*
X72919308Y-113140481D01*
X73029852Y-113319981D01*
X73523859Y-113481556D01*
X74042092Y-113441783D01*
X74336148Y-113319981D01*
X74446692Y-113140481D01*
X73683000Y-112376789D01*
X72919308Y-113140481D01*
X67080692Y-113140481D01*
X66317000Y-112376789D01*
X65553308Y-113140481D01*
X64489009Y-113140481D01*
X63600000Y-112251472D01*
X63600000Y-111999859D01*
X64994444Y-111999859D01*
X65034217Y-112518092D01*
X65156019Y-112812148D01*
X65335519Y-112922692D01*
X66099211Y-112159000D01*
X66534789Y-112159000D01*
X67298481Y-112922692D01*
X67477981Y-112812148D01*
X67639556Y-112318141D01*
X67615129Y-111999859D01*
X72360444Y-111999859D01*
X72400217Y-112518092D01*
X72522019Y-112812148D01*
X72701519Y-112922692D01*
X73465211Y-112159000D01*
X73900789Y-112159000D01*
X74664481Y-112922692D01*
X74843981Y-112812148D01*
X75005556Y-112318141D01*
X74965783Y-111799908D01*
X74843981Y-111505852D01*
X74664481Y-111395308D01*
X73900789Y-112159000D01*
X73465211Y-112159000D01*
X72701519Y-111395308D01*
X72522019Y-111505852D01*
X72360444Y-111999859D01*
X67615129Y-111999859D01*
X67599783Y-111799908D01*
X67477981Y-111505852D01*
X67298481Y-111395308D01*
X66534789Y-112159000D01*
X66099211Y-112159000D01*
X65335519Y-111395308D01*
X65156019Y-111505852D01*
X64994444Y-111999859D01*
X63600000Y-111999859D01*
X63600000Y-111177519D01*
X65553308Y-111177519D01*
X66317000Y-111941211D01*
X67080692Y-111177519D01*
X72919308Y-111177519D01*
X73683000Y-111941211D01*
X74446692Y-111177519D01*
X74336148Y-110998019D01*
X73842141Y-110836444D01*
X73323908Y-110876217D01*
X73029852Y-110998019D01*
X72919308Y-111177519D01*
X67080692Y-111177519D01*
X66970148Y-110998019D01*
X66476141Y-110836444D01*
X65957908Y-110876217D01*
X65663852Y-110998019D01*
X65553308Y-111177519D01*
X63600000Y-111177519D01*
X63600000Y-107750000D01*
X63554328Y-107520390D01*
X63554328Y-107520389D01*
X63424264Y-107325736D01*
X62987028Y-106888500D01*
X65058623Y-106888500D01*
X65058623Y-108793500D01*
X65079542Y-108904673D01*
X65145245Y-109006779D01*
X65245497Y-109075278D01*
X65364500Y-109099377D01*
X67269500Y-109099377D01*
X67380673Y-109078458D01*
X67482779Y-109012755D01*
X67551278Y-108912503D01*
X67575377Y-108793500D01*
X67575377Y-108089045D01*
X72430283Y-108089045D01*
X72620563Y-108549557D01*
X72972589Y-108902199D01*
X73432769Y-109093282D01*
X73931045Y-109093717D01*
X74391557Y-108903437D01*
X74744199Y-108551411D01*
X74935282Y-108091231D01*
X74935717Y-107592955D01*
X74745437Y-107132443D01*
X74393411Y-106779801D01*
X73933231Y-106588718D01*
X73434955Y-106588283D01*
X72974443Y-106778563D01*
X72621801Y-107130589D01*
X72430718Y-107590769D01*
X72430283Y-108089045D01*
X67575377Y-108089045D01*
X67575377Y-106888500D01*
X67554458Y-106777327D01*
X67488755Y-106675221D01*
X67388503Y-106606722D01*
X67269500Y-106582623D01*
X65364500Y-106582623D01*
X65253327Y-106603542D01*
X65151221Y-106669245D01*
X65082722Y-106769497D01*
X65058623Y-106888500D01*
X62987028Y-106888500D01*
X60100000Y-104001472D01*
X60100000Y-94748528D01*
X61248528Y-93600000D01*
X81851462Y-93600000D01*
X82675070Y-94423608D01*
X82759673Y-94508359D01*
X82980119Y-94599896D01*
X83218814Y-94600104D01*
X83439419Y-94508952D01*
X83608349Y-94340317D01*
X83699886Y-94119871D01*
X83700094Y-93881176D01*
X83608942Y-93660571D01*
X83440307Y-93491641D01*
X83440054Y-93491536D01*
X82524254Y-92575736D01*
X82329600Y-92445672D01*
X82099990Y-92400000D01*
X76448572Y-92400000D01*
X76508359Y-92340317D01*
X76599896Y-92119871D01*
X76600104Y-91881176D01*
X76508952Y-91660571D01*
X76340317Y-91491641D01*
X76119871Y-91400104D01*
X75881176Y-91399896D01*
X75660571Y-91491048D01*
X75601516Y-91550000D01*
X64786396Y-91550000D01*
X54418198Y-81181802D01*
X54385095Y-81159683D01*
X54272208Y-81084254D01*
X54100000Y-81050000D01*
X53398574Y-81050000D01*
X53340317Y-80991641D01*
X53119871Y-80900104D01*
X52881176Y-80899896D01*
X52660571Y-80991048D01*
X52491641Y-81159683D01*
X52400104Y-81380129D01*
X52399896Y-81618824D01*
X52491048Y-81839429D01*
X52659683Y-82008359D01*
X52880129Y-82099896D01*
X53118824Y-82100104D01*
X53339429Y-82008952D01*
X53398484Y-81950000D01*
X53913604Y-81950000D01*
X64281802Y-92318198D01*
X64404227Y-92400000D01*
X61000000Y-92400000D01*
X60770389Y-92445672D01*
X60575736Y-92575736D01*
X60100000Y-93051472D01*
X60100000Y-92600000D01*
X60054328Y-92370390D01*
X59924264Y-92175736D01*
X55324920Y-87576392D01*
X55240317Y-87491641D01*
X55240064Y-87491536D01*
X54800000Y-87051472D01*
X54800000Y-85300000D01*
X54754328Y-85070390D01*
X54624264Y-84875736D01*
X51850000Y-82101472D01*
X51850000Y-79748528D01*
X54173608Y-77424920D01*
X54258359Y-77340317D01*
X54349896Y-77119871D01*
X54350104Y-76881176D01*
X54258952Y-76660571D01*
X54090317Y-76491641D01*
X53869871Y-76400104D01*
X53631176Y-76399896D01*
X53410571Y-76491048D01*
X53241641Y-76659683D01*
X53241536Y-76659936D01*
X50825736Y-79075736D01*
X50695672Y-79270390D01*
X50650000Y-79500000D01*
X50350000Y-79500000D01*
X50350000Y-75350000D01*
X60150000Y-75350000D01*
X60150000Y-82750000D01*
M02*
